<?xml version="1.0" encoding="UTF-8" standalone="no"?>
<!-- Created with Inkscape (http://www.inkscape.org/) -->

<svg
   width="50mm"
   height="50mm"
   viewBox="0 0 50 50"
   version="1.1"
   id="svg5"
   inkscape:version="1.1.1 (3bf5ae0d25, 2021-09-20)"
   sodipodi:docname="block_yolo.svg"
   xmlns:inkscape="http://www.inkscape.org/namespaces/inkscape"
   xmlns:sodipodi="http://sodipodi.sourceforge.net/DTD/sodipodi-0.dtd"
   xmlns="http://www.w3.org/2000/svg"
   xmlns:svg="http://www.w3.org/2000/svg">
  <sodipodi:namedview
     id="namedview7"
     pagecolor="#ffffff"
     bordercolor="#666666"
     borderopacity="1.0"
     inkscape:pageshadow="2"
     inkscape:pageopacity="0.0"
     inkscape:pagecheckerboard="0"
     inkscape:document-units="mm"
     showgrid="false"
     width="50mm"
     inkscape:zoom="2.0762433"
     inkscape:cx="8.6695043"
     inkscape:cy="126.91191"
     inkscape:window-width="1920"
     inkscape:window-height="1009"
     inkscape:window-x="-8"
     inkscape:window-y="-8"
     inkscape:window-maximized="1"
     inkscape:current-layer="layer1" />
  <defs
     id="defs2" />
  <g
     inkscape:label="Layer 1"
     inkscape:groupmode="layer"
     id="layer1">
    <ellipse
       style="fill:#ffffff;stroke-width:0.264583"
       id="path1278"
       cx="24.849569"
       cy="24.913284"
       rx="24.977001"
       ry="24.913284" />
    <g
       id="g9557"
       transform="matrix(0.31771075,0,0,0.31771075,16.445896,16.055445)">
      <path
         style="fill:#fcfcfc;stroke-width:0.0846667"
         d="M -31.367796,26.506207 V -3.5504587 H 25.231869 81.831534 V 26.506207 56.562872 H 25.231869 -31.367796 Z"
         id="path9563" />
      <path
         style="fill:#00f4f4;stroke-width:0.0846667"
         d="m -17.298204,56.472279 c -1.228456,-0.241751 -2.745067,-1.451729 -3.154858,-2.517002 -0.300589,-0.781399 -0.314998,-1.697506 -0.04168,-2.650326 0.408105,-1.422723 0.885536,-2.027571 2.18814,-2.772107 0.962437,-0.550106 1.733487,-1.168593 2.350321,-1.885281 1.363821,-1.584598 2.309502,-3.500673 2.628005,-5.32469 0.137924,-0.78987 0.140711,-2.401888 0.0054,-3.132667 -0.480019,-2.592751 -1.667638,-5.338382 -4.541185,-10.498666 -4.251566,-7.634914 -5.342062,-9.569511 -5.688365,-10.091453 -0.755495,-1.13867 -2.760157,-2.842279 -5.063718,-4.303266 -1.654206,-1.049146 -2.027293,-1.460824 -2.462224,-2.716909 -0.476603,-1.3764368 -0.330666,-2.5890328 0.437113,-3.6319864 0.929551,-1.2627059 1.732654,-1.7596374 3.035745,-1.8784103 1.121202,-0.1021952 18.1255294,-0.3020838 18.674365,-0.2195209 0.730874,0.1099478 1.4131933,0.4929459 2.1458182,1.2044871 1.1298529,1.0973358 1.5355586,2.3091173 1.2063086,3.6030593 -0.1351034,0.5309542 -0.306219,0.8620032 -1.2072476,2.3356042 -0.5038132,0.82397 -0.7724546,1.600607 -0.9000921,2.602151 -0.080808,0.634075 -0.073388,0.852562 0.049167,1.447951 0.1682292,0.817286 0.4685216,1.590645 0.6023694,1.551318 0.1229504,-0.03612 1.2472229,-2.230372 1.9627435,-3.830691 0.7422743,-1.660156 1.255328,-3.054503 1.4330544,-3.8946666 0.1399921,-0.6617825 0.1392267,-0.688025 -0.033349,-1.1429999 C -4.0236952,7.7999457 -5.4368275,6.1895248 -6.971465,4.9665089 -7.6191862,4.4503135 -8.5119885,3.3712153 -8.861981,2.6815096 -9.185544,2.0438885 -9.2458986,1.4745269 -9.0648432,0.76779894 c 0.1796042,-0.70106376 0.476432,-1.2038255 1.0314195,-1.74699711 0.5594197,-0.54751083 2.0002194,-1.33309653 2.7006269,-1.47249793 0.7532878,-0.1499262 20.5357088,0.519311 21.1793038,0.7164935 0.52781,0.1617088 1.372566,0.7103677 1.898241,1.23288289 0.771973,0.76733592 1.121575,2.01053171 0.936946,3.33182151 -0.053,0.3793382 -0.09633,0.731808 -0.09627,0.7832662 7.3e-5,0.062801 0.48027,0.1095463 1.460609,0.1421849 0.803275,0.026743 1.82245,0.1125306 2.264833,0.1906379 2.591318,0.4575235 5.167262,1.6914764 7.305373,3.499489 l 0.814158,0.688461 h 0.845904 c 0.465248,0 0.868755,-0.036973 0.896684,-0.082162 C 32.200916,8.0061895 32.066359,7.6537645 31.873972,7.268212 31.193744,5.9050042 30.441173,5.0544531 29.345091,4.4100848 28.541954,3.9379339 27.39671,2.6829601 26.825,1.6485337 26.526252,1.1079924 26.501869,1.0127634 26.501869,0.38654115 c 0,-0.58780949 0.03618,-0.75371145 0.273701,-1.25520716 0.366133,-0.77302869 1.108155,-1.49919469 2.070934,-2.02668109 1.381928,-0.7571297 0.297071,-0.7284574 12.895365,-0.3408181 12.248853,0.3768873 11.454196,0.3167191 12.392439,0.9383023 0.505443,0.3348552 0.882091,0.8050088 1.298939,1.62140842 l 0.278621,0.54567097 V 1.2285454 c 0,1.1956253 -0.02394,1.4332555 -0.198755,1.9731853 -0.350012,1.0810215 -1.146971,1.7910664 -2.536114,2.2595423 -1.021115,0.3443605 -1.688573,0.6787184 -2.355154,1.1797969 -0.556136,0.4180544 -1.330866,1.2931021 -1.254401,1.4168272 0.02571,0.041604 1.077628,0.075644 2.337589,0.075644 h 2.290837 l 0.56167,-0.4951179 c 6.284442,-5.5398544 15.23182,-5.1363037 21.304994,0.9609116 3.126308,3.1386852 5.078247,7.2044662 5.812544,12.1072052 0.181365,1.210962 0.155093,5.237618 -0.04254,6.519333 -0.197138,1.278507 -0.709066,3.311447 -1.110056,4.408184 -0.436855,1.194827 -1.54708,3.402927 -2.210867,4.397149 -2.705134,4.051744 -6.512755,6.714875 -10.841363,7.582674 -1.161923,0.232941 -3.472891,0.316368 -4.652086,0.167941 -0.447057,-0.05627 -0.83185,-0.08329 -0.8551,-0.06004 -0.02325,0.02325 0.0049,1.509176 0.06257,3.302061 0.09759,3.034405 0.09454,3.302713 -0.04404,3.880577 -0.335229,1.397815 -0.988635,2.160447 -2.50206,2.920321 l -0.973667,0.488867 -3.767667,0.05773 c -4.723,0.07237 -10.134084,0.368819 -19.327469,1.058869 -1.664435,0.124932 -1.88682,0.125756 -2.285999,0.0085 -0.243209,-0.07146 -0.629049,-0.178197 -0.857424,-0.237193 -0.548431,-0.141676 -1.758226,-0.948009 -2.319384,-1.545877 -0.567118,-0.604218 -0.936591,-1.378127 -1.000864,-2.096435 -0.0453,-0.506306 -0.02798,-0.580965 0.263222,-1.134634 0.171444,-0.325966 0.40821,-0.783166 0.526146,-1.016 0.117937,-0.232833 0.456594,-0.787423 0.752574,-1.23242 1.231583,-1.851659 2.705949,-5.501393 3.174833,-7.859174 0.140885,-0.708443 0.188379,-1.340825 0.223997,-2.98252 0.03172,-1.462184 0.01758,-2.100517 -0.04742,-2.140693 -0.05534,-0.0342 -0.30928,0.276185 -0.630868,0.771114 -2.467663,3.797772 -6.040679,6.456882 -10.036764,7.469564 -1.923785,0.487522 -4.581905,0.561232 -6.48196,0.179743 -2.473101,-0.496569 -4.867938,-1.63421 -6.9106192,-3.28284 C 8.9515177,39.662516 7.3297997,37.984886 6.7014841,37.146476 4.7864088,34.591047 3.4238648,31.467105 2.7530119,28.093707 2.6997642,27.825948 2.6268789,27.606873 2.5910454,27.606873 c -0.035833,0 -0.548778,1.033415 -1.1398757,2.296477 l -1.07472397,2.296477 0.0240453,4.371023 0.0240453,4.371023 0.22825201,0.487057 c 0.2713973,0.579124 0.93895416,1.311303 1.61521046,1.771571 0.2688378,0.182974 1.0026379,0.580341 1.6306681,0.883038 1.4332932,0.690815 1.8865206,1.100423 2.4066677,2.175047 0.8146271,1.683017 0.6455901,2.974854 -0.5797389,4.430544 -0.6042084,0.7178 -1.1271317,1.082331 -1.8709072,1.304211 -0.551782,0.164606 -18.9867895,4.305963 -19.9345345,4.478221 -0.565488,0.10278 -0.699323,0.102859 -1.218358,6.77e-4 z M 49.708998,38.542614 c 0.407948,-0.296827 1.369494,-1.318645 1.490239,-1.583651 0.07691,-0.168794 0.02888,-0.286375 -0.350457,-0.858011 -0.625678,-0.942854 -1.798382,-3.363082 -2.208099,-4.557079 -0.191751,-0.5588 -0.496128,-1.6201 -0.676393,-2.358445 -0.180264,-0.738345 -0.349129,-1.36382 -0.375253,-1.389944 -0.02613,-0.02612 -0.0475,0.09243 -0.0475,0.263447 0,0.717491 0.428236,10.521285 0.463806,10.618109 0.02661,0.07243 0.249517,0.105833 0.706167,0.105833 0.59893,0 0.701114,-0.02461 0.99749,-0.240259 z M 47.471246,21.096123 c 0.01827,-0.243379 -0.0087,-0.385169 -0.07788,-0.409222 -0.07671,-0.02668 -0.105833,0.09794 -0.105833,0.452851 0,0.566543 0.140412,0.533198 0.183711,-0.04363 z M 12.65634,21.427561 c 0.245612,-0.131448 0.593741,-0.764878 1.396711,-2.541354 1.222047,-2.703633 1.634216,-3.350426 3.34514,-5.249333 1.209274,-1.342142 1.627709,-1.963444 1.593475,-2.366034 -0.04843,-0.569501 -0.805114,-0.833932 -2.141014,-0.7482 -1.588202,0.101925 -3.635219,1.767832 -4.779891,3.88998 -0.677896,1.256776 -0.935892,2.336256 -0.935892,3.915873 0,0.868222 0.03258,1.131838 0.201109,1.627339 0.452942,1.331704 0.819195,1.739945 1.320362,1.471729 z M 56.91416,20.89704 c 0.299229,-0.314449 0.550875,-0.798045 1.337615,-2.570569 1.043347,-2.350647 1.494756,-3.057426 3.136747,-4.911238 1.340384,-1.513292 1.646428,-1.939896 1.705009,-2.376621 0.03959,-0.295158 0.01588,-0.361269 -0.186715,-0.520627 -0.541951,-0.426305 -1.905864,-0.514699 -2.792281,-0.180965 -1.728453,0.650759 -3.551631,2.576389 -4.35566,4.600431 -0.350325,0.881887 -0.512674,1.849085 -0.512674,3.05428 0,0.866218 0.03266,1.130167 0.201109,1.625434 0.508762,1.495831 0.919946,1.854601 1.46685,1.279875 z"
         id="path9561" />
      <path
         style="fill:#010505;stroke-width:0.0846667"
         d="m -17.805574,56.31722 c -0.247561,-0.0855 -0.711269,-0.333901 -1.030464,-0.551997 -1.606301,-1.097537 -2.160708,-2.496055 -1.699494,-4.287055 0.101264,-0.39323 0.275118,-0.915088 0.386344,-1.159686 0.272717,-0.599737 0.948803,-1.294292 1.589494,-1.632917 1.813496,-0.95849 3.27,-2.501371 4.295482,-4.55022 1.369461,-2.736099 1.42011,-5.240628 0.176482,-8.726914 -0.791874,-2.219876 -1.439209,-3.519103 -4.446064,-8.923431 -5.186148,-9.321249 -4.938878,-8.902908 -5.80396,-9.819342 -0.979528,-1.037673 -2.053982,-1.903817 -3.726534,-3.004053 -2.290701,-1.506863 -2.507469,-1.72504 -2.968782,-2.988064 -0.589521,-1.6140423 -0.389124,-2.7991504 0.692142,-4.0931805 0.528532,-0.6325319 0.921245,-0.9511935 1.507623,-1.2233384 0.640629,-0.2973231 1.263321,-0.3218951 11.352318,-0.4479739 l 8.5104752,-0.1063521 0.5234533,0.1767728 c 1.3916473,0.4699668 2.6580405,1.9003864 2.9174575,3.295334 0.1829612,0.983825 -0.073127,1.8607051 -0.9107128,3.1184041 -0.9221216,1.384637 -1.259917,2.40915 -1.2562077,3.81 0.00215,0.810493 0.03504,1.024604 0.2535157,1.650178 0.1518242,0.434727 0.3024217,0.728739 0.3810253,0.743876 0.093945,0.01809 0.41391,-0.556719 1.1542082,-2.073511 1.4341703,-2.938466 2.2383089,-5.002269 2.361189,-6.0599409 C -3.500821,9.0699186 -3.5275875,8.9607824 -3.7958809,8.4473367 -4.3140629,7.4556674 -5.431784,6.2155835 -6.8567967,5.0513289 -7.968575,4.1429899 -8.906823,2.8612258 -9.1126452,1.9695569 c -0.07803,-0.3380443 -0.079168,-0.5647961 -0.00484,-0.9644711 0.2206896,-1.18669564 0.9684469,-2.0984864 2.3312052,-2.8425927 1.4212916,-0.7760678 0.409989,-0.7457016 12.0037382,-0.3604342 8.1168098,0.2697266 10.2866578,0.3651612 10.6316108,0.4676013 0.952459,0.2828497 2.08811,1.2515327 2.509082,2.14018418 0.261746,0.55252982 0.269721,0.60315702 0.269721,1.71236332 0,0.62865 -0.01905,1.23825 -0.04233,1.3546667 l -0.04233,0.2116666 1.397728,0.055467 c 1.517727,0.060229 2.561292,0.2100968 3.802335,0.5460598 2.126471,0.5756576 4.19127,1.7048882 6.01827,3.2913696 l 0.635,0.5514043 0.862836,3.387e-4 c 0.47456,1.693e-4 0.885306,-0.036005 0.912767,-0.08044 C 32.244313,7.9359593 31.776396,6.9455456 31.336268,6.2834972 30.849976,5.5520103 30.131345,4.8714997 29.366571,4.4182862 28.502596,3.9062845 27.269746,2.533589 26.773511,1.5310882 26.538755,1.0568304 26.502164,0.89503609 26.504037,0.33957096 c 0.0044,-1.30266139 0.810092,-2.37738486 2.434782,-3.24776546 0.643541,-0.344758 1.068285,-0.5138769 1.439334,-0.5730939 0.810247,-0.1293104 22.327,0.5514002 22.801948,0.7213695 0.941075,0.3367807 1.473408,0.7741591 2.012109,1.6531878 0.447158,0.72965201 0.559799,1.2185484 0.560984,2.4349539 8.47e-4,0.8746151 -0.03117,1.1249084 -0.216577,1.6929192 -0.264355,0.8098172 -0.433748,1.0941473 -0.917558,1.5401063 -0.444382,0.4096167 -0.862838,0.6323976 -1.731047,0.9215918 -0.849508,0.2829653 -1.527091,0.621378 -2.186996,1.0922762 -0.567768,0.4051511 -1.41761,1.3467926 -1.33546,1.479715 0.02802,0.045342 1.017242,0.078698 2.333877,0.078698 h 2.285235 l 0.812377,-0.6869539 c 2.272758,-1.9218715 4.804444,-3.09344 7.688156,-3.557786 1.081956,-0.1742212 3.528306,-0.1311102 4.718448,0.083151 7.36147,1.32529 13.099381,7.8805456 14.425693,16.4805876 0.193548,1.255004 0.224984,5.129984 0.05151,6.35 -0.380518,2.676242 -1.065462,4.916681 -2.177847,7.123671 -2.750498,5.457079 -7.438635,9.041484 -12.827186,9.807274 -1.061466,0.150849 -2.875415,0.166288 -3.912404,0.0333 -0.412098,-0.05285 -0.773117,-0.07223 -0.802268,-0.04308 -0.02916,0.02916 -0.0065,1.52972 0.05027,3.334589 0.100863,3.205142 0.09925,3.297011 -0.06945,3.944056 -0.36648,1.405604 -0.971431,2.084405 -2.528248,2.836908 l -0.992514,0.479739 -3.894666,0.05464 c -4.610896,0.06468 -8.238954,0.257535 -17.441333,0.927098 -3.309533,0.240802 -3.585341,0.249648 -3.979333,0.127631 -0.232834,-0.07211 -0.644132,-0.194997 -0.913995,-0.27309 -0.295508,-0.08551 -0.771081,-0.337642 -1.195703,-0.63391 -1.353724,-0.944524 -2.014663,-1.943737 -2.030484,-3.069703 -0.0076,-0.5372 0.023,-0.659808 0.277052,-1.111785 0.157046,-0.2794 0.414727,-0.75565 0.572626,-1.058334 0.157898,-0.302683 0.459742,-0.797983 0.670765,-1.100666 1.116931,-1.602089 2.654538,-5.356124 3.173079,-7.747 0.152791,-0.704489 0.190949,-1.219882 0.227232,-3.069167 0.03622,-1.845812 0.02399,-2.221712 -0.07215,-2.217856 -0.06367,0.0026 -0.363407,0.392596 -0.66609,0.866758 -1.77949,2.787627 -4.178184,4.942176 -7.039658,6.323143 -2.004666,0.967467 -3.8187,1.42417 -5.969605,1.502913 -2.631173,0.09633 -4.814243,-0.360063 -7.183736,-1.501821 C 7.9722283,39.936749 4.1888019,34.785883 2.8844594,28.627234 2.6767687,27.646587 2.6285688,27.520729 2.5120684,27.65484 2.474313,27.698302 1.979648,28.732675 1.4128131,29.953446 l -1.03061003,2.219595 v 4.220882 c 0,3.605198 0.0195665,4.286768 0.13413739,4.672572 0.17038743,0.573757 0.41526882,0.960183 0.93015224,1.467794 0.5561965,0.548339 1.0895355,0.88925 2.4826315,1.586903 1.4437528,0.72302 1.8011393,1.044564 2.3288421,2.095283 0.486592,0.968864 0.62712,1.668356 0.4874539,2.426352 -0.1433314,0.777889 -0.3427408,1.189388 -0.9303114,1.91978 -0.5598109,0.695884 -1.1925562,1.183834 -1.7922392,1.382107 -0.20955,0.06928 -4.81242861,1.117663 -10.2286186,2.329731 -10.702066,2.394974 -10.62127,2.380745 -11.599825,2.042775 z M -6.4718089,52.880051 C 1.3851576,51.119731 3.6201603,50.590592 3.9059551,50.423105 4.2731163,50.207934 4.9299197,49.475579 5.1890395,48.992429 5.2802229,48.82241 5.3301957,48.522939 5.3321693,48.134695 5.3348278,47.61219 5.2955857,47.457956 5.0158809,46.891532 4.6266657,46.103344 4.364453,45.882172 3.1391952,45.308583 0.98720395,44.301157 -0.24018328,43.155877 -0.82193216,41.612441 -1.0077035,41.119572 -1.0112688,41.034189 -1.035558,36.496873 L -1.060259,31.88254 1.2195831,27.016781 c 1.2539133,-2.676168 2.3175417,-4.878326 2.3636181,-4.893684 0.050289,-0.01676 0.1038826,0.371399 0.1340807,0.971092 0.1639011,3.254874 0.3780832,4.833312 0.9052949,6.671684 2.6852617,9.363419 11.0833752,14.645839 19.1061372,12.017776 3.732742,-1.222756 6.953234,-4.035231 9.059183,-7.911442 0.476884,-0.877752 0.918485,-1.942078 1.666485,-4.016483 0.351588,-0.975048 0.679446,-1.81301 0.728575,-1.862138 0.06265,-0.06265 0.08066,1.730679 0.06031,6.006149 l -0.02901,6.095471 -0.227974,0.931334 c -0.655815,2.67917 -2.089155,6.124772 -3.295762,7.92267 -0.299232,0.445869 -0.605614,0.964513 -0.680849,1.152543 -0.07523,0.18803 -0.232788,0.483334 -0.350119,0.656231 -0.413776,0.609732 -0.391834,0.975077 0.09927,1.652938 0.434631,0.599912 1.639126,1.412553 2.196041,1.481609 0.222757,0.02762 0.524514,0.0882 0.670572,0.134621 0.191422,0.06084 1.255085,0.01328 3.81,-0.170332 8.861037,-0.636828 12.838961,-0.846116 17.133439,-0.901433 l 3.429,-0.04417 0.762,-0.349311 c 1.037793,-0.475741 1.264048,-0.663867 1.586924,-1.319521 0.258166,-0.524239 0.2773,-0.624817 0.300237,-1.577889 0.01348,-0.559877 -0.02902,-2.503859 -0.09445,-4.319959 -0.06541,-1.8161 -0.08805,-3.336107 -0.0503,-3.377795 0.03983,-0.04398 0.505984,0.01877 1.110445,0.149461 4.73506,1.023801 9.368121,-0.356121 13.003462,-3.872985 3.128577,-3.026612 5.099363,-7.158619 5.698998,-11.94868 0.154864,-1.237139 0.134688,-3.92925 -0.03904,-5.207 C 79.653222,16.505868 77.803958,12.581082 74.888868,9.6538341 72.109236,6.8626096 68.846834,5.3637429 65.194534,5.1998985 61.485635,5.033515 58.160521,6.2915549 55.223375,8.9724402 l -0.657834,0.6004339 h -3.761004 c -2.529903,0 -3.778952,-0.029033 -3.815825,-0.088696 -0.07887,-0.1276096 0.484511,-1.2714385 1.030089,-2.0913902 1.062827,-1.5973315 2.626303,-2.7320173 4.577672,-3.3222259 1.276207,-0.3860006 1.718395,-1.1145956 1.718395,-2.8314123 0,-0.85067292 -0.02096,-0.97670771 -0.232833,-1.39978805 -0.333358,-0.66568791 -0.767749,-1.07114535 -1.308999,-1.22182405 -0.35053,-0.097584 -2.701373,-0.1922431 -10.819501,-0.4356586 -5.704416,-0.1710423 -10.657416,-0.2944638 -11.006666,-0.2742701 -0.55515,0.032099 -0.720147,0.083548 -1.312126,0.4091468 -0.841319,0.4627397 -1.266303,0.84116995 -1.530784,1.36309819 -0.258747,0.51061085 -0.258583,0.81841981 6.77e-4,1.33010341 0.332109,0.6553863 1.450213,1.8518882 2.099895,2.2471328 1.245008,0.7574217 2.124618,1.7520213 2.889981,3.267784 0.490924,0.972251 1.113671,2.7265223 1.037941,2.923871 -0.04006,0.1044786 -0.382529,0.1241289 -2.163277,0.1241289 H 29.853503 L 29.123004,8.9167075 C 27.208199,7.1967449 25.151023,6.0733156 22.959822,5.5509756 21.051552,5.096082 18.946919,5.0369338 16.942773,5.3818743 c -0.676395,0.1164166 -1.25023,0.2116666 -1.275189,0.2116666 -0.144973,0 0.02173,-0.265921 0.540816,-0.8627137 0.805387,-0.9259483 1.059711,-1.540869 1.061383,-2.5662861 0.0016,-0.9588226 -0.197242,-1.41984625 -0.826906,-1.91756711 -0.577708,-0.45665235 -0.951678,-0.63511376 -1.455674,-0.69466042 -0.232834,-0.027509 -4.834128,-0.1917048 -10.2250994,-0.36487962 l -9.8017649,-0.31486335 -0.8229176,0.41831865 c -1.5743208,0.8002842 -2.1963033,1.80103325 -1.7108212,2.75265565 0.2798876,0.5486262 1.0626369,1.4656957 1.6288401,1.9083519 0.9094842,0.7110314 2.4500196,2.3170335 2.9553848,3.0809774 0.5388017,0.8144882 0.7221719,1.2122903 0.8382838,1.8185688 0.2229061,1.163902 -0.7710136,3.951529 -2.9288291,8.214431 -1.1678031,2.307069 -1.827585,3.513666 -1.9213144,3.513666 -0.2052675,0 -1.4619951,-2.318507 -1.7917946,-3.305639 -0.713878,-2.136729 -0.3219391,-4.456438 1.1099638,-6.569381 C -7.1731046,9.9523069 -6.9739652,9.5114976 -6.9236436,9.0239217 -6.8420579,8.2334348 -7.1837303,7.5589438 -8.019513,6.8605801 -8.885399,6.1370637 -8.2219578,6.1739047 -17.89302,6.3123025 c -10.58428,0.1514661 -9.947821,0.1256487 -10.499485,0.4259021 -0.492082,0.2678244 -1.133859,0.987585 -1.389134,1.557931 -0.320682,0.7164797 -0.02754,2.1250364 0.582862,2.8006804 0.157244,0.17405 0.638417,0.537183 1.069273,0.806961 2.419255,1.514808 4.643772,3.351304 5.586149,4.611764 0.236186,0.315905 2.263293,3.898477 5.485293,9.694332 3.084445,5.548419 4.207728,7.990022 4.888438,10.625667 0.262247,1.015395 0.299842,1.298961 0.33675,2.54 0.03182,1.070091 0.0088,1.58522 -0.09831,2.201333 -0.580302,3.337495 -2.810914,6.601039 -5.570479,8.150002 -1.050393,0.589593 -1.36245,0.970527 -1.624973,1.98364 -0.176403,0.680761 -0.167201,1.341708 0.02456,1.763829 0.33446,0.73626 1.617767,1.616653 2.393346,1.641918 0.122869,0.004 4.729484,-1.002293 10.2369231,-2.236211 z m -10.3971041,-0.04219 c -0.291993,-0.177572 -0.329471,-0.326463 -0.185868,-0.738403 0.06809,-0.195313 0.269325,-0.36208 0.855913,-0.709299 2.06284,-1.221058 3.879883,-3.260507 5.102556,-5.727109 0.935835,-1.887939 1.3117344,-3.396142 1.3771606,-5.52551 0.052725,-1.716019 -0.088633,-2.781255 -0.6010946,-4.529667 -0.839751,-2.86506 -1.685278,-4.641694 -5.278533,-11.091333 -4.114182,-7.384666 -4.584444,-8.218539 -4.989006,-8.846553 -0.917151,-1.423722 -3.029907,-3.30914 -5.626409,-5.020994 -1.303608,-0.8594586 -1.44158,-0.9739017 -1.530024,-1.269103 -0.09175,-0.3062452 -0.08331,-0.3380223 0.150439,-0.5660508 l 0.24765,-0.2415913 6.984999,-0.091638 c 3.84175,-0.0504 7.843709,-0.1147809 8.893241,-0.1430672 l 1.908242,-0.05143 0.2763079,0.2581106 c 0.2699216,0.2521449 0.2732727,0.2639779 0.1450137,0.5120047 -0.072212,0.1396424 -0.2427486,0.419039 -0.3789705,0.6208809 -0.7378411,1.0932731 -1.3337741,2.5442101 -1.5760861,3.8373481 -0.162122,0.86519 -0.181576,2.319375 -0.04123,3.08201 0.25972,1.411318 0.943821,3.005545 1.9271691,4.491073 0.8813317,1.331413 2.3395762,3.132544 2.5362585,3.132625 0.05552,2.3e-5 0.4437355,-0.60368 0.8627017,-1.341562 C -1.8037928,15.825558 0.23475861,10.908928 0.00377525,8.860449 -0.13016064,7.6726367 -0.76878435,6.3158754 -1.7663185,5.0998716 -2.232262,4.5318813 -3.6113542,3.1598567 -4.5928389,2.2878366 -5.2180701,1.7323373 -5.2782782,1.4836378 -4.8596888,1.1855758 L -4.5982474,0.99941332 5.1098109,1.315955 c 8.5973311,0.280325 9.7370871,0.3329719 9.9617811,0.4601478 0.534792,0.30269 0.34752,0.7183085 -0.543347,1.205867 -3.44764,1.8868419 -6.4142999,5.261846 -9.365757,10.6549042 -0.2675881,0.48895 -2.1765192,4.679687 -4.2420708,9.312749 l -3.7555474,8.423749 v 4.808986 c 0,5.253878 0.020132,5.522351 0.5002039,6.670519 0.3431989,0.820815 0.8037686,1.477501 1.56939738,2.237662 0.79104657,0.785398 1.59437743,1.341611 2.83832712,1.965208 0.727997,0.364948 0.9136084,0.49759 1.0393993,0.742781 0.1507778,0.293897 0.1502342,0.302422 -0.035297,0.553365 -0.1095493,0.148175 -0.314286,0.287885 -0.4890651,0.333733 -0.1653481,0.04337 -4.4916326,1.015952 -9.6139658,2.161282 -5.1223326,1.145331 -9.3706106,2.099452 -9.4406166,2.120269 -0.07001,0.02082 -0.250981,-0.03737 -0.402166,-0.129316 z m 50.020254,-1.224648 c -0.28666,-0.305135 -0.195913,-0.621628 0.462202,-1.612007 1.224214,-1.842287 2.759676,-5.484225 3.480246,-8.25474 0.429205,-1.65025 0.473492,-2.132583 0.516991,-5.630593 0.047,-3.779714 -0.118724,-18.540363 -0.213885,-19.049999 -0.06083,-0.325781 -0.07441,-0.337556 -0.356799,-0.309481 -0.883744,0.08786 -3.382263,1.127127 -3.813617,1.586283 l -0.173477,0.184657 0.210426,1.004937 c 0.312812,1.493915 0.411825,2.523788 0.410001,4.264604 -0.0025,2.373795 -0.315047,4.286714 -1.051388,6.434666 -0.917914,2.677612 -2.703187,5.41036 -4.610949,7.058059 -2.229415,1.925504 -4.651034,2.979153 -7.30889,3.180105 -5.30468,0.401071 -10.170176,-2.708483 -12.8719377,-8.226497 -2.5838852,-5.277264 -2.583439,-11.745514 0.00117,-17.04 2.0999128,-4.301594 5.5069067,-7.1435505 9.6568587,-8.0553063 0.573426,-0.1259832 1.053879,-0.1560229 2.409572,-0.1506534 1.605355,0.00636 1.743971,0.020087 2.667958,0.2642472 2.273319,0.6007142 4.089146,1.6155136 5.764459,3.2215465 l 0.816951,0.783166 h 3.773486 c 2.331578,0 3.792769,-0.0312 3.823951,-0.08166 C 36.82475,11.054987 36.384429,9.2140881 35.974408,7.9642075 34.975919,4.9204867 33.467882,2.7220126 31.490447,1.4273166 30.531444,0.79942474 30.357019,0.52103042 30.724551,0.20489322 c 0.295593,-0.25425898 -0.519739,-0.26135422 11.144318,0.0969813 5.285316,0.16237204 9.770049,0.29547193 9.966073,0.29577757 0.279284,4.318e-4 0.40295,0.0507513 0.5715,0.23252396 0.46051,0.49663975 0.213067,0.83090415 -0.927907,1.25348365 -1.088915,0.4032985 -1.614641,0.6703852 -2.546583,1.2937511 -1.799429,1.2036182 -3.181733,2.992371 -4.099316,5.304665 -0.294648,0.7425072 -0.677218,2.0940352 -0.677554,2.3936312 l -2.14e-4,0.1905 h 5.530154 5.530158 l 0.671677,-0.640846 c 1.902206,-1.8148882 4.002786,-2.9556851 6.406303,-3.4791799 0.886198,-0.1930172 3.520652,-0.2166696 4.425374,-0.039731 4.90082,0.9584596 9.001379,4.9104329 10.79787,10.4065959 0.693488,2.121659 0.961153,3.848003 0.961153,6.199162 0,2.350914 -0.296028,4.260204 -0.977984,6.307666 -1.972006,5.920689 -6.693713,10.059757 -11.915072,10.444816 -2.330103,0.171837 -4.292651,-0.218425 -6.392384,-1.271154 -0.460773,-0.23101 -0.867783,-0.389339 -0.904486,-0.351841 -0.0367,0.0375 0.01506,2.575127 0.115028,5.639174 0.128922,3.951605 0.155711,5.612296 0.09213,5.713075 -0.04928,0.07814 -0.181263,0.167722 -0.293269,0.199065 -0.112014,0.03134 -1.296077,0.06078 -2.631253,0.06542 -3.009636,0.01046 -6.349893,0.208757 -17.299737,1.027002 -2.468033,0.184427 -4.585467,0.335498 -4.705408,0.335713 -0.122598,2.54e-4 -0.30376,-0.09082 -0.413786,-0.207935 z M 50.952,41.55863 c 1.427999,-0.681871 2.720011,-1.985721 4.033242,-4.070193 0.283227,-0.449567 0.514959,-0.863153 0.514959,-0.919077 0,-0.05593 -0.182795,-0.314189 -0.406205,-0.573918 -2.273689,-2.643284 -3.707975,-5.871274 -4.19752,-9.446902 -0.281049,-2.052778 -0.252779,-4.330356 0.07644,-6.158307 0.272145,-1.511063 0.295039,-1.347166 -0.266611,-1.9087 -1.157969,-1.157732 -3.16215,-1.864255 -6.038454,-2.128704 -0.48621,-0.0447 -0.920747,-0.05858 -0.965638,-0.03083 -0.123395,0.07626 0.01416,4.880693 0.411564,14.37521 0.339665,8.114987 0.472321,11.015918 0.508399,11.117684 0.03165,0.08929 0.590497,0.105861 2.855192,0.08467 l 2.815834,-0.02635 z m -4.294665,-1.413325 c -0.0484,-0.07831 -0.447039,-9.303816 -0.677159,-15.671098 -0.06984,-1.932517 -0.147814,-3.981337 -0.173268,-4.552933 -0.03791,-0.851234 -0.0245,-1.047626 0.07413,-1.085472 0.150965,-0.05793 1.929256,0.402535 2.495798,0.646254 0.717277,0.308565 0.722556,0.322745 0.57134,1.534649 -0.286796,2.298512 -0.254388,4.081038 0.116013,6.381051 0.512873,3.184695 1.726397,6.195371 3.485224,8.646628 0.272501,0.379781 0.495456,0.727412 0.495456,0.772514 0,0.0451 -0.280702,0.458272 -0.623783,0.918156 -0.762117,1.021583 -1.729037,1.955397 -2.33994,2.259823 -0.441959,0.220237 -0.501743,0.227329 -1.916237,0.227329 -0.803025,0 -1.481433,-0.0346 -1.507573,-0.0769 z m 2.7892,-1.435881 c 0.375729,-0.171294 1.820333,-1.634383 1.820333,-1.843627 0,-0.0717 -0.242711,-0.517411 -0.539359,-0.990475 -1.317039,-2.100282 -2.326927,-4.610596 -2.849502,-7.083115 -0.402023,-1.902135 -0.406471,-1.727282 -0.125836,4.947104 0.157567,3.74744 0.236495,5.006389 0.317077,5.057537 0.195937,0.124368 1.028668,0.07151 1.377287,-0.08742 z M 47.472319,21.13877 c 0.0179,-0.27594 -0.0085,-0.426841 -0.07895,-0.451556 -0.07738,-0.02714 -0.105833,0.105928 -0.105833,0.494871 0,0.624009 0.143683,0.590328 0.184784,-0.04331 z m -34.818414,0.290095 c 0.248683,-0.133093 0.637865,-0.812049 1.229423,-2.144823 1.345877,-3.032247 1.749175,-3.676991 3.558878,-5.689501 1.25364,-1.394132 1.566663,-1.855877 1.566663,-2.311007 0,-0.411988 -0.38353,-0.653741 -1.226526,-0.773124 -0.783457,-0.110951 -1.470097,0.01294 -2.288954,0.413011 -1.53384,0.749384 -3.129247,2.546783 -3.83989,4.326051 -0.410547,1.027905 -0.539077,1.855282 -0.502665,3.235777 0.03014,1.142849 0.04644,1.239582 0.314532,1.867185 0.439145,1.028036 0.751082,1.31055 1.188539,1.076431 z M 56.76767,21.088894 c 0.245609,-0.131447 0.593742,-0.764878 1.396712,-2.541354 1.220512,-2.700237 1.631425,-3.345638 3.342115,-5.249333 1.137878,-1.266253 1.613704,-1.952316 1.613704,-2.326701 0,-0.542559 -0.631757,-0.839387 -1.778,-0.835384 -1.258968,0.0044 -2.261497,0.50619 -3.524842,1.764285 -1.317981,1.312498 -2.120138,2.736909 -2.44547,4.342505 -0.105257,0.519436 -0.133367,1.007204 -0.109719,1.90367 0.03014,1.142849 0.04644,1.239583 0.314528,1.867185 0.43997,1.029962 0.7509,1.310649 1.190972,1.075127 z m -4.826233,-4.34052 c 0.288268,-0.805998 1.033176,-2.304954 1.561063,-3.141281 0.260172,-0.412196 0.4519,-0.783671 0.426043,-0.8255 -0.05917,-0.09574 -10.001455,-0.102307 -10.060578,-0.0066 -0.09899,0.160168 -0.226891,1.905997 -0.145593,1.987296 0.04612,0.04612 0.28613,0.09868 0.533346,0.116787 3.093002,0.226568 5.343111,0.890306 6.802587,2.00663 0.277694,0.212402 0.547416,0.387466 0.599385,0.389031 0.05197,0.0016 0.179655,-0.235277 0.283747,-0.526319 z M 33.564528,16.482603 c 0.941817,-0.4796 2.129632,-0.909085 2.973258,-1.075058 0.821558,-0.161632 0.806437,-0.130707 0.683563,-1.397971 -0.05809,-0.599079 -0.145724,-1.137564 -0.194747,-1.196634 -0.06913,-0.08329 -0.807915,-0.107399 -3.291104,-0.107399 -1.839049,0 -3.222297,0.03289 -3.249726,0.07727 -0.02627,0.0425 0.14631,0.390171 0.383502,0.772605 0.437318,0.705101 1.279973,2.366334 1.533723,3.023623 0.0764,0.197908 0.167403,0.359833 0.202221,0.359833 0.03482,0 0.466507,-0.205323 0.95931,-0.456271 z"
         id="path9559" />
    </g>
  </g>
</svg>
