<?xml version="1.0" encoding="UTF-8" standalone="no"?>
<!-- Created with Inkscape (http://www.inkscape.org/) -->

<svg
   width="50mm"
   height="50mm"
   viewBox="0 0 50 50"
   version="1.1"
   id="svg5"
   inkscape:version="1.1.1 (3bf5ae0d25, 2021-09-20)"
   sodipodi:docname="block_scatter_plot.svg"
   xmlns:inkscape="http://www.inkscape.org/namespaces/inkscape"
   xmlns:sodipodi="http://sodipodi.sourceforge.net/DTD/sodipodi-0.dtd"
   xmlns="http://www.w3.org/2000/svg"
   xmlns:svg="http://www.w3.org/2000/svg">
  <sodipodi:namedview
     id="namedview7"
     pagecolor="#ffffff"
     bordercolor="#666666"
     borderopacity="1.0"
     inkscape:pageshadow="2"
     inkscape:pageopacity="0.0"
     inkscape:pagecheckerboard="0"
     inkscape:document-units="mm"
     showgrid="false"
     width="50mm"
     inkscape:zoom="1.4681257"
     inkscape:cx="57.215809"
     inkscape:cy="197.1902"
     inkscape:window-width="1920"
     inkscape:window-height="1009"
     inkscape:window-x="-8"
     inkscape:window-y="-8"
     inkscape:window-maximized="1"
     inkscape:current-layer="layer1" />
  <defs
     id="defs2" />
  <g
     inkscape:label="Layer 1"
     inkscape:groupmode="layer"
     id="layer1">
    <ellipse
       style="fill:#ffffff;stroke-width:0.264583"
       id="path1278"
       cx="24.849569"
       cy="24.913284"
       rx="24.977001"
       ry="24.913284" />
    <path
       style="fill:#000000;stroke-width:0.0585579"
       d="M 13.186903,35.228246 C 13.046636,35.144175 12.87487,34.970413 12.791637,34.828389 L 12.644438,34.577212 V 22.709733 10.842254 h 0.556156 0.556157 l 0.01478,11.69695 0.01478,11.696949 11.69695,0.01478 11.696949,0.01478 v 0.556158 0.556157 L 25.307596,35.377594 13.434972,35.377151 13.186905,35.22847 Z M 34.12121,28.815888 c -0.247212,-0.130518 -0.454468,-0.476015 -0.454468,-0.757597 0,-0.09919 0.05306,-0.28434 0.117905,-0.411451 0.132529,-0.25978 0.469891,-0.466918 0.760464,-0.466918 0.09918,0 0.284339,0.05306 0.41145,0.117904 0.25978,0.13253 0.46692,0.469893 0.46692,0.760465 0,0.290571 -0.20714,0.627935 -0.46692,0.760465 -0.288557,0.147211 -0.552808,0.146303 -0.835351,-0.0029 z m -2.927897,-1.171159 c -0.247211,-0.130518 -0.454469,-0.476015 -0.454469,-0.757597 0,-0.290572 0.207138,-0.627935 0.466919,-0.760465 0.127111,-0.06485 0.312264,-0.117905 0.41145,-0.117905 0.290572,0 0.627935,0.207139 0.760465,0.466919 0.06485,0.127112 0.117904,0.312264 0.117904,0.411451 0,0.290571 -0.207138,0.627935 -0.466919,0.760465 -0.288557,0.147211 -0.552807,0.146303 -0.83535,-0.0029 z m -8.198112,-3.513477 c -0.247212,-0.130518 -0.45447,-0.476015 -0.45447,-0.757597 0,-0.290572 0.207138,-0.627935 0.466919,-0.760465 0.127111,-0.06485 0.312264,-0.117904 0.41145,-0.117904 0.445594,0 0.87837,0.432776 0.87837,0.878369 0,0.290571 -0.207139,0.627935 -0.466919,0.760465 -0.288557,0.147211 -0.552808,0.146304 -0.83535,-0.0029 z m 5.270215,-0.585579 c -0.247212,-0.130519 -0.45447,-0.476015 -0.45447,-0.757598 0,-0.290571 0.207139,-0.627935 0.466919,-0.760465 0.127112,-0.06485 0.312264,-0.117904 0.411451,-0.117904 0.445593,0 0.878369,0.432776 0.878369,0.878369 0,0.290572 -0.207138,0.627935 -0.466919,0.760465 -0.288557,0.147212 -0.552808,0.146304 -0.83535,-0.0029 z m 4.099056,0 c -0.247211,-0.130519 -0.454469,-0.476015 -0.454469,-0.757598 0,-0.290571 0.207138,-0.627935 0.466919,-0.760465 0.127111,-0.06485 0.312263,-0.117904 0.41145,-0.117904 0.445593,0 0.87837,0.432776 0.87837,0.878369 0,0.290572 -0.207139,0.627935 -0.466919,0.760465 -0.288558,0.147212 -0.552809,0.146304 -0.835351,-0.0029 z M 18.310565,19.446616 c -0.247212,-0.130518 -0.45447,-0.476015 -0.45447,-0.757597 0,-0.445593 0.432776,-0.878369 0.87837,-0.878369 0.445593,0 0.878369,0.432776 0.878369,0.878369 0,0.290571 -0.207138,0.627935 -0.466919,0.760465 -0.288557,0.147211 -0.552808,0.146304 -0.83535,-0.0029 z m 8.783692,-0.585579 c -0.247212,-0.130519 -0.454469,-0.476015 -0.454469,-0.757598 0,-0.290571 0.207138,-0.627935 0.466918,-0.760465 0.127112,-0.06485 0.312264,-0.117904 0.411451,-0.117904 0.445593,0 0.878369,0.432776 0.878369,0.878369 0,0.290572 -0.207138,0.627936 -0.466919,0.760466 -0.288557,0.147211 -0.552808,0.146303 -0.83535,-0.0029 z m -5.270215,-1.756739 c -0.247212,-0.130518 -0.45447,-0.476015 -0.45447,-0.757597 0,-0.290572 0.207138,-0.627935 0.466919,-0.760465 0.127111,-0.06485 0.312264,-0.117904 0.41145,-0.117904 0.445594,0 0.87837,0.432775 0.87837,0.878369 0,0.290571 -0.207139,0.627935 -0.466919,0.760465 -0.288557,0.147211 -0.552808,0.146304 -0.83535,-0.0029 z m -4.684636,-1.171159 c -0.247212,-0.130518 -0.45447,-0.476015 -0.45447,-0.757597 0,-0.445593 0.432776,-0.878369 0.878369,-0.878369 0.290572,0 0.627936,0.207138 0.760466,0.466918 0.06485,0.127111 0.117904,0.312264 0.117904,0.411451 0,0.290572 -0.207138,0.627935 -0.466919,0.760465 -0.288557,0.147211 -0.552808,0.146304 -0.83535,-0.0029 z"
       id="path8529" />
  </g>
</svg>
