<?xml version="1.0" encoding="UTF-8" standalone="no"?>
<!-- Created with Inkscape (http://www.inkscape.org/) -->

<svg
   width="50mm"
   height="50mm"
   viewBox="0 0 50 50"
   version="1.1"
   id="svg5"
   inkscape:version="1.1.1 (3bf5ae0d25, 2021-09-20)"
   sodipodi:docname="block_plot_2d.svg"
   xmlns:inkscape="http://www.inkscape.org/namespaces/inkscape"
   xmlns:sodipodi="http://sodipodi.sourceforge.net/DTD/sodipodi-0.dtd"
   xmlns="http://www.w3.org/2000/svg"
   xmlns:svg="http://www.w3.org/2000/svg">
  <sodipodi:namedview
     id="namedview7"
     pagecolor="#ffffff"
     bordercolor="#666666"
     borderopacity="1.0"
     inkscape:pageshadow="2"
     inkscape:pageopacity="0.0"
     inkscape:pagecheckerboard="0"
     inkscape:document-units="mm"
     showgrid="false"
     width="50mm"
     inkscape:zoom="2.0762433"
     inkscape:cx="8.6695043"
     inkscape:cy="126.91191"
     inkscape:window-width="1920"
     inkscape:window-height="1009"
     inkscape:window-x="-8"
     inkscape:window-y="-8"
     inkscape:window-maximized="1"
     inkscape:current-layer="layer1" />
  <defs
     id="defs2" />
  <g
     inkscape:label="Layer 1"
     inkscape:groupmode="layer"
     id="layer1">
    <ellipse
       style="fill:#ffffff;stroke-width:0.264583"
       id="path1278"
       cx="24.849569"
       cy="24.913284"
       rx="24.977001"
       ry="24.913284" />
    <path
       style="fill:#a4a4a4;stroke-width:0.0306717"
       d="m 18.398285,35.581931 c -0.02567,-0.02568 -0.03767,-0.157214 -0.03767,-0.413123 0,-0.266938 -0.01108,-0.382482 -0.03834,-0.399778 -0.02109,-0.01338 -1.172423,-0.02455 -2.558526,-0.02481 -1.386101,-2.32e-4 -2.531691,-0.01199 -2.545752,-0.02605 -0.01406,-0.01406 -0.02637,-0.970867 -0.02736,-2.126241 -0.0015,-1.794738 -0.0082,-2.104756 -0.04601,-2.128658 -0.02432,-0.01539 -0.203635,-0.02819 -0.398477,-0.02845 -0.234063,-3.48e-4 -0.366746,-0.01296 -0.391065,-0.03728 -0.05076,-0.05076 -0.05076,-0.734438 0,-0.785195 0.02462,-0.02462 0.161136,-0.03681 0.412258,-0.03681 0.247566,0 0.382801,-0.01189 0.397024,-0.0349 0.03344,-0.05411 0.03739,-3.314608 0.0041,-3.381621 -0.02672,-0.05379 -0.05567,-0.05654 -0.401154,-0.0382 -0.204793,0.01087 -0.390022,0.0083 -0.411617,-0.0058 -0.02943,-0.01913 -0.03711,-0.128686 -0.03067,-0.437215 l 0.0086,-0.411685 0.386524,0.01002 c 0.301849,0.0078 0.395992,5.45e-4 0.429738,-0.0332 0.0362,-0.0362 0.04258,-0.312162 0.03933,-1.700895 -0.0021,-0.911725 -0.01345,-1.673165 -0.02515,-1.692088 -0.01384,-0.02239 -0.152331,-0.03441 -0.396716,-0.03441 -0.251121,0 -0.38764,-0.01219 -0.412258,-0.03681 -0.03866,-0.03866 -0.05376,-0.68079 -0.01819,-0.773486 0.01555,-0.04052 0.08002,-0.04859 0.391064,-0.04899 0.204846,-2.43e-4 0.391663,-0.01264 0.41515,-0.02751 0.03554,-0.02251 0.04345,-0.305895 0.04717,-1.689516 0.003,-1.107791 -0.0062,-1.676619 -0.02737,-1.704866 -0.02362,-0.03145 -0.134694,-0.04452 -0.430561,-0.05064 l -0.398732,-0.0082 v -0.414045 -0.414068 l 0.412835,-0.0086 c 0.227061,-0.0047 0.42034,-0.02074 0.429509,-0.03558 0.02274,-0.0368 0.01392,-3.330204 -0.009,-3.367324 -0.01006,-0.01628 -0.193982,-0.03899 -0.408716,-0.05047 -0.214734,-0.01148 -0.397549,-0.02799 -0.406254,-0.0367 -0.0087,-0.0087 0.127369,-0.294742 0.302386,-0.635637 0.175018,-0.340895 0.457395,-0.899247 0.627507,-1.240782 0.170113,-0.341535 0.321212,-0.617059 0.335778,-0.612275 0.04362,0.01433 1.277308,2.471683 1.249506,2.488865 -0.01411,0.0087 -0.198054,0.02507 -0.408772,0.03633 l -0.383121,0.02048 -0.01613,0.447965 c -0.0089,0.246382 -0.01397,4.8992 -0.01133,10.339597 l 0.0048,9.891632 9.890952,0.0038 c 5.440024,0.0021 10.094535,-0.0034 10.343359,-0.01222 l 0.452408,-0.01603 v -0.159518 c 0,-0.328246 0.03825,-0.628849 0.08002,-0.628849 0.05563,0 2.446256,1.213438 2.455496,1.246366 0.0041,0.01458 -0.271427,0.165588 -0.612265,0.335572 -0.340838,0.169985 -0.898578,0.452406 -1.239421,0.627601 -0.340844,0.175196 -0.626557,0.311699 -0.634918,0.303338 -0.0084,-0.0084 -0.02624,-0.194166 -0.03973,-0.412899 l -0.02453,-0.397698 -0.36806,-0.01676 c -0.537737,-0.02449 -2.109929,-0.01576 -2.154689,0.01197 -0.02731,0.01692 -0.03834,0.13243 -0.03834,0.401581 0,0.285222 -0.01045,0.386507 -0.04265,0.413229 -0.0285,0.02365 -0.168441,0.03253 -0.421736,0.02676 l -0.379084,-0.0086 -0.0082,-0.398732 c -0.006,-0.28809 -0.01957,-0.407244 -0.04905,-0.429405 -0.04931,-0.03706 -3.33317,-0.03715 -3.393135,-9.1e-5 -0.03075,0.01901 -0.03535,0.106446 -0.02029,0.386446 0.0107,0.199034 0.01123,0.383308 0.0012,0.409497 -0.01521,0.03964 -0.08466,0.04762 -0.414686,0.04762 -0.290338,0 -0.400378,-0.01033 -0.411231,-0.03861 -0.0081,-0.02124 -0.02497,-0.211018 -0.03738,-0.421736 l -0.02256,-0.383118 -0.122688,-0.0162 c -0.177344,-0.02342 -3.21609,-0.01497 -3.254964,0.0091 -0.01848,0.01142 -0.04117,0.187994 -0.05226,0.4068 -0.01078,0.212638 -0.02755,0.399487 -0.03727,0.41522 -0.0097,0.01573 -0.194817,0.0286 -0.411319,0.0286 -0.327519,0 -0.39671,-0.008 -0.411913,-0.04762 -0.01005,-0.02619 -0.0095,-0.210463 0.0012,-0.409497 0.01506,-0.28 0.01047,-0.36744 -0.02029,-0.386447 -0.05996,-0.03706 -3.343828,-0.03698 -3.393134,9.2e-5 -0.02948,0.02216 -0.04309,0.141314 -0.04905,0.429405 l -0.0082,0.398732 -0.384067,0.0085 c -0.272666,0.0061 -0.394992,-0.0024 -0.421736,-0.02914 z m -1.92398,-3.858239 c -0.130976,-0.05478 -0.267065,-0.236025 -0.282934,-0.376815 -0.03229,-0.286477 0.133885,-0.446815 0.565173,-0.54532 0.165288,-0.03775 0.500655,-0.12122 0.745263,-0.185486 0.244607,-0.06426 0.658675,-0.167716 0.920152,-0.229892 0.261476,-0.06218 0.599632,-0.145761 0.751457,-0.185747 0.151825,-0.03999 0.427871,-0.109252 0.613435,-0.153928 0.185563,-0.04468 1.034403,-0.255183 1.88631,-0.467793 l 1.548923,-0.386564 0.742205,-1.472243 c 0.408213,-0.809734 0.742918,-1.502171 0.74379,-1.538751 0.0016,-0.06549 -1.229125,-1.948268 -1.286191,-1.967697 -0.01595,-0.0054 -0.101932,0.04712 -0.191079,0.116774 -0.08915,0.06966 -0.576152,0.436894 -1.082236,0.816085 -0.506083,0.379192 -1.037471,0.778057 -1.180862,0.886369 -0.398739,0.301192 -2.222077,1.66734 -2.456539,1.840578 -0.114157,0.08435 -0.481129,0.361061 -0.815495,0.614918 -0.984828,0.747702 -1.007181,0.758686 -1.26415,0.621197 -0.255446,-0.136672 -0.327968,-0.4377 -0.157215,-0.652565 0.05027,-0.06325 0.357366,-0.313742 0.682446,-0.556648 0.325081,-0.242907 0.73598,-0.55101 0.91311,-0.684674 0.338944,-0.255771 2.966983,-2.227842 4.064003,-3.049614 0.354259,-0.265373 0.747624,-0.562479 0.874144,-0.660236 0.126521,-0.09776 0.309,-0.229849 0.40551,-0.293536 0.163798,-0.108093 0.187696,-0.114912 0.359243,-0.102504 0.124182,0.009 0.205335,0.03258 0.250274,0.07276 0.03657,0.03271 0.356599,0.498157 0.711162,1.034331 0.354565,0.536174 0.659862,0.969849 0.678438,0.963723 0.01858,-0.0061 0.737692,-1.415414 1.598033,-3.131751 1.309004,-2.611395 1.579273,-3.129804 1.656274,-3.176933 0.05061,-0.03098 0.540589,-0.20421 1.088846,-0.384965 2.270255,-0.74848 3.412318,-1.125505 3.80527,-1.25622 0.505314,-0.168092 0.628972,-0.175006 0.778706,-0.04354 0.136866,0.120169 0.191105,0.285437 0.142256,0.433452 -0.07396,0.224089 0.12589,0.145457 -3.207982,1.262217 -0.978428,0.327747 -1.843266,0.623822 -1.921861,0.657943 l -0.142903,0.06204 -1.601328,3.207303 c -1.125659,2.254585 -1.597281,3.228477 -1.587702,3.278585 0.0154,0.08054 2.989949,4.560503 3.028027,4.560503 0.01351,0 1.109465,-0.723337 2.435466,-1.607415 1.808365,-1.205683 2.441285,-1.612547 2.532446,-1.627949 0.153744,-0.02597 0.37251,0.06441 0.452795,0.18707 0.08141,0.124377 0.07339,0.370805 -0.01616,0.496564 -0.0446,0.06263 -1.016571,0.728776 -2.720048,1.864193 -2.049475,1.366035 -2.676865,1.770004 -2.766226,1.781142 -0.08214,0.01024 -0.155495,-0.0061 -0.253595,-0.05652 -0.129363,-0.06648 -0.233234,-0.213815 -1.655639,-2.348511 -0.83469,-1.252674 -1.531704,-2.273244 -1.548923,-2.267935 -0.01722,0.0053 -0.334955,0.619565 -0.706083,1.365014 -0.438901,0.881577 -0.708814,1.389222 -0.772145,1.452226 -0.09066,0.09019 -0.176269,0.116784 -1.242204,0.385845 -0.629661,0.158938 -1.289762,0.32247 -1.466892,0.363404 -0.177129,0.04093 -0.384164,0.09435 -0.460076,0.118703 -0.260024,0.08341 -3.982553,0.998354 -4.053994,0.996407 -0.03924,-0.001 -0.09896,-0.01349 -0.132695,-0.0276 z"
       id="path8753" />
    <path
       style="fill:#5596f3;stroke-width:0.0306717"
       d="m 16.500423,31.719728 c -0.125207,-0.03627 -0.278329,-0.212044 -0.30402,-0.348995 -0.02884,-0.153744 0.08821,-0.381905 0.231893,-0.451994 0.05904,-0.0288 1.604689,-0.425902 3.434769,-0.882444 1.830081,-0.456542 3.343714,-0.847045 3.36363,-0.867784 0.01992,-0.02074 0.363426,-0.686415 0.763357,-1.479279 0.399929,-0.792864 0.746313,-1.457012 0.769742,-1.475884 0.03474,-0.02798 -0.07933,-0.217587 -0.618136,-1.027503 -0.540694,-0.812754 -0.673099,-0.992993 -0.728809,-0.992111 -0.04144,6.61e-4 -1.32018,0.940528 -3.26797,2.401951 -1.75994,1.32048 -3.243684,2.427575 -3.29721,2.460213 -0.333176,0.203153 -0.729005,-0.13134 -0.58407,-0.493567 0.04723,-0.118047 0.323064,-0.331901 3.5456,-2.748931 1.92191,-1.441509 3.528701,-2.633974 3.570649,-2.649922 0.120386,-0.04577 0.263266,-0.03387 0.369245,0.03075 0.06396,0.039 0.232937,0.263646 0.490175,0.65166 0.215912,0.325679 0.520861,0.781219 0.677664,1.012311 l 0.285097,0.420166 1.586453,-3.165286 c 1.357374,-2.708231 1.600816,-3.174789 1.685929,-3.231101 0.05471,-0.0362 0.247943,-0.114608 0.429403,-0.174242 0.18146,-0.05963 1.358577,-0.447536 2.615814,-0.862004 1.257238,-0.414468 2.324149,-0.753578 2.370914,-0.753578 0.210038,0 0.388698,0.178825 0.388698,0.389056 0,0.171885 -0.06696,0.301862 -0.187666,0.364281 -0.05204,0.02691 -1.193941,0.419215 -2.537565,0.871791 -1.343625,0.452575 -2.464517,0.83154 -2.490872,0.842145 -0.02635,0.0106 -0.769164,1.464586 -1.650691,3.231072 -0.881526,1.766485 -1.621852,3.226612 -1.645168,3.244727 -0.03413,0.02651 0.256226,0.480954 1.489378,2.331051 0.842474,1.263964 1.552904,2.302636 1.578736,2.308161 0.02583,0.0055 1.114242,-0.701669 2.418692,-1.571543 1.30445,-0.869874 2.424365,-1.603583 2.488698,-1.630463 0.220913,-0.0923 0.470176,0.02948 0.540457,0.264062 0.02994,0.09992 0.02701,0.142382 -0.01794,0.260065 -0.05338,0.139768 -0.07015,0.15161 -2.678755,1.891293 -1.443773,0.962855 -2.672987,1.770678 -2.731588,1.795164 -0.128646,0.05375 -0.273441,0.03218 -0.387806,-0.05778 -0.04548,-0.03578 -0.771844,-1.098632 -1.614135,-2.3619 l -1.531439,-2.296852 -0.675893,1.358208 c -0.371742,0.747015 -0.702115,1.402939 -0.734165,1.457613 -0.08552,0.14588 -0.213096,0.209101 -0.626017,0.310212 -0.203577,0.04985 -1.780565,0.443904 -3.504419,0.875679 -1.723855,0.431774 -3.14549,0.7838 -3.159189,0.782278 -0.0137,-0.0015 -0.06836,-0.01535 -0.121474,-0.03074 z"
       id="path8751" />
    <path
       style="fill:#b81b98;stroke-width:0.0306717"
       d="m 28.57493,31.688333 c -0.04183,-0.01669 -0.102423,-0.05377 -0.134659,-0.0824 -0.03224,-0.02863 -0.750239,-1.085348 -1.595561,-2.348254 -1.611007,-2.406837 -1.674778,-2.502722 -2.722486,-4.093473 -0.546245,-0.829373 -0.663204,-0.98949 -0.715485,-0.979496 -0.03437,0.0066 -1.502329,1.091925 -3.262124,2.411899 -1.759795,1.319973 -3.24342,2.426654 -3.296946,2.459292 -0.333176,0.203153 -0.729005,-0.13134 -0.58407,-0.493567 0.04723,-0.118047 0.323064,-0.331901 3.5456,-2.748931 1.92191,-1.441509 3.528701,-2.633974 3.570649,-2.649922 0.126867,-0.04823 0.272307,-0.03285 0.378214,0.04001 0.119421,0.08216 0.52952,0.686454 3.507337,5.168186 0.878244,1.32179 1.552892,2.308048 1.578818,2.308048 0.0249,0 1.110944,-0.710646 2.413433,-1.579213 1.302489,-0.868565 2.420799,-1.601204 2.485132,-1.628084 0.220913,-0.0923 0.470176,0.02948 0.540457,0.264062 0.02994,0.09992 0.02701,0.142382 -0.01794,0.260065 -0.05338,0.139768 -0.07015,0.15161 -2.678755,1.891293 -1.443773,0.962855 -2.670313,1.769561 -2.725645,1.792681 -0.116084,0.0485 -0.17962,0.05024 -0.285973,0.0078 z"
       id="path8749" />
    <path
       style="fill:#b2215f;stroke-width:0.0306717"
       d="m 16.439545,29.056637 c -0.142874,-0.08712 -0.195279,-0.180647 -0.195279,-0.348512 0,-0.133138 0.01334,-0.161962 0.130355,-0.281605 0.142005,-0.145199 6.816045,-5.159955 6.976294,-5.241865 0.120934,-0.06181 0.224525,-0.06355 0.362109,-0.0061 0.08806,0.0368 0.183698,0.162709 0.576563,0.759125 2.095967,3.181921 2.261309,3.444992 2.204745,3.507904 -0.01158,0.01287 -0.0052,0.01437 0.01408,0.0033 0.04187,-0.02393 0.07736,0.05318 0.05332,0.115839 -0.01282,0.0334 -0.05211,0.04009 -0.160165,0.0273 -0.116024,-0.01374 -0.157709,-0.0049 -0.219762,0.04674 -0.05819,0.0484 -0.06459,0.06394 -0.02666,0.06472 0.07237,0.0015 0.118869,0.07071 0.09886,0.147208 -0.01523,0.05823 -0.02282,0.06084 -0.06225,0.02141 -0.0247,-0.0247 -0.06463,-0.04491 -0.08873,-0.04491 -0.0241,0 -0.04382,-0.01251 -0.04382,-0.0278 0,-0.01529 -0.02415,-0.0221 -0.05368,-0.01515 -0.03812,0.009 -0.0965,-0.04742 -0.201424,-0.19457 -0.263617,-0.369739 -0.685839,-0.982265 -1.112323,-1.613672 -0.229544,-0.339838 -0.599128,-0.887031 -0.821297,-1.215985 -0.253893,-0.375926 -0.42194,-0.596812 -0.452393,-0.594635 -0.02665,0.0019 -1.515386,1.103643 -3.308309,2.448305 -1.792923,1.344663 -3.293518,2.457638 -3.334654,2.473277 -0.115932,0.04408 -0.230484,0.0337 -0.335598,-0.03039 z"
       id="path8747" />
  </g>
</svg>
