<?xml version="1.0" encoding="UTF-8" standalone="no"?>
<!-- Created with Inkscape (http://www.inkscape.org/) -->

<svg
   width="50mm"
   height="50mm"
   viewBox="0 0 50 50"
   version="1.1"
   id="svg5"
   inkscape:version="1.1.1 (3bf5ae0d25, 2021-09-20)"
   sodipodi:docname="block_frequency_counter.svg"
   xmlns:inkscape="http://www.inkscape.org/namespaces/inkscape"
   xmlns:sodipodi="http://sodipodi.sourceforge.net/DTD/sodipodi-0.dtd"
   xmlns="http://www.w3.org/2000/svg"
   xmlns:svg="http://www.w3.org/2000/svg">
  <sodipodi:namedview
     id="namedview7"
     pagecolor="#ffffff"
     bordercolor="#666666"
     borderopacity="1.0"
     inkscape:pageshadow="2"
     inkscape:pageopacity="0.0"
     inkscape:pagecheckerboard="0"
     inkscape:document-units="mm"
     showgrid="false"
     width="50mm"
     inkscape:zoom="2.0762433"
     inkscape:cx="8.6695043"
     inkscape:cy="126.91191"
     inkscape:window-width="1920"
     inkscape:window-height="1009"
     inkscape:window-x="-8"
     inkscape:window-y="-8"
     inkscape:window-maximized="1"
     inkscape:current-layer="layer1" />
  <defs
     id="defs2" />
  <g
     inkscape:label="Layer 1"
     inkscape:groupmode="layer"
     id="layer1">
    <ellipse
       style="fill:#ffffff;stroke-width:0.264583"
       id="path1278"
       cx="24.849569"
       cy="24.913284"
       rx="24.977001"
       ry="24.913284" />
    <path
       style="fill:#000000;stroke-width:0.117485"
       d="m 22.549202,35.181745 c -3.4016,-0.725403 -6.45174,-3.313864 -7.698493,-6.533224 -0.952088,-2.458475 -0.944621,-5.359325 0.02024,-7.864898 0.990884,-2.573136 3.323821,-4.896643 5.974713,-5.950563 0.837946,-0.333143 2.41639,-0.721587 2.932175,-0.721587 0.186539,0 0.239923,-0.07597 0.239923,-0.341446 v -0.341446 l -1.162797,-0.04038 c -0.941213,-0.03269 -1.209871,-0.08303 -1.409822,-0.264189 -0.327179,-0.296429 -0.327164,-0.900768 2.9e-5,-1.197176 0.225592,-0.204366 0.488386,-0.227049 3.025242,-0.261119 3.068879,-0.04122 3.595925,0.03148 3.78231,0.521711 0.314026,0.825949 -0.312231,1.26071 -1.726322,1.19845 l -0.864395,-0.03806 2.34e-4,0.365708 c 2.35e-4,0.364421 0.0034,0.366213 0.890025,0.50924 1.462085,0.23586 2.96557,0.820086 4.092572,1.590297 l 0.459147,0.313788 0.476115,-0.476114 0.476114,-0.476115 -0.318463,-0.332405 c -0.576517,-0.601793 -0.275033,-1.435656 0.519098,-1.435656 0.303559,0 0.550978,0.179053 1.420507,1.027994 0.579107,0.565398 1.127042,1.170034 1.217633,1.343638 0.446259,0.855183 -0.692067,1.571183 -1.362817,0.857203 l -0.277813,-0.295719 -0.443395,0.432964 -0.443396,0.432964 0.416363,0.460864 c 1.675215,1.854263 2.629888,4.423423 2.629888,7.077406 0,2.939137 -1.039424,5.455202 -3.108312,7.524091 -1.503184,1.503183 -3.350476,2.507649 -5.375035,2.922676 -1.13111,0.231873 -3.272628,0.227523 -4.381273,-0.0089 z m 4.34255,-1.630275 c 1.793457,-0.467136 3.201623,-1.304428 4.468834,-2.657156 0.994578,-1.061697 1.504654,-1.89586 1.946116,-3.182621 0.97477,-2.841236 0.508506,-5.929805 -1.258607,-8.337093 -1.127158,-1.535498 -3.124175,-2.875601 -5.028504,-3.374392 -1.255698,-0.328899 -3.195957,-0.334918 -4.451477,-0.01381 -3.626156,0.927415 -6.299055,3.993077 -6.767371,7.761787 -0.222828,1.793169 0.244286,4.006241 1.183745,5.608299 0.535954,0.913964 2.33105,2.687406 3.268154,3.228733 0.910044,0.525695 2.29333,1.002877 3.313245,1.142942 0.894384,0.122826 2.504314,0.0373 3.325865,-0.176689 z m -2.708921,-8.408458 c -0.203273,-0.224366 -0.227248,-0.48578 -0.261302,-2.849014 -0.04157,-2.884702 0.0361,-3.421407 0.521893,-3.606102 0.162559,-0.0618 0.429752,-0.07869 0.593762,-0.03753 0.522216,0.131068 0.625373,0.622034 0.625373,2.976379 v 2.118506 h 1.45272 c 1.291783,0 1.487014,0.02698 1.762277,0.243498 0.378737,0.297913 0.412652,0.828258 0.07459,1.166323 -0.217892,0.217893 -0.391616,0.234971 -2.390235,0.234971 -2.041063,0 -2.167126,-0.01309 -2.379074,-0.247033 z"
       id="path9341" />
  </g>
</svg>
