<?xml version="1.0" encoding="UTF-8" standalone="no"?>
<!-- Created with Inkscape (http://www.inkscape.org/) -->

<svg
   width="50mm"
   height="50mm"
   viewBox="0 0 50 50"
   version="1.1"
   id="svg5"
   inkscape:version="1.1.1 (3bf5ae0d25, 2021-09-20)"
   sodipodi:docname="block_tracker.svg"
   xmlns:inkscape="http://www.inkscape.org/namespaces/inkscape"
   xmlns:sodipodi="http://sodipodi.sourceforge.net/DTD/sodipodi-0.dtd"
   xmlns="http://www.w3.org/2000/svg"
   xmlns:svg="http://www.w3.org/2000/svg">
  <sodipodi:namedview
     id="namedview7"
     pagecolor="#ffffff"
     bordercolor="#666666"
     borderopacity="1.0"
     inkscape:pageshadow="2"
     inkscape:pageopacity="0.0"
     inkscape:pagecheckerboard="0"
     inkscape:document-units="mm"
     showgrid="false"
     width="50mm"
     inkscape:zoom="2.9362514"
     inkscape:cx="113.58019"
     inkscape:cy="133.67384"
     inkscape:window-width="1920"
     inkscape:window-height="1009"
     inkscape:window-x="1912"
     inkscape:window-y="-8"
     inkscape:window-maximized="1"
     inkscape:current-layer="layer1" />
  <defs
     id="defs2" />
  <g
     inkscape:label="Layer 1"
     inkscape:groupmode="layer"
     id="layer1">
    <ellipse
       style="fill:#ffffff;stroke-width:0.964999"
       id="path1089"
       cx="25.050364"
       cy="25.050364"
       rx="24.870144"
       ry="24.960255" />
    <path
       style="fill:#cfeced;stroke-width:0.162059"
       d="m 24.836871,37.032966 c 0,-1.381554 0.02486,-1.946735 0.05523,-1.255958 0.03038,0.690777 0.03038,1.821138 0,2.511915 -0.03038,0.690777 -0.05523,0.125596 -0.05523,-1.255957 z m 1.296472,0 c 0,-1.381554 0.02485,-1.946735 0.05523,-1.255958 0.03038,0.690777 0.03038,1.821138 0,2.511915 -0.03038,0.690777 -0.05523,0.125596 -0.05523,-1.255957 z m -12.658579,0.527907 c 0.605351,-0.03127 1.553397,-0.03103 2.106768,4.86e-4 0.553371,0.03155 0.05808,0.05713 -1.100638,0.05685 -1.158723,-3.24e-4 -1.611481,-0.0261 -1.00613,-0.05736 z m 22.040032,0 c 0.60535,-0.03127 1.553396,-0.03103 2.106767,4.86e-4 0.553371,0.03155 0.05808,0.05713 -1.100638,0.05685 -1.158722,-3.24e-4 -1.611481,-0.0261 -1.006129,-0.05736 z M 12.031945,35.169286 c 2.75e-4,-1.158722 0.0261,-1.611481 0.05736,-1.006129 0.03126,0.605351 0.03103,1.553396 -5.19e-4,2.106768 -0.03155,0.55337 -0.05713,0.05808 -0.05684,-1.100639 z m 26.901803,0 c 3.24e-4,-1.158722 0.0261,-1.611481 0.05736,-1.006129 0.03127,0.605351 0.03103,1.553396 -4.86e-4,2.106768 -0.03155,0.55337 -0.05713,0.05808 -0.05685,-1.100639 z M 21.782439,34.340555 c -1.577649,-0.284804 -4.248748,-1.164898 -5.627716,-1.854262 -2.731916,-1.365721 -5.602279,-3.753744 -7.4343228,-6.18505 -1.6134044,-2.14115 -1.5880387,-2.00116 -0.6238196,-3.442787 1.7563247,-2.625923 4.7110874,-5.27139 7.5731954,-6.780455 2.448879,-1.291187 6.428893,-2.416936 8.353315,-2.36274 0.367138,0.01034 0.52167,0.04752 0.343405,0.08263 -0.178265,0.0351 -0.725214,0.142249 -1.215443,0.238101 -2.759508,0.539552 -5.668938,2.845615 -6.932227,5.494601 -0.361308,0.757626 -0.742302,1.815061 -0.846652,2.349856 -0.104351,0.534795 -0.220893,1.134637 -0.258984,1.332983 -0.06777,0.352904 -0.125611,0.361581 -2.700632,0.405147 l -2.631377,0.04452 v 0.486177 0.486177 l 2.631377,0.04452 c 2.575021,0.04357 2.632861,0.05224 2.700632,0.405148 0.03809,0.198346 0.154633,0.798188 0.258984,1.332983 0.55414,2.839966 2.828046,5.734219 5.510052,7.013256 0.757626,0.361309 1.778598,0.735349 2.268827,0.831201 0.490229,0.09585 1.037178,0.202996 1.215443,0.238102 0.178265,0.0351 -0.04052,0.06574 -0.486177,0.06808 -0.445663,0.0023 -1.389709,-0.100341 -2.09788,-0.228183 z m 4.852884,0.160102 c 0.178265,-0.03511 0.725214,-0.142251 1.215442,-0.238102 0.490229,-0.09585 1.511201,-0.469892 2.268827,-0.831201 1.103946,-0.526467 1.638544,-0.917966 2.691989,-1.971411 1.053446,-1.053446 1.444945,-1.588043 1.971411,-2.691989 0.361309,-0.757626 0.742302,-1.815062 0.846653,-2.349856 0.10435,-0.534795 0.220892,-1.134637 0.258982,-1.332983 0.06777,-0.352905 0.125612,-0.361581 2.700633,-0.405148 l 2.631377,-0.04452 V 24.14927 23.663093 l -2.631377,-0.04452 c -2.575021,-0.04357 -2.63286,-0.05224 -2.700633,-0.405147 -0.03809,-0.198346 -0.154632,-0.798188 -0.258982,-1.332983 -0.554141,-2.839967 -2.828047,-5.73422 -5.510053,-7.013256 -0.757626,-0.361309 -1.778598,-0.735349 -2.268827,-0.831201 -0.490228,-0.09585 -1.037177,-0.202997 -1.215442,-0.238101 -0.178265,-0.0351 0.02906,-0.07229 0.46072,-0.08263 1.707203,-0.04089 5.577488,1.012566 7.804291,2.124262 3.274151,1.634568 6.759462,4.823455 8.504655,7.781338 l 0.336062,0.569581 -0.829951,1.24088 c -1.762187,2.634688 -4.71323,5.278192 -7.579058,6.789219 -2.448878,1.291186 -6.428893,2.416936 -8.353315,2.36274 -0.367138,-0.01034 -0.521669,-0.04752 -0.343404,-0.08262 z M 12.031945,13.129255 c 2.75e-4,-1.158722 0.0261,-1.61148 0.05736,-1.006129 0.03126,0.605351 0.03103,1.553396 -5.19e-4,2.106767 -0.03155,0.553372 -0.05713,0.05808 -0.05684,-1.100638 z m 26.901803,0 c 3.24e-4,-1.158722 0.0261,-1.61148 0.05736,-1.006129 0.03127,0.605351 0.03103,1.553396 -4.86e-4,2.106767 -0.03158,0.553372 -0.05716,0.05808 -0.05688,-1.100638 z M 24.836871,11.265576 c 0,-1.3815534 0.02486,-1.9467343 0.05523,-1.255958 0.03038,0.690777 0.03038,1.821139 0,2.511916 -0.03038,0.690776 -0.05523,0.125595 -0.05523,-1.255958 z m 1.296472,0 c 0,-1.3815534 0.02485,-1.9467343 0.05523,-1.255958 0.03038,0.690777 0.03038,1.821139 0,2.511916 -0.03038,0.690776 -0.05523,0.125595 -0.05523,-1.255958 z M 13.474764,10.65907 c 0.605351,-0.03126 1.553397,-0.03103 2.106768,5.19e-4 0.553371,0.03155 0.05808,0.05713 -1.100638,0.05684 -1.158723,-2.75e-4 -1.611481,-0.0261 -1.00613,-0.05736 z m 22.040032,0 c 0.60535,-0.03126 1.553396,-0.03103 2.106767,5.19e-4 0.553371,0.03155 0.05808,0.05713 -1.100638,0.05685 -1.158722,-2.76e-4 -1.611481,-0.0261 -1.006129,-0.05736 z"
       id="path880" />
    <path
       style="fill:#40b9bc;stroke-width:0.162059"
       d="m 24.366496,34.500657 c -0.178265,-0.03511 -0.725214,-0.142251 -1.215443,-0.238102 -2.761688,-0.539978 -5.672751,-2.848259 -6.929456,-5.494601 -0.594513,-1.251913 -0.821295,-1.993905 -1.077312,-3.524785 l -0.08808,-0.526692 h 2.408799 2.408798 l 0.112331,0.598771 c 0.376578,2.007335 2.341466,3.972223 4.348801,4.348802 l 0.598771,0.112329 v 2.41285 c 0,1.327068 -0.0547,2.404391 -0.121545,2.394052 -0.06685,-0.01034 -0.267397,-0.04752 -0.445662,-0.08262 z m 1.70162,-2.315479 v -2.408799 l 0.598771,-0.112329 c 2.007335,-0.376579 3.972223,-2.341467 4.348801,-4.348802 l 0.11233,-0.598771 h 2.408798 2.408799 l -0.08808,0.526692 c -0.256016,1.53088 -0.482798,2.272872 -1.077312,3.524785 -0.525784,1.107186 -0.912102,1.635451 -1.96864,2.691989 -1.767183,1.767182 -3.423844,2.578876 -6.216773,3.045951 l -0.526692,0.08808 z M 15.144285,23.055372 c 0.256017,-1.530879 0.482799,-2.272872 1.077312,-3.524784 0.525785,-1.107187 0.912103,-1.635452 1.96864,-2.691989 1.767183,-1.767183 3.423844,-2.578876 6.216774,-3.045953 l 0.526692,-0.08808 v 2.408798 2.408799 l -0.598771,0.11233 c -2.007335,0.376578 -3.972223,2.341467 -4.348801,4.348801 l -0.112331,0.59877 h -2.408798 -2.408799 z m 15.871403,-0.07208 c -0.376578,-2.007333 -2.341466,-3.972222 -4.348801,-4.3488 l -0.598771,-0.11233 v -2.408799 -2.408798 l 0.526692,0.08808 c 1.530879,0.256018 2.272872,0.4828 3.524784,1.077313 1.107186,0.525785 1.635452,0.912103 2.691989,1.96864 1.767183,1.767183 2.578877,3.423844 3.045952,6.216773 l 0.08808,0.526692 h -2.408799 -2.408798 z"
       id="path878" />
    <path
       style="fill:#179499;stroke-width:0.162059"
       d="m 25.128173,39.755558 c -0.145592,-0.145593 -0.19447,-2.059591 -0.19447,-7.615157 v -7.420687 l -7.477604,-0.04213 C 10.682273,24.639414 9.9624687,24.610034 9.8082066,24.36543 9.6846452,24.169506 9.6963705,24.02498 9.8509366,23.838738 10.039633,23.611373 10.912875,23.582066 17.498829,23.582066 h 7.434874 v -7.434873 c 0,-6.5859542 0.02931,-7.4591959 0.256672,-7.6478928 0.186241,-0.1545661 0.330767,-0.1662914 0.526692,-0.04273 0.244605,0.1542621 0.273985,0.874066 0.312153,7.6478928 l 0.04213,7.477603 h 7.433255 c 6.584477,0 7.457579,0.02931 7.646275,0.256672 0.154566,0.186242 0.166291,0.330768 0.04273,0.526692 -0.154262,0.244606 -0.874067,0.273986 -7.647894,0.312154 l -7.477602,0.04213 v 7.420687 c 0,7.485696 -0.02353,7.809628 -0.567207,7.809628 -0.09805,0 -0.265777,-0.08751 -0.372736,-0.194471 z M 12.325508,37.324672 c -0.129962,-0.129962 -0.194471,-0.849102 -0.194471,-2.167955 0,-1.602923 0.0482,-2.013482 0.256673,-2.186502 0.185974,-0.154344 0.331048,-0.166224 0.526692,-0.04313 0.217407,0.136787 0.279006,0.489097 0.316141,1.808159 l 0.04612,1.638268 1.638269,0.04612 c 1.31906,0.03714 1.67137,0.09873 1.808159,0.316141 0.123096,0.195645 0.111216,0.340718 -0.04313,0.526692 -0.173021,0.208478 -0.58358,0.256673 -2.186503,0.256673 -1.318852,0 -2.037992,-0.06451 -2.167954,-0.194471 z m 21.996345,-0.0622 c -0.154343,-0.185974 -0.166224,-0.331047 -0.04313,-0.526692 0.136788,-0.217407 0.489097,-0.279005 1.808159,-0.316141 l 1.638268,-0.04612 0.04612,-1.638268 c 0.03714,-1.319062 0.09873,-1.671372 0.316142,-1.808159 0.195644,-0.123097 0.340718,-0.111217 0.526692,0.04313 0.208477,0.17302 0.256672,0.583579 0.256672,2.186502 0,1.318853 -0.06451,2.037993 -0.194471,2.167955 -0.129961,0.129961 -0.849102,0.194471 -2.167954,0.194471 -1.602923,0 -2.013482,-0.04819 -2.186503,-0.256673 z m -12.887818,-9.183267 -0.30872,-0.364633 0.364633,0.308721 c 0.342665,0.290121 0.438408,0.420545 0.30872,0.420545 -0.03075,0 -0.194836,-0.164085 -0.364633,-0.364633 z m 7.956291,0.04051 c 0.161329,-0.178265 0.329787,-0.324118 0.374354,-0.324118 0.04457,0 -0.05097,0.145853 -0.212294,0.324118 -0.161329,0.178265 -0.329787,0.324118 -0.374354,0.324118 -0.04457,0 0.05097,-0.145853 0.212294,-0.324118 z m -7.940893,-7.940894 c 0.161327,-0.178265 0.329786,-0.324118 0.374352,-0.324118 0.04457,0 -0.05097,0.145853 -0.212293,0.324118 -0.161328,0.178265 -0.329786,0.324118 -0.374352,0.324118 -0.04457,0 0.05097,-0.145853 0.212293,-0.324118 z m 7.925496,-0.04051 -0.308721,-0.364633 0.364633,0.308721 c 0.342664,0.290121 0.438409,0.420545 0.308721,0.420545 -0.03075,0 -0.194837,-0.164085 -0.364633,-0.364633 z m -17.049421,-4.85367 c -0.268842,-0.268842 -0.268842,-4.041929 0,-4.310771 0.129962,-0.129963 0.849102,-0.194471 2.167954,-0.194471 1.602923,0 2.013482,0.04819 2.186503,0.256673 0.154344,0.185974 0.166224,0.331048 0.04313,0.526692 -0.136859,0.21752 -0.489506,0.278998 -1.813767,0.316203 l -1.643875,0.04618 v 1.582509 c 0,1.539058 -0.124404,1.971451 -0.567207,1.971451 -0.09805,0 -0.265777,-0.08751 -0.372736,-0.19447 z m 25.605331,0 C 37.806137,15.159939 37.736368,14.522422 37.736368,13.50766 v -1.582509 l -1.643875,-0.04618 c -1.324261,-0.03721 -1.676908,-0.09868 -1.813767,-0.316203 -0.123097,-0.195644 -0.111216,-0.340718 0.04313,-0.526692 0.173021,-0.208478 0.58358,-0.256673 2.186503,-0.256673 1.318852,0 2.037993,0.06451 2.167954,0.194471 0.129826,0.129826 0.194471,0.846308 0.194471,2.155385 0,1.919787 -0.10381,2.349856 -0.567207,2.349856 -0.09804,0 -0.265776,-0.08751 -0.372735,-0.19447 z"
       id="path876" />
    <path
       style="fill:#05484a;stroke-width:0.162059"
       d="M 23.900412,29.475073 C 21.953746,28.87728 20.483305,27.248942 20.005696,25.16214 l -0.101999,-0.445663 h 2.515003 2.515003 v 2.511916 c 0,1.381553 -0.0547,2.506836 -0.121545,2.500628 -0.06685,-0.0062 -0.477136,-0.120485 -0.911746,-0.253948 z m 2.167704,-2.24668 v -2.511916 h 2.511915 c 1.381554,0 2.511916,0.02323 2.511916,0.05162 0,0.249339 -0.570484,1.87633 -0.773032,2.204648 -0.407165,0.659996 -1.201313,1.473474 -1.835567,1.880252 -0.450927,0.289201 -2.044174,0.887315 -2.363616,0.887315 -0.02839,0 -0.05162,-1.130362 -0.05162,-2.511915 z m -6.158244,-3.697945 c 0,-0.319442 0.598114,-1.912689 0.887316,-2.363616 0.406777,-0.634254 1.220256,-1.428401 1.88025,-1.835567 0.328319,-0.202549 1.95531,-0.773032 2.204649,-0.773032 0.02839,0 0.05162,1.130362 0.05162,2.511916 v 2.511915 h -2.511916 c -1.381553,0 -2.511915,-0.02323 -2.511915,-0.05162 z m 6.158244,-2.460299 c 0,-1.381554 0.02323,-2.511916 0.05162,-2.511916 0.319442,0 1.912689,0.598115 2.363616,0.887316 0.634254,0.406777 1.428402,1.220257 1.835567,1.880251 0.202548,0.328319 0.773032,1.955309 0.773032,2.204648 0,0.02839 -1.130362,0.05162 -2.511916,0.05162 H 26.06812 Z"
       id="path874" />
  </g>
</svg>
