<svg height="512pt" viewBox="0 0 512 512" width="512pt" xmlns="http://www.w3.org/2000/svg"><path d="m512 256c0 141.386719-114.613281 256-256 256s-256-114.613281-256-256 114.613281-256 256-256 256 114.613281 256 256zm0 0" fill="#1a94ba"/><path d="m256 495.28125c-63.914062 0-124.003906-24.890625-169.199219-70.082031-45.191406-45.195313-70.082031-105.285157-70.082031-169.199219s24.890625-124.003906 70.082031-169.195312c45.195313-45.195313 105.285157-70.085938 169.199219-70.085938s124.003906 24.890625 169.195312 70.085938c45.195313 45.191406 70.085938 105.28125 70.085938 169.195312s-24.890625 124.003906-70.085938 169.199219c-45.191406 45.191406-105.28125 70.082031-169.195312 70.082031zm0 0" fill="#6dccf2"/><path d="m300.117188 246.273438c-26.089844 20.398437-26.566407 34.628906-26.566407 59.296874 0 9.015626-4.742187 19.449219-27.988281 19.449219-19.449219 0-26.089844-7.113281-26.089844-31.78125 0-40.796875 18.027344-60.246093 31.785156-72.105469 15.652344-13.28125 42.214844-27.988281 42.214844-53.601562 0-21.824219-18.972656-32.257812-42.691406-32.257812-48.386719 0-37.949219 36.527343-63.566406 36.527343-12.808594 0-28.460938-8.539062-28.460938-27.042969 0-25.613281 29.410156-63.5625 93.449219-63.5625 60.722656 0 101.042969 33.679688 101.042969 78.269532s-40.320313 76.847656-53.128906 86.808594zm-17.550782 148.003906c0 19.449218-16.128906 36.527344-36.527344 36.527344-20.398437 0-36.050781-17.078126-36.050781-36.527344 0-19.921875 16.128907-36.523438 36.050781-36.523438 19.921876 0 36.527344 16.601563 36.527344 36.523438zm0 0" fill="#e6e6e6"/></svg>