<?xml version="1.0" encoding="UTF-8" standalone="no"?>
<!-- Created with Inkscape (http://www.inkscape.org/) -->

<svg
   width="50mm"
   height="50mm"
   viewBox="0 0 50 50"
   version="1.1"
   id="svg5"
   inkscape:version="1.1.1 (3bf5ae0d25, 2021-09-20)"
   sodipodi:docname="block_slider.svg"
   xmlns:inkscape="http://www.inkscape.org/namespaces/inkscape"
   xmlns:sodipodi="http://sodipodi.sourceforge.net/DTD/sodipodi-0.dtd"
   xmlns="http://www.w3.org/2000/svg"
   xmlns:svg="http://www.w3.org/2000/svg">
  <sodipodi:namedview
     id="namedview7"
     pagecolor="#ffffff"
     bordercolor="#666666"
     borderopacity="1.0"
     inkscape:pageshadow="2"
     inkscape:pageopacity="0.0"
     inkscape:pagecheckerboard="0"
     inkscape:document-units="mm"
     showgrid="false"
     width="50mm"
     inkscape:zoom="1.4681257"
     inkscape:cx="164.83602"
     inkscape:cy="168.5823"
     inkscape:window-width="1920"
     inkscape:window-height="1009"
     inkscape:window-x="-8"
     inkscape:window-y="-8"
     inkscape:window-maximized="1"
     inkscape:current-layer="layer1" />
  <defs
     id="defs2">
    <marker
       style="overflow:visible"
       id="Arrow1Sstart"
       refX="0.0"
       refY="0.0"
       orient="auto"
       inkscape:stockid="Arrow1Sstart"
       inkscape:isstock="true">
      <path
         transform="scale(0.2) translate(6,0)"
         style="fill-rule:evenodd;fill:context-stroke;stroke:context-stroke;stroke-width:1.0pt"
         d="M 0.0,0.0 L 5.0,-5.0 L -12.5,0.0 L 5.0,5.0 L 0.0,0.0 z "
         id="path11299" />
    </marker>
    <marker
       style="overflow:visible;"
       id="Arrow2Send"
       refX="0.0"
       refY="0.0"
       orient="auto"
       inkscape:stockid="Arrow2Send"
       inkscape:isstock="true">
      <path
         transform="scale(0.3) rotate(180) translate(-2.3,0)"
         d="M 8.7185878,4.0337352 L -2.2072895,0.016013256 L 8.7185884,-4.0017078 C 6.9730900,-1.6296469 6.9831476,1.6157441 8.7185878,4.0337352 z "
         style="stroke:context-stroke;fill-rule:evenodd;fill:context-stroke;stroke-width:0.62500000;stroke-linejoin:round;"
         id="path11320" />
    </marker>
  </defs>
  <g
     inkscape:label="Layer 1"
     inkscape:groupmode="layer"
     id="layer1">
    <ellipse
       style="fill:#ffffff;stroke-width:0.264583"
       id="path1278"
       cx="24.849569"
       cy="24.913284"
       rx="24.977001"
       ry="24.913284" />
    <path
       style="fill:#758b97;stroke-width:0.145612"
       d="m 17.171133,29.159562 c -1.42238,-0.359014 -2.784902,-1.444519 -3.450306,-2.748818 l -0.304528,-0.596923 h -3.407012 c -1.8738578,0 -3.5106606,-0.03977 -3.6373406,-0.08838 C 6.1797832,25.651701 6.141619,25.350108 6.141619,23.905291 v -1.731765 h 3.6041467 3.6041463 l 0.340167,-0.64122 c 0.47247,-0.890617 1.541716,-1.917583 2.468758,-2.371142 1.017921,-0.498023 2.555661,-0.615375 3.70093,-0.282436 1.163266,0.338171 2.457879,1.342848 3.061454,2.375822 l 0.494424,0.84617 10.001321,0.03741 10.001322,0.03741 v 1.730761 c 0,1.443904 -0.03818,1.745412 -0.230328,1.819147 -0.126679,0.04861 -4.631663,0.08838 -10.011073,0.08838 H 23.39614 l -0.346561,0.653271 c -0.461213,0.869398 -1.590186,1.904138 -2.563941,2.349938 -0.888232,0.406647 -2.429457,0.565921 -3.314505,0.342532 z"
       id="path20354" />
    <path
       style="fill:#0197e0;stroke-width:0.145612"
       d="m 16.958557,28.960369 c -1.437466,-0.469668 -2.656839,-1.508051 -3.282028,-2.794878 l -0.319066,-0.656734 -3.6080517,0.04332 -3.6080521,0.04332 1.299e-4,-0.834633 1.299e-4,-0.834634 3.4473538,-0.03904 3.4473532,-0.03904 0.167608,-0.72806 c 0.233341,-1.013597 0.852007,-2.162647 1.528792,-2.839433 1.977524,-1.977524 5.303414,-1.977185 7.281339,7.15e-4 0.681836,0.681835 1.475635,2.170683 1.591124,2.984306 l 0.08267,0.582448 9.865212,0.03742 9.865213,0.03742 2.7e-5,0.836251 2.7e-5,0.836251 -10.028421,-0.03932 -10.028419,-0.03932 -0.409901,0.810154 c -0.823654,1.627924 -2.496923,2.698983 -4.352193,2.785837 -0.610194,0.02857 -1.276366,-0.03331 -1.640851,-0.152394 z"
       id="path20352" />
    <path
       style="fill:#5f7884;stroke-width:0.145612"
       d="m 16.958557,28.814757 c -0.772378,-0.252361 -1.877176,-0.893902 -1.974025,-1.146285 -0.04297,-0.111965 1.366556,-1.672073 3.390387,-3.752597 l 3.463924,-3.56096 0.321154,0.290452 c 0.176634,0.159748 0.452867,0.552554 0.613848,0.8729 0.160983,0.320346 0.395638,0.699475 0.521457,0.842508 0.12582,0.143035 0.265618,0.536187 0.310662,0.873672 l 0.0819,0.613612 9.865212,0.03742 9.865213,0.03742 2.7e-5,0.836251 2.7e-5,0.836251 -10.03831,-0.03932 -10.03831,-0.03932 -0.648937,1.003154 c -0.714395,1.104341 -1.274841,1.597821 -2.362014,2.079788 -0.892183,0.395524 -2.505075,0.498383 -3.372214,0.215061 z M 6.141619,24.812751 v -0.886615 l 3.4505435,-0.03904 3.4505435,-0.03904 0.164872,-0.72806 0.164871,-0.728059 -0.01152,1.019283 c -0.0063,0.560607 0.04059,1.265005 0.104289,1.56533 l 0.115807,0.546044 h -3.489374 c -1.9191583,0 -3.5930246,0.03977 -3.7197046,0.08839 -0.1944873,0.07463 -0.2303274,-0.04958 -0.2303274,-0.798231 z"
       id="path20350" />
    <path
       style="fill:#0186ce;stroke-width:0.145612"
       d="m 16.958557,28.806038 c -0.759493,-0.237361 -1.875334,-0.880383 -1.974025,-1.137566 -0.04297,-0.111965 1.366556,-1.672073 3.390387,-3.752597 l 3.463924,-3.56096 0.321154,0.290452 c 0.176634,0.159748 0.452867,0.552554 0.613848,0.8729 0.160983,0.320346 0.387385,0.690355 0.503117,0.822244 0.115733,0.131887 0.246613,0.590565 0.290846,1.019283 l 0.08042,0.779489 9.885028,-0.03937 9.885029,-0.03937 v 0.803835 c 0,0.442109 -0.06553,0.803835 -0.145612,0.803835 -0.08009,0 -0.145612,-0.06598 -0.145612,-0.14663 0,-0.09736 -3.312125,-0.134055 -9.856283,-0.109209 l -9.856284,0.03742 -0.736989,1.09209 c -0.821024,1.216617 -1.699236,1.902243 -2.889215,2.255629 -0.892718,0.265108 -1.998081,0.26844 -2.829736,0.0085 z M 6.141619,24.867343 v -0.800866 h 3.3199533 c 2.3880367,0 3.3690017,0.04905 3.4946877,0.174734 0.135904,0.135905 0.17796,0.03074 0.189249,-0.473239 0.008,-0.356385 0.06355,-0.811787 0.123474,-1.012003 0.07035,-0.235046 0.103906,-0.0029 0.09469,0.655254 -0.0078,0.560606 0.03484,1.248623 0.09485,1.528926 l 0.109116,0.509642 -3.5674,-0.04364 c -2.42148,-0.02962 -3.5674009,0.0054 -3.5674009,0.109209 0,0.08407 -0.065526,0.152848 -0.1456123,0.152848 -0.080087,0 -0.1456118,-0.36039 -0.1456118,-0.800867 z"
       id="path20348" />
    <path
       style="fill:#536d79;stroke-width:0.145612"
       d="m 6.141619,24.867343 v -0.800866 h 3.3312463 c 3.6175307,0 3.5693397,-0.01095 3.6874217,0.837269 l 0.06588,0.473239 H 9.8295057 c -2.1673673,0 -3.3966626,0.0527 -3.3966626,0.145612 0,0.08009 -0.065526,0.145612 -0.1456123,0.145612 -0.080087,0 -0.1456118,-0.36039 -0.1456118,-0.800866 z m 36.985445,0.655254 c 0,-0.09564 -3.375544,-0.145612 -9.835407,-0.145612 h -9.835408 l 0.100408,-0.546045 c 0.05523,-0.300325 0.172863,-0.594186 0.261418,-0.653025 0.08856,-0.05884 4.534832,-0.107982 9.880612,-0.109209 l 9.719601,-0.0023 v 0.800866 c 0,0.440476 -0.06553,0.800866 -0.145612,0.800866 -0.08009,0 -0.145612,-0.06553 -0.145612,-0.145612 z"
       id="path20346" />
  </g>
</svg>
