<?xml version="1.0" encoding="UTF-8" standalone="no"?>
<!-- Created with Inkscape (http://www.inkscape.org/) -->

<svg
   width="50mm"
   height="50mm"
   viewBox="0 0 50 50"
   version="1.1"
   id="svg5"
   inkscape:version="1.1.1 (3bf5ae0d25, 2021-09-20)"
   sodipodi:docname="block_joypad.svg"
   xmlns:inkscape="http://www.inkscape.org/namespaces/inkscape"
   xmlns:sodipodi="http://sodipodi.sourceforge.net/DTD/sodipodi-0.dtd"
   xmlns="http://www.w3.org/2000/svg"
   xmlns:svg="http://www.w3.org/2000/svg">
  <sodipodi:namedview
     id="namedview7"
     pagecolor="#ffffff"
     bordercolor="#666666"
     borderopacity="1.0"
     inkscape:pageshadow="2"
     inkscape:pageopacity="0.0"
     inkscape:pagecheckerboard="0"
     inkscape:document-units="mm"
     showgrid="false"
     width="50mm"
     inkscape:zoom="2.9362514"
     inkscape:cx="61.643223"
     inkscape:cy="35.249025"
     inkscape:window-width="1920"
     inkscape:window-height="1009"
     inkscape:window-x="-8"
     inkscape:window-y="-8"
     inkscape:window-maximized="1"
     inkscape:current-layer="layer1" />
  <defs
     id="defs2">
    <marker
       style="overflow:visible"
       id="Arrow1Sstart"
       refX="0.0"
       refY="0.0"
       orient="auto"
       inkscape:stockid="Arrow1Sstart"
       inkscape:isstock="true">
      <path
         transform="scale(0.2) translate(6,0)"
         style="fill-rule:evenodd;fill:context-stroke;stroke:context-stroke;stroke-width:1.0pt"
         d="M 0.0,0.0 L 5.0,-5.0 L -12.5,0.0 L 5.0,5.0 L 0.0,0.0 z "
         id="path11299" />
    </marker>
    <marker
       style="overflow:visible;"
       id="Arrow2Send"
       refX="0.0"
       refY="0.0"
       orient="auto"
       inkscape:stockid="Arrow2Send"
       inkscape:isstock="true">
      <path
         transform="scale(0.3) rotate(180) translate(-2.3,0)"
         d="M 8.7185878,4.0337352 L -2.2072895,0.016013256 L 8.7185884,-4.0017078 C 6.9730900,-1.6296469 6.9831476,1.6157441 8.7185878,4.0337352 z "
         style="stroke:context-stroke;fill-rule:evenodd;fill:context-stroke;stroke-width:0.62500000;stroke-linejoin:round;"
         id="path11320" />
    </marker>
  </defs>
  <g
     inkscape:label="Layer 1"
     inkscape:groupmode="layer"
     id="layer1">
    <ellipse
       style="fill:#ffffff;stroke-width:0.264583"
       id="path1278"
       cx="24.849569"
       cy="24.913284"
       rx="24.977001"
       ry="24.913284" />
    <path
       style="fill:#cbcbcb;stroke-width:0.0354485"
       d="m 24.118319,38.123329 c -0.29383,-0.09955 -0.850845,-0.309088 -1.042137,-0.392026 -0.202221,-0.08768 -1.082116,-0.431869 -1.722849,-0.673937 -0.793531,-0.299793 -0.965738,-0.367292 -1.152129,-0.45159 -0.107203,-0.04848 -0.314554,-0.13146 -0.460779,-0.184389 -0.146226,-0.05293 -0.377527,-0.142988 -0.514004,-0.20013 -0.136477,-0.05714 -0.360165,-0.141759 -0.497085,-0.188038 -0.136921,-0.04628 -0.440006,-0.163886 -0.673523,-0.261351 -0.233517,-0.09746 -0.663854,-0.268576 -0.956304,-0.380249 -0.292451,-0.111672 -0.691247,-0.26649 -0.886214,-0.344041 -0.194967,-0.07755 -0.514003,-0.202113 -0.70897,-0.276808 -0.194967,-0.07469 -0.50204,-0.193255 -0.682385,-0.263469 -0.180344,-0.07022 -0.475453,-0.185112 -0.655798,-0.255327 -0.180344,-0.07021 -0.487417,-0.18732 -0.682384,-0.260234 -0.194967,-0.07291 -0.402341,-0.156825 -0.460831,-0.186469 -0.05849,-0.02964 -0.249912,-0.105604 -0.425382,-0.168804 -0.175471,-0.0632 -0.4307,-0.160436 -0.567177,-0.216086 -0.136477,-0.05565 -0.377664,-0.150072 -0.535971,-0.209831 -0.328309,-0.12393 -0.477243,-0.24983 -0.632535,-0.534702 l -0.10505,-0.192707 0.0023,-3.531625 0.0023,-3.531627 0.08065,-0.166597 c 0.09504,-0.196334 0.356821,-0.417667 0.638873,-0.54017 0.107232,-0.04657 0.689474,-0.330148 1.293872,-0.630165 0.604397,-0.300019 1.633291,-0.807899 2.286431,-1.128622 2.812915,-1.381282 3.365436,-1.653053 4.277841,-2.104163 l 0.963404,-0.476325 -0.0097,-0.999612 c -0.0053,-0.549786 -0.03824,-2.848473 -0.0731,-5.108192 -0.06005,-3.892142 -0.06016,-4.118801 -0.0022,-4.3025796 0.0939,-0.2978792 0.268759,-0.4412153 0.89267,-0.7317363 0.289756,-0.1349228 1.013358,-0.4836988 1.608008,-0.7750581 1.314838,-0.6442289 1.28433,-0.6376016 1.931945,-0.4196936 0.233961,0.078723 0.704539,0.2404947 1.045732,0.3594939 0.341192,0.1189992 0.860059,0.2953948 1.15304,0.39199 0.742182,0.2446976 1.032106,0.3949747 1.175261,0.6091756 0.185956,0.2782449 0.207197,0.469087 0.141009,1.2669321 -0.06262,0.754869 -0.109285,1.385899 -0.165141,2.233258 -0.04028,0.611097 -0.117841,1.689514 -0.195034,2.711813 -0.02797,0.370437 -0.06832,0.904823 -0.08966,1.187525 -0.02134,0.282703 -0.05273,0.73733 -0.06976,1.010284 -0.0634,1.016585 -0.108453,1.640117 -0.142137,1.967394 -0.01906,0.185218 -0.04497,0.513365 -0.05757,0.729214 l -0.02291,0.392455 1.006366,0.327877 c 0.553501,0.180332 1.460993,0.477235 2.016648,0.659783 0.555657,0.182549 1.15385,0.373372 1.329321,0.424051 0.175471,0.05068 0.446652,0.138529 0.602624,0.195218 0.155974,0.05669 0.562747,0.191301 0.903939,0.299137 0.341191,0.107835 0.771891,0.245453 0.95711,0.305817 0.185219,0.06036 0.663773,0.214185 1.063456,0.341825 1.426575,0.455583 2.217266,0.728132 2.330654,0.80337 0.129643,0.08603 0.290267,0.298464 0.365987,0.484048 0.04248,0.104127 0.05062,0.605551 0.05062,3.11947 0,1.647471 -0.01255,3.054542 -0.02791,3.126825 -0.04108,0.193457 -0.271552,0.462802 -0.510441,0.596542 -0.113337,0.06345 -0.469273,0.250318 -0.790969,0.41526 -0.961115,0.492793 -2.082522,1.071002 -2.516845,1.29771 -0.224212,0.117034 -0.646936,0.334469 -0.939387,0.483188 -1.223884,0.622378 -2.377424,1.216329 -2.4105,1.241156 -0.0195,0.01463 -0.641619,0.333813 -1.382493,0.70929 -0.740875,0.375476 -1.450731,0.741993 -1.57746,0.81448 -0.126728,0.07249 -0.732899,0.383007 -1.347044,0.690042 -0.614146,0.307035 -1.259675,0.640383 -1.434509,0.740776 -0.297503,0.170831 -0.334996,0.183059 -0.584901,0.190763 -0.153748,0.0047 -0.327171,-0.01215 -0.408815,-0.03981 z m 1.551547,-8.020395 c 1.517433,-0.67842 3.856937,-1.723386 5.626781,-2.513263 3.795233,-1.693803 4.366877,-1.953669 4.3661,-1.984807 -5.36e-4,-0.0188 -0.380852,-0.156702 -0.845295,-0.30644 -0.848392,-0.273526 -1.5361,-0.496229 -2.882731,-0.933525 -0.399682,-0.129791 -0.989901,-0.320617 -1.311596,-0.424056 -0.730307,-0.23483 -2.905974,-0.937397 -2.977677,-0.961552 -0.09801,-0.03302 0.03531,0.07678 0.336761,0.277361 0.198701,0.132209 0.317764,0.241508 0.397762,0.365143 0.212428,0.32831 0.1755,0.307163 0.424408,0.243031 0.210068,-0.05412 0.25291,-0.05243 0.992558,0.03927 0.425159,0.05271 0.792214,0.106511 0.815678,0.119552 0.02346,0.01304 0.240391,0.259115 0.482059,0.54683 0.424936,0.505904 0.442016,0.532678 0.518999,0.813583 0.148367,0.541376 0.131976,0.869548 -0.06414,1.284206 -0.224655,0.475004 -0.816989,0.834351 -1.375313,0.834351 -0.345344,0 -1.920319,-0.243724 -2.070683,-0.320435 l -0.137035,-0.06991 -0.19922,0.127439 c -0.10957,0.07009 -0.254386,0.150489 -0.321812,0.178661 -0.173613,0.07254 -2.899762,0.615973 -3.090049,0.615973 -0.225182,0 -2.977479,-0.562862 -3.12616,-0.63932 -0.06824,-0.03509 -0.189645,-0.132912 -0.269792,-0.217382 -0.217048,-0.228754 -1.24847,-1.51022 -1.307647,-1.624657 -0.0936,-0.181008 -0.127391,-0.412035 -0.08677,-0.593295 0.04474,-0.199632 0.637349,-1.330923 0.772316,-1.474349 0.05187,-0.05512 0.250118,-0.187776 0.440562,-0.294804 0.190443,-0.107026 0.337997,-0.207963 0.327898,-0.224304 -0.0101,-0.01634 -0.103919,-0.078 -0.208487,-0.137011 -0.104568,-0.05902 -0.248398,-0.175379 -0.319622,-0.258588 l -0.129497,-0.151289 -0.929938,0.46105 c -0.511466,0.253578 -2.193866,1.082264 -3.738666,1.841527 -1.544801,0.759261 -2.808984,1.39079 -2.809297,1.403395 -3.08e-4,0.01261 2.499882,1.023197 5.555989,2.245759 3.056107,1.222564 5.604414,2.24383 5.662903,2.269483 0.05849,0.02565 0.118614,0.04794 0.133608,0.04953 0.01499,0.0016 0.621163,-0.262633 1.347043,-0.587164 z"
       id="path18995" />
    <path
       style="fill:#989797;stroke-width:0.0354485"
       d="m 24.189215,38.111243 c -0.03899,-0.0097 -0.461716,-0.169612 -0.939385,-0.355265 -0.477669,-0.185653 -1.147647,-0.444812 -1.488838,-0.57591 -0.341193,-0.131097 -0.963315,-0.374447 -1.382494,-0.540776 -0.419179,-0.166329 -0.977493,-0.384746 -1.240698,-0.48537 -0.263206,-0.100625 -0.733785,-0.284557 -1.045732,-0.408741 -0.311947,-0.124182 -0.822406,-0.32368 -1.134353,-0.443329 -0.311948,-0.119649 -0.989901,-0.383149 -1.506563,-0.585558 -0.516663,-0.202408 -1.274375,-0.498715 -1.683806,-0.658461 -0.40943,-0.159747 -1.007624,-0.393171 -1.32932,-0.518724 -0.321695,-0.125553 -0.665018,-0.256869 -0.76294,-0.291815 -0.453653,-0.161898 -0.644029,-0.308097 -0.80505,-0.61823 l -0.07576,-0.145923 0.0016,-3.509405 c 0.0015,-3.210902 0.0067,-3.521466 0.06146,-3.6512 0.117766,-0.279139 0.268603,-0.385653 1.190712,-0.840813 1.036475,-0.511613 3.638622,-1.792587 6.340615,-3.121334 l 1.962719,-0.965199 -0.02081,-1.028008 c -0.01145,-0.565404 -0.04726,-2.874808 -0.07958,-5.132008 -0.0559,-3.904013 -0.05575,-4.111915 0.0033,-4.2664131 0.116642,-0.305421 0.224843,-0.3876571 1.010427,-0.7679549 0.399683,-0.1934844 1.133467,-0.5520224 1.630632,-0.7967508 1.133608,-0.5580151 1.133417,-0.5579828 1.8256,-0.3100343 0.253458,0.090791 0.979266,0.3413748 1.612909,0.5568521 0.633642,0.2154772 1.218636,0.4228948 1.299985,0.460928 0.218707,0.102252 0.385518,0.2834157 0.473916,0.5146912 0.07616,0.1992514 0.07718,0.2205304 0.03628,0.7544868 -0.02315,0.302198 -0.05623,0.764802 -0.07352,1.028007 -0.01728,0.263206 -0.05626,0.82152 -0.08662,1.240699 -0.03036,0.419179 -0.0796,1.105108 -0.109416,1.524287 -0.02982,0.419179 -0.07065,0.969517 -0.09073,1.222974 -0.02008,0.253457 -0.05057,0.676181 -0.06774,0.939387 -0.01718,0.263205 -0.0484,0.709856 -0.0694,0.992559 -0.02099,0.282702 -0.06169,0.848992 -0.09043,1.258423 -0.02875,0.40943 -0.06968,0.967745 -0.09097,1.240698 -0.02129,0.272954 -0.04128,0.631871 -0.04444,0.797592 l -0.0057,0.301313 1.010283,0.331507 c 1.090856,0.357946 2.593958,0.845662 4.448791,1.443514 1.312113,0.422922 2.621952,0.848052 2.835884,0.920432 0.07799,0.02639 0.52263,0.169974 0.988099,0.319084 0.766573,0.245567 0.860753,0.284426 0.999657,0.412464 0.08434,0.07775 0.190038,0.215825 0.234875,0.306846 l 0.08152,0.165492 v 3.048573 3.048575 l -0.100233,0.204123 c -0.05513,0.112269 -0.150841,0.242443 -0.212691,0.289276 -0.120895,0.09154 -0.860244,0.48404 -2.274818,1.207635 -0.487417,0.249329 -1.077635,0.552506 -1.311596,0.673728 -0.23396,0.121223 -0.776323,0.400169 -1.205251,0.619879 -0.428926,0.219712 -0.987241,0.507145 -1.240698,0.63874 -0.769494,0.399525 -1.582338,0.817209 -2.587744,1.329727 -0.52641,0.268344 -1.004965,0.515696 -1.063456,0.54967 -0.05849,0.03397 -0.552997,0.289002 -1.098904,0.566726 -0.545907,0.277726 -1.265367,0.646552 -1.5988,0.819614 -0.586487,0.304406 -0.613631,0.314525 -0.83304,0.310548 -0.124741,-0.0023 -0.258703,-0.01208 -0.297698,-0.02183 z M 25.6206,30.163984 c 1.551469,-0.693538 2.875533,-1.284887 4.931628,-2.202546 4.482684,-2.000672 5.191998,-2.322702 5.187901,-2.355313 -0.0056,-0.04428 -0.15485,-0.09472 -2.936919,-0.992366 -1.247788,-0.402602 -2.779165,-0.897057 -3.40306,-1.098789 -1.679072,-0.542915 -1.926315,-0.620658 -1.973851,-0.620658 -0.02377,0 0.147417,0.128431 0.380417,0.285403 0.457521,0.308233 0.504022,0.352789 0.639963,0.613184 0.07589,0.145366 0.101679,0.168402 0.167119,0.149265 0.342738,-0.100227 0.425108,-0.100579 1.191013,-0.0051 0.417532,0.05206 0.773876,0.103754 0.791879,0.11488 0.018,0.01112 0.229213,0.250637 0.46936,0.532245 0.423952,0.497152 0.438941,0.520447 0.516301,0.802418 0.104204,0.379804 0.122831,0.614954 0.06999,0.883542 -0.11969,0.608374 -0.568777,1.042175 -1.218706,1.177226 -0.23304,0.04842 -0.281141,0.04496 -1.212568,-0.08746 -0.709972,-0.100931 -1.00911,-0.157886 -1.116205,-0.212522 l -0.146303,-0.07464 -0.218589,0.141928 c -0.120225,0.07806 -0.261643,0.15812 -0.314266,0.17791 -0.165997,0.06243 -2.91073,0.606571 -3.059244,0.606494 -0.07799,-3.6e-5 -0.787843,-0.129011 -1.57746,-0.286598 -1.095576,-0.218649 -1.470939,-0.306948 -1.584574,-0.372745 -0.103358,-0.05985 -0.341001,-0.321376 -0.776862,-0.854949 -0.754787,-0.923998 -0.77777,-0.956887 -0.82607,-1.182101 -0.05818,-0.271284 -0.0014,-0.442655 0.379942,-1.147304 0.377549,-0.697586 0.382495,-0.70302 0.886634,-0.974067 0.159664,-0.08584 0.290298,-0.17503 0.290298,-0.198194 0,-0.02317 -0.08375,-0.08683 -0.186105,-0.141479 -0.102357,-0.05465 -0.261927,-0.178689 -0.354599,-0.275648 l -0.168494,-0.176288 -0.770892,0.380103 c -0.42399,0.209058 -2.102871,1.034273 -3.730845,1.833811 -1.627974,0.799538 -2.98388,1.477718 -3.013125,1.507068 -0.03071,0.03082 -0.0382,0.05975 -0.01772,0.0685 0.44901,0.191682 11.358417,4.54648 11.392422,4.547606 0.02689,9.38e-4 0.617109,-0.252382 1.311597,-0.562832 z M 24.056386,15.955261 c 0.0054,-3.626694 -0.0039,-5.9996649 -0.02359,-5.9996649 -0.0179,0 -0.460613,0.2049079 -0.983799,0.4553509 l -0.951247,0.455352 0.0075,1.50318 c 0.0041,0.826749 0.03207,3.194076 0.06212,5.260725 0.05086,3.498054 0.05891,3.760744 0.116581,3.803859 0.03407,0.02547 0.181588,0.112725 0.327814,0.193893 0.227056,0.126037 0.340891,0.161532 0.779867,0.24317 0.282702,0.05258 0.545907,0.09294 0.5849,0.08969 0.07056,-0.0059 0.07094,-0.03473 0.07986,-6.00556 z"
       id="path18993" />
    <path
       style="fill:#636363;stroke-width:0.0354485"
       d="m 24.313286,38.101519 c -0.153559,-0.02694 -0.533987,-0.170776 -3.048574,-1.15265 -1.611803,-0.629363 -3.268428,-1.275526 -4.041133,-1.576236 -1.038232,-0.404043 -2.651264,-1.033372 -3.863891,-1.507508 -0.614146,-0.240132 -1.308051,-0.510846 -1.542011,-0.601589 -0.644008,-0.249783 -0.743759,-0.320623 -0.924189,-0.656325 -0.06401,-0.119101 -0.06663,-0.26392 -0.06545,-3.615751 9.91e-4,-2.785313 0.01064,-3.519511 0.04775,-3.629246 0.09628,-0.284777 0.231714,-0.381648 1.203543,-0.860865 2.077553,-1.024457 3.61901,-1.783252 4.453004,-2.192028 0.487418,-0.238904 1.553967,-0.763502 2.370109,-1.165772 l 1.483896,-0.7314 -0.02244,-1.444145 c -0.01234,-0.79428 -0.02974,-1.795086 -0.03867,-2.224013 -0.0089,-0.428928 -0.03464,-2.097752 -0.05714,-3.708498 l -0.04092,-2.928631 0.0891,-0.1946324 c 0.05107,-0.1115494 0.141495,-0.2345916 0.211834,-0.2882419 0.0675,-0.051485 0.408405,-0.2310452 0.757564,-0.3990225 0.349159,-0.1679772 1.05756,-0.5134423 1.574222,-0.7677002 1.183445,-0.5823924 1.15504,-0.5778136 1.914221,-0.3085636 0.282702,0.1002625 1.047257,0.3639052 1.699011,0.5858723 1.231985,0.4195755 1.34817,0.4750287 1.518019,0.7245254 0.160983,0.2364727 0.163781,0.309579 0.06505,1.6998589 -0.301471,4.2454 -0.375558,5.275517 -0.408049,5.673654 -0.124489,1.525483 -0.288515,4.088349 -0.263212,4.112645 0.01655,0.01589 0.731973,0.255196 1.589827,0.531787 0.857855,0.276591 2.149954,0.694165 2.871331,0.927942 0.721379,0.233777 1.550875,0.501411 1.843325,0.594743 2.395593,0.764526 3.777747,1.225476 3.887608,1.29652 0.07153,0.04626 0.17258,0.139851 0.224542,0.207978 0.197673,0.259163 0.194846,0.210272 0.194846,3.369804 0,3.240181 0.0058,3.155426 -0.235182,3.422193 -0.149044,0.164974 -0.217244,0.203532 -1.785384,1.009378 -0.672636,0.34566 -1.510108,0.776274 -1.861048,0.956921 -0.350941,0.180649 -1.483521,0.763203 -2.516846,1.294568 -1.033324,0.531364 -2.612557,1.344867 -3.509405,1.807785 -2.466461,1.273091 -3.392169,1.734822 -3.509405,1.75045 -0.05849,0.0078 -0.178129,0.0016 -0.265864,-0.01381 z m 0.103242,-2.773633 c -0.0017,-0.472795 -0.01492,-1.681148 -0.02935,-2.685227 -0.01444,-1.00408 -0.01406,-1.83973 8.04e-4,-1.857002 0.01489,-0.01727 0.231489,-0.122833 0.481323,-0.234583 2.593825,-1.16021 4.098303,-1.832526 5.59428,-2.499958 1.880948,-0.839188 4.683976,-2.092038 5.114645,-2.286059 0.250936,-0.113049 0.288445,-0.157921 0.182801,-0.218687 -0.02808,-0.01616 -1.183643,-0.394467 -2.567908,-0.840694 -1.384266,-0.446226 -3.035282,-0.979468 -3.668923,-1.184982 -2.396306,-0.777211 -2.278007,-0.743392 -2.295955,-0.65636 -0.0082,0.03996 0.02524,0.071 0.105061,0.09741 0.06443,0.02132 0.292624,0.155058 0.507088,0.297188 0.396578,0.262822 0.385983,0.251447 0.647215,0.694811 0.02438,0.04137 0.06883,0.03888 0.280947,-0.01576 0.248349,-0.06398 0.262408,-0.06374 0.973509,0.01608 0.396836,0.04455 0.748921,0.08844 0.78241,0.09755 0.04877,0.01326 0.387744,0.391663 0.905851,1.011202 0.0695,0.08311 0.21922,0.686679 0.220074,0.887194 0.0031,0.732626 -0.423185,1.261878 -1.168188,1.450274 l -0.273673,0.06921 -0.971382,-0.138991 c -0.730468,-0.10452 -1.012361,-0.158929 -1.136615,-0.219382 l -0.165235,-0.08039 -0.197763,0.131267 c -0.108769,0.0722 -0.249765,0.152786 -0.31332,0.179086 -0.06356,0.0263 -0.769447,0.178328 -1.568643,0.33784 -1.133074,0.226151 -1.488283,0.284886 -1.612908,0.2667 -0.581256,-0.08482 -2.841404,-0.563295 -2.977983,-0.630437 -0.117965,-0.05799 -0.251858,-0.1902 -0.514003,-0.507538 -1.127461,-1.364839 -1.133148,-1.373696 -1.110412,-1.729262 0.01228,-0.192011 0.04943,-0.283239 0.326398,-0.801571 0.171898,-0.321696 0.350392,-0.635109 0.396652,-0.696474 0.049,-0.065 0.24813,-0.202977 0.477078,-0.330568 0.216132,-0.120447 0.386917,-0.237733 0.379521,-0.260637 -0.0074,-0.0229 -0.121416,-0.10697 -0.253378,-0.186816 -0.131963,-0.07985 -0.299588,-0.214439 -0.3725,-0.299096 l -0.132567,-0.153923 -2.974868,1.466081 c -1.636177,0.806344 -3.332714,1.640424 -3.770082,1.853511 -0.437369,0.213088 -0.856105,0.436363 -0.930525,0.496169 l -0.135308,0.108737 v 2.666091 c 0,2.091701 0.0095,2.673175 0.04431,2.698977 0.02437,0.01809 0.419179,0.17862 0.877351,0.35674 0.458172,0.178118 1.024463,0.398277 1.258423,0.48924 0.648479,0.252128 4.088712,1.594052 4.590585,1.790641 3.60478,1.412025 4.884629,1.907071 4.93621,1.909325 0.05753,0.0025 0.06181,-0.0597 0.05893,-0.856917 z m 1.130109,-9.369522 c 1.244556,-0.249744 1.297552,-0.268291 1.533067,-0.536528 0.125102,-0.142486 0.125707,-0.149339 0.02997,-0.339989 -0.108888,-0.216835 -0.234232,-0.372951 -0.343406,-0.427714 -0.119796,-0.06009 -0.709086,-0.183368 -0.738055,-0.154399 -0.01179,0.01179 -0.05781,0.125504 -0.102249,0.252689 -0.19622,0.561549 -0.77711,1.072138 -1.356755,1.192557 -0.269155,0.05592 -0.752363,0.02296 -1.012455,-0.06905 -0.492398,-0.174193 -0.925898,-0.603489 -1.113647,-1.102846 l -0.0733,-0.194967 -0.146136,0.0068 c -0.215425,0.01008 -0.516973,0.159556 -0.584224,0.289602 -0.03063,0.05924 -0.05569,0.123616 -0.05569,0.143067 0,0.01945 0.125996,0.191726 0.279992,0.382832 l 0.279994,0.347466 1.058188,0.218177 c 0.582005,0.119997 1.086788,0.219696 1.121739,0.221553 0.03495,0.0019 0.58529,-0.10132 1.222975,-0.229285 z M 24.127282,15.954187 c 0.0075,-5.048654 0.0011,-6.0391986 -0.03902,-6.0545985 -0.05839,-0.022405 -2.008932,0.9155485 -2.044211,0.9829935 -0.01377,0.02632 -0.01267,0.829489 0.0024,1.784827 0.01509,0.955338 0.04516,3.092885 0.06682,4.750104 0.02166,1.657219 0.04862,3.240477 0.05992,3.518352 l 0.02054,0.505226 0.341934,0.192753 c 0.312915,0.176397 0.382547,0.200208 0.820488,0.28056 0.263207,0.04829 0.542363,0.08514 0.62035,0.08189 l 0.141795,-0.0059 0.009,-6.036187 z"
       id="path18991" />
    <path
       style="fill:#fa0000;stroke-width:0.0354485"
       d="m 24.206941,38.042032 c -0.169304,-0.0594 -0.928623,-0.347116 -1.063456,-0.402956 -0.08774,-0.03634 -0.638074,-0.251656 -1.222976,-0.478491 -0.5849,-0.226837 -1.238926,-0.481583 -1.453389,-0.566102 -0.214464,-0.08452 -0.581356,-0.228032 -0.815317,-0.318916 -0.823922,-0.320061 -3.973887,-1.548297 -4.271548,-1.665565 -0.282753,-0.111394 -3.027568,-1.182004 -3.749999,-1.46268 -0.376404,-0.146238 -0.558929,-0.285428 -0.672503,-0.512839 l -0.07946,-0.159107 v -3.510338 -3.510336 l 0.09922,-0.190152 c 0.126512,-0.242445 0.179662,-0.274131 1.744099,-1.039777 1.170881,-0.573039 2.299711,-1.127794 5.973078,-2.935429 0.916344,-0.450927 1.679267,-0.836581 1.695383,-0.85701 0.03008,-0.03812 0.02612,-0.431371 -0.06676,-6.630572 -0.0433,-2.890255 -0.04535,-3.647692 -0.01022,-3.774943 0.08813,-0.3192411 0.207693,-0.3950926 1.944172,-1.2333777 1.33289,-0.6434517 1.607689,-0.7639835 1.772428,-0.7774199 0.179349,-0.014628 0.328431,0.030007 1.861047,0.557189 0.916345,0.3151997 1.734234,0.612497 1.817531,0.6606607 0.0833,0.048164 0.189784,0.1465079 0.236636,0.2185429 0.161919,0.2489504 0.168126,0.3442461 0.09202,1.412685 -0.315275,4.426147 -0.400215,5.60614 -0.461462,6.41062 -0.20518,2.695082 -0.258689,3.63909 -0.208966,3.686656 0.05515,0.05276 0.649696,0.249704 4.603665,1.52499 1.549987,0.499923 3.408376,1.099726 4.129754,1.332896 0.721378,0.233169 1.382673,0.467418 1.469546,0.520551 0.111105,0.06795 0.187328,0.15284 0.257002,0.286211 l 0.09905,0.189605 v 3.068783 c 0,3.050453 -4.02e-4,3.069707 -0.07486,3.223418 -0.124006,0.256163 -0.09753,0.239945 -1.892536,1.159377 -0.526411,0.269637 -1.395786,0.717069 -1.931945,0.994293 -0.536159,0.277225 -1.341727,0.691962 -1.790152,0.921636 -1.09684,0.561783 -1.890876,0.970724 -2.445949,1.259701 -0.455452,0.237115 -3.958713,2.0369 -4.716215,2.422937 -0.350876,0.178812 -0.413398,0.199221 -0.602624,0.196713 -0.116123,-0.0015 -0.235059,-0.0112 -0.264304,-0.02145 z m 0.267636,-1.814724 c 0.02974,-0.02747 0.804823,-0.428254 3.419011,-1.767933 0.399682,-0.204822 0.902165,-0.464261 1.116629,-0.576531 0.444217,-0.232543 1.021029,-0.5306 2.091463,-1.080726 0.409431,-0.210418 0.887987,-0.457492 1.063456,-0.549055 0.175471,-0.09156 1.152521,-0.59359 2.171223,-1.115618 l 1.852186,-0.949142 v -2.247656 -2.247656 l -0.09748,-0.03518 c -0.05362,-0.01935 -0.153314,-0.06528 -0.221554,-0.102054 -0.06824,-0.03678 -0.594648,-0.218642 -1.169801,-0.404142 -3.384631,-1.091617 -6.83302,-2.205243 -7.117205,-2.298436 -0.354514,-0.116254 -0.433334,-0.105726 -0.433334,0.05788 0,0.232447 -0.378072,0.52026 -0.772888,0.588373 -0.40195,0.06934 -0.361464,0.01691 -0.361464,0.468166 0,0.348366 -0.01281,0.434612 -0.101911,0.686599 -0.124358,0.351664 -0.250142,0.539641 -0.541771,0.809638 -0.78052,0.722623 -1.955528,0.60887 -2.633512,-0.254951 -0.259162,-0.330201 -0.35109,-0.616605 -0.373127,-1.162494 l -0.0186,-0.460831 -0.108877,-0.05444 c -0.324091,-0.162043 -0.972303,-0.540012 -0.972303,-0.566946 0,-0.01719 -0.113105,-0.09844 -0.251344,-0.180569 -0.138238,-0.08213 -0.309111,-0.218429 -0.379716,-0.302895 -0.07061,-0.08447 -0.147088,-0.153576 -0.169962,-0.153576 -0.02287,0 -0.757268,0.352758 -1.631988,0.783907 -0.874719,0.431148 -1.877532,0.923776 -2.228473,1.094729 -1.756438,0.855604 -3.738728,1.841617 -3.872752,1.926347 l -0.150657,0.09525 v 2.707028 c 0,2.122722 0.0096,2.714825 0.04431,2.743152 0.02437,0.01987 0.435131,0.188021 0.9128,0.373671 0.477669,0.18565 1.57037,0.611294 2.428225,0.945876 0.857854,0.334582 2.086146,0.81361 2.729537,1.064508 0.643391,0.250898 1.847755,0.721645 2.676364,1.046103 0.82861,0.324458 1.586322,0.619411 1.683806,0.655448 0.09748,0.03604 0.41652,0.160847 0.70897,0.277353 0.536764,0.213834 0.649419,0.243443 0.710744,0.186805 z M 29.098839,27.301 c -0.832875,-0.123578 -1.056654,-0.187309 -1.247262,-0.35521 -0.348472,-0.30696 -0.299821,-1.389595 0.08705,-1.937239 0.03936,-0.05571 0.09348,-0.205851 0.120263,-0.333643 0.09026,-0.430606 0.278764,-0.630342 0.692004,-0.733245 0.269478,-0.0671 0.271871,-0.06707 1.026857,0.01616 l 0.75675,0.08342 0.149753,0.162089 c 0.08237,0.08915 0.292296,0.335165 0.466514,0.546704 l 0.316762,0.384617 0.09773,0.393915 c 0.09117,0.367472 0.09486,0.410648 0.05498,0.64321 -0.106398,0.620464 -0.421349,0.987316 -1.006263,1.17209 -0.35726,0.11286 -0.491051,0.109074 -1.515132,-0.04287 z M 24.78679,21.937227 c 0.348164,-0.05721 0.652893,-0.120507 0.677178,-0.140661 0.0261,-0.02166 0.05289,-0.170689 0.06553,-0.364526 0.04477,-0.68682 0.203979,-2.919138 0.272412,-3.81956 0.03927,-0.516663 0.110812,-1.505677 0.158984,-2.197809 0.123119,-1.768911 0.153528,-2.194767 0.23288,-3.261266 0.03844,-0.516662 0.07983,-1.075248 0.09199,-1.241301 0.0177,-0.241915 0.01175,-0.310494 -0.02992,-0.345079 -0.09693,-0.08044 -2.13336,-0.7536923 -2.208147,-0.7300189 -0.06285,0.019896 -1.608892,0.7593099 -1.932214,0.9241089 l -0.12407,0.06324 -0.0048,0.637939 c -0.0026,0.350867 0.01595,1.77052 0.04131,3.154786 0.02535,1.384265 0.05585,3.410149 0.06777,4.501964 0.01192,1.091815 0.03034,2.068593 0.04093,2.170619 l 0.01926,0.185502 0.349447,0.197858 c 0.337926,0.191337 0.368518,0.20119 0.928048,0.298932 0.318231,0.05559 0.610506,0.09392 0.649499,0.08518 0.03899,-0.0087 0.355758,-0.0627 0.70392,-0.11991 z"
       id="path18989" />
    <path
       style="fill:#990202;stroke-width:0.0354485"
       d="m 24.206941,38.042032 c -0.169304,-0.0594 -0.928623,-0.347116 -1.063456,-0.402956 -0.08774,-0.03634 -0.638074,-0.251656 -1.222976,-0.478491 -0.5849,-0.226837 -1.238926,-0.481583 -1.453389,-0.566102 -0.214464,-0.08452 -0.581356,-0.228032 -0.815317,-0.318916 -0.823922,-0.320061 -3.973887,-1.548297 -4.271548,-1.665565 -0.282753,-0.111394 -3.027568,-1.182004 -3.749999,-1.46268 -0.376404,-0.146238 -0.558929,-0.285428 -0.672503,-0.512839 l -0.07946,-0.159107 v -3.510338 -3.510336 l 0.09922,-0.190152 c 0.126512,-0.242445 0.179662,-0.274131 1.744099,-1.039777 1.170881,-0.573039 2.299711,-1.127794 5.973078,-2.935429 0.916344,-0.450927 1.679267,-0.836581 1.695383,-0.85701 0.03008,-0.03812 0.02612,-0.431371 -0.06676,-6.630572 -0.0433,-2.890255 -0.04535,-3.647692 -0.01022,-3.774943 0.08813,-0.3192411 0.207693,-0.3950926 1.944172,-1.2333777 1.33289,-0.6434517 1.607689,-0.7639835 1.772428,-0.7774199 0.179349,-0.014628 0.328431,0.030007 1.861047,0.557189 0.916345,0.3151997 1.734234,0.612497 1.817531,0.6606607 0.0833,0.048164 0.189784,0.1465079 0.236636,0.2185429 0.161919,0.2489504 0.168126,0.3442461 0.09202,1.412685 -0.315275,4.426147 -0.400215,5.60614 -0.461462,6.41062 -0.20518,2.695082 -0.258689,3.63909 -0.208966,3.686656 0.05515,0.05276 0.649696,0.249704 4.603665,1.52499 1.549987,0.499923 3.408376,1.099726 4.129754,1.332896 0.721378,0.233169 1.382673,0.467418 1.469546,0.520551 0.111105,0.06795 0.187328,0.15284 0.257002,0.286211 l 0.09905,0.189605 v 3.068783 c 0,3.050453 -4.02e-4,3.069707 -0.07486,3.223418 -0.124006,0.256163 -0.09753,0.239945 -1.892536,1.159377 -0.526411,0.269637 -1.395786,0.717069 -1.931945,0.994293 -0.536159,0.277225 -1.341727,0.691962 -1.790152,0.921636 -1.09684,0.561783 -1.890876,0.970724 -2.445949,1.259701 -0.455452,0.237115 -3.958713,2.0369 -4.716215,2.422937 -0.350876,0.178812 -0.413398,0.199221 -0.602624,0.196713 -0.116123,-0.0015 -0.235059,-0.0112 -0.264304,-0.02145 z m 0.267636,-1.814724 c 0.02974,-0.02747 0.804823,-0.428254 3.419011,-1.767933 0.399682,-0.204822 0.902165,-0.464261 1.116629,-0.576531 0.444217,-0.232543 1.021029,-0.5306 2.091463,-1.080726 0.409431,-0.210418 0.887987,-0.457492 1.063456,-0.549055 0.175471,-0.09156 1.152521,-0.59359 2.171223,-1.115618 l 1.852186,-0.949142 v -2.247656 -2.247656 l -0.09748,-0.03518 c -0.05362,-0.01935 -0.153314,-0.06528 -0.221554,-0.102054 -0.06824,-0.03678 -0.594648,-0.218642 -1.169801,-0.404142 -3.384631,-1.091617 -6.83302,-2.205243 -7.117205,-2.298436 -0.354514,-0.116254 -0.433334,-0.105726 -0.433334,0.05788 0,0.232447 -0.378072,0.52026 -0.772888,0.588373 -0.40195,0.06934 -0.361464,0.01691 -0.361464,0.468166 0,0.348366 -0.01281,0.434612 -0.101911,0.686599 -0.124358,0.351664 -0.250142,0.539641 -0.541771,0.809638 -0.78052,0.722623 -1.955528,0.60887 -2.633512,-0.254951 -0.259162,-0.330201 -0.35109,-0.616605 -0.373127,-1.162494 l -0.0186,-0.460831 -0.108877,-0.05444 c -0.324091,-0.162043 -0.972303,-0.540012 -0.972303,-0.566946 0,-0.01719 -0.113105,-0.09844 -0.251344,-0.180569 -0.138238,-0.08213 -0.309111,-0.218429 -0.379716,-0.302895 -0.07061,-0.08447 -0.147088,-0.153576 -0.169962,-0.153576 -0.02287,0 -0.757268,0.352758 -1.631988,0.783907 -0.874719,0.431148 -1.877532,0.923776 -2.228473,1.094729 -1.756438,0.855604 -3.738728,1.841617 -3.872752,1.926347 l -0.150657,0.09525 v 2.707028 c 0,2.122722 0.0096,2.714825 0.04431,2.743152 0.02437,0.01987 0.435131,0.188021 0.9128,0.373671 0.477669,0.18565 1.57037,0.611294 2.428225,0.945876 0.857854,0.334582 2.086146,0.81361 2.729537,1.064508 0.643391,0.250898 1.847755,0.721645 2.676364,1.046103 0.82861,0.324458 1.586322,0.619411 1.683806,0.655448 0.09748,0.03604 0.41652,0.160847 0.70897,0.277353 0.536764,0.213834 0.649419,0.243443 0.710744,0.186805 z M 29.098839,27.301 c -0.832875,-0.123578 -1.056654,-0.187309 -1.247262,-0.35521 -0.125715,-0.110739 -0.21503,-0.374105 -0.231921,-0.683868 -0.02514,-0.461159 0.08876,-0.903724 0.327889,-1.274019 0.04482,-0.06941 0.09268,-0.197981 0.106357,-0.285715 0.01367,-0.08774 0.04501,-0.208536 0.06963,-0.268443 0.05421,-0.131878 0.247991,-0.358244 0.350953,-0.409963 0.04119,-0.02069 0.0095,0.02379 -0.07053,0.09884 -0.197448,0.185277 -0.297683,0.392069 -0.297683,0.614148 0,0.148014 0.03638,0.25159 0.209037,0.595175 0.228512,0.45473 0.250868,0.476159 0.655722,0.628546 0.443109,0.166785 0.9488,0.149131 1.482253,-0.05175 0.308898,-0.116319 0.331675,-0.147119 0.46953,-0.634884 l 0.123962,-0.438611 -0.116422,-0.199462 c -0.12513,-0.21438 -0.192421,-0.365427 -0.136236,-0.305807 0.01837,0.0195 0.177408,0.208526 0.353408,0.420065 l 0.32,0.384617 0.09773,0.393915 c 0.09117,0.367472 0.09486,0.410648 0.05498,0.64321 -0.106398,0.620464 -0.421349,0.987316 -1.006263,1.17209 -0.35726,0.11286 -0.491051,0.109074 -1.515132,-0.04287 z M 24.78679,21.937227 c 0.348164,-0.05721 0.652893,-0.120507 0.677178,-0.140661 0.0261,-0.02166 0.05289,-0.170689 0.06553,-0.364526 0.04477,-0.68682 0.203979,-2.919138 0.272412,-3.81956 0.03927,-0.516663 0.110812,-1.505677 0.158984,-2.197809 0.123119,-1.768911 0.153528,-2.194767 0.23288,-3.261266 0.03844,-0.516662 0.07983,-1.075248 0.09199,-1.241301 0.0177,-0.241915 0.01175,-0.310494 -0.02992,-0.345079 -0.09693,-0.08044 -2.13336,-0.7536923 -2.208147,-0.7300189 -0.06285,0.019896 -1.608892,0.7593099 -1.932214,0.9241089 l -0.12407,0.06324 -0.0048,0.637939 c -0.0026,0.350867 0.01595,1.77052 0.04131,3.154786 0.02535,1.384265 0.05585,3.410149 0.06777,4.501964 0.01192,1.091815 0.03034,2.068593 0.04093,2.170619 l 0.01926,0.185502 0.349447,0.197858 c 0.337926,0.191337 0.368518,0.20119 0.928048,0.298932 0.318231,0.05559 0.610506,0.09392 0.649499,0.08518 0.03899,-0.0087 0.355758,-0.0627 0.70392,-0.11991 z"
       id="path18987" />
    <path
       style="fill:#2f2f2f;stroke-width:0.0354485"
       d="m 24.206941,38.042032 c -0.169304,-0.0594 -0.928623,-0.347116 -1.063456,-0.402956 -0.08774,-0.03634 -0.638074,-0.251656 -1.222976,-0.478491 -0.5849,-0.226837 -1.238926,-0.481583 -1.453389,-0.566102 -0.214464,-0.08452 -0.581356,-0.228032 -0.815317,-0.318916 -0.823922,-0.320061 -3.973887,-1.548297 -4.271548,-1.665565 -0.282753,-0.111394 -3.027568,-1.182004 -3.749999,-1.46268 -0.376404,-0.146238 -0.558929,-0.285428 -0.672503,-0.512839 l -0.07946,-0.159107 v -3.510338 -3.510336 l 0.09922,-0.190152 c 0.126512,-0.242445 0.179662,-0.274131 1.744099,-1.039777 1.170881,-0.573039 2.299711,-1.127794 5.973078,-2.935429 0.916344,-0.450927 1.679267,-0.836581 1.695383,-0.85701 0.03008,-0.03812 0.02612,-0.431371 -0.06676,-6.630572 -0.0433,-2.890255 -0.04535,-3.647692 -0.01022,-3.774943 0.08813,-0.3192411 0.207693,-0.3950926 1.944172,-1.2333777 1.33289,-0.6434517 1.607689,-0.7639835 1.772428,-0.7774199 0.179349,-0.014628 0.328431,0.030007 1.861047,0.557189 0.916345,0.3151997 1.734234,0.612497 1.817531,0.6606607 0.0833,0.048164 0.189784,0.1465079 0.236636,0.2185429 0.161919,0.2489504 0.168126,0.3442461 0.09202,1.412685 -0.315275,4.426147 -0.400215,5.60614 -0.461462,6.41062 -0.20518,2.695082 -0.258689,3.63909 -0.208966,3.686656 0.05515,0.05276 0.649696,0.249704 4.603665,1.52499 1.549987,0.499923 3.408376,1.099726 4.129754,1.332896 0.721378,0.233169 1.382673,0.467418 1.469546,0.520551 0.111105,0.06795 0.187328,0.15284 0.257002,0.286211 l 0.09905,0.189605 v 3.068783 c 0,3.050453 -4.02e-4,3.069707 -0.07486,3.223418 -0.124006,0.256163 -0.09753,0.239945 -1.892536,1.159377 -0.526411,0.269637 -1.395786,0.717069 -1.931945,0.994293 -0.536159,0.277225 -1.341727,0.691962 -1.790152,0.921636 -1.09684,0.561783 -1.890876,0.970724 -2.445949,1.259701 -0.455452,0.237115 -3.958713,2.0369 -4.716215,2.422937 -0.350876,0.178812 -0.413398,0.199221 -0.602624,0.196713 -0.116123,-0.0015 -0.235059,-0.0112 -0.264304,-0.02145 z m 0.267636,-1.814724 c 0.02974,-0.02747 0.804823,-0.428254 3.419011,-1.767933 0.399682,-0.204822 0.902165,-0.464261 1.116629,-0.576531 0.444217,-0.232543 1.021029,-0.5306 2.091463,-1.080726 0.409431,-0.210418 0.887987,-0.457492 1.063456,-0.549055 0.175471,-0.09156 1.152521,-0.59359 2.171223,-1.115618 l 1.852186,-0.949142 v -2.247656 -2.247656 l -0.09748,-0.03518 c -0.05362,-0.01935 -0.153314,-0.06528 -0.221554,-0.102054 -0.06824,-0.03678 -0.594648,-0.218642 -1.169801,-0.404142 -3.384631,-1.091617 -6.83302,-2.205243 -7.117205,-2.298436 -0.354514,-0.116254 -0.433334,-0.105726 -0.433334,0.05788 0,0.232447 -0.378072,0.52026 -0.772888,0.588373 -0.40195,0.06934 -0.361464,0.01691 -0.361464,0.468166 0,0.348366 -0.01281,0.434612 -0.101911,0.686599 -0.124358,0.351664 -0.250142,0.539641 -0.541771,0.809638 -0.78052,0.722623 -1.955528,0.60887 -2.633512,-0.254951 -0.259162,-0.330201 -0.35109,-0.616605 -0.373127,-1.162494 l -0.0186,-0.460831 -0.108877,-0.05444 c -0.324091,-0.162043 -0.972303,-0.540012 -0.972303,-0.566946 0,-0.01719 -0.113105,-0.09844 -0.251344,-0.180569 -0.138238,-0.08213 -0.309111,-0.218429 -0.379716,-0.302895 -0.07061,-0.08447 -0.147088,-0.153576 -0.169962,-0.153576 -0.02287,0 -0.757268,0.352758 -1.631988,0.783907 -0.874719,0.431148 -1.877532,0.923776 -2.228473,1.094729 -1.756438,0.855604 -3.738728,1.841617 -3.872752,1.926347 l -0.150657,0.09525 v 2.707028 c 0,2.122722 0.0096,2.714825 0.04431,2.743152 0.02437,0.01987 0.435131,0.188021 0.9128,0.373671 0.477669,0.18565 1.57037,0.611294 2.428225,0.945876 0.857854,0.334582 2.086146,0.81361 2.729537,1.064508 0.643391,0.250898 1.847755,0.721645 2.676364,1.046103 0.82861,0.324458 1.586322,0.619411 1.683806,0.655448 0.09748,0.03604 0.41652,0.160847 0.70897,0.277353 0.536764,0.213834 0.649419,0.243443 0.710744,0.186805 z M 24.78679,21.937227 c 0.348164,-0.05721 0.652893,-0.120507 0.677178,-0.140661 0.0261,-0.02166 0.05289,-0.170689 0.06553,-0.364526 0.04477,-0.68682 0.203979,-2.919138 0.272412,-3.81956 0.03927,-0.516663 0.110812,-1.505677 0.158984,-2.197809 0.123119,-1.768911 0.153528,-2.194767 0.23288,-3.261266 0.03844,-0.516662 0.07983,-1.075248 0.09199,-1.241301 0.0177,-0.241915 0.01175,-0.310494 -0.02992,-0.345079 -0.09693,-0.08044 -2.13336,-0.7536923 -2.208147,-0.7300189 -0.06285,0.019896 -1.608892,0.7593099 -1.932214,0.9241089 l -0.12407,0.06324 -0.0048,0.637939 c -0.0026,0.350867 0.01595,1.77052 0.04131,3.154786 0.02535,1.384265 0.05585,3.410149 0.06777,4.501964 0.01192,1.091815 0.03034,2.068593 0.04093,2.170619 l 0.01926,0.185502 0.349447,0.197858 c 0.337926,0.191337 0.368518,0.20119 0.928048,0.298932 0.318231,0.05559 0.610506,0.09392 0.649499,0.08518 0.03899,-0.0087 0.355758,-0.0627 0.70392,-0.11991 z"
       id="path18985" />
  </g>
</svg>
