<?xml version="1.0" encoding="UTF-8" standalone="no"?>
<!-- Created with Inkscape (http://www.inkscape.org/) -->

<svg
   width="50mm"
   height="50mm"
   viewBox="0 0 50 50"
   version="1.1"
   id="svg5"
   inkscape:version="1.1.1 (3bf5ae0d25, 2021-09-20)"
   sodipodi:docname="block_not.svg"
   xmlns:inkscape="http://www.inkscape.org/namespaces/inkscape"
   xmlns:sodipodi="http://sodipodi.sourceforge.net/DTD/sodipodi-0.dtd"
   xmlns="http://www.w3.org/2000/svg"
   xmlns:svg="http://www.w3.org/2000/svg">
  <sodipodi:namedview
     id="namedview7"
     pagecolor="#ffffff"
     bordercolor="#666666"
     borderopacity="1.0"
     inkscape:pageshadow="2"
     inkscape:pageopacity="0.0"
     inkscape:pagecheckerboard="0"
     inkscape:document-units="mm"
     showgrid="false"
     width="50mm"
     inkscape:zoom="1.4681257"
     inkscape:cx="191.4005"
     inkscape:cy="245.55118"
     inkscape:window-width="1920"
     inkscape:window-height="1009"
     inkscape:window-x="-8"
     inkscape:window-y="-8"
     inkscape:window-maximized="1"
     inkscape:current-layer="layer1" />
  <defs
     id="defs2">
    <marker
       style="overflow:visible"
       id="Arrow1Sstart"
       refX="0.0"
       refY="0.0"
       orient="auto"
       inkscape:stockid="Arrow1Sstart"
       inkscape:isstock="true">
      <path
         transform="scale(0.2) translate(6,0)"
         style="fill-rule:evenodd;fill:context-stroke;stroke:context-stroke;stroke-width:1.0pt"
         d="M 0.0,0.0 L 5.0,-5.0 L -12.5,0.0 L 5.0,5.0 L 0.0,0.0 z "
         id="path11299" />
    </marker>
    <marker
       style="overflow:visible;"
       id="Arrow2Send"
       refX="0.0"
       refY="0.0"
       orient="auto"
       inkscape:stockid="Arrow2Send"
       inkscape:isstock="true">
      <path
         transform="scale(0.3) rotate(180) translate(-2.3,0)"
         d="M 8.7185878,4.0337352 L -2.2072895,0.016013256 L 8.7185884,-4.0017078 C 6.9730900,-1.6296469 6.9831476,1.6157441 8.7185878,4.0337352 z "
         style="stroke:context-stroke;fill-rule:evenodd;fill:context-stroke;stroke-width:0.62500000;stroke-linejoin:round;"
         id="path11320" />
    </marker>
  </defs>
  <g
     inkscape:label="Layer 1"
     inkscape:groupmode="layer"
     id="layer1">
    <ellipse
       style="fill:#ffffff;stroke-width:0.264583"
       id="path1278"
       cx="24.849569"
       cy="24.913284"
       rx="24.977001"
       ry="24.913284" />
    <path
       style="fill:#000000;stroke-width:0.156022"
       d="m 15.055315,29.680365 c 0,-4.041966 -0.03321,-4.708194 -0.245179,-4.920171 -0.204128,-0.204132 -0.700408,-0.245178 -2.964408,-0.245178 H 9.1264903 v -0.546075 -0.546076 h 2.7991817 c 1.53955,0 2.83776,-0.06242 2.884906,-0.138702 0.04715,-0.07629 0.0892,-2.29281 0.09345,-4.925608 0.0044,-2.632798 0.05758,-4.763932 0.118514,-4.735854 0.198613,0.09152 1.976779,1.061524 2.21708,1.209432 0.128717,0.07923 1.638229,0.934347 3.354464,1.900265 1.71624,0.965919 4.316053,2.462716 5.777362,3.326217 1.461313,0.8635 2.865508,1.687085 3.120435,1.830188 0.254926,0.143102 0.906654,0.512762 1.448289,0.821465 0.631679,0.360028 1.064441,0.516701 1.206948,0.436951 0.122189,-0.06838 0.424319,-0.443099 0.671404,-0.832708 1.096886,-1.729608 3.911689,-1.808809 4.969098,-0.139819 0.787238,1.242563 0.618762,1.162957 2.641629,1.248173 l 1.851843,0.07801 v 0.468065 0.468065 l -1.638224,0.08694 c -1.836474,0.09746 -2.169709,0.222201 -2.616495,0.979445 -0.518888,0.87945 -1.30307,1.369118 -2.343705,1.463479 -1.303256,0.118175 -2.18337,-0.293898 -2.869988,-1.343744 -0.309582,-0.473359 -0.632587,-0.791584 -0.805172,-0.793263 -0.24567,-0.0024 -5.59954,2.922187 -7.51288,4.103944 -0.343252,0.212005 -1.115559,0.64803 -1.71624,0.968947 -0.600681,0.320913 -1.267676,0.7043 -1.482206,0.851964 -0.382162,0.263051 -5.19817,3.057792 -5.889817,3.417881 l -0.351048,0.182762 z m 2.980815,1.621591 c 0.669476,-0.386151 1.262321,-0.702097 1.317431,-0.702097 0.05511,0 0.286562,-0.132203 0.514338,-0.293789 0.227776,-0.161582 0.800294,-0.502702 1.272258,-0.758035 0.471969,-0.255338 1.560218,-0.882903 2.418338,-1.394595 0.85812,-0.511692 2.708871,-1.589214 4.112782,-2.394494 1.403912,-0.805279 2.591741,-1.566242 2.639626,-1.691028 0.105436,-0.274756 -0.550586,-0.831345 -1.525686,-1.294437 -0.386151,-0.183392 -0.912726,-0.488497 -1.170161,-0.678011 -0.257434,-0.189514 -0.854219,-0.539005 -1.326183,-0.776646 -0.892334,-0.449302 -6.136995,-3.446431 -8.399088,-4.799769 -0.758894,-0.454023 -1.357868,-0.720047 -1.43886,-0.639052 -0.106445,0.106445 -0.19423,9.045926 -0.151821,15.460961 0.0057,0.861322 0.183032,0.857337 1.737026,-0.03901 z m 18.096754,-5.624352 c 1.497314,-0.774291 1.369039,-3.088311 -0.19453,-3.509338 -1.184115,-0.318848 -2.03335,0.150851 -2.339004,1.293665 -0.164722,0.615871 -0.15022,0.768771 0.123706,1.304426 0.308534,0.603321 1.099796,1.152127 1.661824,1.152612 0.154435,1.33e-4 0.491034,-0.108481 0.748004,-0.241365 z"
       id="path21004"
       sodipodi:nodetypes="ssscccsscsssssssssscccssssssssscsssssssssssssssssssss" />
  </g>
</svg>
