<?xml version="1.0" encoding="UTF-8" standalone="no"?>
<!-- Created with Inkscape (http://www.inkscape.org/) -->

<svg
   width="50mm"
   height="50mm"
   viewBox="0 0 50 50"
   version="1.1"
   id="svg5"
   inkscape:version="1.1.1 (3bf5ae0d25, 2021-09-20)"
   sodipodi:docname="block_ar_viewer.svg"
   xmlns:inkscape="http://www.inkscape.org/namespaces/inkscape"
   xmlns:sodipodi="http://sodipodi.sourceforge.net/DTD/sodipodi-0.dtd"
   xmlns="http://www.w3.org/2000/svg"
   xmlns:svg="http://www.w3.org/2000/svg">
  <sodipodi:namedview
     id="namedview7"
     pagecolor="#ffffff"
     bordercolor="#666666"
     borderopacity="1.0"
     inkscape:pageshadow="2"
     inkscape:pageopacity="0.0"
     inkscape:pagecheckerboard="0"
     inkscape:document-units="mm"
     showgrid="false"
     width="50mm"
     inkscape:zoom="2.0762433"
     inkscape:cx="33.714739"
     inkscape:cy="89.825697"
     inkscape:window-width="1920"
     inkscape:window-height="1009"
     inkscape:window-x="-8"
     inkscape:window-y="-8"
     inkscape:window-maximized="1"
     inkscape:current-layer="layer1" />
  <defs
     id="defs2" />
  <g
     inkscape:label="Layer 1"
     inkscape:groupmode="layer"
     id="layer1">
    <ellipse
       style="fill:#ffffff;stroke-width:0.264583"
       id="path1278"
       cx="24.849569"
       cy="24.913284"
       rx="24.977001"
       ry="24.913284" />
    <path
       style="fill:#000000;stroke-width:0.264583"
       d="m 8.2051088,38.495044 c 0,-0.97014 0.115331,-1.719792 0.264583,-1.719792 0.145521,0 0.264584,0.595313 0.264584,1.322917 v 1.322916 h 1.4552082 c 1.11713,0 1.455209,0.0922 1.455209,0.396875 0,0.312074 -0.367477,0.396875 -1.7197922,0.396875 H 8.2051088 Z M 36.515525,39.81796 c 0,-0.304673 0.338079,-0.396875 1.455207,-0.396875 h 1.455209 v -1.322916 c 0,-0.727604 0.119062,-1.322917 0.264583,-1.322917 0.149251,0 0.264583,0.749652 0.264583,1.719792 v 1.719791 h -1.719791 c -1.352314,0 -1.719791,-0.0848 -1.719791,-0.396875 z m -18.54917,-5.127148 -5.660204,-3.407358 -0.07028,-7.110886 -0.07028,-7.110886 5.7328,-3.438528 c 3.15304,-1.89119 5.886742,-3.475753 6.074892,-3.521251 0.188148,-0.0455 2.968061,1.497528 6.177581,3.428946 l 5.835494,3.511668 v 7.046012 7.046013 l -5.819934,3.481813 c -3.200964,1.914999 -5.981919,3.481814 -6.179898,3.481814 -0.197983,0 -2.907059,-1.533311 -6.020171,-3.407357 z m 5.84512,-4.152808 0.0041,-6.104956 -5.378257,-3.221607 c -2.958041,-1.771883 -5.450565,-3.221606 -5.53894,-3.221606 -0.261154,0 -0.218064,12.268473 0.04452,12.675899 0.442188,0.686097 10.463522,6.56943 10.670188,6.264262 0.106913,-0.157869 0.19621,-3.034265 0.198438,-6.391992 z m 6.089466,3.459123 c 2.364753,-1.399601 4.582308,-2.73 4.927899,-2.956441 l 0.628352,-0.41171 v -6.319571 c 0,-3.475762 -0.08046,-6.31957 -0.178795,-6.31957 -0.09834,0 -2.598582,1.458516 -5.556097,3.241146 l -5.377301,3.241146 -1.53e-4,6.446575 -1.54e-4,6.446576 0.628351,-0.41171 c 0.345591,-0.226441 2.563145,-1.55684 4.927898,-2.956441 z m -0.17472,-13.523185 c 2.788232,-1.688802 5.129043,-3.133493 5.201803,-3.210425 0.07276,-0.07693 0.0019,-0.186906 -0.157607,-0.244385 -0.159446,-0.05748 -2.559359,-1.469929 -5.333145,-3.138777 -2.773786,-1.668849 -5.174995,-3.03427 -5.336023,-3.03427 -0.486899,0 -10.472181,6.093421 -10.472181,6.390547 0,0.402133 10.253418,6.582842 10.673196,6.433746 0.194947,-0.06924 2.635727,-1.507635 5.423957,-3.196436 z M 8.2051088,9.9200425 v -1.719792 h 1.719792 c 1.3523152,0 1.7197922,0.0848 1.7197922,0.396875 0,0.304672 -0.338079,0.396875 -1.455209,0.396875 H 8.7342758 v 1.3229175 c 0,0.727604 -0.119063,1.322917 -0.264584,1.322917 -0.149252,0 -0.264583,-0.749653 -0.264583,-1.7197925 z M 39.425941,10.316918 V 8.9940005 h -1.455209 c -1.117128,0 -1.455207,-0.0922 -1.455207,-0.396875 0,-0.312073 0.367477,-0.396875 1.719791,-0.396875 h 1.719791 v 1.719792 c 0,0.9701395 -0.115332,1.7197925 -0.264583,1.7197925 -0.145521,0 -0.264583,-0.595313 -0.264583,-1.322917 z"
       id="path1156" />
  </g>
</svg>
