<?xml version="1.0" encoding="UTF-8" standalone="no"?>
<!-- Created with Inkscape (http://www.inkscape.org/) -->

<svg
   width="50mm"
   height="50mm"
   viewBox="0 0 50 50"
   version="1.1"
   id="svg5"
   inkscape:version="1.1.1 (3bf5ae0d25, 2021-09-20)"
   sodipodi:docname="block_aruco.svg"
   xmlns:inkscape="http://www.inkscape.org/namespaces/inkscape"
   xmlns:sodipodi="http://sodipodi.sourceforge.net/DTD/sodipodi-0.dtd"
   xmlns="http://www.w3.org/2000/svg"
   xmlns:svg="http://www.w3.org/2000/svg">
  <sodipodi:namedview
     id="namedview7"
     pagecolor="#ffffff"
     bordercolor="#666666"
     borderopacity="1.0"
     inkscape:pageshadow="2"
     inkscape:pageopacity="0.0"
     inkscape:pagecheckerboard="0"
     inkscape:document-units="mm"
     showgrid="false"
     width="50mm"
     inkscape:zoom="1.4681257"
     inkscape:cx="22.477639"
     inkscape:cy="180.84283"
     inkscape:window-width="1920"
     inkscape:window-height="1009"
     inkscape:window-x="-8"
     inkscape:window-y="-8"
     inkscape:window-maximized="1"
     inkscape:current-layer="layer1" />
  <defs
     id="defs2" />
  <g
     inkscape:label="Layer 1"
     inkscape:groupmode="layer"
     id="layer1">
    <ellipse
       style="fill:#ffffff;stroke-width:0.264583"
       id="path1278"
       cx="24.849569"
       cy="24.913284"
       rx="24.977001"
       ry="24.913284" />
    <path
       style="fill:#000000;stroke-width:0.119957"
       d="M 12.829287,24.689928 V 12.649069 H 24.780036 36.730785 V 24.689928 36.730787 H 24.780036 12.829287 Z m 8.963062,6.020429 v -3.010214 h 1.493843 1.493844 v -1.505108 -1.505107 h 2.987687 2.987687 v 1.505107 1.505108 h -1.493843 -1.493844 v 3.010214 3.010214 h 2.987687 2.987688 V 26.195035 18.669498 H 32.249254 30.75541 v -1.505107 -1.505107 h -2.987687 -2.987687 v 3.010214 3.010216 h -1.493844 -1.493843 v 1.505107 1.505107 h -1.493844 -1.493843 v 1.505107 1.505108 h -1.493844 -1.493843 v 3.010214 3.010214 h 2.987687 2.987687 z m 5.975374,-10.535752 v -1.505107 h 1.493844 1.493843 v 1.505107 1.505109 h -1.493843 -1.493844 z m -8.963061,-1.505107 v -3.010214 h -1.493844 -1.493843 v 3.010214 3.010216 h 1.493843 1.493844 z"
       id="path1692" />
  </g>
</svg>
