<?xml version="1.0" encoding="UTF-8" standalone="no"?>
<!-- Created with Inkscape (http://www.inkscape.org/) -->

<svg
   width="50mm"
   height="50mm"
   viewBox="0 0 50 50"
   version="1.1"
   id="svg5"
   inkscape:version="1.1.1 (3bf5ae0d25, 2021-09-20)"
   sodipodi:docname="block_mesh.svg"
   xmlns:inkscape="http://www.inkscape.org/namespaces/inkscape"
   xmlns:sodipodi="http://sodipodi.sourceforge.net/DTD/sodipodi-0.dtd"
   xmlns="http://www.w3.org/2000/svg"
   xmlns:svg="http://www.w3.org/2000/svg">
  <sodipodi:namedview
     id="namedview7"
     pagecolor="#ffffff"
     bordercolor="#666666"
     borderopacity="1.0"
     inkscape:pageshadow="2"
     inkscape:pageopacity="0.0"
     inkscape:pagecheckerboard="0"
     inkscape:document-units="mm"
     showgrid="false"
     width="50mm"
     inkscape:zoom="2.0762433"
     inkscape:cx="33.714739"
     inkscape:cy="89.825697"
     inkscape:window-width="1920"
     inkscape:window-height="1009"
     inkscape:window-x="-8"
     inkscape:window-y="-8"
     inkscape:window-maximized="1"
     inkscape:current-layer="layer1" />
  <defs
     id="defs2" />
  <g
     inkscape:label="Layer 1"
     inkscape:groupmode="layer"
     id="layer1">
    <ellipse
       style="fill:#ffffff;fill-rule:evenodd;stroke-width:0.264583"
       id="path936"
       cx="24.913284"
       cy="24.849569"
       rx="24.785852"
       ry="24.849569" />
    <path
       style="fill:#2b2f78;stroke-width:0.317305"
       d="m 18.5922,35.063609 c -3.490362,-1.340389 -6.524596,-2.552586 -6.742743,-2.693775 -0.572001,-0.370208 -0.572001,-15.87263 0,-16.31034 0.218147,-0.166932 3.289291,-1.398869 6.824764,-2.737639 l 6.428131,-2.434126 6.422742,2.425923 c 3.532511,1.334258 6.603602,2.568164 6.824647,2.742013 0.309605,0.2435 0.382473,2.17079 0.317305,8.392339 l -0.08459,8.076252 -6.028808,2.300313 c -3.315843,1.265173 -6.385772,2.384868 -6.822069,2.488212 -0.553649,0.13114 -2.71018,-0.548248 -7.139375,-2.249172 z m 6.028806,-2.433483 V 29.14335 l -2.78801,-1.141607 C 20.299588,27.373858 18.912401,26.727551 18.750353,26.565505 18.588308,26.40346 18.415039,24.634698 18.365311,22.634924 l -0.09042,-3.635953 -2.688821,-1.002306 c -1.47885,-0.551269 -2.873619,-0.931391 -3.099489,-0.844718 -0.323091,0.123982 -0.392523,1.722513 -0.325583,7.495913 l 0.08508,7.338326 5.55285,2.14026 c 3.054064,1.177142 5.838422,2.106552 6.187457,2.065358 0.591567,-0.06982 0.634612,-0.311407 0.634612,-3.561678 z m 7.39242,1.552621 c 2.914893,-1.151042 5.478285,-2.239432 5.696435,-2.418643 0.295781,-0.242989 0.396633,-2.131261 0.396633,-7.426362 v -7.100523 l -0.872592,0.01995 c -0.479924,0.01098 -1.872103,0.409957 -3.093728,0.88663 l -2.221138,0.86668 -0.09042,3.630198 c -0.04973,1.99661 -0.223001,3.762782 -0.385045,3.924827 -0.162049,0.162046 -1.549236,0.808014 -3.082643,1.435484 l -2.788009,1.140853 -0.0915,3.147637 c -0.100954,3.472858 -0.0068,3.986074 0.731219,3.986074 0.27554,0 2.885894,-0.941763 5.800786,-2.092806 z M 27.901505,27.5117 c 1.014189,-0.446191 1.640514,-0.906445 1.560757,-1.146919 -0.07326,-0.220913 -1.085434,-0.798381 -2.249257,-1.283263 l -2.116041,-0.881606 -2.141813,0.89062 c -1.240403,0.515791 -2.141813,1.082934 -2.141813,1.34757 0,0.601673 3.923606,2.256893 4.759585,2.007887 0.349037,-0.103964 1.396897,-0.524395 2.328582,-0.934289 z m -4.904653,-3.105007 1.806085,-0.798734 -0.09097,-3.106044 -0.09096,-3.106043 -0.951918,0.04279 c -0.523553,0.02353 -1.772945,0.408338 -2.776425,0.855129 l -1.824504,0.812347 v 2.97898 c 0,1.63844 0.106099,3.085079 0.235775,3.214755 0.336292,0.336292 1.608814,0.02852 3.692918,-0.893172 z m 8.061231,-2.184225 0.09096,-3.106043 -1.836144,-0.817495 c -1.009877,-0.449621 -2.264505,-0.836746 -2.78806,-0.860276 l -0.951916,-0.04279 v 3.163062 3.163063 l 2.062487,0.878628 c 3.224059,1.373464 3.314643,1.310523 3.422673,-2.378157 z m -9.140551,-4.982708 3.179432,-1.266682 3.159221,1.25863 3.159224,1.258629 2.393622,-0.84381 c 3.604893,-1.27081 3.408754,-1.520415 -3.146718,-4.004473 l -5.540348,-2.099398 -5.565348,2.107775 c -6.540221,2.476992 -6.746569,2.728856 -3.264883,3.985016 1.265257,0.456493 2.333293,0.839213 2.373415,0.85049 0.04011,0.01127 1.503695,-0.549503 3.252383,-1.246177 z"
       id="path241" />
  </g>
</svg>
