<?xml version="1.0" encoding="iso-8859-1"?>
<!-- Generator: Adobe Illustrator 16.0.0, SVG Export Plug-In . SVG Version: 6.00 Build 0)  -->
<!DOCTYPE svg PUBLIC "-//W3C//DTD SVG 1.1//EN" "http://www.w3.org/Graphics/SVG/1.1/DTD/svg11.dtd">
<svg version="1.1" id="Capa_1" xmlns="http://www.w3.org/2000/svg" xmlns:xlink="http://www.w3.org/1999/xlink" x="0px" y="0px"
	 width="143.73px" height="143.73px" viewBox="0 0 143.73 143.73" style="enable-background:new 0 0 143.73 143.73;"
	 xml:space="preserve">
<g>
	<g>
		<path d="M139.611,116.931h-10.5V20.96c0-4.135-3.332-6.344-7.467-6.344h-0.746c-4.137,0-8.84,2.209-8.84,6.344v10.709h-9.744
			v-0.853c0-3.566-2.891-6.456-6.455-6.456h-1.705c-3.563,0-6.454,2.892-6.454,6.456v0.853H73.083v-0.853
			c0-3.566-2.892-6.456-6.456-6.456h-1.706c-3.564,0-6.456,2.892-6.456,6.456v0.853h-2.436v-0.853c0-3.566-2.892-6.456-6.456-6.456
			h-1.704c-3.564,0-6.456,2.892-6.456,6.456v0.853h-9.744V20.96c0-4.135-2.458-6.344-6.592-6.344h-0.748
			c-4.134,0-9.713,0-9.713,6.344v95.973H6.363c-2.894,0-6.363,0.15-6.363,5.088v0.748c0,2.895,0,6.345,6.363,6.345h133.25
			c2.895,0,4.117-3.45,4.117-6.345v-0.748C143.729,119.127,142.506,116.931,139.611,116.931z M112.059,116.931H31.668V99.879h7.308
			v0.854c0,3.566,2.892,6.455,6.456,6.455h1.703c3.566,0,6.456-2.893,6.456-6.455v-0.854h2.436v0.854
			c0,3.566,2.892,6.455,6.456,6.455h1.703c3.566,0,6.456-2.893,6.456-6.455v-0.854h14.617v0.854c0,3.566,2.892,6.455,6.455,6.455
			h1.703c3.565,0,6.455-2.893,6.455-6.455v-0.854h12.183v17.054h0.004V116.931z M112.059,92.571h-12.18V91.72
			c0-3.566-2.893-6.457-6.455-6.457h-1.705c-3.564,0-6.457,2.893-6.457,6.457v0.852H70.646V91.72c0-3.566-2.892-6.457-6.456-6.457
			h-1.706c-3.564,0-6.456,2.893-6.456,6.457v0.852h-2.436V91.72c0-3.566-2.892-6.457-6.456-6.457H45.43
			c-3.564,0-6.456,2.893-6.456,6.457v0.852h-7.308v-24.36h12.18v0.853c0,3.566,2.892,6.455,6.456,6.455h1.703
			c3.566,0,6.456-2.891,6.456-6.455v-0.853h14.617v0.853c0,3.566,2.893,6.455,6.456,6.455h1.702c3.566,0,6.455-2.891,6.455-6.455
			v-0.853h24.361v24.36L112.059,92.571L112.059,92.571z M112.059,60.902H87.7V60.05c0-3.566-2.894-6.455-6.457-6.455h-1.705
			c-3.563,0-6.455,2.892-6.455,6.455v0.853H58.465V60.05c0-3.566-2.892-6.455-6.456-6.455h-1.705c-3.564,0-6.456,2.892-6.456,6.455
			v0.853h-12.18V38.977h9.744v0.853c0,3.566,2.892,6.456,6.456,6.456h1.703c3.566,0,6.456-2.892,6.456-6.456v-0.853h2.436v0.853
			c0,3.566,2.892,6.456,6.456,6.456h1.703c3.566,0,6.455-2.892,6.455-6.456v-0.853h14.616v0.853c0,3.566,2.894,6.456,6.455,6.456
			h1.703c3.566,0,6.457-2.892,6.457-6.456v-0.853h9.744v21.925H112.059z"/>
	</g>
</g>
<g>
</g>
<g>
</g>
<g>
</g>
<g>
</g>
<g>
</g>
<g>
</g>
<g>
</g>
<g>
</g>
<g>
</g>
<g>
</g>
<g>
</g>
<g>
</g>
<g>
</g>
<g>
</g>
<g>
</g>
</svg>
