<?xml version="1.0" encoding="iso-8859-1"?>
<!-- Generator: Adobe Illustrator 16.0.0, SVG Export Plug-In . SVG Version: 6.00 Build 0)  -->
<!DOCTYPE svg PUBLIC "-//W3C//DTD SVG 1.1//EN" "http://www.w3.org/Graphics/SVG/1.1/DTD/svg11.dtd">
<svg version="1.1" id="Capa_1" xmlns="http://www.w3.org/2000/svg" xmlns:xlink="http://www.w3.org/1999/xlink" x="0px" y="0px"
	 width="109.129px" height="109.129px" viewBox="0 0 109.129 109.129" style="enable-background:new 0 0 109.129 109.129;"
	 xml:space="preserve">
<g>
	<g>
		<path d="M104.426,4.703H4.703C2.118,4.703,0,6.821,0,9.406v90.317c0,2.585,2.118,4.702,4.703,4.702h99.723
			c2.586,0,4.703-2.117,4.703-4.702V9.406C109.129,6.793,107.039,4.703,104.426,4.703z M72.442,57.397
			c-2.587,0-4.703,2.117-4.703,4.703v0.935v1.87h-9.406v-2.805c0-2.586-2.116-4.703-4.703-4.703c-2.585,0-4.703,2.117-4.703,4.703
			v0.935v1.87H35.753v-2.805c0-2.586-2.118-4.703-4.703-4.703s-4.703,2.117-4.703,4.703v0.935v1.87H9.406V40.457h9.406v2.833v0.935
			c0,2.091,1.678,3.768,3.768,3.768c0.165,0,0.302-0.027,0.467-0.055c0.165,0.027,0.303,0.055,0.468,0.055
			c2.585,0,4.703-2.117,4.703-4.702v-2.833h7.536v2.833v0.935c0,2.091,1.678,3.768,3.768,3.768c0.165,0,0.302-0.027,0.467-0.055
			c0.165,0.027,0.303,0.055,0.468,0.055c2.585,0,4.703-2.117,4.703-4.702v-2.833h13.173v2.833v0.935
			c0,2.091,1.679,3.768,3.769,3.768c0.166,0,0.303-0.027,0.469-0.055c0.164,0.027,0.302,0.055,0.467,0.055
			c2.586,0,4.703-2.117,4.703-4.702v-2.833h9.406v2.833v0.935c0,2.091,1.677,3.768,3.768,3.768c0.164,0,0.303-0.027,0.467-0.055
			c0.166,0.027,0.303,0.055,0.469,0.055c2.584,0,4.703-2.117,4.703-4.702V40.46h13.172v24.449H77.146v-2.805
			C77.145,59.487,75.027,57.397,72.442,57.397z M9.406,14.109h90.316V31.05H86.551v-2.833c0-2.585-2.119-4.703-4.703-4.703
			c-2.586,0-4.703,2.118-4.703,4.703v0.935v1.87h-9.405V28.19c0-2.586-2.117-4.703-4.703-4.703c-2.585,0-4.703,2.117-4.703,4.703
			v0.935v1.87H45.16v-2.833c0-2.585-2.118-4.702-4.703-4.702s-4.703,2.117-4.703,4.702v0.937v1.87h-7.536v-2.833
			c0-2.585-2.118-4.702-4.703-4.702s-4.703,2.2-4.703,4.785v0.935v1.87H9.406V14.109L9.406,14.109z M99.723,95.021H9.406V74.312
			h16.941v2.833v0.935c0,2.091,1.678,3.769,3.768,3.769c0.165,0,0.302-0.027,0.467-0.055c0.165,0.026,0.303,0.055,0.468,0.055
			c2.585,0,4.703-2.117,4.703-4.702v-2.833h13.174v2.833v0.935c0,2.09,1.677,3.769,3.768,3.769c0.165,0,0.303-0.027,0.468-0.056
			c0.165,0.027,0.302,0.056,0.467,0.056c2.584,0,4.703-2.117,4.703-4.702v-2.833h9.406v2.833v0.936c0,2.09,1.678,3.768,3.769,3.768
			c0.164,0,0.303-0.027,0.467-0.055c0.166,0.026,0.303,0.055,0.469,0.055c2.585,0,4.703-2.117,4.703-4.702v-2.833h22.578v20.706
			H99.723z"/>
	</g>
</g>
<g>
</g>
<g>
</g>
<g>
</g>
<g>
</g>
<g>
</g>
<g>
</g>
<g>
</g>
<g>
</g>
<g>
</g>
<g>
</g>
<g>
</g>
<g>
</g>
<g>
</g>
<g>
</g>
<g>
</g>
</svg>
