<?xml version="1.0" encoding="iso-8859-1"?>
<!-- Generator: Adobe Illustrator 16.0.0, SVG Export Plug-In . SVG Version: 6.00 Build 0)  -->
<!DOCTYPE svg PUBLIC "-//W3C//DTD SVG 1.1//EN" "http://www.w3.org/Graphics/SVG/1.1/DTD/svg11.dtd">
<svg version="1.1" id="Capa_1" xmlns="http://www.w3.org/2000/svg" xmlns:xlink="http://www.w3.org/1999/xlink" x="0px" y="0px"
	 width="109.113px" height="109.113px" viewBox="0 0 109.113 109.113" style="enable-background:new 0 0 109.113 109.113;"
	 xml:space="preserve">
<g>
	<g>
		<path d="M12.125,95.225h43.371c-0.66,1.761-1.43,3.548-2.283,5.391c-1.403,2.971-0.138,6.52,2.833,7.921
			c0.825,0.385,1.679,0.577,2.559,0.577c2.228,0,4.373-1.265,5.391-3.41c1.705-3.603,3.08-7.096,4.125-10.479h28.877
			c3.301,0,5.941-2.667,5.941-5.94c0-3.271-2.668-5.939-5.941-5.939H70.43c0.522-7.397-0.853-14.081-4.208-19.994
			c-2.503-4.429-5.886-7.948-9.599-10.753l43.838-42.465c2.311-2.337,2.282-6.105-0.056-8.416c-2.337-2.312-6.105-2.283-8.415,0.055
			l-46.04,44.691c-9.048-3.878-17.271-4.73-17.876-4.786c-3.273-0.302-6.161,2.063-6.491,5.335c-0.33,3.273,2.063,6.188,5.335,6.518
			c0.083,0,4.456,0.496,9.874,2.23L7.888,85.104c-1.678,1.705-2.173,4.263-1.265,6.49C7.56,93.794,9.731,95.225,12.125,95.225z
			 M48.208,61.149c3.025,2.091,5.776,4.758,7.673,8.113c2.256,3.987,3.107,8.69,2.586,14.054H26.342L48.208,61.149z"/>
	</g>
</g>
<g>
</g>
<g>
</g>
<g>
</g>
<g>
</g>
<g>
</g>
<g>
</g>
<g>
</g>
<g>
</g>
<g>
</g>
<g>
</g>
<g>
</g>
<g>
</g>
<g>
</g>
<g>
</g>
<g>
</g>
</svg>
