<?xml version="1.0" encoding="iso-8859-1"?>
<!-- Generator: Adobe Illustrator 16.0.0, SVG Export Plug-In . SVG Version: 6.00 Build 0)  -->
<!DOCTYPE svg PUBLIC "-//W3C//DTD SVG 1.1//EN" "http://www.w3.org/Graphics/SVG/1.1/DTD/svg11.dtd">
<svg version="1.1" id="Capa_1" xmlns="http://www.w3.org/2000/svg" xmlns:xlink="http://www.w3.org/1999/xlink" x="0px" y="0px"
	 width="152.734px" height="152.734px" viewBox="0 0 152.734 152.734" style="enable-background:new 0 0 152.734 152.734;"
	 xml:space="preserve">
<g>
	<g>
		<path d="M104.038,35.754c-2.365,0-4.285,1.918-4.285,4.285v76.692c0,2.365,1.92,4.285,4.285,4.285h20.661
			c2.365,0,4.285-1.92,4.285-4.285V40.039c0-2.367-1.92-4.285-4.285-4.285H104.038z"/>
		<path d="M67.495,28.446c-2.365,0-4.285,1.917-4.285,4.285v84c0,2.365,1.92,4.285,4.285,4.285h23.099
			c2.365,0,4.285-1.92,4.285-4.285v-84c0-2.368-1.92-4.285-4.285-4.285H67.495z"/>
		<path d="M33.39,60.115c-2.365,0-4.285,1.917-4.285,4.285v52.332c0,2.365,1.919,4.285,4.285,4.285h20.663
			c2.366,0,4.285-1.92,4.285-4.285V64.4c0-2.368-1.919-4.285-4.285-4.285H33.39z"/>
		<path d="M141.788,118.796c-2.479-2.146-6.222-1.878-8.373,0.598c-1.609,1.854-1.861,4.422-0.847,6.496H19.36V27.732
			c0.473,0.117,0.953,0.192,1.44,0.192c1.301,0,2.614-0.427,3.708-1.306c2.558-2.052,2.965-5.786,0.914-8.342l-7.143-8.901
			c-1.101-1.374-2.755-2.188-4.517-2.219c-1.744-0.032-3.44,0.716-4.597,2.046L1.45,18.101c-2.146,2.478-1.878,6.224,0.597,8.373
			c1.467,1.267,3.374,1.673,5.133,1.296v104.209c0,3.363,2.726,6.09,6.09,6.09h119.97c-0.573,2.088-0.008,4.412,1.705,5.969
			c1.136,1.032,2.566,1.541,3.988,1.541c1.615,0,3.223-0.654,4.396-1.943l7.862-8.652c1.074-1.182,1.627-2.747,1.533-4.342
			c-0.096-1.596-0.83-3.086-2.037-4.131L141.788,118.796z"/>
	</g>
</g>
<g>
</g>
<g>
</g>
<g>
</g>
<g>
</g>
<g>
</g>
<g>
</g>
<g>
</g>
<g>
</g>
<g>
</g>
<g>
</g>
<g>
</g>
<g>
</g>
<g>
</g>
<g>
</g>
<g>
</g>
</svg>
