<?xml version="1.0" encoding="iso-8859-1"?>
<!-- Generator: Adobe Illustrator 16.0.0, SVG Export Plug-In . SVG Version: 6.00 Build 0)  -->
<!DOCTYPE svg PUBLIC "-//W3C//DTD SVG 1.1//EN" "http://www.w3.org/Graphics/SVG/1.1/DTD/svg11.dtd">
<svg version="1.1" id="Capa_1" xmlns="http://www.w3.org/2000/svg" xmlns:xlink="http://www.w3.org/1999/xlink" x="0px" y="0px"
	 width="93.562px" height="93.563px" viewBox="0 0 93.562 93.563" style="enable-background:new 0 0 93.562 93.563;"
	 xml:space="preserve">
<g>
	<g>
		<path d="M10.204,79.083h73.129v-64.63H10.204V79.083z M76.54,67.174v3.409c0,0.937-0.771,1.705-1.705,1.705H52.723
			c-0.935,0-1.705-0.771-1.705-1.705v-3.409c0-0.936,0.771-1.705,1.705-1.705h22.112C75.796,65.469,76.54,66.239,76.54,67.174z
			 M57.645,43.275c-0.906,0-1.539,0.385-2.338,1.238c-0.191,0.22-0.576,0.44-1.072,0.44c-0.797,0-1.43-0.633-1.43-1.43
			c0-0.357,0.137-0.715,0.357-0.99c1.154-1.32,2.475-2.09,4.646-2.09c2.942,0,4.924,1.732,4.924,4.4v0.028
			c0,2.394-1.237,3.575-3.74,5.528l-2.338,1.787h4.979c0.742,0,1.375,0.604,1.375,1.375c0,0.742-0.605,1.348-1.375,1.348h-7.701
			c-0.99,0-1.705-0.55-1.705-1.484c0-0.604,0.275-1.156,0.825-1.567l4.044-3.302c1.786-1.457,2.475-2.254,2.475-3.437
			C59.57,43.936,58.773,43.275,57.645,43.275z M27.228,39.974h8.498c1.127,0,2.145,0.743,2.447,1.843l1.458,5.06l4.703-15.318
			c0.33-1.073,1.319-1.788,2.447-1.788H64.63c1.403,0,2.558,1.155,2.558,2.558c0,1.402-1.127,2.558-2.558,2.558H48.68l-6.683,21.836
			c-0.33,1.071-1.32,1.951-2.448,1.951h-0.027c-1.127,0-2.117-0.906-2.42-2.008l-3.301-11.605h-6.572
			c-1.403,0-2.558-1.155-2.558-2.558C24.67,41.102,25.797,39.974,27.228,39.974z"/>
		<path d="M89.3,4.249H4.263C1.925,4.249,0,6.146,0,8.512v76.54c0,2.338,1.897,4.263,4.263,4.263H89.3
			c2.339,0,4.263-1.897,4.263-4.263V8.512C93.562,6.146,91.666,4.249,89.3,4.249z M88.447,81.639c0,1.402-1.127,2.559-2.557,2.559
			H7.646c-1.402,0-2.558-1.155-2.558-2.559V11.894c0-1.402,1.128-2.558,2.558-2.558h78.245c1.401,0,2.557,1.155,2.557,2.558V81.639
			L88.447,81.639z"/>
	</g>
</g>
<g>
</g>
<g>
</g>
<g>
</g>
<g>
</g>
<g>
</g>
<g>
</g>
<g>
</g>
<g>
</g>
<g>
</g>
<g>
</g>
<g>
</g>
<g>
</g>
<g>
</g>
<g>
</g>
<g>
</g>
</svg>
