<?xml version="1.0" encoding="iso-8859-1"?>
<!-- Generator: Adobe Illustrator 16.0.0, SVG Export Plug-In . SVG Version: 6.00 Build 0)  -->
<!DOCTYPE svg PUBLIC "-//W3C//DTD SVG 1.1//EN" "http://www.w3.org/Graphics/SVG/1.1/DTD/svg11.dtd">
<svg version="1.1" id="Capa_1" xmlns="http://www.w3.org/2000/svg" xmlns:xlink="http://www.w3.org/1999/xlink" x="0px" y="0px"
	 width="93.541px" height="93.541px" viewBox="0 0 93.541 93.541" style="enable-background:new 0 0 93.541 93.541;"
	 xml:space="preserve">
<g>
	<g>
		<path d="M74.782,9.632H35.29V0.803c0-0.302-0.165-0.576-0.44-0.715c-0.275-0.138-0.605-0.109-0.853,0.056l-5.473,4.399
			l-5.143-4.399c-0.248-0.165-0.578-0.193-0.853-0.056c-0.275,0.139-0.44,0.413-0.44,0.715l0.027,8.829h-3.3
			c-1.815,0-3.3,1.485-3.3,3.301V90.24c0,1.815,1.485,3.301,3.3,3.301h55.912c1.815,0,3.3-1.484,3.3-3.301V12.934
			C78.056,11.117,76.598,9.632,74.782,9.632z M61.608,55.698c0,1.815-1.484,3.301-3.3,3.301H35.29c-1.815,0-3.3-1.484-3.3-3.301
			V34.302c0-1.814,1.485-3.3,3.3-3.3h23.019c1.815,0,3.3,1.485,3.3,3.3V55.698z"/>
	</g>
	<g>
		<path d="M38.026,39.827c0-1.072,0.853-1.925,1.925-1.925h0.413c0.825,0,1.403,0.412,1.76,0.989l4.648,7.562l4.677-7.591
			c0.412-0.66,0.961-0.962,1.731-0.962h0.412c1.071,0,1.926,0.853,1.926,1.925v13.889c0,1.072-0.854,1.926-1.926,1.926
			c-1.045,0-1.897-0.881-1.897-1.926v-8.719l-3.383,5.171c-0.412,0.604-0.907,0.963-1.595,0.963s-1.21-0.386-1.595-0.963
			l-3.328-5.115v8.69c0,1.045-0.853,1.87-1.897,1.87c-1.045,0-1.87-0.825-1.87-1.87L38.026,39.827L38.026,39.827z"/>
	</g>
</g>
<g>
</g>
<g>
</g>
<g>
</g>
<g>
</g>
<g>
</g>
<g>
</g>
<g>
</g>
<g>
</g>
<g>
</g>
<g>
</g>
<g>
</g>
<g>
</g>
<g>
</g>
<g>
</g>
<g>
</g>
</svg>
