<?xml version="1.0" encoding="iso-8859-1"?>
<!-- Generator: Adobe Illustrator 16.0.0, SVG Export Plug-In . SVG Version: 6.00 Build 0)  -->
<!DOCTYPE svg PUBLIC "-//W3C//DTD SVG 1.1//EN" "http://www.w3.org/Graphics/SVG/1.1/DTD/svg11.dtd">
<svg version="1.1" id="Capa_1" xmlns="http://www.w3.org/2000/svg" xmlns:xlink="http://www.w3.org/1999/xlink" x="0px" y="0px"
	 width="134.547px" height="134.546px" viewBox="0 0 134.547 134.546" style="enable-background:new 0 0 134.547 134.546;"
	 xml:space="preserve">
<g>
	<g>
		<path d="M67.12,45.75c4.776,0.354,9.262,2.402,12.637,5.771c3.92,3.922,5.982,9.157,5.811,14.733
			c-0.026,0.846,0.615,1.562,1.46,1.627l45.76,3.602c0.041,0.006,0.082,0.006,0.123,0.006c0.385,0,0.761-0.144,1.053-0.4
			c0.322-0.285,0.512-0.688,0.531-1.121c0.743-18.708-6.414-37.021-19.637-50.241C101.438,6.308,83.234-0.76,64.253,0.095
			c-0.426,0.022-0.826,0.209-1.108,0.529c-0.285,0.319-0.429,0.738-0.4,1.16l2.911,42.495C65.712,45.067,66.336,45.693,67.12,45.75z
			"/>
		<path d="M49.938,80.111L15.952,108.22c-0.326,0.269-0.528,0.657-0.565,1.077c-0.042,0.418,0.092,0.838,0.36,1.162
			c1.357,1.614,2.663,3.047,3.993,4.377c12.695,12.694,29.577,19.685,47.534,19.685c7.108,0,14.131-1.111,20.873-3.302
			c0.409-0.134,0.748-0.429,0.937-0.815c0.188-0.39,0.21-0.838,0.058-1.242L73.021,85.783c-0.286-0.773-1.128-1.191-1.913-0.971
			c-6.646,1.887-14.021,0.104-19.077-4.634C51.449,79.629,50.553,79.604,49.938,80.111z"/>
		<path d="M59.132,1.021c-0.341-0.275-0.794-0.395-1.215-0.338C43.354,2.725,30.155,9.307,19.741,19.724
			c-23.128,23.125-26.307,59.329-7.559,86.089c0.253,0.359,0.648,0.6,1.084,0.66c0.071,0.01,0.142,0.014,0.212,0.014
			c0.366,0,0.724-0.126,1.009-0.359l33.847-27.994c0.609-0.504,0.752-1.376,0.338-2.051c-4.867-7.897-3.688-17.998,2.87-24.556
			c2.692-2.689,6.093-4.546,9.834-5.362c0.765-0.166,1.294-0.87,1.243-1.654L59.718,2.146C59.683,1.702,59.471,1.297,59.132,1.021z"
			/>
	</g>
</g>
<g>
</g>
<g>
</g>
<g>
</g>
<g>
</g>
<g>
</g>
<g>
</g>
<g>
</g>
<g>
</g>
<g>
</g>
<g>
</g>
<g>
</g>
<g>
</g>
<g>
</g>
<g>
</g>
<g>
</g>
</svg>
