<?xml version="1.0" encoding="iso-8859-1"?>
<!-- Generator: Adobe Illustrator 16.0.0, SVG Export Plug-In . SVG Version: 6.00 Build 0)  -->
<!DOCTYPE svg PUBLIC "-//W3C//DTD SVG 1.1//EN" "http://www.w3.org/Graphics/SVG/1.1/DTD/svg11.dtd">
<svg version="1.1" id="Capa_1" xmlns="http://www.w3.org/2000/svg" xmlns:xlink="http://www.w3.org/1999/xlink" x="0px" y="0px"
	 width="128.657px" height="128.657px" viewBox="0 0 128.657 128.657" style="enable-background:new 0 0 128.657 128.657;"
	 xml:space="preserve">
<g>
	<g>
		<path d="M107.59,0H21.068c-1.926,0-3.521,1.568-3.521,3.521v121.616c0,1.924,1.567,3.521,3.521,3.521h86.521
			c1.926,0,3.521-1.568,3.521-3.521V3.52C111.11,1.596,109.543,0,107.59,0z M39.331,116.061c-4.979,0-9.021-4.043-9.021-9.021
			s4.043-9.021,9.021-9.021c4.978,0,9.021,4.043,9.021,9.021C48.35,112.018,44.307,116.061,39.331,116.061z M39.331,91.418
			c-4.979,0-9.021-4.043-9.021-9.021s4.043-9.021,9.021-9.021c4.978,0,9.021,4.043,9.021,9.021
			C48.35,87.375,44.307,91.418,39.331,91.418z M39.331,68.618c-4.979,0-9.021-4.042-9.021-9.021c0-4.978,4.043-9.021,9.021-9.021
			c4.978,0,9.021,4.043,9.021,9.021C48.35,64.576,44.307,68.618,39.331,68.618z M64.439,73.376c4.978,0,9.021,4.043,9.021,9.021
			c0,4.979-4.043,9.021-9.021,9.021c-4.979,0-9.021-4.043-9.021-9.021C55.418,77.419,59.489,73.376,64.439,73.376z M55.446,59.598
			c0-4.978,4.043-9.021,9.021-9.021c4.979,0,8.993,4.07,8.993,9.021c0,4.951-4.043,9.021-9.021,9.021
			C59.489,68.618,55.446,64.576,55.446,59.598z M64.466,116.061c-4.978,0-9.021-4.043-9.021-9.021s4.043-9.021,9.021-9.021
			c4.978,0,9.021,4.043,9.021,9.021S69.417,116.061,64.466,116.061z M89.577,116.061c-4.979,0-9.021-4.043-9.021-9.021
			s4.043-9.021,9.021-9.021c4.978,0,9.021,4.043,9.021,9.021C98.596,112.018,94.553,116.061,89.577,116.061z M89.577,91.418
			c-4.979,0-9.021-4.07-9.021-9.021c0-4.95,4.043-9.021,9.021-9.021c4.978,0,9.021,4.043,9.021,9.021
			C98.596,87.375,94.553,91.418,89.577,91.418z M89.577,68.618c-4.979,0-9.021-4.042-9.021-9.021c0-4.978,4.043-9.021,9.021-9.021
			c4.978,0,9.021,4.043,9.021,9.021C98.596,64.576,94.553,68.618,89.577,68.618z M99.422,40.951c0,1.926-1.566,3.521-3.521,3.521
			H32.756c-1.926,0-3.521-1.567-3.521-3.521V15.236c0-1.925,1.567-3.52,3.521-3.52h63.145c1.926,0,3.521,1.567,3.521,3.52V40.951z"
			/>
		<path d="M84.735,17.85c-5.225,0-8.744,4.455-8.744,10.148v0.055c0,5.693,3.438,10.094,8.689,10.094s8.746-4.456,8.746-10.148
			v-0.056C93.426,22.25,89.933,17.85,84.735,17.85z M89,28.053c0,3.575-1.65,6.188-4.265,6.188c-2.611,0-4.316-2.668-4.316-6.243
			v-0.056c0-3.603,1.678-6.188,4.263-6.188S89,24.449,89,27.997V28.053L89,28.053z"/>
	</g>
</g>
<g>
</g>
<g>
</g>
<g>
</g>
<g>
</g>
<g>
</g>
<g>
</g>
<g>
</g>
<g>
</g>
<g>
</g>
<g>
</g>
<g>
</g>
<g>
</g>
<g>
</g>
<g>
</g>
<g>
</g>
</svg>
