<?xml version="1.0" encoding="iso-8859-1"?>
<!-- Generator: Adobe Illustrator 16.0.0, SVG Export Plug-In . SVG Version: 6.00 Build 0)  -->
<!DOCTYPE svg PUBLIC "-//W3C//DTD SVG 1.1//EN" "http://www.w3.org/Graphics/SVG/1.1/DTD/svg11.dtd">
<svg version="1.1" id="Capa_1" xmlns="http://www.w3.org/2000/svg" xmlns:xlink="http://www.w3.org/1999/xlink" x="0px" y="0px"
	 width="146.167px" height="146.167px" viewBox="0 0 146.167 146.167" style="enable-background:new 0 0 146.167 146.167;"
	 xml:space="preserve">
<g>
	<g>
		<path d="M79.986,20.898V7.309C79.986,3.273,76.713,0,72.677,0s-7.308,3.272-7.308,7.309v13.719
			c-23.876,3.923-42.225,25.643-42.225,51.843c0,26.201,18.349,47.921,42.225,51.843v14.144c0,4.037,3.272,7.31,7.308,7.31
			s7.309-3.271,7.309-7.31v-14.014c24.271-3.555,43.037-25.475,43.037-51.973C123.023,46.374,104.258,24.454,79.986,20.898z
			 M37.761,72.871c0-18.062,11.834-33.187,27.608-36.979v73.958C49.595,106.059,37.761,90.934,37.761,72.871z M79.986,110.051V35.69
			c16.182,3.456,28.422,18.809,28.422,37.182S96.167,106.597,79.986,110.051z"/>
	</g>
</g>
<g>
</g>
<g>
</g>
<g>
</g>
<g>
</g>
<g>
</g>
<g>
</g>
<g>
</g>
<g>
</g>
<g>
</g>
<g>
</g>
<g>
</g>
<g>
</g>
<g>
</g>
<g>
</g>
<g>
</g>
</svg>
