<?xml version="1.0" encoding="iso-8859-1"?>
<!-- Generator: Adobe Illustrator 16.0.0, SVG Export Plug-In . SVG Version: 6.00 Build 0)  -->
<!DOCTYPE svg PUBLIC "-//W3C//DTD SVG 1.1//EN" "http://www.w3.org/Graphics/SVG/1.1/DTD/svg11.dtd">
<svg version="1.1" id="Capa_1" xmlns="http://www.w3.org/2000/svg" xmlns:xlink="http://www.w3.org/1999/xlink" x="0px" y="0px"
	 width="115.539px" height="115.538px" viewBox="0 0 115.539 115.538" style="enable-background:new 0 0 115.539 115.538;"
	 xml:space="preserve">
<g>
	<g>
		<path d="M33.485,62.871c-0.743-0.742-1.925-0.742-2.668-0.027c-0.743,0.742-0.743,1.926-0.027,2.668l4.51,4.592
			c0.357,0.387,0.853,0.551,1.348,0.551c0.467,0,0.962-0.191,1.32-0.551c0.743-0.742,0.743-1.924,0.028-2.666L33.485,62.871z"/>
		<path d="M42.532,72.057c-0.742-0.742-1.925-0.742-2.667-0.027c-0.743,0.742-0.743,1.926-0.028,2.668l4.511,4.593
			c0.357,0.386,0.853,0.55,1.348,0.55c0.467,0,0.962-0.191,1.32-0.55c0.743-0.743,0.743-1.925,0.028-2.667L42.532,72.057z"/>
		<path d="M80.541,64.411l-4.537,4.593c-0.742,0.742-0.716,1.926,0.026,2.668c0.356,0.357,0.853,0.551,1.319,0.551
			c0.494,0,0.964-0.193,1.349-0.551l4.511-4.593c0.741-0.743,0.715-1.925-0.027-2.668S81.255,63.668,80.541,64.411z"/>
		<path d="M71.492,73.598l-4.511,4.592c-0.742,0.742-0.716,1.926,0.026,2.668c0.357,0.356,0.854,0.551,1.32,0.551
			c0.496,0,0.963-0.193,1.348-0.551l4.512-4.594c0.742-0.742,0.715-1.925-0.027-2.666C73.417,72.854,72.207,72.854,71.492,73.598z"
			/>
		<path d="M56.091,85.809l-4.538-4.595c-0.743-0.741-1.925-0.741-2.668-0.026c-0.743,0.742-0.743,1.926-0.027,2.668l4.51,4.592
			c0.357,0.387,0.853,0.551,1.348,0.551c0.468,0,0.962-0.191,1.32-0.551C56.806,87.732,56.806,86.55,56.091,85.809z"/>
		<path d="M62.445,82.783l-4.511,4.592c-0.743,0.743-0.715,1.926,0.027,2.668c0.358,0.357,0.853,0.551,1.32,0.551
			c0.495,0,0.962-0.193,1.348-0.551l4.512-4.592c0.742-0.743,0.715-1.926-0.027-2.668C64.369,82.012,63.187,82.04,62.445,82.783z"/>
		<path d="M103.23,44.169L61.042,1.348c0,0,0,0-0.029,0C60.189,0.523,59.035,0,57.769,0c-1.265,0-2.42,0.522-3.245,1.348l0,0
			L12.308,44.169c-0.853,0.853-1.32,2.008-1.32,3.218v20.765c0,0.027,0,0.055,0,0.082c0,0.274,0.027,0.55,0.083,0.824
			c0.027,0.139,0.083,0.248,0.11,0.385c0.055,0.166,0.083,0.303,0.138,0.469c0.055,0.137,0.138,0.275,0.22,0.412
			c0.055,0.138,0.138,0.248,0.193,0.385c0.11,0.166,0.248,0.303,0.357,0.439c0.055,0.084,0.11,0.166,0.192,0.248l42.216,42.766
			c0.853,0.881,2.035,1.376,3.272,1.376c1.239,0,2.393-0.495,3.274-1.376l42.188-42.793c0.083-0.082,0.138-0.191,0.221-0.275
			c0.109-0.137,0.221-0.246,0.33-0.412c0.082-0.137,0.164-0.275,0.221-0.412c0.055-0.109,0.137-0.248,0.191-0.356
			c0.082-0.166,0.109-0.356,0.165-0.522c0.026-0.109,0.083-0.22,0.11-0.33c0.055-0.303,0.082-0.604,0.082-0.906V47.387
			C104.55,46.177,104.083,45.022,103.23,44.169z M20.173,49.257l33.003-33.498v7.673L20.173,56.93V49.257z M57.769,104.427
			L22.016,68.152l35.753-36.304l35.753,36.304L57.769,104.427z M95.364,49.367L95.364,49.367v7.59L62.361,23.432v-7.673
			l33.003,33.498V49.367z"/>
		<path d="M57.769,91.309c-1.045,0-1.897,0.853-1.897,1.896v5.227c0,1.045,0.853,1.896,1.897,1.896c1.044,0,1.897-0.854,1.897-1.896
			v-5.227C59.666,92.161,58.814,91.309,57.769,91.309z"/>
	</g>
</g>
<g>
</g>
<g>
</g>
<g>
</g>
<g>
</g>
<g>
</g>
<g>
</g>
<g>
</g>
<g>
</g>
<g>
</g>
<g>
</g>
<g>
</g>
<g>
</g>
<g>
</g>
<g>
</g>
<g>
</g>
</svg>
