<?xml version="1.0" encoding="iso-8859-1"?>
<!-- Generator: Adobe Illustrator 16.0.0, SVG Export Plug-In . SVG Version: 6.00 Build 0)  -->
<!DOCTYPE svg PUBLIC "-//W3C//DTD SVG 1.1//EN" "http://www.w3.org/Graphics/SVG/1.1/DTD/svg11.dtd">
<svg version="1.1" id="Capa_1" xmlns="http://www.w3.org/2000/svg" xmlns:xlink="http://www.w3.org/1999/xlink" x="0px" y="0px"
	 width="93.59px" height="93.59px" viewBox="0 0 93.59 93.59" style="enable-background:new 0 0 93.59 93.59;" xml:space="preserve"
	>
<g>
	<g>
		<path d="M93.452,7.274c0-0.028-0.026-0.055-0.026-0.11c-0.111-0.495-0.303-0.99-0.604-1.43c-0.083-0.11-0.193-0.192-0.274-0.302
			c-0.082-0.11-0.193-0.22-0.304-0.303c-0.138-0.137-0.274-0.248-0.438-0.357c-0.084-0.055-0.166-0.11-0.248-0.165
			c-0.385-0.22-0.797-0.385-1.211-0.495h-0.026c-0.22-0.055-0.44-0.055-0.66-0.055c-0.056,0-0.083,0-0.138,0h-0.439H30.417
			c-0.633,0-1.293,0.165-1.843,0.44L2.172,18.192C0.824,18.88,0,20.255,0,21.768V85.49c0,2.229,1.815,4.043,4.042,4.043h65.951
			c1.019,0,2.007-0.385,2.75-1.072l19.554-18.234c0.826-0.77,1.293-1.842,1.293-2.941V8.098V8.071
			C93.535,7.796,93.48,7.548,93.452,7.274z M31.957,12.114h44.555l-7.84,5.418h-36.44v-0.715c0-0.88-0.715-1.623-1.623-1.623
			c-0.908,0-1.623,0.715-1.623,1.623l0.027,0.77l-8.938,0.055C20.076,17.642,31.38,12.499,31.957,12.114z M11.468,79.879
			c-0.44-0.771-1.43-1.018-2.2-0.577l-1.21,0.715V25.012l20.957,0.083v2.035c0,0.88,0.715,1.623,1.623,1.623
			s1.623-0.715,1.623-1.623v-2.008l32.26,0.138v56.188H11.468C11.743,80.98,11.77,80.374,11.468,79.879z M72.551,77.568V24.765
			l12.898-8.966v49.587l-3.219-0.055l0,0c-0.879,0-1.621,0.741-1.621,1.649c0,0.853,0.688,1.566,1.512,1.621L72.551,77.568z"/>
		<path d="M34.542,68.574h3.96l0,0c0.88,0,1.623-0.715,1.623-1.594c0-0.881-0.715-1.621-1.595-1.621h-3.988l0,0
			c-0.88,0-1.623,0.715-1.623,1.621C32.92,67.833,33.662,68.574,34.542,68.574z"/>
		<path d="M30.637,36.728c0.88,0,1.623-0.715,1.623-1.623v-3.988c0-0.88-0.715-1.623-1.623-1.623c-0.908,0-1.623,0.715-1.623,1.623
			v3.988C29.014,35.985,29.729,36.728,30.637,36.728z"/>
		<path d="M78.271,65.413l-3.988-0.056l0,0c-0.88,0-1.623,0.742-1.623,1.623c0,0.879,0.716,1.649,1.623,1.649l3.988-0.056l0,0
			c0.88,0,1.621-0.688,1.621-1.567S79.151,65.413,78.271,65.413z"/>
		<path d="M30.637,52.624c0.88,0,1.623-0.716,1.623-1.622v-3.988c0-0.88-0.715-1.623-1.623-1.623c-0.908,0-1.623,0.715-1.623,1.623
			v3.988C29.014,51.882,29.729,52.624,30.637,52.624z"/>
		<path d="M30.637,60.572c0.88,0,1.623-0.715,1.623-1.623v-3.987c0-0.88-0.715-1.623-1.623-1.623c-0.908,0-1.623,0.716-1.623,1.623
			v3.987C29.014,59.83,29.729,60.572,30.637,60.572z"/>
		<path d="M30.637,44.676c0.88,0,1.623-0.715,1.623-1.623v-3.988c0-0.88-0.715-1.623-1.623-1.623c-0.908,0-1.623,0.715-1.623,1.623
			v3.988C29.014,43.934,29.729,44.676,30.637,44.676z"/>
		<path d="M58.387,68.604l3.988-0.027l0,0c0.881,0,1.623-0.688,1.623-1.596c0-0.879-0.716-1.595-1.623-1.595l-3.988-0.026l0,0
			c-0.879,0-1.621,0.741-1.621,1.621C56.792,67.859,57.508,68.604,58.387,68.604z"/>
		<path d="M50.439,68.574l3.986-0.026l0,0c0.881,0,1.623-0.715,1.623-1.595c0-0.881-0.716-1.596-1.623-1.596l-3.986-0.026l0,0
			c-0.881,0-1.623,0.741-1.623,1.622C48.816,67.859,49.559,68.574,50.439,68.574z"/>
		<path d="M42.491,68.574h3.988l0,0c0.88,0,1.623-0.715,1.623-1.594c0-0.881-0.714-1.596-1.623-1.596l-3.988-0.027l0,0
			c-0.88,0-1.623,0.715-1.623,1.623C40.868,67.859,41.611,68.574,42.491,68.574z"/>
		<path d="M27.2,72.206c0.275,0,0.55-0.082,0.825-0.222l3.411-2.006c0.77-0.44,1.018-1.432,0.577-2.201l-0.027-0.026
			c0.138-0.248,0.248-0.522,0.248-0.825v-3.988c0-0.88-0.715-1.621-1.623-1.621c-0.908,0-1.623,0.715-1.623,1.621v3.988
			c0,0.247,0.055,0.469,0.137,0.659l-2.778,1.649c-0.77,0.44-1.018,1.432-0.577,2.201C26.099,71.931,26.649,72.206,27.2,72.206z"/>
		<path d="M13.503,80.292c0.275,0,0.55-0.083,0.825-0.222l3.41-2.008c0.77-0.438,1.018-1.43,0.578-2.199
			c-0.44-0.771-1.43-1.018-2.2-0.577l-3.41,2.008c-0.771,0.438-1.018,1.43-0.578,2.2C12.431,79.988,12.953,80.292,13.503,80.292z"/>
		<path d="M20.351,76.249c0.275,0,0.55-0.082,0.825-0.222l3.41-2.008c0.77-0.438,1.018-1.43,0.578-2.199
			c-0.44-0.771-1.43-1.018-2.2-0.578l-3.411,2.009c-0.77,0.438-1.018,1.43-0.577,2.2C19.279,75.945,19.801,76.249,20.351,76.249z"/>
	</g>
</g>
<g>
</g>
<g>
</g>
<g>
</g>
<g>
</g>
<g>
</g>
<g>
</g>
<g>
</g>
<g>
</g>
<g>
</g>
<g>
</g>
<g>
</g>
<g>
</g>
<g>
</g>
<g>
</g>
<g>
</g>
</svg>
