<?xml version="1.0" encoding="iso-8859-1"?>
<!-- Generator: Adobe Illustrator 16.0.0, SVG Export Plug-In . SVG Version: 6.00 Build 0)  -->
<!DOCTYPE svg PUBLIC "-//W3C//DTD SVG 1.1//EN" "http://www.w3.org/Graphics/SVG/1.1/DTD/svg11.dtd">
<svg version="1.1" id="Capa_1" xmlns="http://www.w3.org/2000/svg" xmlns:xlink="http://www.w3.org/1999/xlink" x="0px" y="0px"
	 width="93.609px" height="93.609px" viewBox="0 0 93.609 93.609" style="enable-background:new 0 0 93.609 93.609;"
	 xml:space="preserve">
<g>
	<path d="M93.536,66.47c0-0.055,0.028-0.109,0.028-0.191V7.423c0-0.027,0-0.055,0-0.083c0-0.22-0.028-0.44-0.057-0.632
		c-0.027-0.083-0.055-0.192-0.055-0.275c-0.027-0.083-0.027-0.165-0.055-0.248c-0.028-0.055-0.057-0.11-0.084-0.192
		c-0.026-0.11-0.082-0.193-0.109-0.275c-0.055-0.137-0.137-0.275-0.221-0.413c-0.055-0.083-0.082-0.137-0.138-0.22
		c-0.137-0.193-0.274-0.357-0.411-0.522c-0.027-0.028-0.027-0.028-0.027-0.055c-0.165-0.165-0.357-0.303-0.551-0.44
		c-0.056-0.055-0.138-0.083-0.221-0.138c-0.138-0.083-0.273-0.165-0.412-0.22c-0.082-0.028-0.164-0.083-0.248-0.11
		c-0.164-0.055-0.302-0.11-0.467-0.137c-0.083-0.028-0.165-0.055-0.248-0.055c-0.246-0.055-0.494-0.083-0.742-0.083H35.121
		c-2.448,0-5.803,0.743-8.003,1.788L2.395,16.829c-0.11,0.055-0.22,0.138-0.33,0.193c-0.083,0.055-0.165,0.083-0.248,0.137
		c-0.193,0.138-0.385,0.303-0.578,0.468c0,0,0,0-0.027,0.027c-0.165,0.165-0.33,0.357-0.468,0.55
		c-0.055,0.083-0.083,0.137-0.138,0.22c-0.082,0.138-0.165,0.275-0.22,0.413c-0.027,0.083-0.083,0.192-0.11,0.275
		c-0.055,0.138-0.11,0.275-0.138,0.44c-0.027,0.11-0.055,0.192-0.055,0.302c-0.027,0.165-0.055,0.33-0.055,0.495
		c0,0.055-0.028,0.11-0.028,0.192v65.62c0,0.027,0,0.083,0,0.109c0,0.221,0.028,0.414,0.055,0.633
		c0.027,0.082,0.027,0.193,0.055,0.275c0.027,0.082,0.027,0.166,0.055,0.248c0.028,0.082,0.055,0.137,0.083,0.191
		c0.028,0.083,0.083,0.191,0.11,0.273c0.083,0.14,0.137,0.275,0.22,0.44c0.055,0.083,0.083,0.138,0.138,0.192
		c0.137,0.193,0.275,0.385,0.467,0.551l0.028,0.027c0.165,0.164,0.33,0.303,0.522,0.438c0.055,0.056,0.137,0.082,0.192,0.138
		c0.138,0.084,0.275,0.166,0.44,0.221c0.083,0.027,0.165,0.082,0.248,0.109c0.165,0.057,0.303,0.11,0.468,0.139
		c0.083,0.027,0.165,0.055,0.248,0.055c0.248,0.055,0.495,0.082,0.742,0.082h64.025c2.889,0,6.463-1.484,8.498-3.547l15.018-15.209
		C93.206,70.019,93.839,68.203,93.536,66.47z M8.253,24.64l19.691-0.028v39.851c-0.33,0.193-0.66,0.386-0.935,0.578L8.28,78.271
		V24.64H8.253z M36.14,24.584l31.16-0.055l0.026,37.734l-31.188,0.109V24.584H36.14z M75.523,22.522l9.846-7.068v46.754
		l-9.818,0.027L75.523,22.522z M70.105,16.334L36.14,16.389v-4.84h40.592L70.105,16.334z M27.944,13.831v2.585h-5.473L27.944,13.831
		z M31.739,71.751c0.797-0.551,2.64-1.156,3.603-1.156l32.014-0.109v11.605H17.081L31.739,71.751z M75.55,76.206v-5.748l5.692-0.027
		L75.55,76.206z"/>
</g>
<g>
</g>
<g>
</g>
<g>
</g>
<g>
</g>
<g>
</g>
<g>
</g>
<g>
</g>
<g>
</g>
<g>
</g>
<g>
</g>
<g>
</g>
<g>
</g>
<g>
</g>
<g>
</g>
<g>
</g>
</svg>
