<?xml version="1.0" encoding="iso-8859-1"?>
<!-- Generator: Adobe Illustrator 16.0.0, SVG Export Plug-In . SVG Version: 6.00 Build 0)  -->
<!DOCTYPE svg PUBLIC "-//W3C//DTD SVG 1.1//EN" "http://www.w3.org/Graphics/SVG/1.1/DTD/svg11.dtd">
<svg version="1.1" id="Capa_1" xmlns="http://www.w3.org/2000/svg" xmlns:xlink="http://www.w3.org/1999/xlink" x="0px" y="0px"
	 width="93.562px" height="93.562px" viewBox="0 0 93.562 93.562" style="enable-background:new 0 0 93.562 93.562;"
	 xml:space="preserve">
<g>
	<g>
		<g>
			<path d="M93.562,24.119c0-10.286-28.602-14.136-46.644-14.136C33.883,9.983,0,12.458,0,23.734c0,0.138,0.055,0.275,0.055,0.413
				C0.027,24.339,0,24.504,0,24.697V72.33c0,1.431,0.688,2.751,1.87,3.549c1.127,0.798,11.991,7.673,45.653,7.7h0.027h0.221h0.027
				c33.854-0.027,43.263-7.123,44.224-7.947c0.99-0.824,1.541-2.035,1.541-3.302V24.724c0-0.028,0-0.055,0-0.083
				C93.562,24.449,93.562,24.284,93.562,24.119z M46.947,18.646c17.079,0,29.263,2.833,34.983,5.061
				c-5.418,1.402-16.611,2.97-34.983,2.97c-18.234,0-29.647-1.705-35.148-3.218C17.547,21.314,29.786,18.646,46.947,18.646z
				 M47.662,74.943c-23.542,0-34.9-3.575-38.971-5.253V31.517c7.673,2.53,20.435,3.795,38.256,3.795
				c20.05,0,31.462-1.513,37.98-3.465v37.98C81.243,71.507,70.874,74.943,47.662,74.943z"/>
		</g>
	</g>
	<path d="M79.951,51.402c-0.165,0-0.303-0.027-0.469-0.056c-1.869-0.522-3.851-1.019-5.83-1.457
		c-0.936-0.222-1.512-1.129-1.293-2.062c0.221-0.936,1.156-1.514,2.062-1.293c2.035,0.467,4.043,0.963,5.969,1.514
		c0.936,0.246,1.457,1.209,1.211,2.116C81.408,50.88,80.693,51.402,79.951,51.402z M13.643,49.779c-0.798,0-1.541-0.577-1.706-1.402
		c-0.192-0.936,0.413-1.843,1.375-2.036c1.842-0.356,3.877-0.743,6.05-1.072c0.935-0.165,1.843,0.495,1.98,1.43
		c0.165,0.935-0.495,1.843-1.43,1.979c-2.146,0.33-4.125,0.715-5.941,1.072C13.863,49.752,13.753,49.779,13.643,49.779z
		 M68.07,48.681c-0.11,0-0.221,0-0.303-0.028c-1.98-0.357-3.988-0.688-5.94-0.962c-0.937-0.139-1.623-1.018-1.485-1.953
		c0.139-0.935,0.99-1.623,1.953-1.485c2.007,0.275,4.042,0.605,6.077,0.99c0.937,0.165,1.567,1.073,1.403,2.008
		C69.609,48.101,68.895,48.681,68.07,48.681z M56.161,46.644c-0.109,0-0.22,0-0.302,0c-2.035-0.164-4.07-0.274-6.023-0.356
		c-0.963-0.028-1.705-0.853-1.65-1.788c0.057-0.936,0.825-1.706,1.789-1.65c2.008,0.083,4.069,0.192,6.159,0.385
		c0.964,0.083,1.65,0.907,1.597,1.87C57.646,45.901,56.959,46.562,56.161,46.644z M25.661,47.827c-0.853,0-1.595-0.633-1.705-1.514
		c-0.11-0.961,0.55-1.814,1.513-1.924c1.953-0.248,3.988-0.467,6.105-0.66c0.962-0.082,1.788,0.605,1.87,1.568
		s-0.605,1.788-1.567,1.87c-2.063,0.193-4.07,0.413-5.996,0.661C25.799,47.827,25.716,47.827,25.661,47.827z M37.68,45.929
		c-0.853-0.055-1.567-0.742-1.623-1.623c-0.055-0.962,0.66-1.788,1.623-1.842c1.98-0.138,4.016-0.248,6.133-0.303
		c0.962-0.027,1.76,0.715,1.788,1.678c0.027,0.962-0.715,1.76-1.678,1.788c-2.09,0.055-4.098,0.165-6.05,0.302
		C37.817,45.929,37.735,45.929,37.68,45.929z"/>
</g>
<g>
</g>
<g>
</g>
<g>
</g>
<g>
</g>
<g>
</g>
<g>
</g>
<g>
</g>
<g>
</g>
<g>
</g>
<g>
</g>
<g>
</g>
<g>
</g>
<g>
</g>
<g>
</g>
<g>
</g>
</svg>
