<?xml version="1.0" encoding="iso-8859-1"?>
<!-- Generator: Adobe Illustrator 16.0.0, SVG Export Plug-In . SVG Version: 6.00 Build 0)  -->
<!DOCTYPE svg PUBLIC "-//W3C//DTD SVG 1.1//EN" "http://www.w3.org/Graphics/SVG/1.1/DTD/svg11.dtd">
<svg version="1.1" id="Capa_1" xmlns="http://www.w3.org/2000/svg" xmlns:xlink="http://www.w3.org/1999/xlink" x="0px" y="0px"
	 width="134.485px" height="134.485px" viewBox="0 0 134.485 134.485" style="enable-background:new 0 0 134.485 134.485;"
	 xml:space="preserve">
<g>
	<g>
		<path d="M65.853,0C39.121,0,20.475,9.104,20.475,22.14c0,0.632,0.083,1.265,0.165,1.897c-0.11,0.412-0.165,0.853-0.165,1.32
			v93.562c0,1.485,0.605,2.915,1.678,3.96c1.21,1.184,12.761,11.606,44.911,11.606h0.357c32.149,0,43.701-10.425,44.912-11.606
			c1.071-1.045,1.678-2.475,1.678-3.96V25.357c0-0.386-0.028-0.771-0.11-1.128c0.082-0.55,0.11-1.1,0.11-1.65
			C114.038,7.921,89.202,0,65.853,0z M65.853,11.139c24.063,0,37.019,8.113,37.019,11.413c0,3.163-12.597,10.589-37.019,10.589
			c-22.799,0-34.24-7.041-34.24-11.001C31.612,18.179,43.053,11.139,65.853,11.139z M102.898,116.114
			c-3.74,2.338-14.136,7.233-35.45,7.233h-0.357c-21.122,0-31.683-4.951-35.45-7.262v-0.715c0.275-0.248,0.55-0.495,0.853-0.771
			c0.935-0.797,1.045-2.199,0.22-3.135c-0.302-0.33-0.688-0.521-1.072-0.633V37.266c8.058,4.4,19.994,7.013,34.24,7.013
			c13.503,0,27.611-2.31,37.018-7.178v72.469c-1.155-0.825-2.394-1.623-3.687-2.365c-1.071-0.605-2.42-0.221-3.024,0.854
			c-0.604,1.071-0.22,2.42,0.853,3.024c2.229,1.265,4.209,2.667,5.858,4.235v0.796H102.898z"/>
		<path d="M59.912,100.604c-2.75,0.191-5.445,0.521-7.976,0.99c-1.21,0.219-2.008,1.375-1.815,2.584
			c0.192,1.072,1.127,1.844,2.2,1.844c0.137,0,0.248,0,0.385-0.027c2.393-0.413,4.923-0.743,7.536-0.936
			c1.238-0.082,2.145-1.155,2.062-2.394C62.195,101.43,61.095,100.493,59.912,100.604z"/>
		<path d="M44.044,103.491c-2.723,0.853-5.28,1.897-7.591,3.106c-1.1,0.578-1.512,1.897-0.962,2.998
			c0.385,0.771,1.183,1.211,1.98,1.211c0.33,0,0.688-0.084,1.018-0.248c2.09-1.072,4.4-2.008,6.875-2.806
			c1.183-0.356,1.815-1.623,1.458-2.806C46.491,103.766,45.226,103.105,44.044,103.491z"/>
		<path d="M91.706,103.903c-2.449-0.825-5.089-1.54-7.839-2.091c-1.21-0.248-2.364,0.551-2.612,1.761s0.551,2.364,1.761,2.612
			c2.558,0.496,5.005,1.155,7.261,1.926c0.247,0.083,0.494,0.109,0.715,0.109c0.936,0,1.787-0.578,2.117-1.513
			C93.492,105.555,92.86,104.288,91.706,103.903z"/>
		<path d="M76.084,100.107c-2.559-0.247-5.31-0.329-8.114-0.219c-1.237,0.055-2.2,1.071-2.145,2.31
			c0.055,1.237,1.073,2.2,2.31,2.146c2.613-0.082,5.143-0.027,7.508,0.221c0.248,0.026,0.495,0,0.743-0.055
			c0.906-0.222,1.621-0.964,1.705-1.953C78.202,101.318,77.321,100.219,76.084,100.107z"/>
	</g>
</g>
<g>
</g>
<g>
</g>
<g>
</g>
<g>
</g>
<g>
</g>
<g>
</g>
<g>
</g>
<g>
</g>
<g>
</g>
<g>
</g>
<g>
</g>
<g>
</g>
<g>
</g>
<g>
</g>
<g>
</g>
</svg>
