<?xml version="1.0" encoding="iso-8859-1"?>
<!-- Generator: Adobe Illustrator 16.0.0, SVG Export Plug-In . SVG Version: 6.00 Build 0)  -->
<!DOCTYPE svg PUBLIC "-//W3C//DTD SVG 1.1//EN" "http://www.w3.org/Graphics/SVG/1.1/DTD/svg11.dtd">
<svg version="1.1" id="Capa_1" xmlns="http://www.w3.org/2000/svg" xmlns:xlink="http://www.w3.org/1999/xlink" x="0px" y="0px"
	 width="143.958px" height="143.958px" viewBox="0 0 143.958 143.958" style="enable-background:new 0 0 143.958 143.958;"
	 xml:space="preserve">
<g>
	<g>
		<path d="M28.794,133.602c-1.684,3.668-0.073,8.004,3.596,9.69c0.986,0.455,2.021,0.666,3.042,0.666
			c2.771,0,5.418-1.58,6.648-4.263l7.267-15.838h72.571c4.037,0,7.309-3.271,7.309-7.309s-3.271-7.309-7.309-7.309H56.054
			L79.53,58.083h14.017c3.555,0.709,21.063,5.75,21.063,36.159c0,4.037,3.271,7.309,7.31,7.309c4.037,0,7.309-3.271,7.309-7.309
			c0-22.688-8.607-36.147-17.951-43.467c9.344-7.32,17.951-20.78,17.951-43.467c0-4.037-3.271-7.308-7.309-7.308
			c-4.039,0-7.31,3.271-7.31,7.308c0,30.561-17.688,35.499-21.043,36.159H86.24l14.309-31.174c1.683-3.669,0.071-8.005-3.597-9.691
			c-3.672-1.688-8.008-0.076-9.69,3.596l-17.103,37.27h-48.12c-4.036,0-7.308,3.272-7.308,7.309s3.271,7.308,7.308,7.308H63.45
			l-23.477,51.157H22.038c-4.036,0-7.308,3.271-7.308,7.309c0,4.038,3.271,7.309,7.308,7.309h11.229L28.794,133.602z"/>
	</g>
</g>
<g>
</g>
<g>
</g>
<g>
</g>
<g>
</g>
<g>
</g>
<g>
</g>
<g>
</g>
<g>
</g>
<g>
</g>
<g>
</g>
<g>
</g>
<g>
</g>
<g>
</g>
<g>
</g>
<g>
</g>
</svg>
