<?xml version="1.0" encoding="iso-8859-1"?>
<!-- Generator: Adobe Illustrator 16.0.0, SVG Export Plug-In . SVG Version: 6.00 Build 0)  -->
<!DOCTYPE svg PUBLIC "-//W3C//DTD SVG 1.1//EN" "http://www.w3.org/Graphics/SVG/1.1/DTD/svg11.dtd">
<svg version="1.1" id="Capa_1" xmlns="http://www.w3.org/2000/svg" xmlns:xlink="http://www.w3.org/1999/xlink" x="0px" y="0px"
	 width="114.498px" height="114.499px" viewBox="0 0 114.498 114.499" style="enable-background:new 0 0 114.498 114.499;"
	 xml:space="preserve">
<g>
	<g>
		<path d="M43.439,67.794l-15.913,32.98c-1.754,3.636-0.229,8.005,3.405,9.76c1.023,0.491,2.105,0.729,3.172,0.729
			c2.716,0,5.328-1.521,6.587-4.134L59.67,67.794h19.15c3.551,0.709,21.062,5.748,21.062,36.158c0,4.036,3.271,7.309,7.308,7.309
			c4.036,0,7.308-3.271,7.308-7.309c0-22.688-8.605-36.146-17.951-43.468c9.346-7.32,17.951-20.779,17.951-43.468
			c0-4.037-3.271-7.308-7.308-7.308c-4.037,0-7.308,3.271-7.308,7.308c0,30.562-17.689,35.499-21.043,36.159H66.719l19.039-39.455
			c1.754-3.635,0.229-8.005-3.406-9.759c-3.633-1.752-8.004-0.231-9.76,3.405L50.489,53.176H7.309C3.272,53.176,0,56.447,0,60.485
			c0,4.036,3.272,7.31,7.309,7.31H43.439z"/>
	</g>
</g>
<g>
</g>
<g>
</g>
<g>
</g>
<g>
</g>
<g>
</g>
<g>
</g>
<g>
</g>
<g>
</g>
<g>
</g>
<g>
</g>
<g>
</g>
<g>
</g>
<g>
</g>
<g>
</g>
<g>
</g>
</svg>
