<?xml version="1.0" encoding="iso-8859-1"?>
<!-- Generator: Adobe Illustrator 16.0.0, SVG Export Plug-In . SVG Version: 6.00 Build 0)  -->
<!DOCTYPE svg PUBLIC "-//W3C//DTD SVG 1.1//EN" "http://www.w3.org/Graphics/SVG/1.1/DTD/svg11.dtd">
<svg version="1.1" id="Capa_1" xmlns="http://www.w3.org/2000/svg" xmlns:xlink="http://www.w3.org/1999/xlink" x="0px" y="0px"
	 width="93.547px" height="93.547px" viewBox="0 0 93.547 93.547" style="enable-background:new 0 0 93.547 93.547;"
	 xml:space="preserve">
<g>
	<path d="M87.543,41.645H59.454l14.144-29.314c1.359-2.821,0.179-6.211-2.645-7.572c-2.816-1.363-6.213-0.178-7.572,2.643
		L46.86,41.645H29.785c-2.301-0.46-17.779-4.504-17.779-29.701c0-3.315-2.688-6.003-6.003-6.003C2.688,5.941,0,8.629,0,11.944
		c0,18.635,7.196,29.69,15.01,35.704C7.194,53.66,0,64.715,0,83.351c0,3.315,2.688,6.003,6.003,6.003
		c3.315,0,6.003-2.688,6.003-6.003c0-25.141,14.965-29.168,17.771-29.7h11.29L28.409,79.885c-1.361,2.819-0.178,6.211,2.643,7.571
		c0.794,0.383,1.633,0.564,2.459,0.564c2.109,0,4.134-1.184,5.112-3.21L53.66,53.649h33.883c3.316,0,6.004-2.688,6.004-6.003
		S90.86,41.645,87.543,41.645z"/>
</g>
<g>
</g>
<g>
</g>
<g>
</g>
<g>
</g>
<g>
</g>
<g>
</g>
<g>
</g>
<g>
</g>
<g>
</g>
<g>
</g>
<g>
</g>
<g>
</g>
<g>
</g>
<g>
</g>
<g>
</g>
</svg>
