<?xml version="1.0" encoding="iso-8859-1"?>
<!-- Generator: Adobe Illustrator 16.0.0, SVG Export Plug-In . SVG Version: 6.00 Build 0)  -->
<!DOCTYPE svg PUBLIC "-//W3C//DTD SVG 1.1//EN" "http://www.w3.org/Graphics/SVG/1.1/DTD/svg11.dtd">
<svg version="1.1" id="Capa_1" xmlns="http://www.w3.org/2000/svg" xmlns:xlink="http://www.w3.org/1999/xlink" x="0px" y="0px"
	 width="144.34px" height="144.34px" viewBox="0 0 144.34 144.34" style="enable-background:new 0 0 144.34 144.34;"
	 xml:space="preserve">
<g>
	<g>
		<path d="M106.273,102.925c4.037,0,7.309-3.272,7.309-7.31c0-4.036-3.271-7.309-7.309-7.309H79.477v-12.18
			c0-4.036-3.271-7.309-7.309-7.309c-4.036,0-7.308,3.272-7.308,7.309v12.181H38.063c-4.037,0-7.308,3.271-7.308,7.309
			c0,4.036,3.271,7.31,7.308,7.31h26.797v9.744H38.063c-4.037,0-7.308,3.271-7.308,7.308s3.271,7.31,7.308,7.31h26.797v9.743
			c0,4.036,3.271,7.31,7.308,7.31s7.309-3.272,7.309-7.31v-9.743h26.798c4.036,0,7.309-3.271,7.309-7.31
			c0-4.036-3.271-7.308-7.309-7.308H79.478v-9.744L106.273,102.925L106.273,102.925z"/>
		<path d="M32.281,66.583c1.221,2.702,3.881,4.3,6.665,4.3c1.006,0,2.029-0.209,3.006-0.65l67.333-30.439
			c2.688-1.215,4.381-3.924,4.295-6.872s-1.935-5.554-4.688-6.609L41.56,0.484c-3.761-1.44-7.996,0.438-9.44,4.207
			c-1.447,3.769,0.438,7.995,4.207,9.439l50.985,19.557L35.935,56.914C32.254,58.574,30.619,62.903,32.281,66.583z"/>
	</g>
</g>
<g>
</g>
<g>
</g>
<g>
</g>
<g>
</g>
<g>
</g>
<g>
</g>
<g>
</g>
<g>
</g>
<g>
</g>
<g>
</g>
<g>
</g>
<g>
</g>
<g>
</g>
<g>
</g>
<g>
</g>
</svg>
