<?xml version="1.0" encoding="iso-8859-1"?>
<!-- Generator: Adobe Illustrator 16.0.0, SVG Export Plug-In . SVG Version: 6.00 Build 0)  -->
<!DOCTYPE svg PUBLIC "-//W3C//DTD SVG 1.1//EN" "http://www.w3.org/Graphics/SVG/1.1/DTD/svg11.dtd">
<svg version="1.1" id="Capa_1" xmlns="http://www.w3.org/2000/svg" xmlns:xlink="http://www.w3.org/1999/xlink" x="0px" y="0px"
	 width="93.543px" height="93.544px" viewBox="0 0 93.543 93.544" style="enable-background:new 0 0 93.543 93.544;"
	 xml:space="preserve">
<g>
	<g>
		<path d="M25.034,67.149h13.754l-2.962,6.211H25.034c-2.572,0-4.658,2.085-4.658,4.657c0,2.573,2.085,4.658,4.658,4.658h6.349
			l-2.008,4.205c-1.107,2.32-0.124,5.102,2.199,6.209c0.647,0.309,1.331,0.454,2.003,0.454c1.74,0,3.409-0.979,4.208-2.651
			l3.919-8.217h26.805c2.572,0,4.657-2.085,4.657-4.658c0-2.572-2.085-4.657-4.657-4.657H46.149l2.962-6.211h19.396
			c2.573,0,4.658-2.085,4.658-4.657s-2.085-4.657-4.658-4.657H53.553l2.701-5.663c1.107-2.321,0.125-5.102-2.197-6.208
			c-2.316-1.11-5.102-0.125-6.209,2.197l-4.614,9.675h-18.2c-2.572,0-4.658,2.085-4.658,4.656
			C20.375,65.064,22.461,67.149,25.034,67.149z"/>
		<path d="M27.262,0.308c-2.396-0.916-5.096,0.279-6.017,2.681c-0.922,2.402,0.279,5.096,2.681,6.017L56.42,21.47L23.677,36.273
			c-2.344,1.06-3.385,3.819-2.326,6.164c0.778,1.722,2.473,2.741,4.248,2.741c0.641,0,1.293-0.134,1.916-0.415l42.916-19.4
			c1.713-0.774,2.791-2.501,2.736-4.38s-1.232-3.54-2.986-4.212L27.262,0.308z"/>
	</g>
</g>
<g>
</g>
<g>
</g>
<g>
</g>
<g>
</g>
<g>
</g>
<g>
</g>
<g>
</g>
<g>
</g>
<g>
</g>
<g>
</g>
<g>
</g>
<g>
</g>
<g>
</g>
<g>
</g>
<g>
</g>
</svg>
