<?xml version="1.0" encoding="iso-8859-1"?>
<!-- Generator: Adobe Illustrator 16.0.0, SVG Export Plug-In . SVG Version: 6.00 Build 0)  -->
<!DOCTYPE svg PUBLIC "-//W3C//DTD SVG 1.1//EN" "http://www.w3.org/Graphics/SVG/1.1/DTD/svg11.dtd">
<svg version="1.1" id="Capa_1" xmlns="http://www.w3.org/2000/svg" xmlns:xlink="http://www.w3.org/1999/xlink" x="0px" y="0px"
	 width="118.458px" height="118.458px" viewBox="0 0 118.458 118.458" style="enable-background:new 0 0 118.458 118.458;"
	 xml:space="preserve">
<g>
	<g>
		<path d="M18.556,101.682h22.895l-6.363,6.362c-2.383,2.381-2.383,6.245,0,8.626c1.19,1.192,2.753,1.788,4.313,1.788
			s3.124-0.596,4.313-1.788l14.99-14.988H99.9c3.37,0,6.103-2.731,6.103-6.102s-2.732-6.102-6.103-6.102H70.906l4.329-4.329
			c2.384-2.381,2.384-6.245,0-8.626c-2.383-2.384-6.245-2.384-8.626,0L53.652,89.479H18.557c-3.37,0-6.101,2.729-6.101,6.101
			C12.456,98.95,15.187,101.682,18.556,101.682z"/>
		<path d="M18.961,3.918c-1.208,3.146,0.366,6.675,3.512,7.88l60.581,23.236l-60.91,27.535c-3.071,1.389-4.434,5.001-3.046,8.071
			c1.019,2.256,3.239,3.592,5.564,3.592c0.84,0,1.694-0.176,2.509-0.546l74.227-33.554c2.243-1.013,3.657-3.276,3.585-5.737
			c-0.07-2.46-1.614-4.635-3.912-5.517L26.844,0.408C23.702-0.803,20.167,0.772,18.961,3.918z"/>
	</g>
</g>
<g>
</g>
<g>
</g>
<g>
</g>
<g>
</g>
<g>
</g>
<g>
</g>
<g>
</g>
<g>
</g>
<g>
</g>
<g>
</g>
<g>
</g>
<g>
</g>
<g>
</g>
<g>
</g>
<g>
</g>
</svg>
