<?xml version="1.0" encoding="iso-8859-1"?>
<!-- Generator: Adobe Illustrator 16.0.0, SVG Export Plug-In . SVG Version: 6.00 Build 0)  -->
<!DOCTYPE svg PUBLIC "-//W3C//DTD SVG 1.1//EN" "http://www.w3.org/Graphics/SVG/1.1/DTD/svg11.dtd">
<svg version="1.1" id="Capa_1" xmlns="http://www.w3.org/2000/svg" xmlns:xlink="http://www.w3.org/1999/xlink" x="0px" y="0px"
	 width="121.955px" height="121.954px" viewBox="0 0 121.955 121.954" style="enable-background:new 0 0 121.955 121.954;"
	 xml:space="preserve">
<g>
	<g>
		<path d="M18.407,70.603c1.019,2.254,3.238,3.59,5.559,3.59c0.839,0,1.693-0.176,2.506-0.545l74.185-33.536
			c2.244-1.012,3.657-3.274,3.586-5.734c-0.07-2.459-1.615-4.632-3.913-5.514L26.146,0.409c-3.152-1.213-6.671,0.368-7.876,3.51
			c-1.207,3.144,0.366,6.671,3.51,7.876l60.545,23.223L21.452,62.539C18.384,63.924,17.019,67.537,18.407,70.603z"/>
		<path d="M106.268,88.562c-1.533-2.996-5.231-4.242-8.234-2.705c-2.988,1.53-4.203,5.128-2.689,8.119
			c-1.481,0.333-5.339,0.644-13.955-1.416c-3.092-0.742-6.472-1.423-10.014-2.015l5.959-13.963c1.32-3.097-0.118-6.68-3.214-8.002
			c-3.092-1.323-6.679,0.113-8.002,3.213l-7.312,17.132c-17.133-1.553-34.814-0.427-41.513,6.545
			c-2.762,2.874-3.732,6.692-2.665,10.476c0.758,2.688,3.203,4.444,5.866,4.444c0.548,0,1.105-0.075,1.658-0.229
			c2.947-0.833,4.774-3.695,4.393-6.646c2.912-2.099,13.475-3.559,27.208-2.754l-5.421,12.699c-1.321,3.096,0.118,6.679,3.216,8.002
			c0.78,0.333,1.591,0.492,2.39,0.492c2.37,0,4.622-1.392,5.609-3.705l6.897-16.16c3.936,0.587,7.987,1.343,12.101,2.327
			c8.898,2.132,21.364,4.149,26.918-2.917C108.783,97.276,107.973,91.891,106.268,88.562z"/>
	</g>
</g>
<g>
</g>
<g>
</g>
<g>
</g>
<g>
</g>
<g>
</g>
<g>
</g>
<g>
</g>
<g>
</g>
<g>
</g>
<g>
</g>
<g>
</g>
<g>
</g>
<g>
</g>
<g>
</g>
<g>
</g>
</svg>
