<?xml version="1.0" encoding="iso-8859-1"?>
<!-- Generator: Adobe Illustrator 16.0.0, SVG Export Plug-In . SVG Version: 6.00 Build 0)  -->
<!DOCTYPE svg PUBLIC "-//W3C//DTD SVG 1.1//EN" "http://www.w3.org/Graphics/SVG/1.1/DTD/svg11.dtd">
<svg version="1.1" id="Capa_1" xmlns="http://www.w3.org/2000/svg" xmlns:xlink="http://www.w3.org/1999/xlink" x="0px" y="0px"
	 width="128.352px" height="128.352px" viewBox="0 0 128.352 128.352" style="enable-background:new 0 0 128.352 128.352;"
	 xml:space="preserve">
<g>
	<g>
		<path d="M110.93,24.89c0-0.44-0.055-0.907-0.192-1.32c-0.028-0.055-0.056-0.109-0.056-0.165c-0.109-0.357-0.273-0.715-0.467-1.072
			c-0.055-0.11-0.11-0.192-0.193-0.303c-0.219-0.303-0.439-0.604-0.742-0.88c-0.055-0.055-0.082-0.11-0.137-0.165
			c-0.027-0.027-0.027-0.027-0.057-0.055c-0.33-0.303-0.715-0.522-1.071-0.716c-0.028-0.027-0.056-0.055-0.083-0.055L68.355,0.578
			C67.613,0.192,66.789,0,65.936,0h-3.52c-0.825,0-1.65,0.192-2.42,0.55L20.419,20.132c-0.028,0-0.028,0.027-0.055,0.027
			c-0.357,0.192-0.688,0.385-1.018,0.66c-0.027,0.027-0.055,0.082-0.11,0.11c-0.083,0.082-0.165,0.165-0.22,0.247
			c-0.248,0.248-0.467,0.522-0.66,0.798c-0.055,0.109-0.137,0.192-0.192,0.303c-0.22,0.385-0.413,0.797-0.55,1.21c0,0,0,0,0,0.027
			c-0.11,0.439-0.165,0.88-0.193,1.32c0,0.055-0.027,0.109-0.027,0.165v80.499c0,1.266,0.44,2.502,1.265,3.492l14.494,17.408
			c1.045,1.238,2.558,1.953,4.18,1.953h52.942c0.385,0,0.77-0.055,1.127-0.109c0.083-0.027,0.166-0.055,0.248-0.083
			c0.275-0.082,0.551-0.165,0.825-0.274c0.11-0.056,0.22-0.109,0.303-0.164c0.22-0.11,0.44-0.221,0.632-0.385
			c0.11-0.084,0.221-0.166,0.33-0.275c0.166-0.139,0.33-0.303,0.496-0.469c0.027-0.055,0.082-0.082,0.137-0.109l15.236-17.408
			c0.854-0.99,1.348-2.256,1.348-3.575V25C110.957,25,110.93,24.945,110.93,24.89z M32.987,45.709v54.48l-3.355,1.211
			c-0.742,0.248-1.21,0.881-1.347,1.596V40.043L32.987,45.709z M30.375,105.637c0.248,0,0.495-0.056,0.743-0.138l1.897-0.688v4.4
			l-3.053-3.658C30.073,105.581,30.209,105.637,30.375,105.637z M43.878,100.934l5.665-2.008c1.128-0.412,1.733-1.649,1.32-2.777
			c-0.413-1.127-1.65-1.732-2.778-1.319l-4.208,1.513V47.882h18.124v1.1c0,1.21,0.963,2.173,2.173,2.173s2.173-0.963,2.173-2.173
			v-1.1h18.48V96.45l-4.564-1.622c-1.128-0.413-2.365,0.191-2.778,1.318c-0.411,1.129,0.193,2.365,1.32,2.779l6.022,2.146v16.418
			H43.852v-16.556H43.878L43.878,100.934z M95.721,104.949l1.541,0.551c0.246,0.082,0.494,0.137,0.742,0.137
			c0.082,0,0.164-0.026,0.246-0.026l-2.502,2.86v-3.521H95.721z M98.719,101.401l-2.998-1.072V44.472l4.346-4.979v63.503
			C99.929,102.282,99.461,101.676,98.719,101.401z M62.69,11.386c0.385,0.357,0.907,0.605,1.485,0.605c0.578,0,1.1-0.22,1.485-0.605
			l31.104,15.401l-8.938,10.231h-21.81c0.192-0.33,0.33-0.688,0.33-1.101v-6.518c0-1.211-0.963-2.173-2.173-2.173
			S62,28.188,62,29.399v6.518c0,0.413,0.138,0.771,0.33,1.101H39.892L31.42,26.87L62.69,11.386z"/>
		<path d="M74.131,92.629l-6.133-2.201c-1.127-0.412-2.365,0.192-2.777,1.32c-0.412,1.127,0.193,2.364,1.32,2.777l6.133,2.199
			c0.248,0.082,0.494,0.139,0.742,0.139c0.908,0,1.732-0.551,2.035-1.458C75.836,94.278,75.26,93.04,74.131,92.629z"/>
		<path d="M60.379,90.428l-6.16,2.201c-1.128,0.411-1.733,1.648-1.32,2.776c0.33,0.88,1.155,1.458,2.062,1.458
			c0.248,0,0.495-0.057,0.743-0.139l6.161-2.199c1.127-0.413,1.732-1.65,1.32-2.777C62.746,90.62,61.507,90.016,60.379,90.428z"/>
		<path d="M66.349,88.118V81.6c0-1.211-0.963-2.172-2.173-2.172c-1.21,0-2.173,0.961-2.173,2.172v6.519
			c0,1.21,0.963,2.173,2.173,2.173C65.386,90.291,66.349,89.327,66.349,88.118z"/>
		<path d="M64.175,25.028c1.21,0,2.173-0.963,2.173-2.173v-6.518c0-1.211-0.963-2.173-2.173-2.173c-1.21,0-2.173,0.962-2.173,2.173
			v6.518C62.002,24.065,62.965,25.028,64.175,25.028z"/>
		<path d="M64.175,77.254c1.21,0,2.173-0.963,2.173-2.173v-6.545c0-1.211-0.963-2.173-2.173-2.173c-1.21,0-2.173,0.962-2.173,2.173
			v6.519C62.002,76.264,62.965,77.254,64.175,77.254z"/>
		<path d="M64.175,64.191c1.21,0,2.173-0.963,2.173-2.173V55.5c0-1.211-0.963-2.173-2.173-2.173c-1.21,0-2.173,0.962-2.173,2.173
			v6.518C62.002,63.228,62.965,64.191,64.175,64.191z"/>
	</g>
</g>
<g>
</g>
<g>
</g>
<g>
</g>
<g>
</g>
<g>
</g>
<g>
</g>
<g>
</g>
<g>
</g>
<g>
</g>
<g>
</g>
<g>
</g>
<g>
</g>
<g>
</g>
<g>
</g>
<g>
</g>
</svg>
