<?xml version="1.0" encoding="iso-8859-1"?>
<!-- Generator: Adobe Illustrator 16.0.0, SVG Export Plug-In . SVG Version: 6.00 Build 0)  -->
<!DOCTYPE svg PUBLIC "-//W3C//DTD SVG 1.1//EN" "http://www.w3.org/Graphics/SVG/1.1/DTD/svg11.dtd">
<svg version="1.1" id="Capa_1" xmlns="http://www.w3.org/2000/svg" xmlns:xlink="http://www.w3.org/1999/xlink" x="0px" y="0px"
	 width="93.535px" height="93.535px" viewBox="0 0 93.535 93.535" style="enable-background:new 0 0 93.535 93.535;"
	 xml:space="preserve">
<g>
	<g>
		<path d="M49.108,20.104l-0.304,1.073c-1.568,5.198-13.476,54.508-14.439,58.497c-0.22,0.605-1.678,4.428-4.373,4.428
			c-4.456,0-6.463-6.518-6.463-6.545c-0.715-2.504-3.328-3.934-5.83-3.219c-2.503,0.715-3.933,3.328-3.218,5.831
			c1.43,4.95,6.325,13.366,15.539,13.366c7.976,0,12.211-7.068,13.421-11.248c0.028-0.083,0.055-0.166,0.055-0.221
			c4.428-18.344,13.119-54.125,14.329-58.167l0.33-1.127c0.963-3.301,3.905-13.339,7.729-13.339c3.355,0,3.934,5.748,3.934,5.886
			c0.22,2.585,2.446,4.51,5.061,4.317c2.585-0.192,4.538-2.475,4.346-5.06C78.839,9.543,75.539,0,65.886,0
			C54.993,0,51.032,13.585,49.108,20.104z"/>
	</g>
</g>
<g>
</g>
<g>
</g>
<g>
</g>
<g>
</g>
<g>
</g>
<g>
</g>
<g>
</g>
<g>
</g>
<g>
</g>
<g>
</g>
<g>
</g>
<g>
</g>
<g>
</g>
<g>
</g>
<g>
</g>
</svg>
