<?xml version="1.0" encoding="iso-8859-1"?>
<!-- Generator: Adobe Illustrator 16.0.0, SVG Export Plug-In . SVG Version: 6.00 Build 0)  -->
<!DOCTYPE svg PUBLIC "-//W3C//DTD SVG 1.1//EN" "http://www.w3.org/Graphics/SVG/1.1/DTD/svg11.dtd">
<svg version="1.1" id="Capa_1" xmlns="http://www.w3.org/2000/svg" xmlns:xlink="http://www.w3.org/1999/xlink" x="0px" y="0px"
	 width="132.16px" height="132.16px" viewBox="0 0 132.16 132.16" style="enable-background:new 0 0 132.16 132.16;"
	 xml:space="preserve">
<g>
	<g>
		<path d="M127.881,27.403c0.952-1.659,1.49-3.462,1.49-5.439C129.371,4.626,89.588,0,66.082,0C42.575,0,2.789,4.626,2.789,21.966
			c0,2.414,0.797,4.575,2.188,6.52l54.75,100.939c1.058,1.953,3.092,2.735,5.312,2.735c0.015,0,0.031,0,0.046,0
			c2.202,0,4.233-0.735,5.313-2.657l57.436-101.99C127.854,27.479,127.861,27.44,127.881,27.403z M66.082,12.183
			c30.921,0,47.771,6.515,50.82,9.783c-3.051,3.27-19.902,9.781-50.82,9.781c-30.92,0-47.771-6.512-50.822-9.781
			C18.306,18.697,35.157,12.183,66.082,12.183z M65.179,114.335L24.495,39.141c13.079,3.555,29.483,4.787,41.587,4.787
			c11.982,0,28.188-1.208,41.203-4.683L65.179,114.335z"/>
	</g>
</g>
<g>
</g>
<g>
</g>
<g>
</g>
<g>
</g>
<g>
</g>
<g>
</g>
<g>
</g>
<g>
</g>
<g>
</g>
<g>
</g>
<g>
</g>
<g>
</g>
<g>
</g>
<g>
</g>
<g>
</g>
</svg>
