<?xml version="1.0" encoding="iso-8859-1"?>
<!-- Generator: Adobe Illustrator 16.0.0, SVG Export Plug-In . SVG Version: 6.00 Build 0)  -->
<!DOCTYPE svg PUBLIC "-//W3C//DTD SVG 1.1//EN" "http://www.w3.org/Graphics/SVG/1.1/DTD/svg11.dtd">
<svg version="1.1" id="Capa_1" xmlns="http://www.w3.org/2000/svg" xmlns:xlink="http://www.w3.org/1999/xlink" x="0px" y="0px"
	 width="99.881px" height="99.881px" viewBox="0 0 99.881 99.881" style="enable-background:new 0 0 99.881 99.881;"
	 xml:space="preserve">
<g>
	<g>
		<path d="M63.744,75.52H7.308C3.271,75.52,0,78.79,0,82.828c0,4.036,3.271,7.308,7.308,7.308h56.437
			c19.927,0,36.136-16.938,36.136-37.76v-7.308c0-19.808-15.873-35.323-36.136-35.323H7.308C3.271,9.745,0,13.017,0,17.053
			c0,4.037,3.271,7.308,7.308,7.308h56.437c12.269,0,21.519,8.902,21.519,20.707v7.308C85.262,64.921,75.409,75.52,63.744,75.52z"/>
	</g>
</g>
<g>
</g>
<g>
</g>
<g>
</g>
<g>
</g>
<g>
</g>
<g>
</g>
<g>
</g>
<g>
</g>
<g>
</g>
<g>
</g>
<g>
</g>
<g>
</g>
<g>
</g>
<g>
</g>
<g>
</g>
</svg>
