<?xml version="1.0" encoding="iso-8859-1"?>
<!-- Generator: Adobe Illustrator 16.0.0, SVG Export Plug-In . SVG Version: 6.00 Build 0)  -->
<!DOCTYPE svg PUBLIC "-//W3C//DTD SVG 1.1//EN" "http://www.w3.org/Graphics/SVG/1.1/DTD/svg11.dtd">
<svg version="1.1" id="Capa_1" xmlns="http://www.w3.org/2000/svg" xmlns:xlink="http://www.w3.org/1999/xlink" x="0px" y="0px"
	 width="142.179px" height="142.179px" viewBox="0 0 142.179 142.179" style="enable-background:new 0 0 142.179 142.179;"
	 xml:space="preserve">
<g>
	<g>
		<path d="M43.01,51.082c42.168-10.104,80.758-5.973,84.531-0.026c-0.007,0.002-0.015,0.014-0.021,0.039
			c-1.097,3.886,1.164,7.922,5.048,9.019c0.662,0.188,1.332,0.278,1.987,0.278c3.19,0,6.122-2.105,7.029-5.325
			c1.473-5.221,0.185-10.28-3.632-14.254c-14.654-15.252-67.35-11.369-98.35-3.944c-20.683,4.958-24.882,1.522-24.948,1.52l0,0
			c-0.122-0.404,0.117-1.615,0.47-2.37c1.776-3.576,0.351-7.927-3.215-9.754c-3.593-1.839-7.996-0.417-9.837,3.174
			c-0.526,1.025-4.962,10.251,1.028,17.869C9.124,54.964,21.804,56.164,43.01,51.082z"/>
		<path d="M141.842,109.41c0-4.035-3.271-7.308-7.31-7.308H7.856c-4.037,0-7.309,3.271-7.309,7.308c0,4.037,3.272,7.309,7.309,7.309
			h126.676C138.569,116.719,141.842,113.446,141.842,109.41z"/>
		<path d="M134.532,72.868H7.856c-4.037,0-7.309,3.272-7.309,7.31s3.272,7.309,7.309,7.309h126.676c4.037,0,7.31-3.271,7.31-7.309
			C141.842,76.142,138.569,72.868,134.532,72.868z"/>
	</g>
</g>
<g>
</g>
<g>
</g>
<g>
</g>
<g>
</g>
<g>
</g>
<g>
</g>
<g>
</g>
<g>
</g>
<g>
</g>
<g>
</g>
<g>
</g>
<g>
</g>
<g>
</g>
<g>
</g>
<g>
</g>
</svg>
