<?xml version="1.0" encoding="iso-8859-1"?>
<!-- Generator: Adobe Illustrator 16.0.0, SVG Export Plug-In . SVG Version: 6.00 Build 0)  -->
<!DOCTYPE svg PUBLIC "-//W3C//DTD SVG 1.1//EN" "http://www.w3.org/Graphics/SVG/1.1/DTD/svg11.dtd">
<svg version="1.1" id="Capa_1" xmlns="http://www.w3.org/2000/svg" xmlns:xlink="http://www.w3.org/1999/xlink" x="0px" y="0px"
	 width="148.607px" height="148.607px" viewBox="0 0 148.607 148.607" style="enable-background:new 0 0 148.607 148.607;"
	 xml:space="preserve">
<g>
	<g>
		<path d="M26.723,48.078l88.917,40.195c0.975,0.44,1.998,0.65,3.004,0.65c2.785,0,5.442-1.599,6.662-4.3
			c1.664-3.678,0.029-8.008-3.647-9.672L48.696,41.97l72.569-27.835c3.77-1.444,5.652-5.671,4.207-9.44
			c-1.444-3.766-5.658-5.656-9.438-4.207L27.115,34.594c-2.753,1.055-4.604,3.662-4.689,6.609
			C22.34,44.149,24.033,46.862,26.723,48.078z"/>
		<path d="M25.778,134.748c0.66,0,1.328-0.09,1.99-0.277c3.532-0.999,5.722-4.426,5.262-7.963
			c3.179-2.285,13.939-3.938,28.229-3.496l-6.58,15.415c-1.583,3.713,0.141,8.008,3.851,9.591c0.936,0.4,1.908,0.59,2.868,0.59
			c2.838,0,5.537-1.666,6.724-4.441l8.515-19.942c6.01,0.744,12.307,1.829,18.724,3.366c10.665,2.553,25.606,4.975,32.265-3.496
			c3.979-5.062,3.007-11.518,0.965-15.508c-1.837-3.592-6.271-5.082-9.868-3.243c-3.582,1.835-5.039,6.146-3.227,9.731
			c-1.775,0.4-6.401,0.772-16.727-1.699c-4.906-1.176-10.419-2.225-16.191-3.064l6.863-16.083c1.583-3.713-0.142-8.008-3.851-9.592
			c-3.706-1.583-8.006,0.14-9.592,3.854l-8.619,20.194c-19.121-1.294-37.972,0.417-45.436,8.187
			c-3.309,3.443-4.473,8.02-3.191,12.556C19.658,132.644,22.589,134.748,25.778,134.748z"/>
	</g>
</g>
<g>
</g>
<g>
</g>
<g>
</g>
<g>
</g>
<g>
</g>
<g>
</g>
<g>
</g>
<g>
</g>
<g>
</g>
<g>
</g>
<g>
</g>
<g>
</g>
<g>
</g>
<g>
</g>
<g>
</g>
</svg>
