<?xml version="1.0" encoding="iso-8859-1"?>
<!-- Generator: Adobe Illustrator 16.0.0, SVG Export Plug-In . SVG Version: 6.00 Build 0)  -->
<!DOCTYPE svg PUBLIC "-//W3C//DTD SVG 1.1//EN" "http://www.w3.org/Graphics/SVG/1.1/DTD/svg11.dtd">
<svg version="1.1" id="Capa_1" xmlns="http://www.w3.org/2000/svg" xmlns:xlink="http://www.w3.org/1999/xlink" x="0px" y="0px"
	 width="144.344px" height="144.344px" viewBox="0 0 144.344 144.344" style="enable-background:new 0 0 144.344 144.344;"
	 xml:space="preserve">
<g>
	<g>
		<path d="M106.598,102.928c4.036,0,7.309-3.271,7.309-7.309s-3.271-7.309-7.309-7.309H79.8v-12.18c0-4.037-3.271-7.309-7.308-7.309
			s-7.308,3.271-7.308,7.309v12.181H38.387c-4.037,0-7.308,3.271-7.308,7.31c0,4.035,3.271,7.309,7.308,7.309h26.797v9.744H38.387
			c-4.037,0-7.308,3.271-7.308,7.308c0,4.036,3.271,7.31,7.308,7.31h26.797v9.743c0,4.036,3.271,7.31,7.308,7.31
			s7.308-3.272,7.308-7.31v-9.743h26.798c4.036,0,7.309-3.271,7.309-7.31c0-4.036-3.271-7.308-7.309-7.308H79.799v-9.744h26.799
			V102.928z"/>
		<path d="M102.458,0.487L35.127,26.315c-2.753,1.055-4.602,3.661-4.687,6.609c-0.088,2.948,1.607,5.657,4.294,6.872l67.328,30.439
			c0.978,0.441,2,0.65,3.007,0.65c2.783,0,5.441-1.598,6.665-4.3c1.661-3.679,0.028-8.007-3.648-9.671L56.708,33.689l50.982-19.557
			c3.769-1.445,5.651-5.671,4.207-9.44S106.219-0.959,102.458,0.487z"/>
	</g>
</g>
<g>
</g>
<g>
</g>
<g>
</g>
<g>
</g>
<g>
</g>
<g>
</g>
<g>
</g>
<g>
</g>
<g>
</g>
<g>
</g>
<g>
</g>
<g>
</g>
<g>
</g>
<g>
</g>
<g>
</g>
</svg>
