<?xml version="1.0" encoding="iso-8859-1"?>
<!-- Generator: Adobe Illustrator 16.0.0, SVG Export Plug-In . SVG Version: 6.00 Build 0)  -->
<!DOCTYPE svg PUBLIC "-//W3C//DTD SVG 1.1//EN" "http://www.w3.org/Graphics/SVG/1.1/DTD/svg11.dtd">
<svg version="1.1" id="Capa_1" xmlns="http://www.w3.org/2000/svg" xmlns:xlink="http://www.w3.org/1999/xlink" x="0px" y="0px"
	 width="109.12px" height="109.12px" viewBox="0 0 109.12 109.12" style="enable-background:new 0 0 109.12 109.12;"
	 xml:space="preserve">
<g>
	<g>
		<path d="M90.438,3.403c-1.045-2.723-4.098-4.098-6.848-3.053L21.599,24.14c-1.98,0.77-3.328,2.667-3.383,4.785
			c-0.055,2.146,1.155,4.098,3.108,4.978l61.99,28.025c0.715,0.33,1.458,0.467,2.173,0.467c2.008,0,3.934-1.154,4.812-3.106
			c1.21-2.668,0.026-5.803-2.641-7.013l-50.411-22.8l50.137-19.224C90.108,9.206,91.483,6.153,90.438,3.403z"/>
		<path d="M69.207,80.794c7.479,1.787,17.985,3.493,22.688-2.503c2.832-3.604,2.146-8.195,0.688-11.028
			c-1.32-2.612-4.512-3.63-7.123-2.311c-2.477,1.266-3.549,4.234-2.477,6.766c-1.348,0.248-4.564,0.386-11.331-1.237
			c-2.42-0.577-5.061-1.128-7.811-1.595l1.348-2.751c1.293-2.64,0.192-5.803-2.447-7.067c-2.641-1.293-5.804-0.191-7.067,2.447
			l-2.889,5.94c-14.384-1.292-29.207-0.357-34.845,5.527c-2.365,2.447-3.19,5.722-2.283,8.938c0.66,2.337,2.778,3.85,5.088,3.85
			c0.468,0,0.963-0.055,1.43-0.191c2.53-0.716,4.098-3.136,3.823-5.639c2.475-1.649,10.891-2.806,21.782-2.255l-4.675,9.625
			c-10.918-0.108-20.819,1.485-25.192,6.023c-2.365,2.446-3.19,5.721-2.283,8.938c0.66,2.337,2.778,3.851,5.088,3.851
			c0.467,0,0.962-0.056,1.43-0.192c2.53-0.715,4.098-3.135,3.823-5.638c1.65-1.101,5.968-1.98,11.881-2.282l-1.705,3.492
			c-1.292,2.641-0.192,5.803,2.448,7.067c0.743,0.357,1.54,0.551,2.31,0.551c1.953,0,3.851-1.101,4.758-2.971l3.878-7.977
			c6.023,0.413,12.734,1.32,19.609,2.971c7.481,1.788,17.987,3.493,22.689-2.503c2.833-3.603,2.146-8.195,0.688-11.028
			c-1.318-2.611-4.537-3.686-7.149-2.364c-2.53,1.293-3.575,4.263-2.447,6.819c-1.348,0.248-4.593,0.387-11.331-1.236
			c-5.033-1.21-11.001-2.229-17.107-2.86l4.456-9.186C62.33,79.336,65.74,79.969,69.207,80.794z"/>
	</g>
</g>
<g>
</g>
<g>
</g>
<g>
</g>
<g>
</g>
<g>
</g>
<g>
</g>
<g>
</g>
<g>
</g>
<g>
</g>
<g>
</g>
<g>
</g>
<g>
</g>
<g>
</g>
<g>
</g>
<g>
</g>
</svg>
