<?xml version="1.0" encoding="iso-8859-1"?>
<!-- Generator: Adobe Illustrator 16.0.0, SVG Export Plug-In . SVG Version: 6.00 Build 0)  -->
<!DOCTYPE svg PUBLIC "-//W3C//DTD SVG 1.1//EN" "http://www.w3.org/Graphics/SVG/1.1/DTD/svg11.dtd">
<svg version="1.1" id="Capa_1" xmlns="http://www.w3.org/2000/svg" xmlns:xlink="http://www.w3.org/1999/xlink" x="0px" y="0px"
	 width="146.781px" height="146.781px" viewBox="0 0 146.781 146.781" style="enable-background:new 0 0 146.781 146.781;"
	 xml:space="preserve">
<g>
	<g>
		<path d="M107.816,105.367c4.036,0,7.309-3.272,7.309-7.31s-3.271-7.309-7.309-7.309H83.712l4.238-8.882
			c1.736-3.646,0.194-8.006-3.448-9.745c-3.639-1.739-8.006-0.192-9.743,3.45l-7.242,15.177h-27.91
			c-4.037,0-7.308,3.271-7.308,7.309c0,4.036,3.271,7.31,7.308,7.31h20.938l-4.648,9.743h-16.29c-4.037,0-7.308,3.271-7.308,7.309
			s3.271,7.309,7.308,7.309h9.315l-3.147,6.598c-1.737,3.645-0.195,8.006,3.45,9.743c1.016,0.485,2.088,0.713,3.143,0.713
			c2.729,0,5.347-1.534,6.6-4.161l6.151-12.893h42.7c4.036,0,7.309-3.271,7.309-7.309c0-4.036-3.271-7.309-7.309-7.309H72.091
			l4.647-9.743H107.816z"/>
		<path d="M35.951,39.798l67.331,30.439c0.978,0.441,2,0.651,3.007,0.651c2.784,0,5.442-1.598,6.666-4.3
			c1.66-3.679,0.028-8.008-3.649-9.671L57.927,33.691l50.982-19.557c3.77-1.445,5.651-5.671,4.207-9.44
			c-1.443-3.771-5.679-5.652-9.439-4.207l-67.331,25.83c-2.753,1.055-4.602,3.662-4.688,6.609
			C31.571,35.874,33.264,38.583,35.951,39.798z"/>
	</g>
</g>
<g>
</g>
<g>
</g>
<g>
</g>
<g>
</g>
<g>
</g>
<g>
</g>
<g>
</g>
<g>
</g>
<g>
</g>
<g>
</g>
<g>
</g>
<g>
</g>
<g>
</g>
<g>
</g>
<g>
</g>
</svg>
