<?xml version="1.0" encoding="iso-8859-1"?>
<!-- Generator: Adobe Illustrator 16.0.0, SVG Export Plug-In . SVG Version: 6.00 Build 0)  -->
<!DOCTYPE svg PUBLIC "-//W3C//DTD SVG 1.1//EN" "http://www.w3.org/Graphics/SVG/1.1/DTD/svg11.dtd">
<svg version="1.1" id="Capa_1" xmlns="http://www.w3.org/2000/svg" xmlns:xlink="http://www.w3.org/1999/xlink" x="0px" y="0px"
	 width="141.908px" height="141.907px" viewBox="0 0 141.908 141.907" style="enable-background:new 0 0 141.908 141.907;"
	 xml:space="preserve">
<g>
	<g>
		<path d="M119.674,107.19H84.941l5.188-5.187c2.854-2.854,2.854-7.481,0-10.334c-2.855-2.854-7.479-2.854-10.334,0L64.273,107.19
			H22.231c-4.037,0-7.308,3.271-7.308,7.31c0,4.036,3.271,7.308,7.308,7.308h27.426l-7.623,7.622c-2.855,2.854-2.855,7.482,0,10.334
			c1.427,1.428,3.298,2.144,5.167,2.144c1.868,0,3.739-0.716,5.167-2.144l17.957-17.956h49.35c4.037,0,7.309-3.271,7.309-7.308
			S123.712,107.19,119.674,107.19z"/>
		<path d="M119.191,4.695c-1.445-3.766-5.662-5.656-9.439-4.207L20.833,34.592c-2.753,1.057-4.604,3.662-4.69,6.609
			c-0.085,2.948,1.608,5.659,4.297,6.873l88.918,40.195c0.975,0.443,1.996,0.653,3.004,0.653c2.783,0,5.44-1.599,6.662-4.302
			c1.664-3.68,0.028-8.006-3.649-9.669L42.415,41.966l72.569-27.833C118.751,12.689,120.637,8.463,119.191,4.695z"/>
	</g>
</g>
<g>
</g>
<g>
</g>
<g>
</g>
<g>
</g>
<g>
</g>
<g>
</g>
<g>
</g>
<g>
</g>
<g>
</g>
<g>
</g>
<g>
</g>
<g>
</g>
<g>
</g>
<g>
</g>
<g>
</g>
</svg>
