<?xml version="1.0" encoding="iso-8859-1"?>
<!-- Generator: Adobe Illustrator 16.0.0, SVG Export Plug-In . SVG Version: 6.00 Build 0)  -->
<!DOCTYPE svg PUBLIC "-//W3C//DTD SVG 1.1//EN" "http://www.w3.org/Graphics/SVG/1.1/DTD/svg11.dtd">
<svg version="1.1" id="Capa_1" xmlns="http://www.w3.org/2000/svg" xmlns:xlink="http://www.w3.org/1999/xlink" x="0px" y="0px"
	 width="141.293px" height="141.293px" viewBox="0 0 141.293 141.293" style="enable-background:new 0 0 141.293 141.293;"
	 xml:space="preserve">
<g>
	<g>
		<path d="M77.955,109.975c-4.037,0-7.309,3.271-7.309,7.308c0,4.037,3.272,7.31,7.309,7.31h56.029c4.037,0,7.309-3.271,7.309-7.31
			c0-4.036-3.271-7.308-7.309-7.308H77.955z"/>
		<path d="M0,44.2c0,4.037,3.272,7.308,7.309,7.308h19.489v19.49c0,4.036,3.271,7.309,7.308,7.309c4.037,0,7.309-3.271,7.309-7.309
			v-19.49H63.34c4.037,0,7.308-3.271,7.308-7.308c0-4.037-3.271-7.309-7.308-7.309H41.414V12.53c0-4.037-3.272-7.308-7.309-7.308
			c-4.037,0-7.308,3.271-7.308,7.308v24.361H7.308C3.272,36.892,0,40.164,0,44.2z"/>
		<path d="M131.428,17.261c-2.854-2.855-7.481-2.855-10.336,0L14.763,123.594c-2.853,2.854-2.853,7.481,0,10.334
			c1.425,1.429,3.298,2.143,5.167,2.143c1.868,0,3.742-0.714,5.169-2.143L131.428,27.599
			C134.283,24.746,134.283,20.114,131.428,17.261z"/>
	</g>
</g>
<g>
</g>
<g>
</g>
<g>
</g>
<g>
</g>
<g>
</g>
<g>
</g>
<g>
</g>
<g>
</g>
<g>
</g>
<g>
</g>
<g>
</g>
<g>
</g>
<g>
</g>
<g>
</g>
<g>
</g>
</svg>
