<?xml version="1.0" encoding="iso-8859-1"?>
<!-- Generator: Adobe Illustrator 16.0.0, SVG Export Plug-In . SVG Version: 6.00 Build 0)  -->
<!DOCTYPE svg PUBLIC "-//W3C//DTD SVG 1.1//EN" "http://www.w3.org/Graphics/SVG/1.1/DTD/svg11.dtd">
<svg version="1.1" id="Capa_1" xmlns="http://www.w3.org/2000/svg" xmlns:xlink="http://www.w3.org/1999/xlink" x="0px" y="0px"
	 width="116.623px" height="116.623px" viewBox="0 0 116.623 116.623" style="enable-background:new 0 0 116.623 116.623;"
	 xml:space="preserve">
<g>
	<path d="M99.114,89.251H57.783l19.181-41.797h22.149c3.298,0,5.972-2.673,5.972-5.971s-2.674-5.971-5.972-5.971H82.444
		L94.591,9.049c1.375-2.998,0.06-6.542-2.938-7.917c-3-1.375-6.543-0.062-7.918,2.936L69.304,35.513H41.662
		c-2.289-0.458-17.685-4.48-17.685-29.542C23.977,2.673,21.304,0,18.006,0c-3.298,0-5.971,2.673-5.971,5.971
		c0,18.536,7.157,29.533,14.93,35.514c-7.774,5.981-14.93,16.978-14.93,35.514c0,3.298,2.673,5.972,5.971,5.972
		c3.298,0,5.971-2.674,5.971-5.972c0-25.007,14.886-29.013,17.677-29.542h22.17L44.643,89.253H17.509
		c-3.298,0-5.971,2.675-5.971,5.972c0,3.299,2.673,5.971,5.971,5.971h21.653l-3.196,6.965c-1.375,2.998-0.062,6.541,2.936,7.918
		c0.809,0.372,1.654,0.545,2.488,0.545c2.261,0,4.427-1.291,5.432-3.482l5.479-11.943h46.812c3.298,0,5.972-2.674,5.972-5.971
		C105.085,91.928,102.411,89.251,99.114,89.251z"/>
</g>
<g>
</g>
<g>
</g>
<g>
</g>
<g>
</g>
<g>
</g>
<g>
</g>
<g>
</g>
<g>
</g>
<g>
</g>
<g>
</g>
<g>
</g>
<g>
</g>
<g>
</g>
<g>
</g>
<g>
</g>
</svg>
