<?xml version="1.0" encoding="iso-8859-1"?>
<!-- Generator: Adobe Illustrator 16.0.0, SVG Export Plug-In . SVG Version: 6.00 Build 0)  -->
<!DOCTYPE svg PUBLIC "-//W3C//DTD SVG 1.1//EN" "http://www.w3.org/Graphics/SVG/1.1/DTD/svg11.dtd">
<svg version="1.1" id="Capa_1" xmlns="http://www.w3.org/2000/svg" xmlns:xlink="http://www.w3.org/1999/xlink" x="0px" y="0px"
	 width="93.543px" height="93.543px" viewBox="0 0 93.543 93.543" style="enable-background:new 0 0 93.543 93.543;"
	 xml:space="preserve">
<g>
	<path d="M68.131,66.371c2.572,0,4.657-2.085,4.657-4.658c0-2.571-2.085-4.656-4.657-4.656H38.925l3.785-12.777L70.824,31.57
		c1.713-0.775,2.792-2.501,2.737-4.38c-0.055-1.878-1.233-3.54-2.987-4.212l-19.352-7.422l2.837-9.575
		c0.73-2.467-0.677-5.058-3.144-5.789c-2.463-0.729-5.058,0.677-5.79,3.142l-2.63,8.876L27.66,6.519
		c-2.395-0.919-5.096,0.278-6.017,2.68c-0.922,2.402,0.28,5.096,2.682,6.016l15.518,5.953L34.99,37.546L24.076,42.48
		c-2.344,1.06-3.384,3.818-2.326,6.164c0.778,1.722,2.473,2.74,4.248,2.74c0.641,0,1.293-0.135,1.916-0.414l3.579-1.618
		l-2.283,7.704h-4.55c-2.573,0-4.658,2.085-4.658,4.656c0,2.573,2.085,4.658,4.658,4.658h1.79l-1.841,6.215
		c-2.548,0.028-4.607,2.099-4.607,4.653c0,1.619,0.828,3.042,2.079,3.877l-1.909,6.444c-0.731,2.468,0.677,5.059,3.142,5.79
		c0.443,0.132,0.887,0.192,1.326,0.192c2.009,0,3.863-1.312,4.463-3.334l2.462-8.312h36.566c2.572,0,4.657-2.085,4.657-4.658
		c0-2.571-2.085-4.657-4.657-4.657H34.325l1.839-6.211H68.131L68.131,66.371z M48.568,24.514l8.252,3.166l-10.61,4.796
		L48.568,24.514z"/>
</g>
<g>
</g>
<g>
</g>
<g>
</g>
<g>
</g>
<g>
</g>
<g>
</g>
<g>
</g>
<g>
</g>
<g>
</g>
<g>
</g>
<g>
</g>
<g>
</g>
<g>
</g>
<g>
</g>
<g>
</g>
</svg>
