<?xml version="1.0" encoding="iso-8859-1"?>
<!-- Generator: Adobe Illustrator 16.0.0, SVG Export Plug-In . SVG Version: 6.00 Build 0)  -->
<!DOCTYPE svg PUBLIC "-//W3C//DTD SVG 1.1//EN" "http://www.w3.org/Graphics/SVG/1.1/DTD/svg11.dtd">
<svg version="1.1" id="Capa_1" xmlns="http://www.w3.org/2000/svg" xmlns:xlink="http://www.w3.org/1999/xlink" x="0px" y="0px"
	 width="146.783px" height="146.783px" viewBox="0 0 146.783 146.783" style="enable-background:new 0 0 146.783 146.783;"
	 xml:space="preserve">
<g>
	<g>
		<path d="M35.953,51.978l30.48,13.777L59.03,90.748H39.607c-4.037,0-7.308,3.271-7.308,7.31c0,4.036,3.271,7.309,7.308,7.309
			h15.092l-2.887,9.744H39.607c-4.037,0-7.308,3.271-7.308,7.308s3.271,7.31,7.308,7.31h7.871l-2.273,7.667
			c-1.147,3.87,1.062,7.936,4.928,9.084c0.694,0.204,1.391,0.305,2.081,0.305c3.155,0,6.063-2.059,7.004-5.232l3.505-11.822h45.094
			c4.037,0,7.31-3.271,7.31-7.31c0-4.035-3.271-7.308-7.31-7.308H67.054l2.887-9.744h37.876c4.037,0,7.31-3.271,7.31-7.309
			s-3.271-7.31-7.31-7.31H74.272l5.605-18.915l23.407,10.583c0.976,0.441,1.998,0.65,3.005,0.65c2.783,0,5.44-1.598,6.661-4.299
			c1.664-3.68,0.029-8.008-3.647-9.672l-25.235-11.41l7.305-24.646l17.542-6.729c3.77-1.445,5.651-5.671,4.207-9.44
			c-1.446-3.766-5.658-5.651-9.439-4.208l-7.074,2.714l1.775-5.992c1.147-3.871-1.062-7.938-4.928-9.084
			c-3.887-1.141-7.939,1.063-9.084,4.931l-4.964,16.743l-43.06,16.517c-2.753,1.055-4.604,3.662-4.689,6.609
			C31.573,48.051,33.264,50.762,35.953,51.978z M74.173,39.641l-3.547,11.971l-12.697-5.74L74.173,39.641z"/>
	</g>
</g>
<g>
</g>
<g>
</g>
<g>
</g>
<g>
</g>
<g>
</g>
<g>
</g>
<g>
</g>
<g>
</g>
<g>
</g>
<g>
</g>
<g>
</g>
<g>
</g>
<g>
</g>
<g>
</g>
<g>
</g>
</svg>
