<?xml version="1.0" encoding="iso-8859-1"?>
<!-- Generator: Adobe Illustrator 16.0.0, SVG Export Plug-In . SVG Version: 6.00 Build 0)  -->
<!DOCTYPE svg PUBLIC "-//W3C//DTD SVG 1.1//EN" "http://www.w3.org/Graphics/SVG/1.1/DTD/svg11.dtd">
<svg version="1.1" id="Capa_1" xmlns="http://www.w3.org/2000/svg" xmlns:xlink="http://www.w3.org/1999/xlink" x="0px" y="0px"
	 width="141.294px" height="141.294px" viewBox="0 0 141.294 141.294" style="enable-background:new 0 0 141.294 141.294;"
	 xml:space="preserve">
<g>
	<g>
		<path d="M45.075,72.678c1.457,0,2.928-0.436,4.21-1.34l12.835-9.066v71.712c0,4.037,3.272,7.31,7.309,7.31s7.308-3.271,7.308-7.31
			v-82.04l23.703-16.743c3.299-2.328,4.084-6.889,1.755-10.185c-2.327-3.294-6.89-4.086-10.186-1.752L76.737,34.052V7.309
			C76.737,3.272,73.467,0,69.43,0s-7.309,3.271-7.309,7.309v37.067L40.854,59.4c-3.298,2.329-4.083,6.889-1.754,10.186
			C40.522,71.602,42.784,72.678,45.075,72.678z"/>
	</g>
</g>
<g>
</g>
<g>
</g>
<g>
</g>
<g>
</g>
<g>
</g>
<g>
</g>
<g>
</g>
<g>
</g>
<g>
</g>
<g>
</g>
<g>
</g>
<g>
</g>
<g>
</g>
<g>
</g>
<g>
</g>
</svg>
