<?xml version="1.0" encoding="iso-8859-1"?>
<!-- Generator: Adobe Illustrator 16.0.0, SVG Export Plug-In . SVG Version: 6.00 Build 0)  -->
<!DOCTYPE svg PUBLIC "-//W3C//DTD SVG 1.1//EN" "http://www.w3.org/Graphics/SVG/1.1/DTD/svg11.dtd">
<svg version="1.1" id="Capa_1" xmlns="http://www.w3.org/2000/svg" xmlns:xlink="http://www.w3.org/1999/xlink" x="0px" y="0px"
	 width="141.294px" height="141.294px" viewBox="0 0 141.294 141.294" style="enable-background:new 0 0 141.294 141.294;"
	 xml:space="preserve">
<g>
	<g>
		<path d="M87.7,141.294c4.036,0,7.31-3.271,7.31-7.31V7.309C95.009,3.272,91.737,0,87.7,0s-7.308,3.271-7.308,7.309v16.355
			L60.903,51.279V7.309C60.903,3.272,57.631,0,53.594,0s-7.309,3.271-7.309,7.309v126.675c0,4.037,3.271,7.31,7.309,7.31
			c4.036,0,7.309-3.271,7.309-7.31V76.632l19.489-27.615v84.967C80.392,138.021,83.663,141.294,87.7,141.294z"/>
	</g>
</g>
<g>
</g>
<g>
</g>
<g>
</g>
<g>
</g>
<g>
</g>
<g>
</g>
<g>
</g>
<g>
</g>
<g>
</g>
<g>
</g>
<g>
</g>
<g>
</g>
<g>
</g>
<g>
</g>
<g>
</g>
</svg>
