<?xml version="1.0" encoding="iso-8859-1"?>
<!-- Generator: Adobe Illustrator 16.0.0, SVG Export Plug-In . SVG Version: 6.00 Build 0)  -->
<!DOCTYPE svg PUBLIC "-//W3C//DTD SVG 1.1//EN" "http://www.w3.org/Graphics/SVG/1.1/DTD/svg11.dtd">
<svg version="1.1" id="Capa_1" xmlns="http://www.w3.org/2000/svg" xmlns:xlink="http://www.w3.org/1999/xlink" x="0px" y="0px"
	 width="142.181px" height="142.181px" viewBox="0 0 142.181 142.181" style="enable-background:new 0 0 142.181 142.181;"
	 xml:space="preserve">
<g>
	<g>
		<path d="M140.106,61.984c-1.84-3.595-6.246-5.013-9.835-3.174c-3.593,1.839-5.017,6.244-3.175,9.837
			c0.192,0.377,0.577,1.793,0.5,2.161c-0.037,0.039-4.07,3.625-25.021-1.396c-7.072-1.692-15.276-3.197-23.896-4.338l10.15-23.78
			c1.583-3.713-0.142-8.008-3.852-9.592c-3.705-1.583-8.006,0.14-9.592,3.854l-11.93,27.949c-24.885-1.827-49.85,0.087-59.231,9.852
			C0.41,77.328-0.881,82.39,0.595,87.61c0.904,3.204,3.795,5.24,6.958,5.24c0.672,0,1.359-0.092,2.039-0.285
			c3.844-1.084,6.078-5.14,5.062-8.986c2.5-3.844,19.574-6.916,42.737-5.86l-9.888,23.168c-1.583,3.712,0.141,8.007,3.852,9.59
			c0.935,0.4,1.907,0.59,2.867,0.59c2.838,0,5.537-1.666,6.724-4.44l11.806-27.658c8.435,0.979,17.343,2.492,26.419,4.664
			c21.206,5.077,33.893,3.884,39.911-3.773C145.068,72.233,140.632,63.01,140.106,61.984z"/>
	</g>
</g>
<g>
</g>
<g>
</g>
<g>
</g>
<g>
</g>
<g>
</g>
<g>
</g>
<g>
</g>
<g>
</g>
<g>
</g>
<g>
</g>
<g>
</g>
<g>
</g>
<g>
</g>
<g>
</g>
<g>
</g>
</svg>
