<?xml version="1.0" encoding="iso-8859-1"?>
<!-- Generator: Adobe Illustrator 16.0.0, SVG Export Plug-In . SVG Version: 6.00 Build 0)  -->
<!DOCTYPE svg PUBLIC "-//W3C//DTD SVG 1.1//EN" "http://www.w3.org/Graphics/SVG/1.1/DTD/svg11.dtd">
<svg version="1.1" id="Capa_1" xmlns="http://www.w3.org/2000/svg" xmlns:xlink="http://www.w3.org/1999/xlink" x="0px" y="0px"
	 width="144.544px" height="144.544px" viewBox="0 0 144.544 144.544" style="enable-background:new 0 0 144.544 144.544;"
	 xml:space="preserve">
<g>
	<g>
		<path d="M133.751,63.573c0.663,0.185,1.333,0.275,1.987,0.275c3.19,0,6.123-2.105,7.03-5.328
			c1.472-5.218,0.184-10.28-3.633-14.251c-5.213-5.425-15.247-8.419-27.397-9.705l17.165-22.87c2.424-3.228,1.771-7.81-1.46-10.231
			c-3.232-2.424-7.812-1.769-10.23,1.459L94.03,33.814c-18.331,0.188-38.303,2.936-53.241,6.517
			c-20.685,4.953-24.885,1.518-24.951,1.518c0,0,0,0,0,0.002c-0.122-0.404,0.117-1.615,0.47-2.37
			c1.776-3.579,0.351-7.93-3.215-9.754c-3.591-1.844-7.996-0.419-9.837,3.174C2.73,33.93-1.706,43.152,4.284,50.771
			c6.02,7.657,18.704,8.853,39.908,3.774c13.586-3.255,26.792-5.023,38.59-5.74L62.124,76.333H9.04
			c-4.037,0-7.309,3.271-7.309,7.309s3.272,7.308,7.309,7.308h42.115l-10.97,14.617H9.04c-4.037,0-7.309,3.271-7.309,7.31
			c0,4.036,3.272,7.308,7.309,7.308h20.178l-9.506,12.665c-2.424,3.229-1.771,7.811,1.459,10.232
			c1.316,0.987,2.853,1.464,4.38,1.464c2.222,0,4.414-1.01,5.852-2.921l16.088-21.44h88.226c4.037,0,7.31-3.271,7.31-7.308
			s-3.271-7.31-7.31-7.31H58.461l10.97-14.617h66.286c4.037,0,7.31-3.271,7.31-7.308s-3.271-7.309-7.31-7.309H80.399l20.861-27.803
			c15.167,0.543,25.594,3.041,27.462,5.983c-0.008,0.005-0.015,0.017-0.021,0.042C127.608,58.436,129.867,62.475,133.751,63.573z"/>
	</g>
</g>
<g>
</g>
<g>
</g>
<g>
</g>
<g>
</g>
<g>
</g>
<g>
</g>
<g>
</g>
<g>
</g>
<g>
</g>
<g>
</g>
<g>
</g>
<g>
</g>
<g>
</g>
<g>
</g>
<g>
</g>
</svg>
