<?xml version="1.0" encoding="iso-8859-1"?>
<!-- Generator: Adobe Illustrator 16.0.0, SVG Export Plug-In . SVG Version: 6.00 Build 0)  -->
<!DOCTYPE svg PUBLIC "-//W3C//DTD SVG 1.1//EN" "http://www.w3.org/Graphics/SVG/1.1/DTD/svg11.dtd">
<svg version="1.1" id="Capa_1" xmlns="http://www.w3.org/2000/svg" xmlns:xlink="http://www.w3.org/1999/xlink" x="0px" y="0px"
	 width="93.561px" height="93.56px" viewBox="0 0 93.561 93.56" style="enable-background:new 0 0 93.561 93.56;"
	 xml:space="preserve">
<g>
	<g>
		<path d="M89.796,52.473c-2.062,0-3.74,1.678-3.74,3.74v2.996H60.23c0-0.082,0-0.137,0-0.22c-0.356-1.348-0.824-2.668-1.401-3.878
			c-0.304-0.66-1.072-0.935-1.732-0.633c-0.66,0.303-0.936,1.073-0.633,1.733c0.439,0.935,0.798,1.951,1.101,2.996H43.978
			L30.584,45.735c0.109,0.027,0.247,0.055,0.385,0.055c0.083,0,0.165,0,0.248-0.026c1.238-0.247,2.475-0.412,3.713-0.522
			c0.715-0.055,1.265-0.688,1.21-1.401c-0.055-0.717-0.688-1.267-1.402-1.21c-1.319,0.108-2.694,0.302-4.016,0.55
			c-0.715,0.138-1.155,0.825-1.018,1.54c0,0.055,0.027,0.082,0.055,0.138l-16.31-16.448l2.035-2.035
			c1.431-1.431,1.431-3.713,0-5.144c-1.43-1.43-3.712-1.43-5.143,0l-9.27,9.269c-1.43,1.431-1.43,3.714,0,5.144
			c0.716,0.716,1.65,1.073,2.585,1.073c0.936,0,1.87-0.357,2.586-1.073l1.925-1.925l31.6,31.848c0.715,0.715,1.65,1.1,2.667,1.1
			h43.646v2.998c0,2.062,1.678,3.74,3.739,3.74c2.062,0,3.74-1.678,3.74-3.74V56.214C93.537,54.151,91.858,52.473,89.796,52.473z"/>
		<path d="M38.807,42.599c-0.715-0.056-1.32,0.521-1.375,1.238c-0.027,0.715,0.522,1.318,1.238,1.375
			c1.265,0.055,2.502,0.22,3.685,0.468c0.083,0.026,0.165,0.026,0.248,0.026c0.605,0,1.155-0.439,1.266-1.045
			c0.138-0.716-0.33-1.402-1.019-1.541C41.557,42.82,40.182,42.655,38.807,42.599z"/>
		<path d="M54.593,53.078c0.248,0.357,0.66,0.522,1.045,0.522c0.275,0,0.551-0.082,0.771-0.247c0.576-0.413,0.715-1.237,0.274-1.815
			c-0.825-1.1-1.761-2.146-2.806-3.08c-0.522-0.494-1.349-0.439-1.843,0.082c-0.495,0.523-0.439,1.349,0.083,1.844
			C53.053,51.208,53.878,52.116,54.593,53.078z"/>
		<path d="M45.901,46.642c1.155,0.439,2.283,0.963,3.301,1.566c0.221,0.139,0.439,0.193,0.659,0.193c0.44,0,0.881-0.221,1.128-0.633
			c0.357-0.605,0.165-1.431-0.468-1.788c-1.154-0.688-2.42-1.292-3.74-1.787c-0.659-0.248-1.43,0.082-1.678,0.771
			C44.855,45.652,45.243,46.395,45.901,46.642z"/>
		<g>
			<path d="M50.798,31.049l-0.963,0.248c-0.139,0.026-0.33,0.082-0.495,0.082c-0.633,0-1.21-0.551-1.21-1.184
				c0-0.55,0.356-1.018,0.907-1.183l1.787-0.522c0.522-0.138,0.907-0.22,1.294-0.22h0.026c0.742,0,1.375,0.604,1.375,1.375V39.71
				c0,0.743-0.604,1.375-1.375,1.375c-0.743,0-1.375-0.604-1.375-1.375C50.798,39.712,50.798,31.049,50.798,31.049z"/>
			<path d="M56.601,39.767c-0.247-0.221-0.468-0.605-0.468-0.99c0-0.715,0.604-1.32,1.32-1.32c0.385,0,0.659,0.139,0.88,0.33
				c0.716,0.605,1.458,0.936,2.447,0.936c1.046,0,1.787-0.604,1.787-1.513v-0.027c0-1.019-0.906-1.595-2.446-1.595h-0.44
				c-0.66,0-1.183-0.551-1.183-1.184c0-0.385,0.165-0.688,0.604-1.128l2.447-2.447H57.7c-0.634,0-1.184-0.55-1.184-1.183
				s0.55-1.183,1.184-1.183h6.104c0.797,0,1.402,0.468,1.402,1.21c0,0.688-0.33,1.045-0.825,1.54l-2.447,2.338
				c1.705,0.274,3.383,1.183,3.383,3.521v0.027c0,2.365-1.732,4.098-4.511,4.098C58.966,41.197,57.619,40.647,56.601,39.767z"/>
			<path d="M67.849,40.014c-0.33-0.221-0.55-0.604-0.55-1.045c0-0.715,0.604-1.32,1.32-1.32c0.329,0,0.55,0.083,0.741,0.248
				c0.771,0.55,1.514,0.797,2.394,0.797c1.155,0,2.035-0.632,2.035-1.731v-0.027c0-1.072-0.907-1.705-2.229-1.705
				c-1.045,0-1.513,0.33-1.896,0.33c-0.385,0-0.688-0.165-1.266-0.55c-0.386-0.275-0.551-0.634-0.495-1.102l0.247-4.263
				c0.027-0.66,0.551-1.183,1.21-1.183h5.445c0.66,0,1.211,0.55,1.211,1.21c0,0.659-0.551,1.21-1.211,1.21H70.57l-0.137,2.173
				c0.495-0.139,0.962-0.221,1.649-0.221c2.476,0,4.399,1.184,4.399,4.016v0.028c0,2.667-1.925,4.345-4.675,4.345
				C70.049,41.197,68.839,40.729,67.849,40.014z"/>
			<path d="M78.272,31.104v-0.028c0-1.513,1.21-2.75,2.777-2.75c1.568,0,2.751,1.21,2.751,2.724v0.026
				c0,1.514-1.211,2.751-2.778,2.751C79.428,33.827,78.272,32.644,78.272,31.104z M78.328,35.422c0-0.33,0.274-0.605,0.604-0.605
				h4.208c0.33,0,0.604,0.275,0.604,0.605c0,0.329-0.274,0.604-0.604,0.604h-4.208C78.603,35.999,78.328,35.751,78.328,35.422z
				 M82.315,31.104v-0.028c0-0.77-0.521-1.457-1.319-1.457c-0.799,0-1.266,0.66-1.266,1.431v0.026c0,0.771,0.522,1.458,1.319,1.458
				C81.848,32.561,82.315,31.874,82.315,31.104z"/>
		</g>
	</g>
</g>
<g>
</g>
<g>
</g>
<g>
</g>
<g>
</g>
<g>
</g>
<g>
</g>
<g>
</g>
<g>
</g>
<g>
</g>
<g>
</g>
<g>
</g>
<g>
</g>
<g>
</g>
<g>
</g>
<g>
</g>
</svg>
