<?xml version="1.0" encoding="iso-8859-1"?>
<!-- Generator: Adobe Illustrator 16.0.0, SVG Export Plug-In . SVG Version: 6.00 Build 0)  -->
<!DOCTYPE svg PUBLIC "-//W3C//DTD SVG 1.1//EN" "http://www.w3.org/Graphics/SVG/1.1/DTD/svg11.dtd">
<svg version="1.1" id="Capa_1" xmlns="http://www.w3.org/2000/svg" xmlns:xlink="http://www.w3.org/1999/xlink" x="0px" y="0px"
	 width="142.109px" height="142.109px" viewBox="0 0 142.109 142.109" style="enable-background:new 0 0 142.109 142.109;"
	 xml:space="preserve">
<g>
	<g>
		<path d="M135.778,122.206l-12.319-9.335c-2.683-2.036-6.5-1.508-8.531,1.175c-1.387,1.829-1.555,4.178-0.688,6.139H92.718
			c16.568-17.76,29.738-55.663,39.23-113.099c0.551-3.315-1.695-6.451-5.016-7.001c-3.328-0.548-6.453,1.698-7.002,5.016
			C106.066,88.996,87.238,111.435,77.25,117.344c-0.513,0.302-0.994,0.551-1.463,0.772V23.862c0.993,0.646,2.133,1.016,3.299,1.016
			c1.241,0,2.498-0.377,3.578-1.167c2.723-1.978,3.32-5.788,1.344-8.507L75.046,2.887c-1.136-1.559-2.938-2.49-4.866-2.509
			c-1.864,0.049-3.749,0.875-4.913,2.412l-9.336,12.319c-2.032,2.682-1.505,6.502,1.177,8.531c1.941,1.474,4.473,1.586,6.497,0.526
			v94.001c-19.92-6.285-39.564-68.366-47.599-113.149c-0.597-3.311-3.764-5.516-7.07-4.921C5.626,0.694,3.422,3.858,4.016,7.169
			C4.238,8.397,9.524,37.613,19.312,67.36c8.273,25.145,17.062,42.634,26.541,52.825H10.014c-3.364,0-6.09,2.727-6.09,6.09
			c0,3.364,2.726,6.091,6.09,6.091h104.929c-1.574,2.084-1.706,5.017-0.091,7.237c1.194,1.641,3.05,2.507,4.933,2.507
			c1.243,0,2.495-0.378,3.576-1.167l12.32-8.96c1.559-1.133,2.488-2.938,2.509-4.863
			C138.208,125.19,137.313,123.371,135.778,122.206z"/>
	</g>
</g>
<g>
</g>
<g>
</g>
<g>
</g>
<g>
</g>
<g>
</g>
<g>
</g>
<g>
</g>
<g>
</g>
<g>
</g>
<g>
</g>
<g>
</g>
<g>
</g>
<g>
</g>
<g>
</g>
<g>
</g>
</svg>
