<?xml version="1.0" encoding="iso-8859-1"?>
<!-- Generator: Adobe Illustrator 16.0.0, SVG Export Plug-In . SVG Version: 6.00 Build 0)  -->
<!DOCTYPE svg PUBLIC "-//W3C//DTD SVG 1.1//EN" "http://www.w3.org/Graphics/SVG/1.1/DTD/svg11.dtd">
<svg version="1.1" id="Capa_1" xmlns="http://www.w3.org/2000/svg" xmlns:xlink="http://www.w3.org/1999/xlink" x="0px" y="0px"
	 width="145.356px" height="145.356px" viewBox="0 0 145.356 145.356" style="enable-background:new 0 0 145.356 145.356;"
	 xml:space="preserve">
<g>
	<g>
		<path d="M19.49,50.347c10.3,0,18.678-8.378,18.678-18.678c0-10.3-8.378-18.675-18.678-18.675c-10.3,0-18.677,8.378-18.677,18.678
			C0.813,41.972,9.19,50.347,19.49,50.347z"/>
		<path d="M80.393,90.952c-10.3,0-18.677,8.377-18.677,18.677s8.377,18.678,18.677,18.678c10.299,0,18.678-8.378,18.678-18.678
			S90.691,90.952,80.393,90.952z"/>
		<path d="M3.283,143.333c1.24,0.817,2.638,1.211,4.02,1.211c2.373,0,4.702-1.154,6.104-3.281L98.669,12.149
			c2.226-3.369,1.297-7.903-2.069-10.127c-3.371-2.224-7.905-1.296-10.127,2.07L1.21,133.207
			C-1.014,136.577-0.086,141.109,3.283,143.333z"/>
		<path d="M108,109.627c0,10.3,8.379,18.678,18.678,18.678c10.302,0,18.679-8.378,18.679-18.678s-8.377-18.677-18.679-18.677
			C116.378,90.952,108,99.328,108,109.627z"/>
	</g>
</g>
<g>
</g>
<g>
</g>
<g>
</g>
<g>
</g>
<g>
</g>
<g>
</g>
<g>
</g>
<g>
</g>
<g>
</g>
<g>
</g>
<g>
</g>
<g>
</g>
<g>
</g>
<g>
</g>
<g>
</g>
</svg>
