<?xml version="1.0" encoding="iso-8859-1"?>
<!-- Generator: Adobe Illustrator 16.0.0, SVG Export Plug-In . SVG Version: 6.00 Build 0)  -->
<!DOCTYPE svg PUBLIC "-//W3C//DTD SVG 1.1//EN" "http://www.w3.org/Graphics/SVG/1.1/DTD/svg11.dtd">
<svg version="1.1" id="Capa_1" xmlns="http://www.w3.org/2000/svg" xmlns:xlink="http://www.w3.org/1999/xlink" x="0px" y="0px"
	 width="111.877px" height="111.877px" viewBox="0 0 111.877 111.877" style="enable-background:new 0 0 111.877 111.877;"
	 xml:space="preserve">
<g>
	<g>
		<path d="M96.614,99.667H15.262c-3.383,0-6.105,2.724-6.105,6.104c0,3.383,2.723,6.105,6.105,6.105h81.352
			c3.383,0,6.105-2.723,6.105-6.105C102.72,102.391,99.97,99.667,96.614,99.667z"/>
		<path d="M15.262,52.885h34.57v34.57c0,3.383,2.723,6.105,6.105,6.105c3.382,0,6.105-2.724,6.105-6.105v-34.57h34.57
			c3.383,0,6.105-2.723,6.105-6.105c0-3.382-2.724-6.105-6.105-6.105h-34.57V6.105C62.042,2.722,59.319,0,55.937,0
			c-3.382,0-6.105,2.723-6.105,6.105v34.57h-34.57c-3.383,0-6.105,2.723-6.105,6.105C9.157,50.162,11.907,52.885,15.262,52.885z"/>
	</g>
</g>
<g>
</g>
<g>
</g>
<g>
</g>
<g>
</g>
<g>
</g>
<g>
</g>
<g>
</g>
<g>
</g>
<g>
</g>
<g>
</g>
<g>
</g>
<g>
</g>
<g>
</g>
<g>
</g>
<g>
</g>
</svg>
