<?xml version="1.0" encoding="iso-8859-1"?>
<!-- Generator: Adobe Illustrator 16.0.0, SVG Export Plug-In . SVG Version: 6.00 Build 0)  -->
<!DOCTYPE svg PUBLIC "-//W3C//DTD SVG 1.1//EN" "http://www.w3.org/Graphics/SVG/1.1/DTD/svg11.dtd">
<svg version="1.1" id="Capa_1" xmlns="http://www.w3.org/2000/svg" xmlns:xlink="http://www.w3.org/1999/xlink" x="0px" y="0px"
	 width="139.105px" height="139.105px" viewBox="0 0 139.105 139.105" style="enable-background:new 0 0 139.105 139.105;"
	 xml:space="preserve">
<g>
	<g>
		<path d="M114.668,17.656L98.689,1.678C97.617,0.605,96.16,0,94.646,0H28.477c-0.083,0-0.137,0.027-0.22,0.027
			c-0.22,0-0.413,0.027-0.605,0.055c-0.165,0.027-0.33,0.055-0.495,0.083c-0.193,0.055-0.358,0.11-0.55,0.165
			c-0.165,0.055-0.33,0.11-0.495,0.192s-0.33,0.165-0.495,0.275C25.452,0.88,25.287,0.99,25.149,1.1
			c-0.137,0.11-0.275,0.22-0.413,0.33c-0.165,0.137-0.302,0.275-0.44,0.413c-0.055,0.055-0.11,0.11-0.165,0.165
			c-0.055,0.082-0.11,0.165-0.165,0.22c-0.138,0.165-0.248,0.33-0.357,0.495c-0.083,0.165-0.165,0.303-0.248,0.468
			s-0.165,0.357-0.22,0.522c-0.055,0.165-0.11,0.357-0.165,0.522c-0.055,0.165-0.083,0.357-0.11,0.522
			c-0.027,0.192-0.055,0.413-0.055,0.605c0,0.083-0.027,0.192-0.027,0.275v104.949c0,1.348,0.468,2.641,1.32,3.658l19.114,22.826
			c1.073,1.293,2.695,2.035,4.373,2.035h63.035c3.163,0,5.693-2.559,5.693-5.693V21.617
			C116.347,20.186,115.741,18.729,114.668,17.656z M34.472,108.936l-0.275-0.33V17.986l6.848,5.775v84.625h-1.128
			c-1.265,0-2.283,1.018-2.283,2.281c0,1.266,1.018,2.283,2.283,2.283h1.128v3.822l-5.996-7.178
			C34.884,109.348,34.691,109.129,34.472,108.936z M52.458,112.621c0.33,0.191,0.715,0.357,1.128,0.357h6.848
			c1.265,0,2.283-1.019,2.283-2.283c0-1.266-1.018-2.282-2.283-2.282h-6.848c-0.413,0-0.798,0.138-1.128,0.358V27.42h52.475v99.448
			l-2.613-3.74c-0.715-1.045-2.146-1.293-3.189-0.551c-1.045,0.716-1.292,2.146-0.55,3.19l1.458,2.062h-47.58V112.621
			L52.458,112.621z M96.875,15.978H49.542l-5.418-4.565l47.771-0.027c0,0,1.678,1.348,2.53,2.146L96.875,15.978z"/>
		<path d="M92.392,55.912c1.266,0,2.282-1.018,2.282-2.283v-6.848c0-1.265-1.018-2.283-2.282-2.283
			c-1.266,0-2.283,1.018-2.283,2.283v6.848C90.109,54.894,91.126,55.912,92.392,55.912z"/>
		<path d="M92.392,83.305c1.266,0,2.282-1.019,2.282-2.283v-6.848c0-1.266-1.018-2.283-2.282-2.283
			c-1.266,0-2.283,1.019-2.283,2.283v6.848C90.109,82.286,91.126,83.305,92.392,83.305z"/>
		<path d="M92.392,42.216c1.266,0,2.282-1.018,2.282-2.283v-6.848c0-1.265-1.018-2.283-2.282-2.283
			c-1.266,0-2.283,1.018-2.283,2.283v6.848C90.109,41.198,91.126,42.216,92.392,42.216z"/>
		<path d="M92.392,69.607c1.266,0,2.282-1.017,2.282-2.282v-6.848c0-1.265-1.018-2.283-2.282-2.283
			c-1.266,0-2.283,1.018-2.283,2.283v6.848C90.109,68.59,91.126,69.607,92.392,69.607z"/>
		<path d="M94.674,108.387v-6.85c0-1.266-1.018-2.281-2.282-2.281c-1.266,0-2.283,1.018-2.283,2.281v6.85
			c0,1.264,1.019,2.281,2.283,2.281S94.674,109.65,94.674,108.387z"/>
		<path d="M87.827,108.387h-6.849c-1.266,0-2.283,1.018-2.283,2.281c0,1.266,1.019,2.283,2.283,2.283h6.849
			c1.265,0,2.282-1.018,2.282-2.283C90.109,109.404,89.091,108.387,87.827,108.387z"/>
		<path d="M74.13,108.387h-6.849c-1.265,0-2.283,1.018-2.283,2.281c0,1.266,1.018,2.283,2.283,2.283h6.849
			c1.266,0,2.282-1.018,2.282-2.283C76.413,109.404,75.396,108.387,74.13,108.387z"/>
		<path d="M92.392,97c1.266,0,2.282-1.018,2.282-2.283v-6.848c0-1.266-1.018-2.283-2.282-2.283c-1.266,0-2.283,1.018-2.283,2.283
			v6.848C90.109,95.955,91.126,97,92.392,97z"/>
		<path d="M98.937,118.287l-3.383-4.812c-0.715-1.045-2.145-1.293-3.189-0.551c-1.045,0.715-1.293,2.146-0.551,3.189l3.383,4.812
			c0.441,0.633,1.156,0.963,1.871,0.963c0.439,0,0.906-0.138,1.293-0.412C99.433,120.762,99.681,119.332,98.937,118.287z"/>
	</g>
</g>
<g>
</g>
<g>
</g>
<g>
</g>
<g>
</g>
<g>
</g>
<g>
</g>
<g>
</g>
<g>
</g>
<g>
</g>
<g>
</g>
<g>
</g>
<g>
</g>
<g>
</g>
<g>
</g>
<g>
</g>
</svg>
