<?xml version="1.0" encoding="iso-8859-1"?>
<!-- Generator: Adobe Illustrator 16.0.0, SVG Export Plug-In . SVG Version: 6.00 Build 0)  -->
<!DOCTYPE svg PUBLIC "-//W3C//DTD SVG 1.1//EN" "http://www.w3.org/Graphics/SVG/1.1/DTD/svg11.dtd">
<svg version="1.1" id="Capa_1" xmlns="http://www.w3.org/2000/svg" xmlns:xlink="http://www.w3.org/1999/xlink" x="0px" y="0px"
	 width="145.261px" height="145.261px" viewBox="0 0 145.261 145.261" style="enable-background:new 0 0 145.261 145.261;"
	 xml:space="preserve">
<g>
	<g>
		<path d="M25.68,14.452H3.95c-3.949,0-3.949,3.187-3.949,5.367v9.25h18.765c0.545,0,0.986,0.672,0.986,1.218
			c0,0.546-0.443,1.218-0.986,1.218H0v4.872h10.866c0.545,0,0.986,0.672,0.986,1.218c0,0.545-0.443,1.218-0.986,1.218H0v4.872
			h18.766c0.545,0,0.784,0.585,0.784,1.13c0,0.546-0.239,1.306-0.784,1.306H0v4.872h10.866c0.545,0,0.986,0.672,0.986,1.218
			s-0.443,1.218-0.986,1.218H0v4.872h18.766c0.545,0,0.986,0.672,0.986,1.218c0,0.545-0.443,1.218-0.986,1.218H0v4.873h10.866
			c0.545,0,0.986,0.672,0.986,1.218c0,0.546-0.443,1.218-0.986,1.218H0v4.872h18.766c0.545,0,0.986,0.672,0.986,1.219
			c0,0.545-0.443,1.218-0.986,1.218H0v4.873h10.866c0.545,0,0.76,0.674,0.76,1.221c0,0.545-0.214,1.215-0.76,1.215H0v4.873h18.766
			c0.545,0,0.986,0.672,0.986,1.217c0,0.547-0.443,1.219-0.986,1.219H0v4.872h10.866c0.545,0,0.986,0.673,0.986,1.219
			s-0.443,1.219-0.986,1.219H0v4.872h18.766c0.545,0,0.986,0.672,0.986,1.218s-0.443,1.219-0.986,1.219H0v4.871h10.866
			c0.545,0,0.986,0.673,0.986,1.219c0,0.545-0.443,1.219-0.986,1.219H0v4.872h18.766c0.545,0,0.986,0.672,0.986,1.219
			c0,0.545-0.443,1.217-0.986,1.217H0v9.26c0,2.185,1.769,2.922,3.952,2.922h21.73c2.18,0,5.988-0.737,5.988-2.922V19.819
			C31.67,17.639,31.67,14.452,25.68,14.452z"/>
		<path d="M134.251,117.683l-2.165,2.05c-0.771,0.771-2.021,0.589-2.794-0.182c-0.772-0.771-0.772-1.956,0-2.729l2.285-2.285
			l-5.832-6.358l-5.511,5.512c-0.772,0.771-2.022,0.771-2.795,0c-0.771-0.772-0.771-2.022,0-2.794l5.633-5.634l-5.832-6.356
			l-2.932,2.93c-0.771,0.772-2.021,0.772-2.793,0c-0.772-0.771-0.772-2.021,0-2.794l3.051-3.052l-5.832-6.359l-6.276,6.278
			c-0.772,0.771-2.021,0.771-2.795,0c-0.771-0.772-0.771-2.022,0-2.794l6.397-6.397l-6.776-7.389l-2.754,2.753
			c-0.771,0.772-2.021,0.772-2.793,0c-0.773-0.771-0.773-2.021,0-2.794l2.87-2.872l-6.776-7.39l-7.127,7.129
			c-0.772,0.771-2.022,0.771-2.795,0c-0.771-0.772-0.771-2.022,0-2.795l7.25-7.25l-5.832-6.358l-2.574,2.575
			c-0.772,0.772-2.022,0.772-2.795,0c-0.771-0.772-0.771-2.022,0-2.794l2.694-2.694l-5.832-6.358l-5.919,5.92
			c-0.772,0.772-2.022,0.772-2.794,0s-0.772-2.022,0-2.794l6.042-6.042l-6.777-7.389l-2.395,2.395c-0.772,0.772-2.022,0.772-2.794,0
			s-0.772-2.022,0-2.794l2.516-2.517l-5.832-6.358l-5.742,5.742c-0.772,0.772-2.022,0.772-2.794,0c-0.772-0.771-0.772-2.021,0-2.794
			l5.367-5.861L39.226,14.798c-1.503-1.576-2.685-1.091-2.685,1.092v112.597c0,2.181,1.698,2.898,3.881,2.898h102.719
			c2.183,0,2.776-0.799,1.33-2.432L134.251,117.683z M51.159,116.769V56.073l58.942,60.695H51.159z"/>
	</g>
</g>
<g>
</g>
<g>
</g>
<g>
</g>
<g>
</g>
<g>
</g>
<g>
</g>
<g>
</g>
<g>
</g>
<g>
</g>
<g>
</g>
<g>
</g>
<g>
</g>
<g>
</g>
<g>
</g>
<g>
</g>
</svg>
