<?xml version="1.0" encoding="iso-8859-1"?>
<!-- Generator: Adobe Illustrator 16.0.0, SVG Export Plug-In . SVG Version: 6.00 Build 0)  -->
<!DOCTYPE svg PUBLIC "-//W3C//DTD SVG 1.1//EN" "http://www.w3.org/Graphics/SVG/1.1/DTD/svg11.dtd">
<svg version="1.1" id="Capa_1" xmlns="http://www.w3.org/2000/svg" xmlns:xlink="http://www.w3.org/1999/xlink" x="0px" y="0px"
	 width="138.861px" height="138.861px" viewBox="0 0 138.861 138.861" style="enable-background:new 0 0 138.861 138.861;"
	 xml:space="preserve">
<g>
	<g>
		<path d="M69.429,20.557C31.085,20.557,0,51.777,0,90.289v23.144c0,2.692,2.18,4.872,4.872,4.872h9.744v-15.834
			c0-1.346,1.092-2.438,2.437-2.438c1.345,0,2.436,1.092,2.436,2.438v15.834h9.744v-10.963c0-1.344,1.091-2.436,2.436-2.436
			s2.436,1.092,2.436,2.436v10.963h9.745v-15.834c0-1.346,1.091-2.438,2.436-2.438c1.345,0,2.436,1.092,2.436,2.438v15.834h9.745
			v-10.963c0-1.344,1.091-2.436,2.436-2.436c1.345,0,2.436,1.092,2.436,2.436v10.963h9.745v-15.834c0-1.346,1.091-2.438,2.436-2.438
			c1.346,0,2.438,1.092,2.438,2.438v15.834h9.744v-10.963c0-1.344,1.091-2.436,2.437-2.436c1.345,0,2.437,1.092,2.437,2.436v10.963
			h9.744v-15.834c0-1.346,1.092-2.438,2.437-2.438s2.437,1.092,2.437,2.438v15.834h9.744v-10.963c0-1.344,1.092-2.436,2.437-2.436
			c1.346,0,2.437,1.092,2.437,2.436v10.963h12.182c2.691,0,4.871-2.18,4.871-4.872V90.289
			C138.857,51.777,107.773,20.557,69.429,20.557z M24.366,91.508c0.109-26.797,20.149-44.661,44.861-44.661
			c24.708,0,47.179,17.864,47.289,44.661H24.366z"/>
	</g>
</g>
<g>
</g>
<g>
</g>
<g>
</g>
<g>
</g>
<g>
</g>
<g>
</g>
<g>
</g>
<g>
</g>
<g>
</g>
<g>
</g>
<g>
</g>
<g>
</g>
<g>
</g>
<g>
</g>
<g>
</g>
</svg>
