<?xml version="1.0" encoding="iso-8859-1"?>
<!-- Generator: Adobe Illustrator 16.0.0, SVG Export Plug-In . SVG Version: 6.00 Build 0)  -->
<!DOCTYPE svg PUBLIC "-//W3C//DTD SVG 1.1//EN" "http://www.w3.org/Graphics/SVG/1.1/DTD/svg11.dtd">
<svg version="1.1" id="Capa_1" xmlns="http://www.w3.org/2000/svg" xmlns:xlink="http://www.w3.org/1999/xlink" x="0px" y="0px"
	 width="146.212px" height="146.212px" viewBox="0 0 146.212 146.212" style="enable-background:new 0 0 146.212 146.212;"
	 xml:space="preserve">
<g>
	<g>
		<path d="M126.611,128.341l-2.67,2.365c-0.953,0.953-2.494,0.648-3.445-0.305c-0.951-0.952-0.951-2.494,0-3.443l2.818-2.818
			l-7.193-7.843l-6.797,6.797c-0.951,0.952-2.494,0.952-3.443,0c-0.953-0.951-0.953-2.494,0-3.443l6.945-6.945l-7.194-7.842
			l-3.615,3.615c-0.952,0.952-2.495,0.952-3.444,0c-0.953-0.953-0.953-2.495,0-3.445l3.765-3.764l-7.193-7.843l-7.741,7.742
			c-0.953,0.952-2.494,0.952-3.445,0c-0.952-0.953-0.952-2.494,0-3.444l7.891-7.892l-8.357-9.109l-3.395,3.394
			c-0.952,0.953-2.494,0.953-3.443,0c-0.953-0.953-0.953-2.494,0-3.445l3.541-3.541l-8.356-9.11l-8.792,8.791
			c-0.953,0.953-2.495,0.953-3.444,0c-0.953-0.952-0.953-2.494,0-3.444l8.94-8.94l-7.194-7.842l-3.174,3.174
			c-0.953,0.952-2.495,0.952-3.445,0c-0.952-0.953-0.952-2.495,0-3.445l3.323-3.323l-7.193-7.842l-7.306,7.301
			c-0.953,0.953-2.495,0.953-3.444,0c-0.953-0.953-0.953-2.495,0-3.444l7.449-7.45l-8.358-9.111l-2.953,2.952
			c-0.953,0.953-2.495,0.953-3.445,0c-0.953-0.952-0.953-2.495,0-3.444l3.101-3.102l-7.198-7.844l-7.08,7.079
			c-0.953,0.953-2.495,0.953-3.445,0c-0.952-0.953-0.952-2.495,0-3.445l6.619-7.228L9.375,1.147
			C7.523-0.804,6.023-0.207,6.023,2.484V141.34c0,2.692,2.18,4.872,4.872,4.872h126.677c2.691,0,3.426-1.632,1.643-3.646
			L126.611,128.341z M25.513,129.161V52.042l71.312,77.119H25.513z"/>
	</g>
</g>
<g>
</g>
<g>
</g>
<g>
</g>
<g>
</g>
<g>
</g>
<g>
</g>
<g>
</g>
<g>
</g>
<g>
</g>
<g>
</g>
<g>
</g>
<g>
</g>
<g>
</g>
<g>
</g>
<g>
</g>
</svg>
