<?xml version="1.0" encoding="iso-8859-1"?>
<!-- Generator: Adobe Illustrator 16.0.0, SVG Export Plug-In . SVG Version: 6.00 Build 0)  -->
<!DOCTYPE svg PUBLIC "-//W3C//DTD SVG 1.1//EN" "http://www.w3.org/Graphics/SVG/1.1/DTD/svg11.dtd">
<svg version="1.1" id="Capa_1" xmlns="http://www.w3.org/2000/svg" xmlns:xlink="http://www.w3.org/1999/xlink" x="0px" y="0px"
	 width="146.738px" height="146.738px" viewBox="0 0 146.738 146.738" style="enable-background:new 0 0 146.738 146.738;"
	 xml:space="preserve">
<g>
	<g>
		<path d="M76.887,36.316c-1.945-2.062-5.095-1.885-7.039,0.173L1.092,108.764c-1.944,2.059-1.223,3.119,1.61,3.119h18.005v-8.864
			c0-1.414,0.792-2.859,2.208-2.859c1.415,0,2.665,1.445,2.665,2.859v8.864h4.872v-6.302c0-1.415,1.218-2.562,2.633-2.562
			s2.239,1.147,2.239,2.562v6.302h4.872v-8.864c0-1.414,1.021-2.562,2.436-2.562c1.416,0,2.437,1.148,2.437,2.562v8.864h4.872
			v-6.302c0-1.415,1.021-2.562,2.436-2.562s2.436,1.147,2.436,2.562v6.302h4.872v-8.864c0-1.414,0.943-2.706,2.361-2.706
			c1.417,0,2.512,1.292,2.512,2.706v8.864h4.872v-6.302c0-1.415,1.069-2.395,2.485-2.395c1.415,0,2.387,0.979,2.387,2.395v6.302
			h4.873v-8.864c0-1.414,1.021-2.562,2.437-2.562s2.437,1.148,2.437,2.562v8.864h4.872v-6.302c0-1.415,1.021-2.562,2.436-2.562
			c1.416,0,2.438,1.147,2.438,2.562v6.302h4.872v-8.864c0-1.414,1.021-2.562,2.437-2.562s2.438,1.148,2.438,2.562v8.864h7.308
			v-6.302c0-1.415,1.021-2.562,2.437-2.562s2.437,1.147,2.437,2.562v6.302h4.872v-8.864c0-1.414,1.021-2.562,2.438-2.562
			c1.414,0,2.436,1.148,2.436,2.562v8.864h18.573c2.831,0,3.552-0.975,1.608-3.034L76.887,36.316z M110.775,97.268H35.96
			c-2.831,0-3.552-1.356-1.608-3.418l35.499-37.472c1.944-2.061,5.094-1.982,7.038,0.078l35.498,37.355
			C114.329,95.871,113.607,97.268,110.775,97.268z"/>
	</g>
</g>
<g>
</g>
<g>
</g>
<g>
</g>
<g>
</g>
<g>
</g>
<g>
</g>
<g>
</g>
<g>
</g>
<g>
</g>
<g>
</g>
<g>
</g>
<g>
</g>
<g>
</g>
<g>
</g>
<g>
</g>
</svg>
