<?xml version="1.0" encoding="iso-8859-1"?>
<!-- Generator: Adobe Illustrator 16.0.0, SVG Export Plug-In . SVG Version: 6.00 Build 0)  -->
<!DOCTYPE svg PUBLIC "-//W3C//DTD SVG 1.1//EN" "http://www.w3.org/Graphics/SVG/1.1/DTD/svg11.dtd">
<svg version="1.1" id="Capa_1" xmlns="http://www.w3.org/2000/svg" xmlns:xlink="http://www.w3.org/1999/xlink" x="0px" y="0px"
	 width="149.027px" height="149.027px" viewBox="0 0 149.027 149.027" style="enable-background:new 0 0 149.027 149.027;"
	 xml:space="preserve">
<g>
	<g>
		<path d="M35.537,124.244c-4.037,0-7.308,3.271-7.308,7.309s3.271,7.309,7.308,7.309h23.016c-1.525,3.582,0.007,7.76,3.554,9.453
			c1.016,0.484,2.085,0.713,3.143,0.713c2.729,0,5.347-1.534,6.602-4.163l2.862-6.003h36.341c4.037,0,7.309-3.271,7.309-7.309
			s-3.271-7.309-7.309-7.309H81.686l3.486-7.309h25.883c4.037,0,7.309-3.271,7.309-7.309c0-4.037-3.271-7.309-7.309-7.309H92.143
			l3.078-6.448c1.736-3.642,0.191-8.005-3.449-9.741c-3.639-1.734-8.004-0.195-9.746,3.449l-6.077,12.74H35.537
			c-4.037,0-7.308,3.271-7.308,7.309c0,4.038,3.271,7.309,7.308,7.309h33.44l-3.486,7.309H35.537z"/>
		<path d="M64.77,80.395h48.721c4.037,0,7.309-3.271,7.309-7.31c0-4.036-3.271-7.308-7.309-7.308H64.77
			c-12.09,0-21.925-9.838-21.925-21.926v-7.308c0-12.088,9.834-21.925,21.925-21.925h48.721c4.037,0,7.309-3.271,7.309-7.309
			c0-4.036-3.271-7.309-7.309-7.309H64.77C44.621,0,28.229,16.393,28.229,36.542v7.308C28.229,64.001,44.621,80.395,64.77,80.395z"
			/>
	</g>
</g>
<g>
</g>
<g>
</g>
<g>
</g>
<g>
</g>
<g>
</g>
<g>
</g>
<g>
</g>
<g>
</g>
<g>
</g>
<g>
</g>
<g>
</g>
<g>
</g>
<g>
</g>
<g>
</g>
<g>
</g>
</svg>
