<?xml version="1.0" encoding="iso-8859-1"?>
<!-- Generator: Adobe Illustrator 16.0.0, SVG Export Plug-In . SVG Version: 6.00 Build 0)  -->
<!DOCTYPE svg PUBLIC "-//W3C//DTD SVG 1.1//EN" "http://www.w3.org/Graphics/SVG/1.1/DTD/svg11.dtd">
<svg version="1.1" id="Capa_1" xmlns="http://www.w3.org/2000/svg" xmlns:xlink="http://www.w3.org/1999/xlink" x="0px" y="0px"
	 width="129.87px" height="129.87px" viewBox="0 0 129.87 129.87" style="enable-background:new 0 0 129.87 129.87;"
	 xml:space="preserve">
<g>
	<path d="M104.121,71.794c3.612,0,6.522-2.937,6.522-6.521c0-3.612-2.938-6.522-6.522-6.522h-8.522l1.611-3.352
		c1.559-3.248,0.182-7.146-3.093-8.705c-3.248-1.559-7.146-0.182-8.705,3.092l-4.262,8.965H52.957
		c-10.836,0-20.685-9.848-20.685-20.684v-6.522c0-10.212,9.276-18.501,20.685-18.501h51.164c3.612,0,6.522-2.937,6.522-6.522
		c0-3.612-2.938-6.522-6.522-6.522H52.957C34.352,0,19.202,14.162,19.202,31.572v6.496c0,17.982,15.772,33.754,33.754,33.754h21.958
		l-6.235,13.07H25.75c-3.611,0-6.522,2.937-6.522,6.521s2.937,6.521,6.522,6.521h36.691l-4.158,8.705H25.75
		c-3.611,0-6.522,2.938-6.522,6.522c0,3.61,2.937,6.521,6.522,6.521h26.323l-0.39,0.832c-1.56,3.248-0.183,7.146,3.092,8.705
		c0.909,0.441,1.871,0.649,2.807,0.649c2.442,0,4.781-1.378,5.898-3.716l3.065-6.444h37.602c3.611,0,6.521-2.937,6.521-6.522
		c0-3.61-2.937-6.521-6.521-6.521H72.756l4.157-8.705h27.206c3.612,0,6.521-2.937,6.521-6.522c0-3.584-2.937-6.521-6.521-6.521
		H83.15l6.235-13.07h14.733v-0.054H104.121z"/>
</g>
<g>
</g>
<g>
</g>
<g>
</g>
<g>
</g>
<g>
</g>
<g>
</g>
<g>
</g>
<g>
</g>
<g>
</g>
<g>
</g>
<g>
</g>
<g>
</g>
<g>
</g>
<g>
</g>
<g>
</g>
</svg>
