<?xml version="1.0" encoding="iso-8859-1"?>
<!-- Generator: Adobe Illustrator 16.0.0, SVG Export Plug-In . SVG Version: 6.00 Build 0)  -->
<!DOCTYPE svg PUBLIC "-//W3C//DTD SVG 1.1//EN" "http://www.w3.org/Graphics/SVG/1.1/DTD/svg11.dtd">
<svg version="1.1" id="Capa_1" xmlns="http://www.w3.org/2000/svg" xmlns:xlink="http://www.w3.org/1999/xlink" x="0px" y="0px"
	 width="136.83px" height="136.83px" viewBox="0 0 136.83 136.83" style="enable-background:new 0 0 136.83 136.83;"
	 xml:space="preserve">
<g>
	<g>
		<path d="M53.194,85.266h35.581l-22.68,19.487H20.911c-4.037,0-7.308,3.271-7.308,7.31c0,4.037,3.271,7.309,7.308,7.309h28.176
			l-5.362,4.607c-3.062,2.633-3.411,7.246-0.779,10.306c1.444,1.681,3.491,2.546,5.547,2.546c1.686,0,3.381-0.58,4.76-1.766
			l18.261-15.693h46.843c4.035,0,7.307-3.271,7.307-7.309c0-4.039-3.271-7.31-7.307-7.31H88.522l22.682-19.487h7.152
			c4.035,0,7.307-3.271,7.307-7.31s-3.271-7.31-7.307-7.31H53.194c-14.346,0-27.411-12.117-27.411-25.422v-8.068
			c0-13.922,14.229-22.539,27.411-22.539h65.161c4.036,0,7.309-3.272,7.309-7.309c0-4.037-3.271-7.308-7.309-7.308H53.194
			C26.886,0,11.167,18.892,11.167,37.155v8.068C11.167,66.556,30.806,85.266,53.194,85.266z"/>
	</g>
</g>
<g>
</g>
<g>
</g>
<g>
</g>
<g>
</g>
<g>
</g>
<g>
</g>
<g>
</g>
<g>
</g>
<g>
</g>
<g>
</g>
<g>
</g>
<g>
</g>
<g>
</g>
<g>
</g>
<g>
</g>
</svg>
