<?xml version="1.0" encoding="iso-8859-1"?>
<!-- Generator: Adobe Illustrator 16.0.0, SVG Export Plug-In . SVG Version: 6.00 Build 0)  -->
<!DOCTYPE svg PUBLIC "-//W3C//DTD SVG 1.1//EN" "http://www.w3.org/Graphics/SVG/1.1/DTD/svg11.dtd">
<svg version="1.1" id="Capa_1" xmlns="http://www.w3.org/2000/svg" xmlns:xlink="http://www.w3.org/1999/xlink" x="0px" y="0px"
	 width="129.945px" height="129.945px" viewBox="0 0 129.945 129.945" style="enable-background:new 0 0 129.945 129.945;"
	 xml:space="preserve">
<g>
	<g>
		<path d="M113.485,1.347c-2.884-2.209-7.016-1.637-9.197,1.247l-0.286,0.364c-0.104,0-0.233-0.026-0.338-0.026H51.123
			c-18.112,0-32.845,14.733-32.845,32.845v6.574c0,17.41,13.616,31.649,30.74,32.741L38.91,88.344H24.826
			c-3.638,0-6.574,2.938-6.574,6.574c0,3.639,2.936,6.574,6.574,6.574h4.054l-13.668,17.903c-2.208,2.884-1.637,7.017,1.248,9.198
			c1.195,0.91,2.599,1.352,3.976,1.352c1.975,0,3.924-0.884,5.223-2.599l3.04-3.976h74.941c3.638,0,6.574-2.938,6.574-6.574
			s-2.938-6.574-6.574-6.574H38.728l6.678-8.757h58.258c3.639,0,6.573-2.938,6.573-6.574s-2.936-6.574-6.573-6.574H55.436
			l10.03-13.147h38.224c3.639,0,6.574-2.938,6.574-6.574c0-3.638-2.937-6.575-6.574-6.575H75.47l39.264-51.502
			C116.941,7.661,116.371,3.555,113.485,1.347z M58.944,62.047h-7.821c-10.862,0-19.697-8.834-19.697-19.696v-6.574
			c0-10.862,8.835-19.697,19.697-19.697h42.875L58.944,62.047z"/>
	</g>
</g>
<g>
</g>
<g>
</g>
<g>
</g>
<g>
</g>
<g>
</g>
<g>
</g>
<g>
</g>
<g>
</g>
<g>
</g>
<g>
</g>
<g>
</g>
<g>
</g>
<g>
</g>
<g>
</g>
<g>
</g>
</svg>
