<?xml version="1.0" encoding="iso-8859-1"?>
<!-- Generator: Adobe Illustrator 16.0.0, SVG Export Plug-In . SVG Version: 6.00 Build 0)  -->
<!DOCTYPE svg PUBLIC "-//W3C//DTD SVG 1.1//EN" "http://www.w3.org/Graphics/SVG/1.1/DTD/svg11.dtd">
<svg version="1.1" id="Capa_1" xmlns="http://www.w3.org/2000/svg" xmlns:xlink="http://www.w3.org/1999/xlink" x="0px" y="0px"
	 width="93.544px" height="93.544px" viewBox="0 0 93.544 93.544" style="enable-background:new 0 0 93.544 93.544;"
	 xml:space="preserve">
<g>
	<path d="M81.698,0.969c-2.076-1.582-5.044-1.186-6.63,0.894l-4.231,5.548C66.942,4.575,62.094,2.89,56.757,2.89H18.655
		c-2.612,0-4.73,2.118-4.73,4.73c0,2.613,2.118,4.73,4.73,4.73h38.103c3.194,0,6.063,0.946,8.362,2.559l-23.295,30.55h-23.17
		c-2.612,0-4.73,2.118-4.73,4.73c0,2.611,2.118,4.729,4.73,4.729h15.957l-7.213,9.46h-8.744c-2.612,0-4.73,2.117-4.73,4.729
		s2.118,4.729,4.73,4.729h1.531l-9.234,12.109c-1.583,2.077-1.184,5.046,0.894,6.63c0.856,0.652,1.865,0.968,2.865,0.968
		c1.425,0,2.834-0.64,3.765-1.86l1.586-2.08h55.353c2.612,0,4.729-2.117,4.729-4.729c0-2.613-2.116-4.729-4.729-4.729h-48.14
		l4.809-6.308h43.33c2.613,0,4.729-2.117,4.729-4.729c0-2.612-2.116-4.729-4.729-4.729H39.297l7.213-9.46h10.249
		c12.896,0,23.386-10.963,23.386-24.438v-4.73c0-4.079-1.048-7.872-2.889-11.155l5.337-6.999
		C84.175,5.521,83.776,2.553,81.698,0.969z M70.682,25.752v4.73c0,8.118-6.377,14.978-13.927,14.978h-3.034l16.763-21.984
		C70.605,24.213,70.682,24.97,70.682,25.752z"/>
</g>
<g>
</g>
<g>
</g>
<g>
</g>
<g>
</g>
<g>
</g>
<g>
</g>
<g>
</g>
<g>
</g>
<g>
</g>
<g>
</g>
<g>
</g>
<g>
</g>
<g>
</g>
<g>
</g>
<g>
</g>
</svg>
