<?xml version="1.0" encoding="iso-8859-1"?>
<!-- Generator: Adobe Illustrator 16.0.0, SVG Export Plug-In . SVG Version: 6.00 Build 0)  -->
<!DOCTYPE svg PUBLIC "-//W3C//DTD SVG 1.1//EN" "http://www.w3.org/Graphics/SVG/1.1/DTD/svg11.dtd">
<svg version="1.1" id="Capa_1" xmlns="http://www.w3.org/2000/svg" xmlns:xlink="http://www.w3.org/1999/xlink" x="0px" y="0px"
	 width="93.547px" height="93.547px" viewBox="0 0 93.547 93.547" style="enable-background:new 0 0 93.547 93.547;"
	 xml:space="preserve">
<g>
	<path d="M52.258,51.732l-4.487,9.406h27.221c2.598,0,4.703,2.105,4.703,4.702c0,2.599-2.105,4.703-4.703,4.703H43.284l-2.991,6.271
		h34.699c2.598,0,4.703,2.105,4.703,4.703s-2.105,4.702-4.703,4.702H35.806l-2.217,4.647c-0.807,1.691-2.492,2.68-4.248,2.68
		c-0.679,0-1.368-0.146-2.021-0.46c-2.345-1.118-3.338-3.925-2.22-6.271l0.285-0.598h-6.827c-2.598,0-4.703-2.105-4.703-4.703
		c0-2.597,2.105-4.703,4.703-4.703h11.314l2.991-6.27H18.556c-2.598,0-4.703-2.105-4.703-4.703s2.105-4.703,4.703-4.703h18.793
		l4.487-9.406h-23.28c-2.598,0-4.703-2.104-4.703-4.701c0-2.599,2.105-4.704,4.703-4.704h27.767l3.084-6.466
		c1.119-2.345,3.926-3.338,6.271-2.22c2.344,1.118,3.338,3.926,2.219,6.27l-1.151,2.416h0.219c7.348,0,13.324-6.681,13.324-14.893
		v-4.702c0-7.846-5.479-13.325-13.324-13.325H18.557c-2.598,0-4.703-2.105-4.703-4.703C13.854,2.105,15.958,0,18.557,0h38.406
		c12.959,0,22.729,9.772,22.729,22.73v4.703c0,6.282-2.24,12.257-6.31,16.822c-4.296,4.821-10.128,7.478-16.421,7.478H52.258
		L52.258,51.732z"/>
</g>
<g>
</g>
<g>
</g>
<g>
</g>
<g>
</g>
<g>
</g>
<g>
</g>
<g>
</g>
<g>
</g>
<g>
</g>
<g>
</g>
<g>
</g>
<g>
</g>
<g>
</g>
<g>
</g>
<g>
</g>
</svg>
