<?xml version="1.0" encoding="iso-8859-1"?>
<!-- Generator: Adobe Illustrator 16.0.0, SVG Export Plug-In . SVG Version: 6.00 Build 0)  -->
<!DOCTYPE svg PUBLIC "-//W3C//DTD SVG 1.1//EN" "http://www.w3.org/Graphics/SVG/1.1/DTD/svg11.dtd">
<svg version="1.1" id="Capa_1" xmlns="http://www.w3.org/2000/svg" xmlns:xlink="http://www.w3.org/1999/xlink" x="0px" y="0px"
	 width="93.547px" height="93.547px" viewBox="0 0 93.547 93.547" style="enable-background:new 0 0 93.547 93.547;"
	 xml:space="preserve">
<g>
	<g>
		<path d="M23.836,73.402h20.991L42.64,77.99H23.836c-2.534,0-4.588,2.054-4.588,4.588c0,2.533,2.054,4.587,4.588,4.587h14.448
			c-0.957,2.247,0.005,4.87,2.231,5.935c0.638,0.305,1.31,0.447,1.973,0.447c1.712,0,3.356-0.964,4.144-2.613l1.796-3.769H71.24
			c2.535,0,4.588-2.054,4.588-4.587c0-2.534-2.053-4.588-4.588-4.588H52.805l2.188-4.588H71.24c2.534,0,4.588-2.055,4.588-4.588
			s-2.054-4.588-4.588-4.588H59.369l1.933-4.048c1.09-2.286,0.121-5.024-2.165-6.116c-2.291-1.093-5.025-0.119-6.116,2.166
			l-3.815,7.998H23.836c-2.534,0-4.588,2.055-4.588,4.588S21.303,73.402,23.836,73.402z"/>
		<path d="M52.892,41.289H22.307c-2.534,0-4.588,2.054-4.588,4.588c0,2.533,2.054,4.587,4.588,4.587h30.584
			c12.646,0,22.938-10.29,22.938-22.938v-4.588C75.828,10.29,65.539,0,52.891,0H22.307c-2.534,0-4.588,2.054-4.588,4.588
			s2.054,4.588,4.588,4.588h30.584c7.589,0,13.762,6.175,13.762,13.763v4.588C66.654,35.114,60.481,41.289,52.892,41.289z"/>
	</g>
</g>
<g>
</g>
<g>
</g>
<g>
</g>
<g>
</g>
<g>
</g>
<g>
</g>
<g>
</g>
<g>
</g>
<g>
</g>
<g>
</g>
<g>
</g>
<g>
</g>
<g>
</g>
<g>
</g>
<g>
</g>
</svg>
