<?xml version="1.0" encoding="iso-8859-1"?>
<!-- Generator: Adobe Illustrator 16.0.0, SVG Export Plug-In . SVG Version: 6.00 Build 0)  -->
<!DOCTYPE svg PUBLIC "-//W3C//DTD SVG 1.1//EN" "http://www.w3.org/Graphics/SVG/1.1/DTD/svg11.dtd">
<svg version="1.1" id="Capa_1" xmlns="http://www.w3.org/2000/svg" xmlns:xlink="http://www.w3.org/1999/xlink" x="0px" y="0px"
	 width="93.547px" height="93.547px" viewBox="0 0 93.547 93.547" style="enable-background:new 0 0 93.547 93.547;"
	 xml:space="preserve">
<g>
	<path d="M55.507,57.777h3.237c14.731,0,27.654-13.063,27.654-27.956v-5.469C86.398,10.47,74.51,0,58.744,0h-44.98
		c-2.736,0-4.953,2.217-4.953,4.952c0,2.735,2.217,4.953,4.953,4.953h44.981c8.82,0,17.749,4.962,17.749,14.448v5.469
		c0,9.447-8.46,18.051-17.749,18.051H13.764c-2.736,0-4.953,2.218-4.953,4.953c0,2.734,2.217,4.951,4.953,4.951h26.601
		L24.996,70.984H13.763c-2.735,0-4.952,2.217-4.952,4.953c0,2.645,2.078,4.784,4.688,4.926l-4.626,3.975
		c-2.075,1.783-2.311,4.91-0.528,6.982c0.979,1.141,2.366,1.727,3.759,1.727c1.143,0,2.292-0.395,3.226-1.197l13.337-11.459h51.13
		c2.734,0,4.951-2.218,4.951-4.953c0-2.734-2.217-4.953-4.951-4.953H40.193L55.259,58.04C55.352,57.96,55.42,57.863,55.507,57.777z"
		/>
</g>
<g>
</g>
<g>
</g>
<g>
</g>
<g>
</g>
<g>
</g>
<g>
</g>
<g>
</g>
<g>
</g>
<g>
</g>
<g>
</g>
<g>
</g>
<g>
</g>
<g>
</g>
<g>
</g>
<g>
</g>
</svg>
