<?xml version="1.0" encoding="UTF-8" standalone="no"?>
<!-- Generator: Adobe Illustrator 16.0.0, SVG Export Plug-In . SVG Version: 6.00 Build 0)  -->

<svg
   xmlns:dc="http://purl.org/dc/elements/1.1/"
   xmlns:cc="http://creativecommons.org/ns#"
   xmlns:rdf="http://www.w3.org/1999/02/22-rdf-syntax-ns#"
   xmlns:svg="http://www.w3.org/2000/svg"
   xmlns="http://www.w3.org/2000/svg"
   xmlns:sodipodi="http://sodipodi.sourceforge.net/DTD/sodipodi-0.dtd"
   xmlns:inkscape="http://www.inkscape.org/namespaces/inkscape"
   version="1.1"
   id="Capa_1"
   x="0px"
   y="0px"
   width="93.562px"
   height="93.562px"
   viewBox="0 0 93.562 93.562"
   style="enable-background:new 0 0 93.562 93.562;"
   xml:space="preserve"
   sodipodi:docname="timer-simbol.svg"
   inkscape:version="0.92.3 (2405546, 2018-03-11)"><metadata
   id="metadata4073"><rdf:RDF><cc:Work
       rdf:about=""><dc:format>image/svg+xml</dc:format><dc:type
         rdf:resource="http://purl.org/dc/dcmitype/StillImage" /></cc:Work></rdf:RDF></metadata><defs
   id="defs4071" /><sodipodi:namedview
   pagecolor="#ffffff"
   bordercolor="#666666"
   borderopacity="1"
   objecttolerance="10"
   gridtolerance="10"
   guidetolerance="10"
   inkscape:pageopacity="0"
   inkscape:pageshadow="2"
   inkscape:window-width="1853"
   inkscape:window-height="1025"
   id="namedview4069"
   showgrid="false"
   inkscape:zoom="5.0447833"
   inkscape:cx="40.738367"
   inkscape:cy="59.641491"
   inkscape:window-x="67"
   inkscape:window-y="27"
   inkscape:window-maximized="1"
   inkscape:current-layer="Capa_1" />

<g
   id="g4038">
</g>
<g
   id="g4040">
</g>
<g
   id="g4042">
</g>
<g
   id="g4044">
</g>
<g
   id="g4046">
</g>
<g
   id="g4048">
</g>
<g
   id="g4050">
</g>
<g
   id="g4052">
</g>
<g
   id="g4054">
</g>
<g
   id="g4056">
</g>
<g
   id="g4058">
</g>
<g
   id="g4060">
</g>
<g
   id="g4062">
</g>
<g
   id="g4064">
</g>
<g
   id="g4066">
</g>
<path
   style="fill:none;stroke:#000000;stroke-width:1px;stroke-linecap:butt;stroke-linejoin:miter;stroke-opacity:1"
   d="m 15.558419,13.38708 56.486873,66.999318 -56.627039,0.140166 c 0,0 57.6082,-67.419815 57.047537,-67.139483 -0.560664,0.280332 -56.907371,-1e-6 -56.907371,-1e-6 z"
   id="path4075"
   inkscape:connector-curvature="0"
   sodipodi:nodetypes="cccsc" /><path
   style="fill:none;stroke:#000000;stroke-width:1.00391221px;stroke-linecap:butt;stroke-linejoin:miter;stroke-opacity:1"
   d="M 28.872466,64.830022 52.00328,56.836478"
   id="path4077"
   inkscape:connector-curvature="0" /><path
   style="stroke-width:0.14016594"
   d="m 16.877137,79.729975 c 0.09875,-0.136549 2.898467,-3.429885 6.221587,-7.318524 l 6.042036,-7.070253 11.268457,-3.885299 c 6.197651,-2.136914 11.339071,-3.903005 11.425378,-3.924646 0.122776,-0.03079 19.023813,22.198333 18.929358,22.262424 -0.01304,0.0088 -12.183309,0.054 -27.04504,0.10033 -25.841055,0.08056 -27.013485,0.0734 -26.841776,-0.164032 z"
   id="path4079"
   inkscape:connector-curvature="0" /><path
   style="stroke-width:0.03504148"
   d=""
   id="path4081"
   inkscape:connector-curvature="0" /><path
   style="stroke-width:0.03646691"
   d="m 17.112875,80.578478 c -0.835039,-0.0263 -1.237647,-0.06077 -1.266705,-0.108449 -0.02344,-0.03847 2.047717,-2.514375 9.647078,-11.532257 l 3.016995,-3.580158 4.494537,-1.572066 c 6.918735,-2.419982 16.800419,-5.869774 17.922411,-6.256886 0.852834,-0.294248 1.016583,-0.34031 1.065415,-0.299701 0.348941,0.290175 13.059766,15.402651 17.770613,21.128285 1.525384,1.853979 1.698937,2.07139 1.673839,2.096845 -0.02092,0.02122 -9.950594,0.06487 -28.307026,0.124455 -12.43813,0.04037 -24.733816,0.04034 -26.017157,-7.3e-5 z"
   id="path4083"
   inkscape:connector-curvature="0" /><path
   style="fill:none;stroke:#000000;stroke-width:1px;stroke-linecap:butt;stroke-linejoin:miter;stroke-opacity:1"
   d="M 35.742314,37.355456 54.664715,34.131639"
   id="path4085"
   inkscape:connector-curvature="0" /><path
   style="stroke-width:0.15037304"
   d="m 40.164921,42.235433 c -3.025041,-3.66024 -3.69246,-4.547055 -3.485987,-4.63191 0.37288,-0.153248 17.181117,-3.034151 17.25612,-2.957671 0.0519,0.05292 -8.913973,10.916077 -9.773127,11.841243 -0.244249,0.263014 -0.422594,0.0733 -3.997006,-4.251662 z"
   id="path4087"
   inkscape:connector-curvature="0" /></svg>