<?xml version="1.0" encoding="iso-8859-1"?>
<!-- Generator: Adobe Illustrator 16.0.0, SVG Export Plug-In . SVG Version: 6.00 Build 0)  -->
<!DOCTYPE svg PUBLIC "-//W3C//DTD SVG 1.1//EN" "http://www.w3.org/Graphics/SVG/1.1/DTD/svg11.dtd">
<svg version="1.1" id="Capa_1" xmlns="http://www.w3.org/2000/svg" xmlns:xlink="http://www.w3.org/1999/xlink" x="0px" y="0px"
	 width="138.857px" height="138.857px" viewBox="0 0 138.857 138.857" style="enable-background:new 0 0 138.857 138.857;"
	 xml:space="preserve">
<g>
	<g>
		<path d="M137.773,136.131c1.128-1.699,1.327-3.855,0.534-5.734L84.716,3.72C83.761,1.464,81.551,0,79.105,0h-58.32H20.64
			c-0.228,0-0.441,0.037-0.663,0.061c-0.14,0.015-0.283,0.015-0.419,0.039c-0.375,0.068-0.748,0.173-1.116,0.314
			c-0.013,0.005-0.027,0.005-0.039,0.01c-0.083,0.031-0.151,0.083-0.231,0.119c-0.263,0.117-0.519,0.241-0.758,0.39
			c-0.131,0.083-0.25,0.18-0.375,0.271c-0.18,0.134-0.357,0.268-0.521,0.419c-0.119,0.11-0.229,0.231-0.342,0.351
			c-0.146,0.158-0.284,0.321-0.414,0.494c-0.095,0.127-0.183,0.261-0.268,0.397c-0.112,0.18-0.217,0.37-0.312,0.565
			c-0.07,0.146-0.137,0.292-0.195,0.443c-0.075,0.195-0.136,0.395-0.195,0.597c-0.046,0.17-0.092,0.341-0.126,0.519
			c-0.012,0.068-0.039,0.134-0.049,0.207l-14.48,97.444c-0.399,2.689,1.03,5.318,3.506,6.441l64.417,29.232
			c0.158,0.072,0.329,0.104,0.491,0.162c0.146,0.053,0.292,0.106,0.443,0.146c0.497,0.136,1.009,0.226,1.532,0.229
			c0.017,0,0.032,0.006,0.049,0.006c0.007,0,0.017,0,0.024,0h62.094C134.738,138.857,136.646,137.834,137.773,136.131z
			 M12.858,99.887l10.46-70.391l36.074,91.508L12.858,99.887z M74.727,126.678L29.589,12.181h45.482L123.51,126.68H74.727V126.678z"
			/>
	</g>
</g>
<g>
</g>
<g>
</g>
<g>
</g>
<g>
</g>
<g>
</g>
<g>
</g>
<g>
</g>
<g>
</g>
<g>
</g>
<g>
</g>
<g>
</g>
<g>
</g>
<g>
</g>
<g>
</g>
<g>
</g>
</svg>
