<?xml version="1.0" encoding="iso-8859-1"?>
<!-- Generator: Adobe Illustrator 16.0.0, SVG Export Plug-In . SVG Version: 6.00 Build 0)  -->
<!DOCTYPE svg PUBLIC "-//W3C//DTD SVG 1.1//EN" "http://www.w3.org/Graphics/SVG/1.1/DTD/svg11.dtd">
<svg version="1.1" id="Capa_1" xmlns="http://www.w3.org/2000/svg" xmlns:xlink="http://www.w3.org/1999/xlink" x="0px" y="0px"
	 width="150.628px" height="150.628px" viewBox="0 0 150.628 150.628" style="enable-background:new 0 0 150.628 150.628;"
	 xml:space="preserve">
<g>
	<g>
		<path d="M9.492,129.48l24.096,19.767c0.012,0.01,0.024,0.016,0.036,0.024c0.11,0.088,0.231,0.155,0.346,0.236
			c0.195,0.137,0.39,0.271,0.602,0.387c0.129,0.068,0.263,0.123,0.395,0.18c0.219,0.099,0.443,0.191,0.677,0.265
			c0.063,0.021,0.12,0.054,0.183,0.069c0.061,0.019,0.122,0.011,0.185,0.025c0.468,0.113,0.936,0.188,1.401,0.189
			c0.014,0,0.026,0.005,0.041,0.005c0.436,0,0.86-0.063,1.277-0.153c0.049-0.01,0.097-0.005,0.146-0.018l99.824-24.096
			c1.846-0.447,3.376-1.726,4.143-3.459c0.768-1.734,0.682-3.728-0.231-5.392L79.89,3.162C78.806,1.186,76.725,0.032,74.471,0
			c-2.251,0.029-4.302,1.299-5.335,3.299L7.941,121.982C6.625,124.535,7.271,127.66,9.492,129.48z M121.063,114.49
			c-1.308-0.325-2.631,0.459-2.959,1.765c-0.229,0.899,0.102,1.789,0.74,2.376l-72.77,17.562l4.928-17.838l3.145-0.746
			c1.311-0.31,2.119-1.623,1.81-2.932c-0.31-1.311-1.642-2.123-2.933-1.807L52.482,113l22.885-82.837l0.47,5.165
			c0.114,1.264,1.177,2.214,2.424,2.214c0.073,0,0.148-0.002,0.222-0.01c1.34-0.122,2.329-1.306,2.207-2.648l-0.535-5.913
			l47.876,87.288L121.063,114.49z M55.506,56.315L38.09,119.355c-0.007-0.147,0.019-0.291-0.015-0.439
			c-0.312-1.312-1.637-2.122-2.933-1.809l-8.94,2.119c-1.311,0.311-2.12,1.623-1.81,2.932c0.266,1.119,1.267,1.875,2.368,1.875
			c0.188,0,0.375-0.021,0.563-0.065l8.94-2.118c0.599-0.142,1.074-0.51,1.405-0.978l-3.598,13.022l-13.05-10.705L55.506,56.315z"/>
		<path d="M70.907,108.632l-8.94,2.12c-1.311,0.309-2.12,1.622-1.81,2.93c0.266,1.121,1.267,1.877,2.368,1.877
			c0.188,0,0.375-0.021,0.563-0.066l8.94-2.118c1.311-0.31,2.12-1.623,1.81-2.933C73.53,109.13,72.205,108.316,70.907,108.632z"/>
		<path d="M82.034,103.475l0.225,2.465l-2.408,0.573c-1.312,0.31-2.119,1.622-1.812,2.931c0.267,1.121,1.269,1.875,2.368,1.875
			c0.188,0,0.375-0.021,0.562-0.063l3.881-0.922l8.321,2.112c0.202,0.052,0.403,0.072,0.602,0.072c1.087,0,2.081-0.732,2.358-1.836
			c0.331-1.305-0.458-2.629-1.762-2.963l-7.226-1.834l-0.259-2.854c-0.121-1.338-1.309-2.318-2.646-2.205
			C82.9,100.947,81.912,102.133,82.034,103.475z"/>
		<path d="M78.494,64.532l0.886,9.735c0.114,1.264,1.177,2.213,2.424,2.213c0.073,0,0.147-0.002,0.222-0.01
			c1.34-0.121,2.329-1.306,2.208-2.648l-0.885-9.735c-0.122-1.337-1.304-2.326-2.646-2.205C79.36,62.005,78.373,63.19,78.494,64.532
			z"/>
		<path d="M76.725,45.06l0.884,9.737c0.115,1.264,1.178,2.214,2.424,2.214c0.074,0,0.149-0.002,0.224-0.01
			c1.34-0.122,2.327-1.306,2.207-2.648l-0.886-9.737c-0.121-1.337-1.301-2.319-2.646-2.205
			C77.589,42.534,76.603,43.718,76.725,45.06z"/>
		<path d="M80.265,84.004l0.884,9.734c0.114,1.265,1.177,2.215,2.424,2.215c0.073,0,0.149-0.004,0.223-0.01
			c1.34-0.123,2.328-1.307,2.207-2.647l-0.885-9.735c-0.122-1.336-1.306-2.332-2.646-2.203
			C81.132,81.477,80.143,82.664,80.265,84.004z"/>
		<path d="M102.069,114.701l8.896,2.259c0.203,0.051,0.403,0.071,0.603,0.071c1.089,0,2.08-0.731,2.36-1.836
			c0.332-1.303-0.458-2.629-1.763-2.963l-8.896-2.258c-1.306-0.326-2.631,0.457-2.959,1.764
			C99.979,113.042,100.767,114.367,102.069,114.701z"/>
	</g>
</g>
<g>
</g>
<g>
</g>
<g>
</g>
<g>
</g>
<g>
</g>
<g>
</g>
<g>
</g>
<g>
</g>
<g>
</g>
<g>
</g>
<g>
</g>
<g>
</g>
<g>
</g>
<g>
</g>
<g>
</g>
</svg>
