<?xml version="1.0" encoding="iso-8859-1"?>
<!-- Generator: Adobe Illustrator 16.0.0, SVG Export Plug-In . SVG Version: 6.00 Build 0)  -->
<!DOCTYPE svg PUBLIC "-//W3C//DTD SVG 1.1//EN" "http://www.w3.org/Graphics/SVG/1.1/DTD/svg11.dtd">
<svg version="1.1" id="Capa_1" xmlns="http://www.w3.org/2000/svg" xmlns:xlink="http://www.w3.org/1999/xlink" x="0px" y="0px"
	 width="109.141px" height="109.141px" viewBox="0 0 109.141 109.141" style="enable-background:new 0 0 109.141 109.141;"
	 xml:space="preserve">
<g>
	<g>
		<path d="M107.507,77.888L23.322,9.216c-1.348-1.101-3.19-1.32-4.758-0.578c-1.568,0.743-2.558,2.311-2.558,4.043v68.068
			c0,2.447,1.98,4.62,4.455,4.62l84.186,0.742h0.026c1.897,0,3.575-1.349,4.208-3.107C109.514,81.244,108.964,79.098,107.507,77.888
			z M24.972,76.321v-54.18l67.023,54.675L24.972,76.321z"/>
		<g>
			<path d="M0,46.866c0-0.908,0.743-1.623,1.623-1.623s1.623,0.743,1.623,1.623v4.317c0.798-1.072,1.897-1.87,3.575-1.87
				c2.695,0,5.253,2.118,5.253,5.939v0.056c0,3.851-2.502,5.94-5.253,5.94c-1.732,0-2.805-0.798-3.575-1.733v0.028
				c0,0.88-0.743,1.622-1.623,1.622C0.715,61.166,0,60.424,0,59.544V46.866z M8.829,55.309v-0.027c0-1.897-1.292-3.189-2.805-3.189
				c-1.513,0-2.805,1.265-2.805,3.189v0.056c0,1.897,1.265,3.19,2.805,3.19C7.536,58.499,8.829,57.261,8.829,55.309z"/>
		</g>
		<g>
			<path d="M69.637,29.87c0-0.908,0.741-1.623,1.623-1.623c0.879,0,1.621,0.742,1.621,1.623v4.29
				c0.743-0.963,1.705-1.843,3.383-1.843c2.477,0,3.905,1.623,3.905,4.263v5.94c0,0.908-0.741,1.623-1.622,1.623
				s-1.623-0.743-1.623-1.623v-4.923c0-1.54-0.742-2.338-1.98-2.338c-1.236,0-2.034,0.798-2.034,2.338v4.923
				c0,0.908-0.742,1.623-1.622,1.623s-1.623-0.743-1.623-1.623V29.87H69.637z"/>
		</g>
		<g>
			<path d="M52.612,97.387V97.36c0-2.503,1.897-3.687,4.648-3.687c1.155,0,2.008,0.192,2.807,0.468V93.95
				c0-1.348-0.825-2.118-2.477-2.118c-0.906,0-1.623,0.138-2.255,0.33c-0.192,0.055-0.331,0.083-0.468,0.083
				c-0.742,0-1.348-0.578-1.348-1.32c0-0.578,0.358-1.072,0.88-1.266c1.018-0.385,2.146-0.604,3.686-0.604
				c1.787,0,3.08,0.469,3.878,1.292c0.854,0.854,1.237,2.118,1.237,3.687v5.253c0,0.88-0.716,1.567-1.595,1.567
				c-0.937,0-1.568-0.66-1.568-1.349v-0.026c-0.797,0.88-1.896,1.458-3.492,1.458C54.4,100.908,52.612,99.642,52.612,97.387z
				 M60.094,96.617V96.04c-0.552-0.247-1.294-0.44-2.092-0.44c-1.402,0-2.255,0.552-2.255,1.597v0.055
				c0,0.88,0.742,1.402,1.788,1.402C59.076,98.652,60.094,97.8,60.094,96.617z"/>
		</g>
	</g>
</g>
<g>
</g>
<g>
</g>
<g>
</g>
<g>
</g>
<g>
</g>
<g>
</g>
<g>
</g>
<g>
</g>
<g>
</g>
<g>
</g>
<g>
</g>
<g>
</g>
<g>
</g>
<g>
</g>
<g>
</g>
</svg>
