<?xml version="1.0" encoding="UTF-8"?>
<svg width="752pt" height="752pt" version="1.1" viewBox="0 0 752 752" xmlns="http://www.w3.org/2000/svg">
 <path d="m193.1 256.81c0-2.7031 2.1992-4.8984 4.9023-4.8984 26.977 0 36.48-22.383 45.68-44.02 7.7852-18.324 15.832-37.266 35.152-37.266 20.926 0 27.906 29.723 35.285 61.191 7.2891 31.059 14.828 63.168 34.117 63.168 19.473 0 31.457-18.617 44.133-38.328 13.363-20.781 27.188-42.262 51.398-42.262 23.734 0 37.199 20.977 50.223 41.258 13.223 20.586 25.707 40.027 47.758 40.027 2.707 0 4.9023 2.1914 4.9023 4.9023 0 2.707-2.1914 4.9023-4.9023 4.9023-27.406 0-42.598-23.656-55.996-44.527-12.137-18.906-23.598-36.758-41.984-36.758-18.859 0-30.664 18.34-43.156 37.762-13.539 21.055-27.543 42.824-52.375 42.824-27.055 0-35.496-35.953-43.656-70.73-6.1914-26.367-12.586-53.633-25.754-53.633-11.977 0-17.863 11.824-26.137 31.293-9.4688 22.273-21.234 49.992-54.699 49.992-2.6953 0-4.8906-2.1953-4.8906-4.8984zm155.14 78.125c-4.0586 0-7.3516 3.293-7.3516 7.3516v37.043h-14.512l21.984 38.07 21.988-38.07h-14.758v-37.043c-0.003906-4.0586-3.293-7.3516-7.3516-7.3516zm-180.45-18.195v-145.93h-4.8945v150.82h426.22v-4.9023zm338.04 257.6v-132.76c0-2.707-2.1914-4.9023-4.9023-4.9023-2.7031 0-4.8984 2.1914-4.8984 4.9023v132.75c0 0.77734 0.21875 1.4805 0.53516 2.1367h-63.945c0.31641-0.65234 0.53516-1.3594 0.53516-2.1367v-43.395c0-2.707-2.1914-4.9023-4.8984-4.9023-2.707 0-4.9023 2.1914-4.9023 4.9023v43.395c0 0.77734 0.21875 1.4805 0.53516 2.1367h-71.285c0.31641-0.65234 0.53516-1.3594 0.53516-2.1367v-75.477c0-2.7031-2.1914-4.8984-4.8984-4.8984-2.7031 0-4.8984 2.1914-4.8984 4.8984v75.48c0 0.77734 0.21875 1.4805 0.53516 2.1367l-91.707-0.003907c0.32031-0.65234 0.53906-1.3594 0.53906-2.1367l0.003907-132.75c0-2.707-2.1992-4.9023-4.9023-4.9023s-4.8984 2.1914-4.8984 4.9023v132.75c0 0.77734 0.21875 1.4805 0.53906 2.1367h-75.664v-139.47h-4.8945v144.37h426.22v-4.8984h-83.82c0.31641-0.65234 0.53516-1.3594 0.53516-2.1328z"/>
</svg>
