<?xml version="1.0" encoding="utf-8"?>
<!-- Svg Vector Icons : http://www.onlinewebfonts.com/icon -->
<!DOCTYPE svg PUBLIC "-//W3C//DTD SVG 1.1//EN" "http://www.w3.org/Graphics/SVG/1.1/DTD/svg11.dtd">
<svg version="1.1" xmlns="http://www.w3.org/2000/svg" xmlns:xlink="http://www.w3.org/1999/xlink" x="0px" y="0px" viewBox="0 0 1000 1000" enable-background="new 0 0 1000 1000" xml:space="preserve">
<metadata> Svg Vector Icons : http://www.onlinewebfonts.com/icon </metadata>
<g><g transform="translate(0.000000,511.000000) scale(0.100000,-0.100000)"><path d="M406.4,1417.4c-94.3-33.4-212.1-139.4-263.2-233.7c-39.3-76.6-43.2-108-43.2-426.2c0-316.2,3.9-349.6,43.2-424.2c47.1-86.4,157.1-192.5,239.6-229.8C420.1,85.9,989.7,78,2584.4,70.2l2150.5-9.8V-57.5v-117.8l-108-11.8c-149.3-17.7-1076.2-475.3-1091.9-542c-13.7-51.1,100.2-410.5,145.3-461.5c27.5-33.4,115.9-35.4,1319.8-35.4c1203.9,0,1292.3,2,1319.8,35.4c17.7,17.7,60.9,123.7,96.2,235.7c49.1,149.3,60.9,210.1,45.2,235.7c-9.8,17.7-235.7,143.4-498.8,276.9c-384.9,194.4-502.8,245.5-589.2,255.3l-108,11.8v117.8V60.4l2150.5,9.8c1594.7,7.9,2164.3,15.7,2201.6,33.4c82.5,37.3,192.5,143.4,239.6,229.8c39.3,74.6,43.2,108,43.2,424.2c0,318.2-3.9,349.6-43.2,424.2c-55,104.1-178.7,210.1-278.9,239.6C9466,1456.7,500.6,1452.8,406.4,1417.4z M2943.8,1079.6c88.4-45.2,129.6-86.4,172.8-168.9c115.9-225.8-58.9-506.7-316.2-506.7s-432.1,280.8-316.2,506.7C2572.6,1085.5,2780.8,1162.1,2943.8,1079.6z M4711.3,1079.6c88.4-45.2,129.6-86.4,172.8-168.9c115.9-225.8-58.9-506.7-316.2-506.7c-257.3,0-432.1,280.8-316.2,506.7C4340.1,1085.5,4548.3,1162.1,4711.3,1079.6z M5656,1044.3c139.4-106,186.6-292.6,111.9-439.9c-123.7-241.6-437.9-269.1-602.9-51.1c-100.2,131.6-78.6,353.5,43.2,461.5C5337.8,1128.7,5530.3,1140.5,5656,1044.3z"/></g></g>
</svg>