<?xml version="1.0" encoding="UTF-8" standalone="no"?>
<!-- Created with Inkscape (http://www.inkscape.org/) -->

<svg
   width="50mm"
   height="50mm"
   viewBox="0 0 50 50"
   version="1.1"
   id="svg5"
   inkscape:version="1.1.1 (3bf5ae0d25, 2021-09-20)"
   sodipodi:docname="block_yolo.svg"
   xmlns:inkscape="http://www.inkscape.org/namespaces/inkscape"
   xmlns:sodipodi="http://sodipodi.sourceforge.net/DTD/sodipodi-0.dtd"
   xmlns="http://www.w3.org/2000/svg"
   xmlns:svg="http://www.w3.org/2000/svg">
  <sodipodi:namedview
     id="namedview7"
     pagecolor="#ffffff"
     bordercolor="#666666"
     borderopacity="1.0"
     inkscape:pageshadow="2"
     inkscape:pageopacity="0.0"
     inkscape:pagecheckerboard="0"
     inkscape:document-units="mm"
     showgrid="false"
     width="50mm"
     inkscape:zoom="4.1524866"
     inkscape:cx="65.262101"
     inkscape:cy="135.22018"
     inkscape:window-width="1920"
     inkscape:window-height="1009"
     inkscape:window-x="1912"
     inkscape:window-y="-8"
     inkscape:window-maximized="1"
     inkscape:current-layer="layer1" />
  <defs
     id="defs2" />
  <g
     inkscape:label="Layer 1"
     inkscape:groupmode="layer"
     id="layer1">
    <ellipse
       style="fill:#ffffff;stroke-width:0.264583"
       id="path1278"
       cx="24.849569"
       cy="24.913284"
       rx="24.977001"
       ry="24.913284" />
    <g
       id="g9557"
       transform="matrix(0.31771075,0,0,0.31771075,16.445896,16.055445)">
      <path
         style="fill:#fcfcfc;stroke-width:0.0846667"
         d="M -31.367796,26.506207 V -3.5504587 H 25.231869 81.831534 V 26.506207 56.562872 H 25.231869 -31.367796 Z"
         id="path9563" />
      <path
         style="fill:#00f4f4;stroke-width:0.0846667"
         d="m -17.298204,56.472279 c -1.228456,-0.241751 -2.745067,-1.451729 -3.154858,-2.517002 -0.300589,-0.781399 -0.314998,-1.697506 -0.04168,-2.650326 0.408105,-1.422723 0.885536,-2.027571 2.18814,-2.772107 0.962437,-0.550106 1.733487,-1.168593 2.350321,-1.885281 1.363821,-1.584598 2.309502,-3.500673 2.628005,-5.32469 0.137924,-0.78987 0.140711,-2.401888 0.0054,-3.132667 -0.480019,-2.592751 -1.667638,-5.338382 -4.541185,-10.498666 -4.251566,-7.634914 -5.342062,-9.569511 -5.688365,-10.091453 -0.755495,-1.13867 -2.760157,-2.842279 -5.063718,-4.303266 -1.654206,-1.049146 -2.027293,-1.460824 -2.462224,-2.716909 -0.476603,-1.3764368 -0.330666,-2.5890328 0.437113,-3.6319864 0.929551,-1.2627059 1.732654,-1.7596374 3.035745,-1.8784103 1.121202,-0.1021952 18.1255294,-0.3020838 18.674365,-0.2195209 0.730874,0.1099478 1.4131933,0.4929459 2.1458182,1.2044871 1.1298529,1.0973358 1.5355586,2.3091173 1.2063086,3.6030593 -0.1351034,0.5309542 -0.306219,0.8620032 -1.2072476,2.3356042 -0.5038132,0.82397 -0.7724546,1.600607 -0.9000921,2.602151 -0.080808,0.634075 -0.073388,0.852562 0.049167,1.447951 0.1682292,0.817286 0.4685216,1.590645 0.6023694,1.551318 0.1229504,-0.03612 1.2472229,-2.230372 1.9627435,-3.830691 0.7422743,-1.660156 1.255328,-3.054503 1.4330544,-3.8946666 0.1399921,-0.6617825 0.1392267,-0.688025 -0.033349,-1.1429999 C -4.0236952,7.7999457 -5.4368275,6.1895248 -6.971465,4.9665089 -7.6191862,4.4503135 -8.5119885,3.3712153 -8.861981,2.6815096 -9.185544,2.0438885 -9.2458986,1.4745269 -9.0648432,0.76779894 c 0.1796042,-0.70106376 0.476432,-1.2038255 1.0314195,-1.74699711 0.5594197,-0.54751083 2.0002194,-1.33309653 2.7006269,-1.47249793 0.7532878,-0.1499262 20.5357088,0.519311 21.1793038,0.7164935 0.52781,0.1617088 1.372566,0.7103677 1.898241,1.23288289 0.771973,0.76733592 1.121575,2.01053171 0.936946,3.33182151 -0.053,0.3793382 -0.09633,0.731808 -0.09627,0.7832662 7.3e-5,0.062801 0.48027,0.1095463 1.460609,0.1421849 0.803275,0.026743 1.82245,0.1125306 2.264833,0.1906379 2.591318,0.4575235 5.167262,1.6914764 7.305373,3.499489 l 0.814158,0.688461 h 0.845904 c 0.465248,0 0.868755,-0.036973 0.896684,-0.082162 C 32.200916,8.0061895 32.066359,7.6537645 31.873972,7.268212 31.193744,5.9050042 30.441173,5.0544531 29.345091,4.4100848 28.541954,3.9379339 27.39671,2.6829601 26.825,1.6485337 26.526252,1.1079924 26.501869,1.0127634 26.501869,0.38654115 c 0,-0.58780949 0.03618,-0.75371145 0.273701,-1.25520716 0.366133,-0.77302869 1.108155,-1.49919469 2.070934,-2.02668109 1.381928,-0.7571297 0.297071,-0.7284574 12.895365,-0.3408181 12.248853,0.3768873 11.454196,0.3167191 12.392439,0.9383023 0.505443,0.3348552 0.882091,0.8050088 1.298939,1.62140842 l 0.278621,0.54567097 V 1.2285454 c 0,1.1956253 -0.02394,1.4332555 -0.198755,1.9731853 -0.350012,1.0810215 -1.146971,1.7910664 -2.536114,2.2595423 -1.021115,0.3443605 -1.688573,0.6787184 -2.355154,1.1797969 -0.556136,0.4180544 -1.330866,1.2931021 -1.254401,1.4168272 0.02571,0.041604 1.077628,0.075644 2.337589,0.075644 h 2.290837 l 0.56167,-0.4951179 c 6.284442,-5.5398544 15.23182,-5.1363037 21.304994,0.9609116 3.126308,3.1386852 5.078247,7.2044662 5.812544,12.1072052 0.181365,1.210962 0.155093,5.237618 -0.04254,6.519333 -0.197138,1.278507 -0.709066,3.311447 -1.110056,4.408184 -0.436855,1.194827 -1.54708,3.402927 -2.210867,4.397149 -2.705134,4.051744 -6.512755,6.714875 -10.841363,7.582674 -1.161923,0.232941 -3.472891,0.316368 -4.652086,0.167941 -0.447057,-0.05627 -0.83185,-0.08329 -0.8551,-0.06004 -0.02325,0.02325 0.0049,1.509176 0.06257,3.302061 0.09759,3.034405 0.09454,3.302713 -0.04404,3.880577 -0.335229,1.397815 -0.988635,2.160447 -2.50206,2.920321 l -0.973667,0.488867 -3.767667,0.05773 c -4.723,0.07237 -10.134084,0.368819 -19.327469,1.058869 -1.664435,0.124932 -1.88682,0.125756 -2.285999,0.0085 -0.243209,-0.07146 -0.629049,-0.178197 -0.857424,-0.237193 -0.548431,-0.141676 -1.758226,-0.948009 -2.319384,-1.545877 -0.567118,-0.604218 -0.936591,-1.378127 -1.000864,-2.096435 -0.0453,-0.506306 -0.02798,-0.580965 0.263222,-1.134634 0.171444,-0.325966 0.40821,-0.783166 0.526146,-1.016 0.117937,-0.232833 0.456594,-0.787423 0.752574,-1.23242 1.231583,-1.851659 2.705949,-5.501393 3.174833,-7.859174 0.140885,-0.708443 0.188379,-1.340825 0.223997,-2.98252 0.03172,-1.462184 0.01758,-2.100517 -0.04742,-2.140693 -0.05534,-0.0342 -0.30928,0.276185 -0.630868,0.771114 -2.467663,3.797772 -6.040679,6.456882 -10.036764,7.469564 -1.923785,0.487522 -4.581905,0.561232 -6.48196,0.179743 -2.473101,-0.496569 -4.867938,-1.63421 -6.9106192,-3.28284 C 8.9515177,39.662516 7.3297997,37.984886 6.7014841,37.146476 4.7864088,34.591047 3.4238648,31.467105 2.7530119,28.093707 2.6997642,27.825948 2.6268789,27.606873 2.5910454,27.606873 c -0.035833,0 -0.548778,1.033415 -1.1398757,2.296477 l -1.07472397,2.296477 0.0240453,4.371023 0.0240453,4.371023 0.22825201,0.487057 c 0.2713973,0.579124 0.93895416,1.311303 1.61521046,1.771571 0.2688378,0.182974 1.0026379,0.580341 1.6306681,0.883038 1.4332932,0.690815 1.8865206,1.100423 2.4066677,2.175047 0.8146271,1.683017 0.6455901,2.974854 -0.5797389,4.430544 -0.6042084,0.7178 -1.1271317,1.082331 -1.8709072,1.304211 -0.551782,0.164606 -18.9867895,4.305963 -19.9345345,4.478221 -0.565488,0.10278 -0.699323,0.102859 -1.218358,6.77e-4 z M 49.708998,38.542614 c 0.407948,-0.296827 1.369494,-1.318645 1.490239,-1.583651 0.07691,-0.168794 0.02888,-0.286375 -0.350457,-0.858011 -0.625678,-0.942854 -1.798382,-3.363082 -2.208099,-4.557079 -0.191751,-0.5588 -0.496128,-1.6201 -0.676393,-2.358445 -0.180264,-0.738345 -0.349129,-1.36382 -0.375253,-1.389944 -0.02613,-0.02612 -0.0475,0.09243 -0.0475,0.263447 0,0.717491 0.428236,10.521285 0.463806,10.618109 0.02661,0.07243 0.249517,0.105833 0.706167,0.105833 0.59893,0 0.701114,-0.02461 0.99749,-0.240259 z M 47.471246,21.096123 c 0.01827,-0.243379 -0.0087,-0.385169 -0.07788,-0.409222 -0.07671,-0.02668 -0.105833,0.09794 -0.105833,0.452851 0,0.566543 0.140412,0.533198 0.183711,-0.04363 z M 12.65634,21.427561 c 0.245612,-0.131448 0.593741,-0.764878 1.396711,-2.541354 1.222047,-2.703633 1.634216,-3.350426 3.34514,-5.249333 1.209274,-1.342142 1.627709,-1.963444 1.593475,-2.366034 -0.04843,-0.569501 -0.805114,-0.833932 -2.141014,-0.7482 -1.588202,0.101925 -3.635219,1.767832 -4.779891,3.88998 -0.677896,1.256776 -0.935892,2.336256 -0.935892,3.915873 0,0.868222 0.03258,1.131838 0.201109,1.627339 0.452942,1.331704 0.819195,1.739945 1.320362,1.471729 z M 56.91416,20.89704 c 0.299229,-0.314449 0.550875,-0.798045 1.337615,-2.570569 1.043347,-2.350647 1.494756,-3.057426 3.136747,-4.911238 1.340384,-1.513292 1.646428,-1.939896 1.705009,-2.376621 0.03959,-0.295158 0.01588,-0.361269 -0.186715,-0.520627 -0.541951,-0.426305 -1.905864,-0.514699 -2.792281,-0.180965 -1.728453,0.650759 -3.551631,2.576389 -4.35566,4.600431 -0.350325,0.881887 -0.512674,1.849085 -0.512674,3.05428 0,0.866218 0.03266,1.130167 0.201109,1.625434 0.508762,1.495831 0.919946,1.854601 1.46685,1.279875 z"
         id="path9561" />
      <path
         style="fill:#010505;stroke-width:0.0846667"
         d="m -17.805574,56.31722 c -0.247561,-0.0855 -0.711269,-0.333901 -1.030464,-0.551997 -1.606301,-1.097537 -2.160708,-2.496055 -1.699494,-4.287055 0.101264,-0.39323 0.275118,-0.915088 0.386344,-1.159686 0.272717,-0.599737 0.948803,-1.294292 1.589494,-1.632917 1.813496,-0.95849 3.27,-2.501371 4.295482,-4.55022 1.369461,-2.736099 1.42011,-5.240628 0.176482,-8.726914 -0.791874,-2.219876 -1.439209,-3.519103 -4.446064,-8.923431 -5.186148,-9.321249 -4.938878,-8.902908 -5.80396,-9.819342 -0.979528,-1.037673 -2.053982,-1.903817 -3.726534,-3.004053 -2.290701,-1.506863 -2.507469,-1.72504 -2.968782,-2.988064 -0.589521,-1.6140423 -0.389124,-2.7991504 0.692142,-4.0931805 0.528532,-0.6325319 0.921245,-0.9511935 1.507623,-1.2233384 0.640629,-0.2973231 1.263321,-0.3218951 11.352318,-0.4479739 l 8.5104752,-0.1063521 0.5234533,0.1767728 c 1.3916473,0.4699668 2.6580405,1.9003864 2.9174575,3.295334 0.1829612,0.983825 -0.073127,1.8607051 -0.9107128,3.1184041 -0.9221216,1.384637 -1.259917,2.40915 -1.2562077,3.81 0.00215,0.810493 0.03504,1.024604 0.2535157,1.650178 0.1518242,0.434727 0.3024217,0.728739 0.3810253,0.743876 0.093945,0.01809 0.41391,-0.556719 1.1542082,-2.073511 1.4341703,-2.938466 2.2383089,-5.002269 2.361189,-6.0599409 C -3.500821,9.0699186 -3.5275875,8.9607824 -3.7958809,8.4473367 -4.3140629,7.4556674 -5.431784,6.2155835 -6.8567967,5.0513289 -7.968575,4.1429899 -8.906823,2.8612258 -9.1126452,1.9695569 c -0.07803,-0.3380443 -0.079168,-0.5647961 -0.00484,-0.9644711 0.2206896,-1.18669564 0.9684469,-2.0984864 2.3312052,-2.8425927 1.4212916,-0.7760678 0.409989,-0.7457016 12.0037382,-0.3604342 8.1168098,0.2697266 10.2866578,0.3651612 10.6316108,0.4676013 0.952459,0.2828497 2.08811,1.2515327 2.509082,2.14018418 0.261746,0.55252982 0.269721,0.60315702 0.269721,1.71236332 0,0.62865 -0.01905,1.23825 -0.04233,1.3546667 l -0.04233,0.2116666 1.397728,0.055467 c 1.517727,0.060229 2.561292,0.2100968 3.802335,0.5460598 2.126471,0.5756576 4.19127,1.7048882 6.01827,3.2913696 l 0.635,0.5514043 0.862836,3.387e-4 c 0.47456,1.693e-4 0.885306,-0.036005 0.912767,-0.08044 C 32.244313,7.9359593 31.776396,6.9455456 31.336268,6.2834972 30.849976,5.5520103 30.131345,4.8714997 29.366571,4.4182862 28.502596,3.9062845 27.269746,2.533589 26.773511,1.5310882 26.538755,1.0568304 26.502164,0.89503609 26.504037,0.33957096 c 0.0044,-1.30266139 0.810092,-2.37738486 2.434782,-3.24776546 0.643541,-0.344758 1.068285,-0.5138769 1.439334,-0.5730939 0.810247,-0.1293104 22.327,0.5514002 22.801948,0.7213695 0.941075,0.3367807 1.473408,0.7741591 2.012109,1.6531878 0.447158,0.72965201 0.559799,1.2185484 0.560984,2.4349539 8.47e-4,0.8746151 -0.03117,1.1249084 -0.216577,1.6929192 -0.264355,0.8098172 -0.433748,1.0941473 -0.917558,1.5401063 -0.444382,0.4096167 -0.862838,0.6323976 -1.731047,0.9215918 -0.849508,0.2829653 -1.527091,0.621378 -2.186996,1.0922762 -0.567768,0.4051511 -1.41761,1.3467926 -1.33546,1.479715 0.02802,0.045342 1.017242,0.078698 2.333877,0.078698 h 2.285235 l 0.812377,-0.6869539 c 2.272758,-1.9218715 4.804444,-3.09344 7.688156,-3.557786 1.081956,-0.1742212 3.528306,-0.1311102 4.718448,0.083151 7.36147,1.32529 13.099381,7.8805456 14.425693,16.4805876 0.193548,1.255004 0.224984,5.129984 0.05151,6.35 -0.380518,2.676242 -1.065462,4.916681 -2.177847,7.123671 -2.750498,5.457079 -7.438635,9.041484 -12.827186,9.807274 -1.061466,0.150849 -2.875415,0.166288 -3.912404,0.0333 -0.412098,-0.05285 -0.773117,-0.07223 -0.802268,-0.04308 -0.02916,0.02916 -0.0065,1.52972 0.05027,3.334589 0.100863,3.205142 0.09925,3.297011 -0.06945,3.944056 -0.36648,1.405604 -0.971431,2.084405 -2.528248,2.836908 l -0.992514,0.479739 -3.894666,0.05464 c -4.610896,0.06468 -8.238954,0.257535 -17.441333,0.927098 -3.309533,0.240802 -3.585341,0.249648 -3.979333,0.127631 -0.232834,-0.07211 -0.644132,-0.194997 -0.913995,-0.27309 -0.295508,-0.08551 -0.771081,-0.337642 -1.195703,-0.63391 -1.353724,-0.944524 -2.014663,-1.943737 -2.030484,-3.069703 -0.0076,-0.5372 0.023,-0.659808 0.277052,-1.111785 0.157046,-0.2794 0.414727,-0.75565 0.572626,-1.058334 0.157898,-0.302683 0.459742,-0.797983 0.670765,-1.100666 1.116931,-1.602089 2.654538,-5.356124 3.173079,-7.747 0.152791,-0.704489 0.190949,-1.219882 0.227232,-3.069167 0.03622,-1.845812 0.02399,-2.221712 -0.07215,-2.217856 -0.06367,0.0026 -0.363407,0.392596 -0.66609,0.866758 -1.77949,2.787627 -4.178184,4.942176 -7.039658,6.323143 -2.004666,0.967467 -3.8187,1.42417 -5.969605,1.502913 -2.631173,0.09633 -4.814243,-0.360063 -7.183736,-1.501821 C 7.9722283,39.936749 4.1888019,34.785883 2.8844594,28.627234 2.6767687,27.646587 2.6285688,27.520729 2.5120684,27.65484 2.474313,27.698302 1.979648,28.732675 1.4128131,29.953446 l -1.03061003,2.219595 v 4.220882 c 0,3.605198 0.0195665,4.286768 0.13413739,4.672572 0.17038743,0.573757 0.41526882,0.960183 0.93015224,1.467794 0.5561965,0.548339 1.0895355,0.88925 2.4826315,1.586903 1.4437528,0.72302 1.8011393,1.044564 2.3288421,2.095283 0.486592,0.968864 0.62712,1.668356 0.4874539,2.426352 -0.1433314,0.777889 -0.3427408,1.189388 -0.9303114,1.91978 -0.5598109,0.695884 -1.1925562,1.183834 -1.7922392,1.382107 -0.20955,0.06928 -4.81242861,1.117663 -10.2286186,2.329731 -10.702066,2.394974 -10.62127,2.380745 -11.599825,2.042775 z M -6.4718089,52.880051 C 1.3851576,51.119731 3.6201603,50.590592 3.9059551,50.423105 4.2731163,50.207934 4.9299197,49.475579 5.1890395,48.992429 5.2802229,48.82241 5.3301957,48.522939 5.3321693,48.134695 5.3348278,47.61219 5.2955857,47.457956 5.0158809,46.891532 4.6266657,46.103344 4.364453,45.882172 3.1391952,45.308583 0.98720395,44.301157 -0.24018328,43.155877 -0.82193216,41.612441 -1.0077035,41.119572 -1.0112688,41.034189 -1.035558,36.496873 L -1.060259,31.88254 1.2195831,27.016781 c 1.2539133,-2.676168 2.3175417,-4.878326 2.3636181,-4.893684 0.050289,-0.01676 0.1038826,0.371399 0.1340807,0.971092 0.1639011,3.254874 0.3780832,4.833312 0.9052949,6.671684 2.6852617,9.363419 11.0833752,14.645839 19.1061372,12.017776 3.732742,-1.222756 6.953234,-4.035231 9.059183,-7.911442 0.476884,-0.877752 0.918485,-1.942078 1.666485,-4.016483 0.351588,-0.975048 0.679446,-1.81301 0.728575,-1.862138 0.06265,-0.06265 0.08066,1.730679 0.06031,6.006149 l -0.02901,6.095471 -0.227974,0.931334 c -0.655815,2.67917 -2.089155,6.124772 -3.295762,7.92267 -0.299232,0.445869 -0.605614,0.964513 -0.680849,1.152543 -0.07523,0.18803 -0.232788,0.483334 -0.350119,0.656231 -0.413776,0.609732 -0.391834,0.975077 0.09927,1.652938 0.434631,0.599912 1.639126,1.412553 2.196041,1.481609 0.222757,0.02762 0.524514,0.0882 0.670572,0.134621 0.191422,0.06084 1.255085,0.01328 3.81,-0.170332 8.861037,-0.636828 12.838961,-0.846116 17.133439,-0.901433 l 3.429,-0.04417 0.762,-0.349311 c 1.037793,-0.475741 1.264048,-0.663867 1.586924,-1.319521 0.258166,-0.524239 0.2773,-0.624817 0.300237,-1.577889 0.01348,-0.559877 -0.02902,-2.503859 -0.09445,-4.319959 -0.06541,-1.8161 -0.08805,-3.336107 -0.0503,-3.377795 0.03983,-0.04398 0.505984,0.01877 1.110445,0.149461 4.73506,1.023801 9.368121,-0.356121 13.003462,-3.872985 3.128577,-3.026612 5.099363,-7.158619 5.698998,-11.94868 0.154864,-1.237139 0.134688,-3.92925 -0.03904,-5.207 C 79.653222,16.505868 77.803958,12.581082 74.888868,9.6538341 72.109236,6.8626096 68.846834,5.3637429 65.194534,5.1998985 61.485635,5.033515 58.160521,6.2915549 55.223375,8.9724402 l -0.657834,0.6004339 h -3.761004 c -2.529903,0 -3.778952,-0.029033 -3.815825,-0.088696 -0.07887,-0.1276096 0.484511,-1.2714385 1.030089,-2.0913902 1.062827,-1.5973315 2.626303,-2.7320173 4.577672,-3.3222259 1.276207,-0.3860006 1.718395,-1.1145956 1.718395,-2.8314123 0,-0.85067292 -0.02096,-0.97670771 -0.232833,-1.39978805 -0.333358,-0.66568791 -0.767749,-1.07114535 -1.308999,-1.22182405 -0.35053,-0.097584 -2.701373,-0.1922431 -10.819501,-0.4356586 -5.704416,-0.1710423 -10.657416,-0.2944638 -11.006666,-0.2742701 -0.55515,0.032099 -0.720147,0.083548 -1.312126,0.4091468 -0.841319,0.4627397 -1.266303,0.84116995 -1.530784,1.36309819 -0.258747,0.51061085 -0.258583,0.81841981 6.77e-4,1.33010341 0.332109,0.6553863 1.450213,1.8518882 2.099895,2.2471328 1.245008,0.7574217 2.124618,1.7520213 2.889981,3.267784 0.490924,0.972251 1.113671,2.7265223 1.037941,2.923871 -0.04006,0.1044786 -0.382529,0.1241289 -2.163277,0.1241289 H 29.853503 L 29.123004,8.9167075 C 27.208199,7.1967449 25.151023,6.0733156 22.959822,5.5509756 21.051552,5.096082 18.946919,5.0369338 16.942773,5.3818743 c -0.676395,0.1164166 -1.25023,0.2116666 -1.275189,0.2116666 -0.144973,0 0.02173,-0.265921 0.540816,-0.8627137 0.805387,-0.9259483 1.059711,-1.540869 1.061383,-2.5662861 0.0016,-0.9588226 -0.197242,-1.41984625 -0.826906,-1.91756711 -0.577708,-0.45665235 -0.951678,-0.63511376 -1.455674,-0.69466042 -0.232834,-0.027509 -4.834128,-0.1917048 -10.2250994,-0.36487962 l -9.8017649,-0.31486335 -0.8229176,0.41831865 c -1.5743208,0.8002842 -2.1963033,1.80103325 -1.7108212,2.75265565 0.2798876,0.5486262 1.0626369,1.4656957 1.6288401,1.9083519 0.9094842,0.7110314 2.4500196,2.3170335 2.9553848,3.0809774 0.5388017,0.8144882 0.7221719,1.2122903 0.8382838,1.8185688 0.2229061,1.163902 -0.7710136,3.951529 -2.9288291,8.214431 -1.1678031,2.307069 -1.827585,3.513666 -1.9213144,3.513666 -0.2052675,0 -1.4619951,-2.318507 -1.7917946,-3.305639 -0.713878,-2.136729 -0.3219391,-4.456438 1.1099638,-6.569381 C -7.1731046,9.9523069 -6.9739652,9.5114976 -6.9236436,9.0239217 -6.8420579,8.2334348 -7.1837303,7.5589438 -8.019513,6.8605801 -8.885399,6.1370637 -8.2219578,6.1739047 -17.89302,6.3123025 c -10.58428,0.1514661 -9.947821,0.1256487 -10.499485,0.4259021 -0.492082,0.2678244 -1.133859,0.987585 -1.389134,1.557931 -0.320682,0.7164797 -0.02754,2.1250364 0.582862,2.8006804 0.157244,0.17405 0.638417,0.537183 1.069273,0.806961 2.419255,1.514808 4.643772,3.351304 5.586149,4.611764 0.236186,0.315905 2.263293,3.898477 5.485293,9.694332 3.084445,5.548419 4.207728,7.990022 4.888438,10.625667 0.262247,1.015395 0.299842,1.298961 0.33675,2.54 0.03182,1.070091 0.0088,1.58522 -0.09831,2.201333 -0.580302,3.337495 -2.810914,6.601039 -5.570479,8.150002 -1.050393,0.589593 -1.36245,0.970527 -1.624973,1.98364 -0.176403,0.680761 -0.167201,1.341708 0.02456,1.763829 0.33446,0.73626 1.617767,1.616653 2.393346,1.641918 0.122869,0.004 4.729484,-1.002293 10.2369231,-2.236211 z m -10.3971041,-0.04219 c -0.291993,-0.177572 -0.329471,-0.326463 -0.185868,-0.738403 0.06809,-0.195313 0.269325,-0.36208 0.855913,-0.709299 2.06284,-1.221058 3.879883,-3.260507 5.102556,-5.727109 0.935835,-1.887939 1.3117344,-3.396142 1.3771606,-5.52551 0.052725,-1.716019 -0.088633,-2.781255 -0.6010946,-4.529667 -0.839751,-2.86506 -1.685278,-4.641694 -5.278533,-11.091333 -4.114182,-7.384666 -4.584444,-8.218539 -4.989006,-8.846553 -0.917151,-1.423722 -3.029907,-3.30914 -5.626409,-5.020994 -1.303608,-0.8594586 -1.44158,-0.9739017 -1.530024,-1.269103 -0.09175,-0.3062452 -0.08331,-0.3380223 0.150439,-0.5660508 l 0.24765,-0.2415913 6.984999,-0.091638 c 3.84175,-0.0504 7.843709,-0.1147809 8.893241,-0.1430672 l 1.908242,-0.05143 0.2763079,0.2581106 c 0.2699216,0.2521449 0.2732727,0.2639779 0.1450137,0.5120047 -0.072212,0.1396424 -0.2427486,0.419039 -0.3789705,0.6208809 -0.7378411,1.0932731 -1.3337741,2.5442101 -1.5760861,3.8373481 -0.162122,0.86519 -0.181576,2.319375 -0.04123,3.08201 0.25972,1.411318 0.943821,3.005545 1.9271691,4.491073 0.8813317,1.331413 2.3395762,3.132544 2.5362585,3.132625 0.05552,2.3e-5 0.4437355,-0.60368 0.8627017,-1.341562 C -1.8037928,15.825558 0.23475861,10.908928 0.00377525,8.860449 -0.13016064,7.6726367 -0.76878435,6.3158754 -1.7663185,5.0998716 -2.232262,4.5318813 -3.6113542,3.1598567 -4.5928389,2.2878366 -5.2180701,1.7323373 -5.2782782,1.4836378 -4.8596888,1.1855758 L -4.5982474,0.99941332 5.1098109,1.315955 c 8.5973311,0.280325 9.7370871,0.3329719 9.9617811,0.4601478 0.534792,0.30269 0.34752,0.7183085 -0.543347,1.205867 -3.44764,1.8868419 -6.4142999,5.261846 -9.365757,10.6549042 -0.2675881,0.48895 -2.1765192,4.679687 -4.2420708,9.312749 l -3.7555474,8.423749 v 4.808986 c 0,5.253878 0.020132,5.522351 0.5002039,6.670519 0.3431989,0.820815 0.8037686,1.477501 1.56939738,2.237662 0.79104657,0.785398 1.59437743,1.341611 2.83832712,1.965208 0.727997,0.364948 0.9136084,0.49759 1.0393993,0.742781 0.1507778,0.293897 0.1502342,0.302422 -0.035297,0.553365 -0.1095493,0.148175 -0.314286,0.287885 -0.4890651,0.333733 -0.1653481,0.04337 -4.4916326,1.015952 -9.6139658,2.161282 -5.1223326,1.145331 -9.3706106,2.099452 -9.4406166,2.120269 -0.07001,0.02082 -0.250981,-0.03737 -0.402166,-0.129316 z m 50.020254,-1.224648 c -0.28666,-0.305135 -0.195913,-0.621628 0.462202,-1.612007 1.224214,-1.842287 2.759676,-5.484225 3.480246,-8.25474 0.429205,-1.65025 0.473492,-2.132583 0.516991,-5.630593 0.047,-3.779714 -0.118724,-18.540363 -0.213885,-19.049999 -0.06083,-0.325781 -0.07441,-0.337556 -0.356799,-0.309481 -0.883744,0.08786 -3.382263,1.127127 -3.813617,1.586283 l -0.173477,0.184657 0.210426,1.004937 c 0.312812,1.493915 0.411825,2.523788 0.410001,4.264604 -0.0025,2.373795 -0.315047,4.286714 -1.051388,6.434666 -0.917914,2.677612 -2.703187,5.41036 -4.610949,7.058059 -2.229415,1.925504 -4.651034,2.979153 -7.30889,3.180105 -5.30468,0.401071 -10.170176,-2.708483 -12.8719377,-8.226497 -2.5838852,-5.277264 -2.583439,-11.745514 0.00117,-17.04 2.0999128,-4.301594 5.5069067,-7.1435505 9.6568587,-8.0553063 0.573426,-0.1259832 1.053879,-0.1560229 2.409572,-0.1506534 1.605355,0.00636 1.743971,0.020087 2.667958,0.2642472 2.273319,0.6007142 4.089146,1.6155136 5.764459,3.2215465 l 0.816951,0.783166 h 3.773486 c 2.331578,0 3.792769,-0.0312 3.823951,-0.08166 C 36.82475,11.054987 36.384429,9.2140881 35.974408,7.9642075 34.975919,4.9204867 33.467882,2.7220126 31.490447,1.4273166 30.531444,0.79942474 30.357019,0.52103042 30.724551,0.20489322 c 0.295593,-0.25425898 -0.519739,-0.26135422 11.144318,0.0969813 5.285316,0.16237204 9.770049,0.29547193 9.966073,0.29577757 0.279284,4.318e-4 0.40295,0.0507513 0.5715,0.23252396 0.46051,0.49663975 0.213067,0.83090415 -0.927907,1.25348365 -1.088915,0.4032985 -1.614641,0.6703852 -2.546583,1.2937511 -1.799429,1.2036182 -3.181733,2.992371 -4.099316,5.304665 -0.294648,0.7425072 -0.677218,2.0940352 -0.677554,2.3936312 l -2.14e-4,0.1905 h 5.530154 5.530158 l 0.671677,-0.640846 c 1.902206,-1.8148882 4.002786,-2.9556851 6.406303,-3.4791799 0.886198,-0.1930172 3.520652,-0.2166696 4.425374,-0.039731 4.90082,0.9584596 9.001379,4.9104329 10.79787,10.4065959 0.693488,2.121659 0.961153,3.848003 0.961153,6.199162 0,2.350914 -0.296028,4.260204 -0.977984,6.307666 -1.972006,5.920689 -6.693713,10.059757 -11.915072,10.444816 -2.330103,0.171837 -4.292651,-0.218425 -6.392384,-1.271154 -0.460773,-0.23101 -0.867783,-0.389339 -0.904486,-0.351841 -0.0367,0.0375 0.01506,2.575127 0.115028,5.639174 0.128922,3.951605 0.155711,5.612296 0.09213,5.713075 -0.04928,0.07814 -0.181263,0.167722 -0.293269,0.199065 -0.112014,0.03134 -1.296077,0.06078 -2.631253,0.06542 -3.009636,0.01046 -6.349893,0.208757 -17.299737,1.027002 -2.468033,0.184427 -4.585467,0.335498 -4.705408,0.335713 -0.122598,2.54e-4 -0.30376,-0.09082 -0.413786,-0.207935 z M 50.952,41.55863 c 1.427999,-0.681871 2.720011,-1.985721 4.033242,-4.070193 0.283227,-0.449567 0.514959,-0.863153 0.514959,-0.919077 0,-0.05593 -0.182795,-0.314189 -0.406205,-0.573918 -2.273689,-2.643284 -3.707975,-5.871274 -4.19752,-9.446902 -0.281049,-2.052778 -0.252779,-4.330356 0.07644,-6.158307 0.272145,-1.511063 0.295039,-1.347166 -0.266611,-1.9087 -1.157969,-1.157732 -3.16215,-1.864255 -6.038454,-2.128704 -0.48621,-0.0447 -0.920747,-0.05858 -0.965638,-0.03083 -0.123395,0.07626 0.01416,4.880693 0.411564,14.37521 0.339665,8.114987 0.472321,11.015918 0.508399,11.117684 0.03165,0.08929 0.590497,0.105861 2.855192,0.08467 l 2.815834,-0.02635 z m -4.294665,-1.413325 c -0.0484,-0.07831 -0.447039,-9.303816 -0.677159,-15.671098 -0.06984,-1.932517 -0.147814,-3.981337 -0.173268,-4.552933 -0.03791,-0.851234 -0.0245,-1.047626 0.07413,-1.085472 0.150965,-0.05793 1.929256,0.402535 2.495798,0.646254 0.717277,0.308565 0.722556,0.322745 0.57134,1.534649 -0.286796,2.298512 -0.254388,4.081038 0.116013,6.381051 0.512873,3.184695 1.726397,6.195371 3.485224,8.646628 0.272501,0.379781 0.495456,0.727412 0.495456,0.772514 0,0.0451 -0.280702,0.458272 -0.623783,0.918156 -0.762117,1.021583 -1.729037,1.955397 -2.33994,2.259823 -0.441959,0.220237 -0.501743,0.227329 -1.916237,0.227329 -0.803025,0 -1.481433,-0.0346 -1.507573,-0.0769 z m 2.7892,-1.435881 c 0.375729,-0.171294 1.820333,-1.634383 1.820333,-1.843627 0,-0.0717 -0.242711,-0.517411 -0.539359,-0.990475 -1.317039,-2.100282 -2.326927,-4.610596 -2.849502,-7.083115 -0.402023,-1.902135 -0.406471,-1.727282 -0.125836,4.947104 0.157567,3.74744 0.236495,5.006389 0.317077,5.057537 0.195937,0.124368 1.028668,0.07151 1.377287,-0.08742 z M 47.472319,21.13877 c 0.0179,-0.27594 -0.0085,-0.426841 -0.07895,-0.451556 -0.07738,-0.02714 -0.105833,0.105928 -0.105833,0.494871 0,0.624009 0.143683,0.590328 0.184784,-0.04331 z m -34.818414,0.290095 c 0.248683,-0.133093 0.637865,-0.812049 1.229423,-2.144823 1.345877,-3.032247 1.749175,-3.676991 3.558878,-5.689501 1.25364,-1.394132 1.566663,-1.855877 1.566663,-2.311007 0,-0.411988 -0.38353,-0.653741 -1.226526,-0.773124 -0.783457,-0.110951 -1.470097,0.01294 -2.288954,0.413011 -1.53384,0.749384 -3.129247,2.546783 -3.83989,4.326051 -0.410547,1.027905 -0.539077,1.855282 -0.502665,3.235777 0.03014,1.142849 0.04644,1.239582 0.314532,1.867185 0.439145,1.028036 0.751082,1.31055 1.188539,1.076431 z M 56.76767,21.088894 c 0.245609,-0.131447 0.593742,-0.764878 1.396712,-2.541354 1.220512,-2.700237 1.631425,-3.345638 3.342115,-5.249333 1.137878,-1.266253 1.613704,-1.952316 1.613704,-2.326701 0,-0.542559 -0.631757,-0.839387 -1.778,-0.835384 -1.258968,0.0044 -2.261497,0.50619 -3.524842,1.764285 -1.317981,1.312498 -2.120138,2.736909 -2.44547,4.342505 -0.105257,0.519436 -0.133367,1.007204 -0.109719,1.90367 0.03014,1.142849 0.04644,1.239583 0.314528,1.867185 0.43997,1.029962 0.7509,1.310649 1.190972,1.075127 z m -4.826233,-4.34052 c 0.288268,-0.805998 1.033176,-2.304954 1.561063,-3.141281 0.260172,-0.412196 0.4519,-0.783671 0.426043,-0.8255 -0.05917,-0.09574 -10.001455,-0.102307 -10.060578,-0.0066 -0.09899,0.160168 -0.226891,1.905997 -0.145593,1.987296 0.04612,0.04612 0.28613,0.09868 0.533346,0.116787 3.093002,0.226568 5.343111,0.890306 6.802587,2.00663 0.277694,0.212402 0.547416,0.387466 0.599385,0.389031 0.05197,0.0016 0.179655,-0.235277 0.283747,-0.526319 z M 33.564528,16.482603 c 0.941817,-0.4796 2.129632,-0.909085 2.973258,-1.075058 0.821558,-0.161632 0.806437,-0.130707 0.683563,-1.397971 -0.05809,-0.599079 -0.145724,-1.137564 -0.194747,-1.196634 -0.06913,-0.08329 -0.807915,-0.107399 -3.291104,-0.107399 -1.839049,0 -3.222297,0.03289 -3.249726,0.07727 -0.02627,0.0425 0.14631,0.390171 0.383502,0.772605 0.437318,0.705101 1.279973,2.366334 1.533723,3.023623 0.0764,0.197908 0.167403,0.359833 0.202221,0.359833 0.03482,0 0.466507,-0.205323 0.95931,-0.456271 z"
         id="path9559" />
    </g>
    <path
       style="fill:#8ec444;stroke-width:0.0584101"
       d="m 46.356176,47.260444 c 0,-0.01213 0.046,-0.05813 0.102218,-0.102218 0.09264,-0.07265 0.09471,-0.07059 0.02205,0.02206 -0.07631,0.0973 -0.124271,0.128238 -0.124271,0.08016 z m -15.318059,-0.08016 c 2.674454,-0.0084 7.050834,-0.0084 9.725288,0 2.674455,0.0084 0.486265,0.01528 -4.862644,0.01528 -5.348909,0 -7.537099,-0.0069 -4.862644,-0.01528 z m -5.421962,-0.292055 -0.141605,-0.160628 0.160628,0.141604 c 0.08835,0.07788 0.160628,0.150166 0.160628,0.160628 0,0.04581 -0.0473,0.0085 -0.179651,-0.141604 z m 20.506381,0.0146 c 0.07545,-0.08031 0.150326,-0.146025 0.166389,-0.146025 0.01606,0 -0.03253,0.06571 -0.107979,0.146025 -0.07545,0.08031 -0.150326,0.146026 -0.166389,0.146026 -0.01606,0 0.03253,-0.06571 0.107979,-0.146026 z M 25.356456,41.32466 c 0,-2.778863 0.0071,-3.915671 0.01586,-2.526239 0.0087,1.389431 0.0087,3.663046 0,5.052477 -0.0087,1.389432 -0.01586,0.252624 -0.01586,-2.526238 z m 21.086062,0 c 0,-2.778863 0.0071,-3.915671 0.01586,-2.526239 0.0087,1.389431 0.0087,3.663046 0,5.052477 -0.0087,1.389432 -0.01586,0.252624 -0.01586,-2.526238 z m -15.140753,4.222026 c 0.08879,-0.01343 0.22021,-0.01307 0.292051,7.95e-4 0.07184,0.01386 -8e-4,0.02485 -0.161431,0.02441 -0.160628,-4.64e-4 -0.219407,-0.01178 -0.13062,-0.02521 z m 2.978918,0 c 0.08879,-0.01343 0.220209,-0.01307 0.29205,7.95e-4 0.07184,0.01386 -7.95e-4,0.02485 -0.161431,0.02441 -0.160628,-4.64e-4 -0.219406,-0.01178 -0.130619,-0.02521 z m 8.146109,0.0065 c -0.0196,-0.0196 -0.0067,-0.08188 0.02856,-0.138415 0.03531,-0.05653 0.0469,-0.145695 0.02577,-0.198138 -0.04951,-0.122868 -0.04843,-0.153763 0.0054,-0.153763 0.04455,0 0.05274,0.0287 0.06571,0.230287 0.0051,0.07914 0.0415,0.10688 0.120355,0.09169 0.14069,-0.02709 0.277221,0.113799 0.172809,0.17833 -0.04279,0.02645 -0.05504,0.01879 -0.03133,-0.01958 0.05857,-0.09476 -0.153289,-0.121092 -0.259276,-0.03222 -0.0508,0.04259 -0.108388,0.06141 -0.127985,0.04181 z m -0.07588,-0.256676 c 0,-0.07565 0.01975,-0.0954 0.05758,-0.05757 0.03783,0.03783 0.03783,0.07732 0,0.115151 -0.03783,0.03783 -0.05758,0.01808 -0.05758,-0.05758 z M 30.4642,45.194293 l -0.141605,-0.160628 0.160628,0.141604 c 0.150131,0.132351 0.187414,0.179652 0.141604,0.179652 -0.01046,0 -0.08274,-0.07228 -0.160627,-0.160628 z m 1.815135,0.0146 c 0.07545,-0.08031 0.150326,-0.146025 0.166389,-0.146025 0.01606,0 -0.03253,0.06571 -0.107979,0.146025 -0.07545,0.08031 -0.150326,0.146025 -0.166389,0.146025 -0.01606,0 0.03253,-0.06571 0.107979,-0.146025 z m 1.193733,-0.04381 -0.171555,-0.189833 0.189833,0.171556 c 0.176951,0.159914 0.216681,0.20811 0.171555,0.20811 -0.01005,0 -0.09548,-0.08543 -0.189833,-0.189833 z m 1.843595,0.04381 c 0.07545,-0.08031 0.150326,-0.146025 0.166388,-0.146025 0.01606,0 -0.03253,0.06571 -0.107978,0.146025 -0.07545,0.08031 -0.150327,0.146026 -0.166389,0.146026 -0.01606,0 0.03253,-0.06571 0.107979,-0.146026 z m 3.212557,0 c 0.07545,-0.08031 0.150326,-0.146025 0.166389,-0.146025 0.01606,0 -0.03253,0.06571 -0.107979,0.146025 -0.07545,0.08031 -0.150326,0.146026 -0.166388,0.146026 -0.01606,0 0.03253,-0.06571 0.107978,-0.146026 z m 4.205531,0.03549 c 0,-0.0411 -0.03109,-0.05341 -0.07301,-0.0289 -0.04016,0.02348 -0.0235,-0.01378 0.03701,-0.08279 0.126339,-0.144091 0.255534,-0.110125 0.142981,0.03759 -0.04066,0.05336 -0.08136,0.107969 -0.09045,0.121355 -0.0091,0.01338 -0.01653,-0.0079 -0.01653,-0.04725 z m -5.034225,-0.338239 c 0.04217,-0.01687 0.09254,-0.0148 0.111953,0.0046 0.01941,0.01941 -0.01509,0.03321 -0.07666,0.03068 -0.06804,-0.0028 -0.08188,-0.01664 -0.03529,-0.03529 z m -0.607212,-1.099097 c 5.6e-5,-0.610386 0.0087,-0.852153 0.01924,-0.53726 0.01052,0.314893 0.01048,0.8143 -1.17e-4,1.109793 -0.01058,0.295492 -0.01919,0.03785 -0.01913,-0.572533 z m -6.164863,0.919959 c -0.07266,-0.09264 -0.07059,-0.09471 0.02205,-0.02205 0.05622,0.04409 0.102218,0.09009 0.102218,0.102218 0,0.04807 -0.04797,0.01713 -0.124271,-0.08016 z m -0.74727,-0.04867 c 0.0028,-0.06804 0.01664,-0.08189 0.03529,-0.03529 0.01687,0.04216 0.0148,0.09254 -0.0046,0.111953 -0.01941,0.01941 -0.03321,-0.01509 -0.03068,-0.07666 z m 2.987683,-1.323964 -0.01338,-1.270421 0.365064,0.01105 0.365063,0.01105 -0.334705,0.02104 -0.334705,0.02104 -0.01698,1.238335 -0.01698,1.238335 z m 2.511583,0.03212 -0.01332,-1.2383 -0.335859,-0.02108 -0.335858,-0.02108 0.337691,-0.01105 c 0.228626,-0.0075 0.346936,0.01305 0.366315,0.06355 0.01574,0.04102 0.02091,0.612714 0.01149,1.270421 l -0.01713,1.19583 z m 3.221533,0.420559 c 1.17e-4,-0.385507 0.0096,-0.535614 0.02101,-0.333569 0.01144,0.202043 0.01135,0.517458 -2.43e-4,0.700921 -0.01156,0.183463 -0.02091,0.01815 -0.0208,-0.367352 z m -8.762763,0.0292 c 0,-0.305193 0.0098,-0.430045 0.02188,-0.277448 0.01203,0.152596 0.01203,0.402299 0,0.554896 -0.01203,0.152596 -0.02188,0.02775 -0.02188,-0.277448 z m 1.826407,-0.688715 c -0.01571,-0.02541 0.06817,-0.03704 0.186386,-0.02584 0.361196,0.03422 0.403792,0.05815 0.11617,0.06527 -0.150701,0.0037 -0.286851,-0.01402 -0.302556,-0.03943 z m 0.634967,-0.01221 c 0.01985,-0.03213 0.04769,-0.05841 0.06186,-0.05841 0.01417,0 0.02576,0.02628 0.02576,0.05841 0,0.03213 -0.02784,0.05841 -0.06186,0.05841 -0.03402,0 -0.04561,-0.02628 -0.02576,-0.05841 z m -1.240104,-0.449349 c 0.05683,-0.01481 0.135685,-0.01384 0.17523,0.0022 0.03955,0.016 -0.007,0.02812 -0.103329,0.02693 -0.09638,-0.0012 -0.128732,-0.01428 -0.0719,-0.02909 z M 30.468618,42.46366 c 0.10898,-0.11244 0.211288,-0.204436 0.227351,-0.204436 0.01606,0 -0.05996,0.092 -0.168941,0.204436 -0.108981,0.112439 -0.211289,0.204435 -0.227352,0.204435 -0.01606,0 0.05996,-0.092 0.168942,-0.204435 z m 10.19257,-0.321256 -0.292051,-0.04006 0.274001,-0.0092 c 0.1507,-0.005 0.290245,0.01711 0.3101,0.04923 0.01986,0.03213 0.02798,0.05428 0.01805,0.04923 -0.0099,-0.005 -0.149473,-0.0272 -0.310101,-0.04923 z m -9.561011,-0.0399 c 0.04217,-0.01687 0.09254,-0.0148 0.111953,0.0046 0.01941,0.01941 -0.01509,0.03321 -0.07666,0.03068 -0.06804,-0.0028 -0.08188,-0.01664 -0.03529,-0.03529 z m 0.525692,0 c 0.04216,-0.01687 0.09254,-0.0148 0.111953,0.0046 0.01941,0.01941 -0.01509,0.03321 -0.07666,0.03068 -0.06805,-0.0028 -0.08188,-0.01664 -0.03529,-0.03529 z m 5.168076,-0.0035 c 0.218183,-0.01127 0.559883,-0.01119 0.759332,1.76e-4 0.199448,0.01137 0.02094,0.02059 -0.396698,0.02049 -0.417632,-1.17e-4 -0.580818,-0.0094 -0.362634,-0.02067 z m -8.077632,-1.847317 c 0,-0.177524 -0.01894,-0.199867 -0.193476,-0.228189 -0.547619,-0.08887 -1.200568,-0.602035 -1.516438,-1.191807 L 26.844353,38.529131 27.110424,38.306 c 0.344778,-0.289135 0.912109,-0.581176 1.299236,-0.668799 0.304657,-0.06896 0.306653,-0.07087 0.306653,-0.293753 v -0.224346 h 1.547869 1.547869 v 1.664689 1.664689 h -1.547869 -1.547869 z m 1.520986,-0.441531 c 0.531866,-0.171774 1.165881,-0.485055 1.165881,-0.576088 0,-0.02412 -0.112608,-0.105361 -0.250241,-0.180546 l -0.250241,-0.1367 -0.455715,0.326962 c -0.493993,0.354423 -1.038717,0.562185 -1.473977,0.562185 -0.234865,0 -0.256693,-0.01242 -0.256693,-0.146026 0,-0.135647 0.02009,-0.146025 0.282722,-0.146025 0.373102,0 0.875968,-0.252167 1.328297,-0.666086 l 0.345721,-0.316364 -0.23364,-0.24247 c -0.307073,-0.318678 -0.959842,-0.640183 -1.38992,-0.684571 -0.308624,-0.03185 -0.33318,-0.02552 -0.33318,0.08596 0,0.08854 -0.05018,0.131048 -0.189833,0.160822 -0.320681,0.06837 -0.766184,0.304788 -0.969381,0.514434 l -0.193379,0.199516 0.144787,0.284544 c 0.238294,0.46831 0.582571,0.75488 1.105589,0.920271 0.05622,0.01778 0.102217,0.08962 0.102217,0.159654 0,0.12334 0.01517,0.126259 0.484207,0.09316 0.296763,-0.02094 0.698115,-0.103256 1.036779,-0.212634 z m -1.933024,-0.461109 c -0.16872,-0.107121 -0.315641,-0.267898 -0.419448,-0.459005 -0.150646,-0.27734 -0.153981,-0.299222 -0.05841,-0.38322 0.132079,-0.116086 0.525409,-0.30937 0.729269,-0.358367 0.124336,-0.02988 0.160627,-0.07305 0.160627,-0.191044 0,-0.149767 0.0053,-0.151737 0.301185,-0.112484 0.165652,0.02197 0.377499,0.07942 0.470771,0.12765 0.231195,0.119556 0.629888,0.486295 0.629888,0.579406 0,0.113553 -0.519595,0.553378 -0.805267,0.681641 -0.137704,0.06183 -0.321696,0.104188 -0.408871,0.09414 -0.155477,-0.01793 -0.158826,-0.02691 -0.17556,-0.470955 -0.0162,-0.429828 -0.02391,-0.452679 -0.152751,-0.452679 -0.07463,0 -0.204726,0.0543 -0.289101,0.120673 -0.144553,0.113705 -0.148553,0.130067 -0.06927,0.28338 0.04628,0.08949 0.177478,0.24466 0.291559,0.344824 0.208427,0.183001 0.273122,0.360916 0.13124,0.360916 -0.0419,0 -0.193035,-0.07419 -0.335859,-0.164871 z m 1.210022,-0.675386 c 0.145882,-0.125482 0.153465,-0.149632 0.07627,-0.242897 -0.114333,-0.138136 -0.5138,-0.315811 -0.713626,-0.317407 -0.130812,-10e-4 -0.160628,0.02465 -0.160628,0.138411 0,0.1 0.04117,0.150026 0.144889,0.176058 0.07969,0.02 0.202912,0.114846 0.27383,0.210767 0.155553,0.210397 0.173504,0.212057 0.379265,0.03507 z m 14.932989,1.28081 c 0.0058,-0.03349 -0.02041,-0.05494 -0.05826,-0.04768 -0.04896,0.0094 -0.04561,-0.03153 0.01161,-0.141837 0.04424,-0.08527 0.07067,-0.17085 0.05873,-0.190168 -0.03038,-0.04916 0.222923,-0.03309 0.308085,0.01955 0.03853,0.02382 0.06799,0.07461 0.06545,0.112867 -0.0034,0.05064 -0.01259,0.04983 -0.03392,-0.003 -0.02201,-0.05448 -0.05898,-0.05666 -0.148462,-0.0088 -0.08648,0.04628 -0.108271,0.04616 -0.07946,-4.63e-4 0.02184,-0.03533 0.01187,-0.06424 -0.02216,-0.06424 -0.03402,0 -0.06186,0.05257 -0.06186,0.11682 0,0.06425 0.02936,0.110249 0.06525,0.102218 0.03589,-0.008 0.07272,0.02957 0.08185,0.08355 0.01088,0.06434 -0.02027,0.09538 -0.09042,0.09009 -0.05886,-0.0044 -0.102261,-0.03546 -0.09645,-0.06895 z m -9.633809,-0.732604 c 0,-0.401569 0.0093,-0.565848 0.02074,-0.365063 0.01141,0.200785 0.01141,0.529342 0,0.730127 -0.0114,0.200785 -0.02074,0.03651 -0.02074,-0.365064 z m 2.630295,-0.379666 c 5.6e-5,-0.610386 0.0087,-0.852153 0.01923,-0.53726 0.01052,0.314893 0.01048,0.8143 -1.17e-4,1.109793 -0.01056,0.295493 -0.01917,0.03785 -0.01912,-0.572533 z m 2.359516,1.040687 c 0.04216,-0.01687 0.09254,-0.0148 0.111953,0.0046 0.01941,0.01941 -0.01509,0.03321 -0.07666,0.03068 -0.06804,-0.0028 -0.08188,-0.01664 -0.03529,-0.03529 z m 2.537446,-0.25215 c 0.0182,-0.06712 0.137523,-0.09162 0.510104,-0.104728 0.267495,-0.0094 0.507322,0.0037 0.53295,0.0292 0.02563,0.02548 -0.179396,0.03771 -0.455605,0.02719 -0.368755,-0.01405 -0.516681,0.0015 -0.5567,0.05841 -0.04313,0.06137 -0.04955,0.05927 -0.03075,-0.01007 z m -1.582709,-0.23364 c 0,-0.08031 0.01326,-0.11317 0.02946,-0.07301 0.0162,0.04016 0.0162,0.105868 0,0.146025 -0.0162,0.04016 -0.02946,0.0073 -0.02946,-0.07301 z m -1.739677,-0.554897 c 1.17e-4,-0.353381 0.0098,-0.490415 0.02138,-0.30452 0.01163,0.185895 0.01152,0.475025 -2.43e-4,0.642511 -0.01177,0.167487 -0.02128,0.01539 -0.02115,-0.337991 z m -2.967807,0.479365 c 0.02193,-0.05761 0.0546,-0.09002 0.07258,-0.07204 0.01798,0.01798 3.7e-5,0.06511 -0.03988,0.104737 -0.05769,0.05726 -0.0644,0.05055 -0.0327,-0.0327 z m 4.410822,-0.133771 c 0.0028,-0.06804 0.01664,-0.08188 0.03529,-0.03529 0.01687,0.04216 0.0148,0.09254 -0.0046,0.111953 -0.01941,0.01941 -0.03321,-0.01509 -0.03068,-0.07666 z m -0.573982,-0.345594 c 6.4e-4,-0.128502 0.01261,-0.174194 0.02658,-0.101536 0.01397,0.07266 0.01344,0.177795 -0.0012,0.23364 -0.01462,0.05584 -0.02605,-0.0036 -0.0254,-0.132104 z m 0.872809,0.05841 c 0.0012,-0.09638 0.01428,-0.128732 0.02909,-0.0719 0.01481,0.05683 0.01384,0.135685 -0.0022,0.175231 -0.016,0.03954 -0.02811,-0.007 -0.02692,-0.10333 z m -0.298827,-0.355328 c 0.0028,-0.06804 0.01664,-0.08188 0.03529,-0.03529 0.01687,0.04216 0.0148,0.09254 -0.0046,0.111952 -0.01941,0.01941 -0.03321,-0.01509 -0.03068,-0.07666 z m 0.304943,-0.199568 c 0,-0.176691 0.01095,-0.248973 0.02433,-0.160628 0.01338,0.08835 0.01338,0.232911 0,0.321256 -0.01338,0.08834 -0.02433,0.01606 -0.02433,-0.160628 z m -1.094652,0.02735 c -0.06236,-0.04717 -0.08529,-0.08576 -0.05096,-0.08576 0.03433,0 0.09514,0.03943 0.135136,0.08761 0.09096,0.109596 0.06234,0.108965 -0.08418,-0.0019 z m 3.209119,-0.08576 c -0.01986,-0.03213 -0.0083,-0.05841 0.02576,-0.05841 0.03402,0 0.06186,0.02628 0.06186,0.05841 0,0.03213 -0.01159,0.05841 -0.02576,0.05841 -0.01417,0 -0.042,-0.02628 -0.06186,-0.05841 z m -9.446794,-0.04233 c 0.104983,-0.013 0.26269,-0.01273 0.35046,5.96e-4 0.08777,0.01333 0.0019,0.02396 -0.190879,0.02364 -0.192753,-3.31e-4 -0.264565,-0.01123 -0.159581,-0.02423 z m 5.898378,0.0036 c 0.04016,-0.0162 0.105868,-0.0162 0.146025,0 0.04016,0.0162 0.0073,0.02946 -0.07301,0.02946 -0.08031,0 -0.11317,-0.01326 -0.07301,-0.02946 z m -4.770007,-0.217256 -0.141002,-0.182136 0.16711,0.158858 c 0.09191,0.08737 0.155361,0.169333 0.141003,0.182135 -0.01436,0.0128 -0.08956,-0.05868 -0.167111,-0.158857 z m -0.483255,-0.251242 c 0.04216,-0.01687 0.09254,-0.0148 0.111952,0.0046 0.01941,0.01941 -0.01509,0.03321 -0.07666,0.03068 -0.06804,-0.0028 -0.08188,-0.01664 -0.03529,-0.03529 z m 5.545312,0.0012 c 0.04016,-0.0162 0.105869,-0.0162 0.146026,0 0.04016,0.0162 0.0073,0.02946 -0.07301,0.02946 -0.08031,0 -0.113169,-0.01326 -0.07301,-0.02946 z m 6.198627,-1.874246 c -0.07265,-0.09264 -0.07059,-0.09471 0.02206,-0.02205 0.0973,0.07631 0.128238,0.124271 0.08016,0.124271 -0.01213,0 -0.05813,-0.046 -0.102218,-0.102218 z M 25.620576,35.746494 c 0.07545,-0.08031 0.150326,-0.146026 0.166389,-0.146026 0.01606,0 -0.03253,0.06571 -0.107979,0.146026 -0.07545,0.08031 -0.150326,0.146025 -0.166389,0.146025 -0.01606,0 0.03253,-0.06571 0.107979,-0.146025 z m 20.497539,-0.0146 -0.141604,-0.160628 0.160627,0.141605 c 0.08835,0.07788 0.160628,0.150165 0.160628,0.160628 0,0.04581 -0.0473,0.0085 -0.179651,-0.141605 z m -20.848,-0.211886 c 0,-0.01213 0.046,-0.05813 0.102218,-0.102218 0.09264,-0.07265 0.09471,-0.07059 0.02205,0.02205 -0.07631,0.0973 -0.124271,0.128239 -0.124271,0.08017 z m 5.768002,-0.08016 c 2.674454,-0.0084 7.050834,-0.0084 9.725288,0 2.674455,0.0084 0.486265,0.01528 -4.862644,0.01528 -5.348909,0 -7.537099,-0.0069 -4.862644,-0.01528 z"
       id="path1252" />
    <path
       style="fill:#050504;stroke-width:0.0584101"
       d="m 25.690885,47.39183 c -0.293863,-0.145459 -0.499479,-0.39591 -0.593275,-0.722639 -0.04886,-0.170216 -0.0623,-1.660689 -0.0495,-5.490554 l 0.01757,-5.256913 0.138617,-0.22297 c 0.07624,-0.122634 0.245169,-0.293483 0.3754,-0.379666 l 0.236784,-0.156696 h 10.08428 10.084282 l 0.236783,0.156696 c 0.130231,0.08618 0.299161,0.257032 0.3754,0.379666 l 0.138617,0.22297 0.01581,5.275386 c 0.01123,3.747213 -0.0031,5.345563 -0.04942,5.517641 -0.08284,0.307629 -0.422636,0.651728 -0.72704,0.736237 -0.165278,0.04588 -3.089477,0.06458 -10.132842,0.06478 l -9.90052,2.87e-4 -0.250946,-0.124216 z m 20.049244,-0.232499 c 0.295264,-0.08197 0.586136,-0.372847 0.668111,-0.668111 0.08978,-0.323362 0.08978,-10.009753 0,-10.333115 -0.08197,-0.295264 -0.372847,-0.586136 -0.668111,-0.668111 -0.326397,-0.09062 -19.352339,-0.09062 -19.678736,0 -0.295264,0.08197 -0.586137,0.372847 -0.668111,0.668111 -0.08768,0.315826 -0.08995,10.009141 -0.0024,10.324366 0.08179,0.294522 0.321999,0.55228 0.609375,0.653884 0.197668,0.06989 1.717508,0.08295 9.871314,0.08484 6.823109,0.0016 9.705105,-0.01649 9.868573,-0.06187 z M 26.054035,46.790744 c -0.390281,-0.16994 -0.375049,0.05189 -0.375049,-5.462183 0,-5.449113 -0.01075,-5.27846 0.343941,-5.461876 0.160178,-0.08283 1.149048,-0.0905 9.919723,-0.07689 9.638064,0.01495 9.743494,0.01635 9.9,0.131931 0.087,0.06425 0.185572,0.193025 0.219038,0.286164 0.04038,0.112391 0.06085,1.838127 0.06085,5.131265 0,5.501426 0.01716,5.254637 -0.378404,5.442345 -0.174432,0.08277 -1.174908,0.0919 -9.852199,0.08984 -7.942724,-0.0019 -9.689993,-0.01619 -9.837898,-0.0806 z m 16.84134,-1.300238 c 0.160155,-0.21817 0.0201,-0.500607 -0.248243,-0.500607 -0.295886,0 -0.420793,0.323936 -0.207248,0.537482 0.131341,0.13134 0.344687,0.114069 0.455491,-0.03687 z m -0.306064,-0.01968 c 0.02018,-0.03265 0.06116,-0.04424 0.09106,-0.02576 0.08102,0.05007 0.06591,0.08512 -0.03669,0.08512 -0.05008,0 -0.07455,-0.02671 -0.05437,-0.05936 z m -0.129182,-0.168312 c 0.02515,-0.299242 0.391439,-0.289023 0.391439,0.01092 0,0.06567 -0.01938,0.100025 -0.04306,0.07634 -0.02368,-0.02369 -0.0434,-0.08721 -0.04381,-0.141158 -0.0012,-0.158772 -0.222618,-0.119861 -0.27273,0.04793 -0.04352,0.145724 -0.04359,0.145736 -0.03184,0.006 z m -10.532308,0.16477 c 0.143987,-0.06531 0.311063,-0.163302 0.371279,-0.217755 0.113773,-0.102886 0.286043,-0.41195 0.35634,-0.6393 0.03901,-0.126149 0.02665,-0.131423 -0.307992,-0.131423 -0.334567,0 -0.353354,0.008 -0.465808,0.198607 -0.194197,0.329138 -0.688423,0.355796 -0.913724,0.04928 -0.08644,-0.117597 -0.119917,-0.278685 -0.138444,-0.666186 -0.03253,-0.680302 0.02368,-1.022926 0.196066,-1.195318 0.256464,-0.256463 0.777653,-0.147999 0.905574,0.188459 0.04819,0.126736 0.08729,0.140131 0.409121,0.140131 0.394533,0 0.388447,0.01343 0.201385,-0.444406 -0.227575,-0.556993 -1.077808,-0.836308 -1.693836,-0.556453 -0.303174,0.137729 -0.594686,0.47278 -0.653732,0.751367 -0.02568,0.121158 -0.04595,0.561987 -0.04505,0.979619 0.0015,0.697572 0.01338,0.780289 0.146025,1.017004 0.319783,0.570678 1.030208,0.799701 1.632796,0.52637 z m 3.14144,-0.0469 c 0.285224,-0.14551 0.50255,-0.41468 0.595165,-0.737145 0.04351,-0.151476 0.06091,-0.644463 0.0495,-1.401844 l -0.0176,-1.168202 -0.335858,-0.01752 -0.335858,-0.01752 v 1.203224 c 0,0.958955 -0.01791,1.237857 -0.08822,1.373822 -0.106424,0.205801 -0.251465,0.290882 -0.495882,0.290882 -0.244416,0 -0.389457,-0.08508 -0.495881,-0.290882 -0.07029,-0.135925 -0.08822,-0.414552 -0.08822,-1.370907 v -1.200309 h -0.350461 -0.350461 l 3.51e-4,1.212011 c 1.76e-4,0.666606 0.02747,1.309762 0.06065,1.429235 0.142581,0.513385 0.71559,0.889151 1.286681,0.843774 0.179016,-0.01422 0.433768,-0.0811 0.566115,-0.148623 z m 3.203891,-0.0019 c 0.521621,-0.236878 0.694157,-0.714825 0.653625,-1.810619 -0.02674,-0.72298 -0.06641,-0.85113 -0.359168,-1.160371 -0.257761,-0.272272 -0.621768,-0.363462 -1.450837,-0.363462 h -0.69032 v 1.723099 1.723099 l 0.80314,-0.0013 c 0.657805,-0.0011 0.846645,-0.02104 1.04356,-0.110463 z m -1.145778,-1.582148 v -1.109793 h 0.283335 c 0.362047,0 0.602131,0.08444 0.70878,0.249287 0.05665,0.08757 0.09085,0.341352 0.104157,0.772891 0.01638,0.531492 0.0016,0.677836 -0.08555,0.846947 -0.1189,0.230706 -0.363026,0.341859 -0.762475,0.347164 l -0.248243,0.0033 z m 2.855082,1.387241 0.08593,-0.277448 h 0.598357 0.598358 l 0.097,0.292051 0.097,0.29205 h 0.371438 0.371439 l -0.145465,-0.394268 c -0.08001,-0.216848 -0.361486,-0.985671 -0.62551,-1.708497 L 40.95097,42.113202 40.682018,42.0957 c -0.214841,-0.01398 -0.277297,0.0036 -0.31043,0.08761 -0.111028,0.281381 -1.199859,3.296435 -1.199859,3.3225 0,0.01647 0.163078,0.02213 0.362396,0.01257 l 0.362396,-0.01739 z m 0.326219,-0.963767 c 0.02181,-0.05622 0.110045,-0.30591 0.196082,-0.554868 0.08604,-0.248958 0.170726,-0.452663 0.188199,-0.452679 0.03589,-3.2e-5 0.347898,0.93288 0.347898,1.04023 0,0.04676 -0.126419,0.06953 -0.385916,0.06953 -0.343703,0 -0.381577,-0.01118 -0.346263,-0.102217 z m -8.496624,-5.475954 v -1.664689 h -1.547869 -1.547869 v 0.224346 c 0,0.222885 -0.002,0.224797 -0.306653,0.293753 -0.387127,0.08762 -0.954458,0.379664 -1.299236,0.668799 l -0.266071,0.223131 0.162046,0.30256 c 0.31587,0.589772 0.968819,1.10294 1.516438,1.191807 0.174532,0.02832 0.193476,0.05067 0.193476,0.228189 v 0.196793 h 1.547869 1.547869 z m -3.095738,1.145841 c 0,-0.07003 -0.046,-0.141875 -0.102217,-0.159654 -0.523018,-0.165391 -0.867295,-0.451961 -1.105589,-0.920271 l -0.144787,-0.284544 0.193379,-0.199516 c 0.203197,-0.209646 0.6487,-0.446067 0.969381,-0.514434 0.139655,-0.02977 0.189833,-0.07228 0.189833,-0.160822 0,-0.111481 0.02456,-0.117817 0.33318,-0.08596 0.430078,0.04439 1.082847,0.365893 1.38992,0.684571 l 0.23364,0.24247 -0.345721,0.316364 c -0.452329,0.413919 -0.955195,0.666086 -1.328297,0.666086 -0.26263,0 -0.282722,0.01038 -0.282722,0.146025 0,0.133609 0.02183,0.146026 0.256693,0.146026 0.43526,0 0.979984,-0.207762 1.473977,-0.562185 l 0.455715,-0.326962 0.250241,0.1367 c 0.137633,0.07518 0.250241,0.156431 0.250241,0.180546 0,0.09103 -0.634015,0.404314 -1.165881,0.576088 -0.338664,0.109378 -0.740016,0.191691 -1.036779,0.212634 -0.469038,0.0331 -0.484207,0.03018 -0.484207,-0.09316 z m 0,-0.505114 c 0,-0.04917 -0.09334,-0.171352 -0.207419,-0.271516 -0.114081,-0.100164 -0.245282,-0.255335 -0.291559,-0.344824 -0.07928,-0.153313 -0.07528,-0.169675 0.06927,-0.28338 0.08438,-0.06637 0.214471,-0.120673 0.289101,-0.120673 0.128842,0 0.136553,0.02285 0.152751,0.452679 0.01673,0.444043 0.02008,0.453027 0.17556,0.470955 0.08717,0.01005 0.271167,-0.03231 0.408871,-0.09414 0.285672,-0.128263 0.805267,-0.568088 0.805267,-0.681641 0,-0.09311 -0.398693,-0.45985 -0.629888,-0.579406 -0.09327,-0.04823 -0.305119,-0.105675 -0.470771,-0.12765 -0.295908,-0.03925 -0.301185,-0.03728 -0.301185,0.112484 0,0.117997 -0.03629,0.16116 -0.160627,0.191044 -0.20386,0.049 -0.59719,0.242281 -0.729269,0.358367 -0.09557,0.084 -0.09224,0.10588 0.05841,0.38322 0.218208,0.401718 0.831486,0.795932 0.831486,0.534476 z m 0.418719,-0.785925 c -0.07092,-0.09592 -0.194142,-0.190767 -0.27383,-0.210767 -0.10372,-0.02603 -0.144889,-0.07606 -0.144889,-0.176058 0,-0.113764 0.02982,-0.139455 0.160628,-0.138411 0.199826,0.0016 0.599293,0.179271 0.713626,0.317407 0.07719,0.09327 0.06961,0.117415 -0.07627,0.242897 -0.205761,0.176989 -0.223712,0.175329 -0.379265,-0.03507 z m 15.613802,1.30612 c 0.200937,-0.200936 0.0074,-0.481706 -0.281947,-0.409078 -0.121311,0.03045 -0.155066,0.07428 -0.155066,0.201354 0,0.285101 0.243767,0.40097 0.437013,0.207724 z m -0.08194,-0.172817 c 0.0028,-0.06804 0.01664,-0.08188 0.03529,-0.03529 0.01687,0.04216 0.0148,0.09254 -0.0046,0.111952 -0.01941,0.01941 -0.03321,-0.01509 -0.03068,-0.07666 z M 33.272305,39.105077 v -0.817742 l 0.335858,9.05e-4 c 0.184722,4.86e-4 0.36707,0.02074 0.405217,0.045 0.135723,0.0863 0.193487,0.378899 0.193487,0.98009 v 0.609504 h 0.326986 0.326987 L 34.83945,39.148899 C 34.81615,38.305946 34.7628,38.122367 34.480265,37.912926 34.334508,37.804879 34.218739,37.78868 33.47269,37.771941 l -0.842897,-0.01891 v 1.084897 1.084897 h 0.321256 0.321256 z m 3.572643,-0.233641 c 0.184606,-0.562197 0.336815,-1.041891 0.338241,-1.065985 0.0014,-0.02409 -0.140842,-0.04381 -0.316153,-0.04381 h -0.318747 l -0.181412,0.598704 c -0.09978,0.329287 -0.210113,0.690284 -0.245193,0.802216 l -0.06378,0.203512 -0.07133,-0.206025 c -0.03923,-0.113314 -0.145922,-0.474311 -0.237092,-0.802216 l -0.165764,-0.596191 h -0.344777 c -0.300236,0 -0.341111,0.01321 -0.316388,0.102217 0.01561,0.05622 0.168855,0.543457 0.340534,1.082749 l 0.312144,0.980531 0.467034,-0.01676 0.467034,-0.01676 z m 1.216988,-0.02921 V 37.761644 H 37.74068 37.419425 v 1.080587 1.080588 h 0.321255 0.321256 z m 2.048375,0.95449 c 0.27852,-0.156537 0.404851,-0.445833 0.404851,-0.927103 0,-0.493721 -0.168084,-0.832177 -0.490879,-0.98844 -0.205602,-0.09953 -0.36114,-0.119534 -0.929405,-0.119534 h -0.682481 v 1.080587 1.080588 h 0.736777 c 0.64662,0 0.76423,-0.01543 0.961137,-0.126098 z m -1.055402,-0.95449 c 0,-0.452448 0.01915,-0.612941 0.07301,-0.611913 0.221939,0.0042 0.55347,0.125925 0.642512,0.235836 0.102197,0.126148 0.139242,0.532884 0.06593,0.723921 -0.05206,0.135671 -0.332766,0.265463 -0.574122,0.265463 h -0.207336 z m 2.348514,6.5e-5 -0.0171,-1.080652 h -0.285355 -0.285353 l -0.03235,0.306653 c -0.01779,0.168659 -0.02626,0.654907 -0.01881,1.08055 l 0.01355,0.773896 0.321256,1.06e-4 0.321255,1.05e-4 -0.0171,-1.080655 z m 0.931206,0.905292 0.06109,-0.17523 h 0.49381 0.493811 l 0.06108,0.17523 c 0.05856,0.167972 0.07535,0.175231 0.40536,0.175231 h 0.344275 l -0.09856,-0.248243 c -0.05421,-0.136534 -0.246145,-0.616227 -0.42653,-1.065985 l -0.327971,-0.817742 -0.434547,-0.0158 -0.434546,-0.0158 -0.183486,0.483079 c -0.100917,0.265694 -0.289498,0.752497 -0.419069,1.081784 l -0.235584,0.598704 h 0.31989 c 0.302919,0 0.323131,-0.0093 0.380976,-0.175231 z m 0.224888,-0.609964 c 0,-0.118713 0.318793,-0.846706 0.354733,-0.810067 0.02557,0.02607 0.110659,0.224814 0.189089,0.441662 l 0.142601,0.394268 h -0.343212 c -0.188766,0 -0.343211,-0.01164 -0.343211,-0.02586 z"
       id="path1250" />
  </g>
</svg>
